<?xml version='1.0' encoding='utf-8'?>
<svg xmlns="http://www.w3.org/2000/svg" width="4e3" height="2667" version="1.1" viewBox="0 0 1058.3 705.64"><defs><linearGradient id="d" x1="529.48" x2="528.86" y1="354.72" y2="-8.7021" gradientUnits="userSpaceOnUse"><stop stop-color="#d45500" offset="0"/><stop stop-color="#d45500" stop-opacity="0" offset="1"/></linearGradient><linearGradient id="c" x1="533.27" x2="528.86" y1="702.01" y2="336.69" gradientUnits="userSpaceOnUse"><stop stop-color="#d4aa00" offset="0"/><stop stop-color="#d4aa00" stop-opacity="0" offset="1"/></linearGradient><linearGradient id="b" x1="528.53" x2="528.86" y1="600.95" y2="652.19" gradientUnits="userSpaceOnUse"><stop stop-color="#d45500" offset="0"/><stop stop-color="#d45500" stop-opacity="0" offset="1"/></linearGradient><linearGradient id="e" x1="-344.68" x2="-342.93" y1="342.34" y2="514.11" gradientTransform="matrix(.69386 0 0 .69386 766.14 240.39)" gradientUnits="userSpaceOnUse"><stop stop-color="#d4aa00" offset="0"/><stop stop-color="#d4aa00" stop-opacity="0" offset="1"/></linearGradient><filter id="i" x="-.041206" y="-.46286" width="1.0824" height="1.9257" color-interpolation-filters="sRGB"><feGaussianBlur stdDeviation="7.4151847"/></filter><filter id="h" x="-.044632" y="-.52963" width="1.0893" height="2.0593" color-interpolation-filters="sRGB"><feGaussianBlur stdDeviation="4.330653"/></filter><filter id="a" x="-.032451" y="-.3501" width="1.0649" height="1.7002" color-interpolation-filters="sRGB"><feGaussianBlur stdDeviation="2.8291352"/></filter><filter id="g" x="-.054643" y="-.68659" width="1.1093" height="2.3732" color-interpolation-filters="sRGB"><feGaussianBlur stdDeviation="4.4930853"/></filter><filter id="f" x="-.050355" y="-.63271" width="1.1007" height="2.2654" color-interpolation-filters="sRGB"><feGaussianBlur stdDeviation="4.1405045"/></filter></defs><g><rect x=".0004069" y=".00058594" width="1058.3" height="705.64" fill="#025" style="font-variation-settings:'wght' 700;paint-order:markers fill stroke"/><rect x=".0004069" y=".00058594" width="1058.3" height="705.64" fill="url(#d)" style="font-variation-settings:'wght' 700;paint-order:markers fill stroke"/><rect x=".0004069" y=".00058594" width="1058.3" height="705.64" fill="url(#c)" style="font-variation-settings:'wght' 700;paint-order:markers fill stroke"/><ellipse cx="527.12" cy="537.98" rx="62.527" ry="59.255" fill="#d45500" style="paint-order:markers fill stroke"/><ellipse cx="527.12" cy="537.98" rx="62.527" ry="59.255" fill="url(#e)" style="paint-order:markers fill stroke"/><path d="m40.802 488.91c-14.981-0.79945-28.277-0.68604-40.802 0.01964v216.71h1058.3v-202.98c-10.161-3.4123-33.724-0.84467-48.011-1.8877-18.136-1.3241-29.401 4.6005-39.616 18.503-4.9298 6.7094-22.067 6.1935-31.076 0.23719-3.8874-2.57-8.0312-4.3187-13.047-4.7444-5.1044-0.43328-10.55-1.6698-13.996-7.8285-6.2937-11.249-23.066-9.4418-38.667-9.0144-14.646 0.40117-31.657-2.3826-39.379 8.3028-2.8992 4.0119-6.2231 7.7694-11.624 8.7772-4.5606 0.85111-8.7917 1.5593-12.686 7.4781-2.7905 4.2417-7.0017 6.8147-18.865 6.2802-7.367-0.33188-18.796 2.3989-22.061-0.94878-3.4524-3.539-15.749-1.8586-25.145-1.8976-7.7832-0.0323-14.069 4.1462-20.876 9.4888-15.101 11.853-29.483 16.152-42.225 16.842-12.479 0.67566-23.5-0.50212-44.834 9.9637-14.161 6.9466-28.44 13.52-41.988 15.419-13.833 1.9386-26.579 3.9711-45.546 7.1164-20.727 3.4371-53.918 5.4992-95.363-10.675-18.613-7.2636-39.182-15.311-66.422-15.894-27.857-0.59557-70.968-12.599-82.078-8.7772-40.703 14.001-68.271 7.002-94.414-2.3725-13.862-4.9707-22.821-13.985-44.36-12.572-12.307 0.80692-25.093 2.9226-35.346-5.9309-7.785-6.7224-17.34-8.9508-27.992-7.9468-15.172 1.43-21.395-3.553-31.787-14.114-7.7814-7.9077-14.046-16.696-30.127-17.554z" fill="#702700" style="font-variation-settings:'wght' 700;paint-order:markers fill stroke"/><path d="m19.316 542.02c-6.7689 0.0436-13.136 0.59687-19.315 1.3653v162.26h1058.3v-158c-9.8271-0.0384-20.782-1.7964-31.26-3.328-30.399-4.4434-46.032 5.8939-50.49 4.8643-6.3252-1.4609-13.208 2.1613-20.129 5.3676-10.566 4.8947-23.127 6.8796-35.561 6.2063-15.102-0.81774-30.232-0.70283-39.922 5.2002-12.189 7.4255-22.311 3.5418-32.71-1.6774-17.208-8.6373-52.749-6.4895-65.251 0.67076-14.878 8.5211-30.27 9.7092-45.29 6.7097-17.048-3.4046-34.957 1.6961-53.341 8.2191-10.472 3.7156-19.91 8.2286-32.709 9.2258-11.536 0.89875-21.495 0.80125-36.677 3.3543-11.147 1.8746-26.587 3.1594-23.366 10.082l-348.95 1.4232c-13.454-10.975-25.055-23.394-55.035-27.518-13.185-1.8134-26.958-0.0608-39.141-5.6932-9.7334-4.4997-19.056-6.2965-40.327-6.642-12.759-0.20721-25.442 2.2191-40.802-7.8285-9.0044-5.8902-17.298-11.099-26.331-12.572-7.7844-1.2698-14.955-1.736-21.724-1.6924z" fill="#502d16" style="font-variation-settings:'wght' 700;paint-order:markers fill stroke"/><path d="m979.16 577.23c-10.986-0.2971-22.738 1.0995-34.069 6.336-31.396 14.509-56.226-0.74508-69.98 1.4232-27.432 4.3245-48.33 11.158-53.849 21.113l3.6499 99.545h233.43v-120.69c-13.412 1.5938-31.279-0.46763-49.711-3.8985-8.2621-1.5379-18.48-3.5285-29.466-3.8256z" fill="#381900" style="font-variation-settings:'wght' 700;paint-order:markers fill stroke"/><rect x=".0004069" y="598.74" width="1058.3" height="106.9" fill="#a40" style="font-variation-settings:'wght' 700;paint-order:markers fill stroke"/><rect x=".0004069" y="598.74" width="1058.3" height="106.9" fill="url(#b)" style="font-variation-settings:'wght' 700;paint-order:markers fill stroke"/><path d="m102.2 612.9c-18.577-0.48532-40.972-0.46009-54.226 1.0284-11.787 1.3237 58.367 8.4717 85.547 1.0067 2.0157-0.55359-12.744-1.5497-31.322-2.035zm590.52 0.19637c-22.796 0.11045-45.96 1.0115-44.869 2.4903 2.1663 2.9365 77.657 6.2594 87.535-0.23719 2.5596-1.6834-19.869-2.3635-42.666-2.2531zm96.484 0.23772c-12.185 0.0235-24.36 0.6003-24.166 1.541 0.51176 2.4777 48.098 2.6712 48.393 0.23719 0.15394-1.2718-12.042-1.8016-24.227-1.7782zm-268.55 1.4847c-13.132 0.24043-22.592 0.96093-24.384 2.4283-6.1478 5.0363 102.56 10.619 133.79 1.186 2.4313-0.73436-70.012-4.3355-109.41-3.6142zm404.39 0.42375c-39.284 0.2645-78.489 1.7506-78.404 3.9021 0.20703 5.2528 157.87 6.6714 157.28-0.47439-0.2279-2.7351-39.59-3.6922-78.873-3.4277zm-894.06 7.923c-13.526-0.24561-28.261 0.39952-28.268 2.8401-0.010399 3.5375 32.973 3.4563 49.282-0.33538 4.829-1.1227-7.4878-2.2592-21.014-2.5048zm771.45 6.3722c-35.094 0.98701-64.903 4.6379-64.442 7.1613 0.76771 4.2024 168.13 4.6204 160.6 1.6604-20.682-8.132-61.062-9.8087-96.156-8.8217zm-691.69 3.2473c-9.8693 0.57061-15.434 1.8673-14.131 4.2917 1.5578 2.8983 36.817 4.5192 26.9 6.4518-28.563 5.5662-82.934-3.0482-123.52 3.6272v58.487h305.63l-59.049-69.237c-37.873-0.50969-106.22-5.3323-135.83-3.6205zm947.58 2.1234c-50.344 0.12011-123.23 1.7369-122.97 7.0094 0.20696 4.1682 58.524 5.2431 57.407 9.4888-0.56159 2.1355-57.251-0.77264-106.09-0.67076-45.46 0.0948-82.746 3.7821-68.068 7.7298 20.55 5.527 44.083 9.1499 27.321 9.7839-14.017 0.53022-26.661 1.4349-42.7 0-7.023-0.6283-2.97-2.2964 2.8898-5.3294 5.2014-2.6922-94.004-8.1726-141.9-3.9222-46.974 4.1684-45.586 25.454-44.367 46.645h438.48zm-402.62 0.71675c-35.105 0.52103-71.369 2.4477-74.761 5.3439-4.5129 3.8527 138.83 5.9574 142.57-2.2536 1.2429-2.7266-32.703-3.6113-67.808-3.0902z" fill="#520" style="font-variation-settings:'wght' 700;paint-order:markers fill stroke"/><path d="m590.06 88.413c-15.667-0.32554-7.7441-5.4472 2.3722-6.8794 49.253-6.9731 103.6-8.1188 164.63-7.3538 15.23 0.1909 29.405 0.8162 48.393-4.7444 10.974-3.2139 28.189-3.9233 50.765-3.7955 42.248 0.23917 58.98 2.3103 41.988 5.4561-38.136 7.0602-78.124 14.709-61.915 16.368 54.835 5.614 201.66 1.1794 173.17 5.4561-76.307 11.456-156.24 12.817-246.23 9.726-9.6928-0.33289-17.165-1.3664-28.941-5.6933-12.097-4.4446-25.742-5.4515-46.495-6.1677-30.379-1.0484-59.243-1.5724-97.735-2.3722z" fill="#d45500" filter="url(#i)" opacity=".82543" style="mix-blend-mode:normal;paint-order:markers fill stroke"/><path d="m51.24 57.407c-23.916-9.7676 109.54-11.496 194.52 0-61.984 10.48-169.79 10.101-194.52 0z" fill="#d45500" filter="url(#g)" style="paint-order:markers fill stroke"/><path d="m711.1 263.71c-1.3037-3.914 68.208-16.012 104.5-0.67096 8.265 3.4936 92.239-2.8348 104.33 7.3806 10.653 8.997-205.56 3.12-208.84-6.7096z" fill="#d45500" filter="url(#a)" style="paint-order:markers fill stroke"/><path d="m549.17 495.55c13.998-6.8213 54.629-3.8859 87.06-4.27 9.849-0.11665 16.91-1.0872 23.01-3.5583 19.676-7.9703 48.621-1.5122 68.794 1.1861 18.608 2.489 52.191 4.0416 53.375 8.0655 3.405 11.574-246.66 5.6054-232.24-1.4233z" fill="#d45500" filter="url(#h)" style="mix-blend-mode:normal;paint-order:markers fill stroke"/><path d="m329.26 504.33c-23.916-9.7676 109.54-11.496 194.52 0-61.984 10.48-169.79 10.101-194.52 0z" fill="#d45500" filter="url(#f)" style="mix-blend-mode:normal;paint-order:markers fill stroke"/><path transform="matrix(-2.4607 0 0 1.4316 2400.2 -171.6)" d="m746.21 309.26c-1.3037-3.914 68.208-16.012 104.5-0.67096 8.265 3.4936 92.239-2.8348 104.33 7.3806 10.653 8.997-205.56 3.12-208.84-6.7096z" fill="#d45500" filter="url(#a)" style="paint-order:markers fill stroke"/><path d="m328.99 29.029c-16.056 0.82711-31.432 9.5065-35.113 23.054l-7.8838-1.2578 6.2063 5.2839c-2.0033 4.6697-3.6391 10.441-5.1997 16.438l-9.3937 0.41961 8.9741 4.6126c-0.98951 6.8423-1.9195 13.824-1.5937 23.735l-10.484 1.2578 10.568 4.1935c-0.63588 6.4007-0.40604 15.183-0.16795 23.987l-10.987 0.41961 10.484 5.6193c-0.49544 8.2706-0.5941 17.731-0.41909 28.013l-10.735 0.33538 10.4 5.6193c-0.33896 8.0848-0.62356 16.306-0.0842 26.586l-10.484 0.67128 10.4 4.8643c-0.62973 11.002-0.12053 25.706 0.0837 39.419l-9.1416 0.75499 9.0578 4.1098c0.1957 18.316 0.39134 39.156 0.58704 60.806-27.451-12.328-33.33-32.553-36.064-53.928l8.6388-6.5417-9.1421-0.83871c-1.1498-10.566-1.1629-20.32-0.755-29.774l8.555-6.5417-8.7225-1.1741 0.16743-35.645 8.7225-5.3676-8.7225-0.92294-0.39222-22.295 5.456-4.8628-5.9304-0.59325c-0.29434-5.2177-1.1859-9.3909-2.3725-13.047l6.5236-6.2859-9.0144-0.71211c-5.6109-25.862-45.59-29.812-57.526 3.7956l-7.3541-0.59273 6.4053 5.5743c-2.0847 6.8841-3.5559 14.791-4.9816 22.773l-7.1169 0.35605 6.998 4.0323c-0.83279 4.9328-0.98936 17.641-1.4232 27.162l-7.3541-0.11885 7.2352 4.7444c-0.11023 9.6617-0.081 19.789 0.47439 31.669l-9.1643 2.8432 9.2832 2.3756c-0.39509 14.344 1.2389 29.313 3.7403 44.549l-8.9591 3.2515 10.082 2.2536c2.2228 9.4272 3.1587 18.094 10.027 30.266l-8.9591 4.6054 11.268 1.3048c5.1865 10.606 13.738 19.289 21.943 28.17l-6.2864 5.9898 10.556-2.1348c9.3578 6.1495 17.882 12.933 30.691 16.457l-0.80099 3.8845 3.2024-2.8468c10.719 4.146 21.142 4.7334 31.551 5.1599v31.906l-11.268 2.2536 11.624 3.2024c-0.27619 8.8671 0.11307 18.899 0.23719 28.466l-12.217 2.3725 12.335 3.4396c-0.54681 9.9535-0.18754 21.266-0.11834 32.143l-11.15 3.084 11.505 3.3207c-0.2498 9.6858-0.42083 19.623-0.11834 31.076l-11.742 2.2536 11.861 3.5584c0.87886 19.857 0.33883 38.295 2.683 59.618-4.8597-9.4732-9.5964-19.562-15.097-25.832 2.3564 18.95 6.6078 35.488 11.407 51.329-14.464-33.097-28.915-65.891-42.942-89.573 3.7058 28.348 5.61 56.211 20.464 87.56-18.479-32.538-33.201-55.791-47.974-79.173 3.9866 34.871 19.131 67.772 38.245 99.973-21.745-25.019-47.309-47.746-73.47-70.115 15.111 28.221 33.986 55.312 58.038 80.851-31.882-25.953-59.683-41.986-80.18-40.258 22.792 11.212 42.494 27.628 61.057 45.961-27.04-14.57-50.168-19.945-72.799-24.155 22.601 11.507 45.217 22.977 65.419 40.593-30.351-13.047-52.509-18.708-64.748-15.432 12.31 3.7469 22.69 8.5548 30.529 14.761-12.395 0.26239-25.739 0.37735-34.219 2.3482-19.994 4.6467-40.6 8.4303-61.482 11.83 2.5152-1.468 4.6085-3.2482 5.9392-5.3263 3.4696-5.4184 3.3587-12.576 3.7956-19.452 16.011 0.7642 38.198-24.906 30.838-35.821-4.1331-6.129-12.763-9.1426-26.213 15.064-2.2622 4.0714-4.0499 16.884-5.2188 12.928-3.0141-10.199-5.3259-15.55-11.268-20.045 3.8001 1.069 21.757-19.858 12.573-27.873-5.2202-4.5559-12.76 3.9666-12.782 11.527-1.3686-9.3722-14.853-3.5361-9.5167 15.279-3.6898 3.1438-7.5295 5.9782-9.4888 12.691-2.5378-1.0216-3.3702-2.7196-3.3207-4.7444 0.58597-23.975-11.603-34.67-18.622-26.332-7.6315 9.0658 1.2069 37.081 21.113 40.802-0.25982 6.4614-1.7043 11.738 5.9304 26.094-2.7612-0.55727-5.3411-0.66143-7.4724 0.35605-8.0878-18.506-17.076-34.836-29.06-25.027-4.0455 3.3115-4.6941 13.974 20.876 25.976 2.108 0.98944 2.9664 2.8013 3.0835 4.8633 0.07897 1.3903 1.1493 2.4128 2.8768 3.082-18.132 2.7262-36.366 5.3147-54.489 8.0719v31.203h1058.3v-16.189c-21.915-2.5417-49.72-1.8182-78.381 0.0703 3.1275-2.6448 4.5463-3.577 6.2337-4.3868 28.247-4.2948 23.926-21.433 21.172-24.908-3.1489-3.9732-15.221-5.3105-23.129 20.223-2.7454 0.83423-5.2242 4.3372-7.8285 6.5825 6.2744-10.9 6.0293-20.823 2.8468-30.305 8.3825-6.8717 19.831-14.99 8.7772-24.849-5.0294-4.4859-11.002 1.4487-12.692 18.207-3.8676-4.1548-8.5273-4.6992-13.818-2.3719 0.13338-8.0659 2.3081-25.974-9.726-24.138-5.9205 0.90344-11.229 18.066 3.6174 28.763-7.9627 9.8432-5.2133 28.602 0.9617 38.949-34.743 2.8614-68.725 6.5854-93.063 7.4647 1.2094-0.94159 1.8807-2.1379 1.7348-3.608-1.1958-12.049-6.0212-15.068-10.568-18.787 5.487-0.35003 12.286-10.371 6.2063-15.935-4.4178-4.0435-17.711-0.0366-11.741 14.425-1.4105-0.0575-2.6021-0.86087-4.5294 0.83871 0.81275-3.925-4.2823-16.089-12.245-9.3932-3.1429 2.6429-1.44 14.089 7.3804 15.935-2.4511 0.63958-6.955 6.6067 0.47439 16.066-1.1866-0.14104-2.2977-0.30668-3.3295-0.49868-73.844-13.742-165.95-26.679-259.29-36.192-2.0116-0.20501-4.0154-0.42051-6.0126-0.64441 6.5647-1.6526 13.134-4.1786 19.141-7.8166 8.6759-5.254 14.965-10.51 18.681-19.63 12.63 3.2898 31.745-5.6773 25.738-17.139-3.3312-6.357-13.909-1.4586-23.722 9.9038 3.7482-15.009-2.1698-17.936-6.9391-22.299 4.5355-2.6356 4.5875-14.842-1.957-15.656-3.8996-0.48507-7.414 1.853-4.6256 14.411-6.3603 3.2879-12.993 4.5253-17.377 22.714-0.58921-0.59838-1.2097-0.50081-1.8381-0.2372-0.13578-11.889-7.6946-31.028-17.673-25.205-10.47 6.1105 0.56598 29.112 18.562 32.915-0.0838 3.5156-0.59858 6.7435 0.65267 11.149-10.223-6.3223-23.569-4.3814-25.142 9.1488-1.6462-0.76841-2.8418-0.5226-3.8582 0.12609 0.30213-5.9346-2.591-11.453-9.5612-16.439 6.2196-1.7986 10.631-12.502 5.7035-17.11-4.1259-3.8582-16.701 2.3491-11.407 14.929-2.0893-0.20948-3.5542 0.31018-4.6969 1.2051-0.46622-9.8006-8.6607-13.021-12.343-10.026-3.5596 2.8958 0.0572 14.848 6.4027 16.112-0.32553 4.0542-3.034 7.8688 0.0517 13.317-22.566-2.3816-45.677-3.4375-71.374 0.34055 2.1913-3.4466 21.659-11.692 39.378-19.452-20.101-0.65349-39.887 3.7256-59.542 10.2 22.078-11.113 35.426-25.5 50.765-39.141-23.126 6.8103-45.719 15.396-66.185 31.076 18.931-26.597 41.416-47.61 63.338-69.505-28.481 15.449-55.679 33.848-79.706 59.542 16.514-36.057 38.033-66.107 58.831-97.023-25.331 23.436-51.202 43.712-73.538 84.688 11.268-43.254 25.874-71.821 39.141-106.27-16.227 23.494-27.183 30.98-54.489 88.123 4.9495-19.937 3.3458-48.394 4.2778-73.554l13.503-4.193-13.503-3.2711 0.0837-26.335 13-4.1935-13-3.1032c0.28737-12.707-0.0481-19.81-0.16795-28.851l13.587-3.6902-13.503-3.4386c0.29944-9.6344 0.13383-16.246 0-23.064 18.148 1.652 34.659-1.128 49.232-7.2967l10.232 4.6969-4.6126-7.3809c11.196-5.3148 21.047-11.055 28.013-19.709l12.077 2.097s-7.2224-7.5235-6.9613-7.2967c1.4126 1.2272 19.658-28.869 18.787-29.522l11.741-1.7616-9.2253-5.0317c3.74-9.3323 6.0643-19.608 7.7995-30.277l11.323-4.1935-10.232-2.4324c1.7105-7.1743 2.417-19.119 3.2711-30.361l9.7291-5.1997-9.1421-1.7616c0.40689-9.701 0.36348-19.402 0.33538-29.103l8.8904-6.0389-8.6388-1.5095c0.40076-10.273-0.0214-18.626-0.25166-27.426l7.045-5.3676-7.2967-0.83871c0.12144-7.604-0.60365-15.716-1.5932-23.987l6.5417-5.9547-7.5484-0.67127c-0.53379-6.708-2.6529-12.425-4.9485-18.032l5.9552-5.7872-9.1421-0.4191c-14.34-28.522-48.594-13.303-52.754 4.361l-9.5612-0.67076 7.5484 5.2839c-4.3968 7.9629-4.2351 18.743-5.1997 28.851l-8.555 0.16743 8.0517 5.3676c-0.7071 9.2932-0.77036 19.874-0.58704 30.948l-9.4775 0.75499 9.1416 4.6969c0.50094 9.4267 0.11937 20.913 0 31.787l-9.9803 0.25166 9.5612 5.3676c-0.0568 9.6433-0.61848 18.277-1.342 26.587l-9.7286 0.33538 8.5545 4.948c-4.8729 25.302-15.592 47.215-46.883 57.2 0.0882-9.0816 0.25555-18.084-0.0837-27.593l10.4-5.0322-10.652-0.92242 0.16795-25.497 11.154-5.6193-11.322-1.6774c0.42912-9.6353 0.62851-19.501 0.16795-30.026l10.987-5.703-10.903-1.1741c0.26452-9.6107 0.0879-19.442-0.0837-29.271l12.413-6.3738-12.329-1.1746c0.73055-9.76 0.15786-15.936 0.0837-23.483l13.251-6.458-13.167-0.50333c0.11751-8.3197 0.50205-16.105 0-25.664l11.909-6.3743-11.742-0.92243-0.16743-18.871 10.987-7.213-11.49-0.41961c0.25416-5.5938-0.19267-14.342-0.33538-21.722l11.993-6.8771-12.413-0.83871c0.0608-5.6474-0.12483-12.133-1.1741-21.555l10.148-7.0451-11.49-0.41961c-0.55684-5.5887-1.4192-7.8173-2.1807-11.154l8.1354-8.3871-10.316 1.1741c-6.4028-17.863-23.14-24.888-39.197-24.061z" fill="#222b00" style="font-variation-settings:'wght' 700;paint-order:markers fill stroke"/><path d="m328.99 29.029c-10.834 0.5581-21.358 4.6913-28.189 11.483l0.54105-0.33796c-3.1896 7.0957-5.1353 13.336-6.5422 19.206 5.7033-8.8638 10.776-17.685 24.49-27.09-6.0372 14.532-10.646 30.32-11.323 48.225-5.0422 133.35 1.1411 266.06 3.7367 400.09 6.6254-133.96 6.6364-272.33 9.9632-408.49 0.56323-23.053 4.9375-28.374 7.9385-40.077 3.2228 24.727 2.7488 54.89 2.8515 82.36l1.6774 448.87c0.0731 19.565 0.0304 39.651 4.3615 58.038 8.0596-40.749 10.58-89.956 12.806-138.48 4.7168-102.81 4.8218-201.51 4.4064-308.48-0.19402-49.971 3.6055-102.31-13.878-141.5 3.7371 0.40082 9.7278 5.7124 13.403 14.352 14.596 34.31 9.5001 78.966 9.6072 120.98v219.07c3.1895-10.319 6.0213-21.21 11.402-28.022 0.0894-8.8627 0.2413-17.663-0.0899-26.947l10.4-5.0322-10.652-0.92242 0.16795-25.497 11.154-5.6193-11.322-1.6774c0.42912-9.6353 0.62851-19.501 0.16795-30.026l10.987-5.703-10.903-1.1741c0.26452-9.6107 0.0879-19.442-0.0837-29.271l12.413-6.3738-12.329-1.1746c0.73055-9.76 0.15786-15.936 0.0837-23.483l13.251-6.458-13.167-0.50333c0.11751-8.3197 0.50205-16.105 0-25.664l11.909-6.3743-11.742-0.92243-0.16743-18.871 10.987-7.213-11.49-0.41961c0.25416-5.5938-0.19267-14.342-0.33538-21.722l11.993-6.8771-12.413-0.83871c0.0608-5.6474-0.12483-12.133-1.1741-21.555l10.148-7.045-11.49-0.41961c-0.55684-5.5887-1.4192-7.8173-2.1807-11.154l8.1354-8.3871-10.316 1.1741c-6.4028-17.863-23.14-24.888-39.197-24.061zm-115.05 70.015c-0.82954 0.0176-1.6619 0.06946-2.4949 0.15658 3.3768 21.371 1.4805 48.551 1.9337 74.208 0.74477 42.157-5.6196 84.456 15.064 126.68 8.3989 17.144 25.069 29.231 40.545 31.143 1.062-4.2176 2.5595-5.6046 4.0582-6.9836-38.079-19.966-41.748-46.546-45.196-73.62 9.32 28.558 16.381 54.676 49.508 64.683 1.3526-3.0232 2.9383-5.8133 5.0007-8.1266-25.989-12.391-31.678-32.213-34.355-53.138l8.6388-6.5417-9.1421-0.83871c-1.1498-10.566-1.1629-20.32-0.755-29.774l8.555-6.5417-8.7225-1.1741 0.16743-35.645 8.7225-5.3676-8.7225-0.92294-0.39222-22.295 5.456-4.8628-5.9304-0.59325c-0.29434-5.2177-1.1859-9.3909-2.3725-13.047l6.5236-6.2859-9.0144-0.71211c-2.8579-13.173-14.632-20.661-27.075-20.397zm-3.2122 0.2403c-1.7977 0.23151-3.5945 0.6274-5.3661 1.1932-6.2895 12.259-9.9639 28.35-11.316 47.43-3.6186 51.056 0.47836 77.172 2.6092 110.9 1.2543 19.855 9.4772 34.881 14.826 43.53-11.551-22.345-11.832-32.717-12.573-44.953-2.9083-48.05-1.0621-93.266 4.5072-132.84 2.0695-14.706 4.8298-19.139 7.3122-25.257zm253.25 38.493c-2.9596-0.0277-5.9188 0.42671-8.7602 1.2656-5.6208 9.0385-10.235 17.622-11.207 35.743-1.6203 30.226-1.9301 64.88-1.8448 99.973 0.0876 36.092-8.0604 46.621-14.761 60.219 6.092-8.7209 16.505-16.59 18.62-61.896l4.361-93.432c1.0354-22.181 5.3761-32.882 8.8904-38.58 5.0457 21.016 3.7469 44.366 3.8582 66.593 0.17039 34.05 2.4911 69.79-4.1935 101.32-10.719 50.553-45.415 72.208-82.193 79.173-1.8986 0.35958 0.0783 2.5827 3.0194 2.5161 47.443-1.0733 84.218-23.598 96.45-94.774 3.9218 67.169-32.968 96.615-69.277 110.54 13.52 1.2779 53.63-8.9318 79.531-52.818l-1.1121-0.60668c3.74-9.3323 6.0643-19.608 7.7995-30.277l11.323-4.1935-10.232-2.4324c1.7105-7.1743 2.417-19.119 3.2711-30.361l9.7291-5.1997-9.1421-1.7616c0.40689-9.701 0.36348-19.402 0.33538-29.103l8.8904-6.0389-8.6388-1.5095c0.40076-10.273-0.0214-18.626-0.25166-27.426l7.045-5.3676-7.2967-0.83871c0.12144-7.604-0.60365-15.716-1.5932-23.987l6.5417-5.9547-7.5484-0.67127c-0.53379-6.708-2.6529-12.425-4.9485-18.032l5.9552-5.7872-9.1421-0.4191c-5.7171-11.371-14.599-15.79-23.478-15.873zm-29.186 282.64-1.3555 0.23099 2.1038 0.96583zm-58.548 17.082c-3.5358 8.2928-7.8334 15.061-12.244 21.604-1.6594 57.582-3.6153 115.31-7.045 173.78 5.964-9.8055 10.116-22.441 15.033-35.367-0.0626 0.13076-0.12536 0.26197-0.1881 0.39326 4.9495-19.937 3.3458-48.394 4.2778-73.554l13.503-4.193-13.503-3.2711 0.0837-26.335 13-4.1935-13-3.1032c0.28737-12.707-0.0481-19.81-0.16795-28.851l13.587-3.6902-13.503-3.4386c0.11286-3.6313 0.15958-6.8333 0.16691-9.7787z" fill="#450" style="font-variation-settings:'wght' 700;paint-order:markers fill stroke"/><path d="m335.11 29.099c9.0343 23.391 10.389 41.079 11.94 60.81 4.8752 62.009 2.2577 120.5 2.3487 180.15 0.0877 57.495 0.3645 115.29 3.4499 174.76 0.20518-5.7521 0.39743-11.496 0.57723-17.234v-3e-3l0.50177-73.485 1.3627-133.42c-8e-3 -5.1027 0.14897-9.91 0.13591-15.045-0.29727-38.186 0.88725-76.127-1.834-114.71-1.1763-16.681-3.2048-32.782-7.5747-47.273-1.2385-3.6932-2.6282-7.2928-4.1873-10.788 0.12153 0.01304 0.24541 0.03141 0.37156 0.05478-0.42047-1.0109-0.85578-2.0116-1.3069-3.0014-1.9048-0.39414-3.8397-0.66224-5.7852-0.80925zm6.8497 1.0433c1.26 1.4081 2.479 2.8428 3.653 4.3114 3.2907 2.229 7.0309 6.6648 9.6211 12.753 14.596 34.31 9.5001 78.966 9.6072 120.98v79.125c8e-3 6.1816 8e-3 12.364 0 18.551v120.62c0.75923-2.0263 1.4752-4.1828 2.1792-6.3748 0.53042-1.6515 1.0537-3.3231 1.5844-4.9739 2.139-6.6539 4.3905-12.971 7.6429-16.284 0.0898-8.7313 0.23232-17.41-0.094-26.558l10.4-5.0322-10.652-0.92242 0.16795-25.497 11.154-5.6193-11.322-1.6774c0.42912-9.6353 0.62851-19.501 0.16795-30.026l10.987-5.703-10.903-1.1741c0.26452-9.6107 0.0879-19.442-0.0837-29.271l12.413-6.3738-12.329-1.1746c0.73055-9.76 0.15786-15.936 0.0837-23.483l13.251-6.458-13.167-0.50333c0.11751-8.3197 0.50205-16.105 0-25.664l11.909-6.3743-11.742-0.92243-0.16743-18.871 10.987-7.213-11.49-0.41961c0.25416-5.5938-0.19267-14.342-0.33538-21.722l11.993-6.8771-12.413-0.83871c0.0608-5.6474-0.12483-12.133-1.1741-21.555l10.148-7.045-11.49-0.41961c-0.55684-5.5887-1.4192-7.8173-2.1807-11.154l8.1354-8.3871-10.316 1.1741c-4.6696-13.027-14.836-20.291-26.226-22.947zm-22.544 0.32866c-6.9442 1.7591-13.291 5.0055-18.018 9.462-0.0392 0.09291-0.0787 0.18561-0.11782 0.27854l0.061-0.03772c-0.34471 0.76686-0.67513 1.5237-0.99167 2.2712-0.58359 1.4171-1.1533 2.8375-1.7002 4.2638-1.6691 4.462-2.872 8.6036-3.8272 12.575 2.0652-3.74 4.5432-7.3465 7.3318-10.853 1.9499-2.4518 4.0517-4.8544 6.2699-7.2197 3.4285-3.6558 7.1356-7.222 10.992-10.74zm-103.89 68.581c2.9077 3.4955 5.4432 8.2935 6.7288 17.192 2.2227 15.385 2.4218 30.626 2.5161 45.793 0.17451 28.075-0.79471 62.407 3.1869 78.67 0.0559-37.742 2.3445-73.712 0.16794-113.22-0.57779-10.489-3.3803-19.458-6.4115-27.574-2.0061-0.50083-4.0823-0.78995-6.1882-0.8568zm7.8042 1.3105c11.907 13.24 14.751 25.725 15.363 38.024v94.605c0 37.982 10.876 62.599 34.554 70.619l-0.20102-1.7384h-5.1e-4c-18.134-12.361-22.722-29.68-25.043-47.829l8.6388-6.5417-9.1421-0.83871c-1.1498-10.566-1.1629-20.32-0.755-29.774l8.555-6.5417-8.7225-1.1741 0.16743-35.645 8.7225-5.3676-8.7225-0.92294-0.39222-22.295 5.456-4.8628-5.9304-0.59325c-0.29434-5.2177-1.1859-9.3909-2.3725-13.047l6.5236-6.2859-9.0144-0.71211c-2.1177-9.761-9.1312-16.401-17.685-19.078zm240.64 37.415c-0.61475-6e-3 -1.2296 9e-3 -1.8433 0.0444 9.4993 5.4417 11.728 19.853 12.606 35.468 2.2491 39.998 2.7092 79.35 0.97358 117.57 5.3289-33.809 5.1354-79.457 1.6774-123.12-0.64662-8.165-1.3575-16.327-4.8643-24.49 8.3054 5.7305 13.201 15.227 14.425 25.497 5.3884 45.199 4.6308 90.413 0.8387 134.53-3.2139 37.389-14.519 65.663-35.393 85.212l10.439-5.9392c8.3851-7.4225 16.542-16.914 23.634-28.931l-1.1121-0.60668c3.74-9.3323 6.0643-19.608 7.7995-30.277l11.323-4.1935-10.232-2.4324c1.7105-7.1743 2.417-19.119 3.2711-30.361l9.7291-5.1997-9.1421-1.7616c0.40689-9.701 0.36348-19.402 0.33538-29.103l8.8904-6.0389-8.6388-1.5095c0.40076-10.273-0.0214-18.626-0.25166-27.426l7.045-5.3676-7.2967-0.83871c0.12144-7.604-0.60365-15.716-1.5932-23.987l6.5417-5.9547-7.5484-0.67127c-0.53379-6.708-2.6529-12.425-4.9485-18.032l5.9552-5.7872-9.1421-0.4191c-5.7171-11.371-14.599-15.79-23.478-15.873z" fill="#b8812c" style="font-variation-settings:'wght' 700;paint-order:markers fill stroke"/><path d="m36.442 425.97c-1.3037-3.914 68.208-16.012 104.5-0.67096 8.265 3.4936 92.239-2.8348 104.33 7.3806 10.653 8.997-205.56 3.12-208.84-6.7096z" fill="#d45500" filter="url(#a)" style="paint-order:markers fill stroke"/><path d="m856.9 196.47c0.0698-0.0206 0.12219-0.0537 0.11639-0.0734-6e-3 -0.0197-0.15028-0.12835-0.32104-0.24125-0.36801-0.24336-0.40464-0.27551-0.22516-0.19766 0.69778 0.30259 1.1037 0.39905 1.5815 0.37583 0.36479-0.0178 0.6074-0.0845 0.78428-0.21614 0.076-0.0565 0.10796-0.10534 0.10091-0.15418-0.013-0.0898-0.22797-0.23551-0.50436-0.34186-0.25845-0.0994-0.22407-0.10717 0.0909-0.0204 0.7529 0.20734 1.4305 0.19032 1.9002-0.0478 0.16877-0.0854 0.40406-0.3217 0.40406-0.40557 0-0.17358-0.40235-0.37483-1.4469-0.72373-0.4138-0.13821-0.43058-0.1649-0.0505-0.0802 0.13986 0.0311 0.49157 0.0604 0.86584 0.072 0.53072 0.0165 0.66895 0.0102 0.8749-0.039 0.55141-0.13215 0.90073-0.41849 0.90073-0.73834 0-0.11001-9e-3 -0.11939-0.12619-0.13962-0.62638-0.10762-2.3051-0.51247-3.2022-0.77215-1.8884-0.54662-3.5577-1.2708-4.7138-2.0448-0.85091-0.56969-1.7456-1.5052-1.7082-1.5052 0.0818 0 1.6137 1.1455 2.6503 1.1529 0.15732 8.7e-4 0.34032-0.0158 0.40666-0.0379 0.2984-0.0986 0.41791-0.41174 0.25063-0.65674-0.072-0.10546-0.0774-0.12574-0.0282-0.10558 0.19402 0.0797 0.46659 0.1291 0.72273 0.13077 0.26838 2e-3 0.31008-8e-3 0.52034-0.11463 0.29661-0.15128 0.39175-0.28382 0.37652-0.52452l-0.0114-0.17241 0.37557-0.0166c0.3327-0.0147 0.40182-0.0288 0.60568-0.12405 0.26227-0.12254 0.39338-0.23417 0.48559-0.41342 0.0825-0.16036 0.0816-0.31034-2e-3 -0.44698l-0.0671-0.10864 0.29431-0.0176c0.74941-0.0446 1.2884-0.50437 1.1178-0.95325-0.019-0.05-0.0282-0.0974-0.0205-0.10511 8e-3 -8e-3 0.11802-0.0287 0.2449-0.0465 0.65063-0.0911 1.1691-0.58351 1.0561-1.003-0.0201-0.0745-0.0514-0.14477-0.0697-0.15608-0.0659-0.0407 3e-3 -0.0747 0.19603-0.0966 0.36442-0.0412 0.80613-0.31362 0.92922-0.57302 0.0819-0.17245 0.0698-0.36547-0.0301-0.48431-0.10717-0.12733-0.10569-0.14074 0.0152-0.14074 0.13145 0 0.50864-0.13859 0.67278-0.24723 0.29173-0.19305 0.4067-0.49002 0.28719-0.74187-0.0323-0.068-0.0529-0.12786-0.046-0.1329 7e-3 -6e-3 0.11881-0.0531 0.24837-0.10682 0.26224-0.10864 0.53812-0.33983 0.61052-0.5115 0.0854-0.20264 0.0411-0.44542-0.11365-0.62201-0.0456-0.052-0.0414-0.0592 0.0461-0.0783 0.4951-0.10785 0.82848-0.25833 1.0393-0.46919 0.25501-0.25501 0.27816-0.53525 0.0648-0.78449l-0.11842-0.13833 0.11046-0.0156c0.0608-9e-3 0.23199-0.0311 0.3805-0.0498 0.62202-0.079 1.0587-0.37411 1.059-0.71588 6e-5 -0.0719-0.0281-0.15756-0.0689-0.20942-0.0968-0.12305-0.44281-0.27948-0.72171-0.32629-0.52822-0.0886-0.52641-0.0857-0.0673-0.11103 1.2428-0.0686 2.4036-0.26124 3.0576-0.50739 0.46337-0.1744 0.8876-0.43909 0.7898-0.49275-0.26954-0.14784-2.3461-0.29388-4.3353-0.30487-0.59222-3e-3 -0.71315-0.0114-0.55521-0.0348 0.78747-0.11937 2.3252-0.43752 3.3033-0.68343 1.5139-0.38062 2.6722-0.84229 2.9835-1.1891 0.06-0.0668 0.0597-0.0697-6e-3 -0.105-0.10091-0.054-1.2489-0.0449-1.8756 0.0147-0.61862 0.0589-1.4851 0.16587-1.8982 0.23428-0.15732 0.026-0.33902 0.0552-0.40379 0.0646-0.35994 0.0528-0.97358 0.15593-1.0136 0.1704-0.0255 9e-3 -0.45414 0.0855-0.95249 0.1697-0.49835 0.0841-0.94504 0.16028-0.99266 0.16928-0.0477 9e-3 0.0573-0.0297 0.2331-0.0859 0.93873-0.30024 2.4028-0.85004 3.2426-1.2177 0.77662-0.34002 1.8606-0.90096 2.2914-1.1857 0.56286-0.3721 1.0608-0.87613 1.0612-1.0742 1.2e-4 -0.0566-0.0183-0.0604-0.19088-0.0389-0.49304 0.0617-1.6018 0.41817-2.7067 0.87049-0.37727 0.15443-1.1478 0.47-1.7123 0.70125-1.6384 0.67119-3.3412 1.3073-3.3843 1.2642-9e-3 -9e-3 0.17051-0.10215 0.39746-0.20847 0.45968-0.21535 1.1611-0.5982 1.8333-1.0006 1.1481-0.68734 2.3879-1.7153 2.9801-2.4708 0.55587-0.70921 0.9327-1.5368 0.9327-2.0484v-0.1562l-0.20693 0.17864c-0.1138 0.0983-0.39798 0.35278-0.63154 0.56562-0.70267 0.64035-0.93575 0.84262-1.5338 1.3311-1.4683 1.1992-3.4611 2.5099-4.6204 3.0392-0.25658 0.11713-0.37816 0.12519-0.1526 0.0102 0.16156-0.0824 0.73364-0.51143 1.3054-0.97887 1.5978-1.3064 2.6986-2.9389 2.7966-4.1477 0.0224-0.27658-0.0236-0.64525-0.0851-0.68337-0.0155-9e-3 -0.0695 0.0546-0.11991 0.14244-0.3254 0.56705-1.3606 1.8407-2.2195 2.7307-1.1899 1.233-2.023 1.9502-3.3314 2.8678-1.0674 0.74859-2.1388 1.3816-4.4922 2.6541-0.89761 0.48533-1.7605 0.96778-1.9176 1.0721-0.32487 0.21574-0.45509 0.35872-1.2784 1.4038-0.82737 1.0502-1.2826 1.5673-2.1027 2.3882-1.3012 1.3025-2.2975 2.3054-3.6549 2.803-0.29948 0.10978-0.70844 0.0907-1.328-0.32451-0.22979-0.15399-1.117-0.65581-1.9499-1.1502-1.942-1.1528-2.328-1.3746-2.8192-1.6209-0.66717-0.33444-1.0936-0.49688-1.6141-0.61489-0.11229-0.0255-0.11787-0.0598-0.0171-0.10421 0.16842-0.0741 0.0869-0.30481-0.16911-0.47857-0.29133-0.19779-0.40692-0.22424-0.98731-0.22602l-0.52571-2e-3 0.18502-0.1778c0.1728-0.16607 0.18371-0.18586 0.16519-0.29999-0.0438-0.26972-0.40321-0.48121-0.81785-0.48121-0.29294 0-0.57621 0.0755-0.90172 0.24032l-0.26721 0.13531 0.0903-0.11206c0.1366-0.16943 0.31348-0.49361 0.38246-0.70096 0.0908-0.27297 0.0875-0.88148-6e-3 -1.0394-0.0852-0.14434-0.1715-0.17615-0.33012-0.12163-0.38192 0.1313-0.90431 0.59525-1.3343 1.185-0.13781 0.189-0.25579 0.33841-0.26221 0.33198-6e-3 -6e-3 0.0263-0.26704 0.0727-0.57918 0.13454-0.90583 0.15861-1.1471 0.15709-1.5741-2e-3 -0.46121-0.0455-0.7291-0.14984-0.91514-0.12431-0.22161-0.20546-0.19504-0.47359 0.15511-0.20506 0.26777-0.42268 0.64118-0.59814 1.0263-0.15851 0.34792-0.42966 1.1249-0.42966 1.2311 0 0.0332-0.0138 0.0688-0.0304 0.0792-0.0488 0.0301-0.0628-0.24009-0.10136-1.9497-0.0453-2.0145-0.0934-2.5097-0.26586-2.741-0.13215-0.1772-0.23599-0.1215-0.44697 0.23976-0.41098 0.70368-0.67646 1.8366-0.80934 3.454-0.0232 0.28341-0.0525 0.48783-0.0647 0.45426-0.0995-0.27202-0.32997-1.6994-0.48369-2.9968-0.13072-1.1033-0.27605-1.6877-0.54977-2.2104-0.13265-0.25335-0.42956-0.59101-0.51968-0.59101-0.12515 0-0.29023 0.84656-0.36264 1.8598-0.086 1.2033 0.1726 3.4834 0.4751 4.1892 0.10524 0.24556 0.0187 0.13203-0.23015-0.30197-0.43687-0.76179-0.60079-1.1286-1.1022-2.4662-0.34743-0.92684-0.55796-1.3893-0.78401-1.7221-0.16084-0.23686-0.53595-0.58962-0.61159-0.57518-0.0724 0.0138-0.0959 0.23231-0.0994 0.9187-0.0118 2.2922 0.88703 4.5534 2.4309 6.1156 0.99371 1.0055 2.2734 1.8084 4.4643 2.8009 1.8477 0.83699 2.7648 1.3428 3.7968 2.094 0.7208 0.52466 1.9435 1.1262 1.6427 1.458-0.37292 0.41144-0.53538 0.47414-0.87468 0.52825-0.33162 0.0529-1.0864-0.10762-1.4523-0.0125-0.56111 0.14593-1.0021 0.41553-1.6825 1.0285-0.35361 0.31858-0.48232 0.40504-0.82051 0.55109-0.88398 0.38177-1.3499 0.96767-1.3499 1.6975 0 0.38952 0.12142 0.69931 0.3636 0.92768 0.10774 0.10159 0.17479 0.0956 0.17479-0.0158 0-0.16085 0.18253-0.37455 0.42264-0.4948 0.48506-0.24294 1.585-0.33624 2.6563-0.22529 0.2591 0.0268 0.60837 0.0493 0.77618 0.0497 0.58771 2e-3 0.85875 0.0949 1.2308 0.42222 0.53286 0.46881 1.0586 0.49006 1.6214 0.76054 2.1096 1.0138 3.0284 1.1722 6.1468 1.7939 1.3558 0.27031 3.4209 0.45273 4.8976 0.24993 0.25104-0.0345 0.28105-0.032 0.41103 0.0344 0.14808 0.0755 0.51084 0.37509 1.0679 0.8818 0.41248 0.37517 0.78412 0.6467 1.1609 0.84815 0.3442 0.18401 0.83455 0.3604 1.002 0.3604h0.12169l-0.11415-0.11779c-0.0628-0.0647-0.10444-0.11777-0.0925-0.11777 0.0119 0 0.13981 0.0369 0.28421 0.0817 0.54015 0.16804 0.91076 0.2299 1.4402 0.24035 0.30338 6e-3 0.55539-6e-3 0.63171-0.0275z" stroke-width=".12718"/><path d="m564.27 146.22c-0.0326-4e-4 -0.0572 0.0536-0.0901 0.15039-0.19031 0.56019 3e-3 1.4728 0.5296 2.5083 0.35894 0.70493 0.90495 1.4372 1.471 1.9728l0.17936 0.16976-0.17566-0.0852c-1.0826-0.52495-2.2269-1.6284-4.2884-4.1352-0.33826-0.41136-0.48508-0.55808-0.52174-0.52142-0.0461 0.0461-0.0619 0.33984-0.0294 0.5515 0.0747 0.48776 0.28206 0.969 0.65072 1.5098 0.41486 0.60857 1.0806 1.328 1.6632 1.7972 0.33722 0.27162 0.94941 0.68573 1.269 0.85837 0.13449 0.0727 0.19844 0.12022 0.1692 0.12602-0.0698 0.0137-0.75117-0.22435-1.061-0.37069-0.93031-0.43945-2.5028-1.5823-3.6626-2.662-0.82117-0.76441-0.86426-0.80239-0.89159-0.78549-0.0935 0.0577 0.0349 0.60056 0.24291 1.0265 0.52254 1.0703 1.426 1.8647 3.0276 2.6624 0.28984 0.14434 0.65164 0.31466 0.80406 0.37854 0.15242 0.0639 0.27304 0.12022 0.26806 0.12513-0.0153 0.0153-0.56892-0.0926-0.91764-0.17886-0.67366-0.16648-1.7826-0.55781-2.8163-0.99383-1.0931-0.46105-1.4854-0.60845-1.7188-0.64578-0.10812-0.0173-0.11089-0.0159-0.0914 0.0469 0.17353 0.56036 1.1457 1.2904 2.4453 1.8362 0.40347 0.16946 1.2943 0.46724 1.5404 0.51495 0.36098 0.0701 0.23634 0.0852-0.55397 0.0682-0.84927-0.0185-1.1841-0.0326-1.9728-0.0833-0.63817-0.0411-1.3823-0.0518-1.4018-0.0203-0.0294 0.0476 0.11833 0.21562 0.28486 0.32407 0.57099 0.37174 1.6335 0.69812 2.8329 0.87014 0.43183 0.0619 0.49437 0.0762 0.34731 0.0794-0.12931 3e-3 -0.85905 0.12476-1.1438 0.19111-0.23924 0.0558-0.56793 0.17122-0.62694 0.22021-0.0948 0.0785-5e-3 0.2461 0.19519 0.36325 0.15276 0.0895 0.59118 0.24625 0.82829 0.29613 0.15795 0.0333 0.78913 0.12047 0.87201 0.12047 9.6e-4 0 9.6e-4 9e-5 3e-3 0l5e-5 5e-5c2e-5 1e-5 9e-5 0 1.2e-4 0l3e-5 5e-5c2e-5 3e-5 4e-5 0 5e-5 0v0c0 6e-3 -0.0743 0.0494-0.17565 0.10044-0.14227 0.0714-0.21681 0.12752-0.25319 0.19037-0.0491 0.0849-0.0494 0.0946-6e-3 0.20774 0.0905 0.23698 0.4573 0.46475 0.86635 0.53795 0.10031 0.018 0.16972 0.0339 0.17287 0.0393l5e-5 5e-5c1e-5 2e-5 4e-5 0 5e-5 0v6e-5 0 1.1e-4l-5e-5 5e-5c-2e-5 2e-5 -1e-4 0-1e-4 0 0 9.6e-4 -3e-3 9.6e-4 -5e-3 9.6e-4 -0.0731 4e-3 -0.21552 0.0819-0.26829 0.14726-0.0987 0.12224-0.0285 0.37009 0.14684 0.51806 0.11618 0.098 0.32367 0.1934 0.50152 0.23038l0.14226 0.0296-0.0945 0.11051c-0.17496 0.2044-0.15372 0.43305 0.0593 0.63816 0.11228 0.10813 0.40725 0.27421 0.48708 0.27426 0.0446 3e-5 0.0435 6e-3 -0.0227 0.13391-0.0906 0.1738-0.0953 0.298-0.0176 0.46474 0.037 0.0795 0.10837 0.18587 0.15855 0.2364 0.10434 0.10523 0.35825 0.23376 0.51293 0.2599 0.10397 0.0176 0.10497 0.019 0.0892 0.11795-0.0523 0.32692 0.27419 0.67084 0.72689 0.76579 0.10157 0.0213 0.15103 0.044 0.14278 0.0655-0.14018 0.3653 0.15417 0.74526 0.60936 0.78654l0.16252 0.0148-0.0175 0.1273c-0.0464 0.33688 0.26001 0.60549 0.73118 0.64113l0.20115 0.0152v0.0854c0 0.0473 0.034 0.13896 0.0764 0.20554 0.14787 0.23275 0.45251 0.38163 0.80192 0.39175 0.11896 3e-3 0.21895 8e-3 0.2223 9e-3 2e-5 1e-5 1e-4 9e-5 0 0l5e-5 5e-5c3e-3 3e-3 -6e-3 0.0345-0.0202 0.0709-0.0189 0.0495-0.014 0.0978 0.0176 0.17689 0.0652 0.16289 0.20267 0.22588 0.49604 0.22702 0.12634 0 0.28139-0.0101 0.34456-0.0228 0.10459-0.0215 0.1148-0.019 0.1148 0.0302 0 0.0711 0.0935 0.18727 0.19091 0.23767 0.14143 0.0732 0.37024 0.079 0.62118 0.0157 0.22829-0.0575 0.60847-0.22289 0.75941-0.33035 0.044-0.0314 0.0851-0.052 0.0911-0.046s-6e-3 0.0705-0.0289 0.14319c-0.0504 0.16735-0.0285 0.19082 0.17165 0.18499 0.44927-0.0131 0.97102-0.40809 1.5074-1.141 0.13101-0.17903 0.24205-0.32165 0.24676-0.31696 5e-3 5e-3 -0.0899 0.19916-0.21014 0.43213-0.17126 0.33174-0.23492 0.48787-0.29345 0.72014-0.0411 0.16312-0.0969 0.321-0.12388 0.35088-0.0657 0.0727-0.40037 0.28566-0.74067 0.47151-0.83074 0.45367-2.8513 1.314-4.1353 1.7608-0.1746 0.0607-0.32609 0.19277-0.32597 0.28401 0 0.27896 0.45881 0.50279 0.97862 0.47793 0.2273-0.0113 0.24126-9e-3 0.18104 0.0287-0.0359 0.0223-0.13485 0.11177-0.21989 0.19881-0.25862 0.26482-0.26372 0.43662-0.0182 0.61454 0.20373 0.14757 0.56888 0.16506 0.81282 0.0389 0.11593-0.0599 0.12488-0.047 0.0727 0.10396-0.064 0.18552-0.0639 0.4344 0 0.57574 0.0692 0.15237 0.24761 0.29768 0.41459 0.33774 0.28216 0.0677 0.68972-9e-3 0.94327-0.17623 0.0575-0.0381 0.10459-0.0615 0.10459-0.052 0 0.0101-0.0441 0.0897-0.0979 0.17839-0.0539 0.0887-0.10812 0.20582-0.1206 0.26027-0.0834 0.36548 0.36118 0.65491 0.87892 0.57221 0.096-0.0154 0.19331-0.0352 0.21641-0.044 0.0267-0.0101 0.042-9.7e-4 0.042 0.0252 0 0.10913 0.21759 0.27954 0.40536 0.31744l1e-4 5e-5c0.0521 0.0101 0.23444 0.0203 0.40537 0.0218 0.57843 5e-3 1.0616-0.14696 1.4632-0.46016 0.11417-0.0891 0.13122-0.0931 0.13122-0.0316 0 0.0921 0.0825 0.14399 0.22902 0.14399 0.50177 0 0.9087-0.38851 1.203-1.1485 0.0567-0.14647 0.14329-0.29245 0.0988-0.16668-0.0101 0.0272-0.0255 0.16976-0.035 0.31669-0.0249 0.38108 6e-3 0.40562 0.36397 0.28402 0.42295-0.14385 0.70565-0.34786 0.75957-0.54824 0.0218-0.0809 0.0261-0.38866 0.0144-1.054l-0.0165-0.93971 0.2364-0.15972c0.6321-0.42711 1.368-1.0964 2.0169-1.8345l0.35153-0.39979 0.12513 0.0214c0.60635 0.10384 1.487-0.14182 1.9053-0.53157l0.13163-0.12261 0.55764-0.0101c1.0162-0.0171 1.2798 0.0423 1.55 0.34925 0.11064 0.12563 0.15761 0.1601 0.21863 0.1601 0.0973 0 0.21054-0.11619 0.31484-0.32288 0.13589-0.26924 0.16288-0.40865 0.16288-0.84079v-0.39713l0.23989-0.0113c0.2032-0.0101 0.26763-0.0252 0.42129-0.10081 0.1419-0.0698 0.19855-0.11631 0.26006-0.21329 0.0432-0.0682 0.0786-0.15206 0.0786-0.1863 0-0.0572 0.0113-0.0622 0.14385-0.0622 0.19873 0 0.37089-0.0652 0.52047-0.19676 0.13916-0.12249 0.20045-0.23876 0.20045-0.38009v-0.0921l0.11946 0.0135c0.17482 0.0198 0.46589-0.0764 0.63421-0.2095 0.15724-0.12425 0.22364-0.23351 0.24481-0.40298l0.0149-0.11947 0.13511-0.0101c0.18048-0.0131 0.49359-0.16713 0.61649-0.30318 0.10182-0.11265 0.15359-0.25024 0.15359-0.41031v-0.0975l0.15919-0.0166c0.45684-0.0478 0.8177-0.33387 0.82466-0.65381l3e-3 -0.11656 0.14862-0.0295c0.17982-0.0357 0.38848-0.13001 0.50459-0.22806 0.12261-0.10358 0.20825-0.29201 0.18616-0.4098-0.0174-0.0926-0.0166-0.0936 0.0794-0.0936 0.0533 0 0.19059-0.0193 0.30507-0.043 0.81868-0.1691 1.174-0.69881 0.6416-0.95654-0.0673-0.0326-0.12236-0.0624-0.12236-0.0663 0-4e-3 0.19153-6e-3 0.42563-6e-3 0.33713 0 0.48463-0.0126 0.70937-0.0595 0.454-0.0958 0.78371-0.27828 0.78371-0.4337 0-0.0799-0.0954-0.17647-0.26207-0.26528-0.21674-0.11556-0.67117-0.27673-0.77999-0.27673-0.17882 0-0.11354-0.0471 0.0902-0.0651 0.49211-0.0434 1.2614-0.18245 1.7356-0.31374 0.43064-0.11921 0.75448-0.26933 0.90429-0.41913 0.10422-0.10421 0.11279-0.12772 0.0619-0.16768-0.12822-0.10044-1.4029-0.20252-2.5838-0.20692-0.64125-3e-3 -0.77085-9e-3 -0.6756-0.0331 0.0648-0.0166 0.26986-0.0702 0.45566-0.11909 1.394-0.367 2.4557-0.85613 3.0261-1.3943 0.16706-0.15757 0.29967-0.34168 0.26852-0.37283-0.0422-0.0422-0.89332 0.13508-2.1191 0.44156-0.29727 0.0744-0.6256 0.15367-0.72965 0.17634-0.21474 0.0467-0.82094 0.18408-1.374 0.31125-0.20575 0.0472-0.38049 0.0795-0.38826 0.0718-8e-3 -8e-3 0.0205-0.0229 0.063-0.0335 0.26965-0.0677 1.2361-0.48964 1.7008-0.74264 1.088-0.59222 1.9736-1.4043 2.3491-2.1542 0.0544-0.10875 0.10598-0.2408 0.11455-0.29351l0.0156-0.0959-0.0919 0.019c-0.19656 0.0408-0.80165 0.39105-1.916 1.1088-1.5676 1.0097-2.2114 1.3639-3.0743 1.6915-0.3426 0.13007-0.40465 0.13316-0.15549 8e-3 1.3257-0.66725 2.5879-1.9546 3.2563-3.321 0.10182-0.20809 0.21653-0.47927 0.25499-0.60267 0.0702-0.22531 0.0919-0.43777 0.0446-0.43777-0.0551 0-0.49353 0.356-0.85268 0.69228-0.47063 0.44067-0.8004 0.78128-1.4763 1.5248-0.70261 0.77284-1.081 1.114-1.6317 1.4711-0.22069 0.14309-0.80193 0.4736-0.83288 0.4736-0.0101 0 0.0878-0.10031 0.21614-0.22295 0.77726-0.74293 1.3674-1.7457 1.6942-2.879 0.16799-0.58246 0.23972-1.1678 0.14309-1.1678-0.0198 0-0.12623 0.0992-0.23646 0.22038-0.40691 0.4474-0.7389 0.91127-1.27 1.7743-0.75206 1.2221-1.2205 1.8517-1.8342 2.4656-0.50499 0.50508-0.8864 0.78448-1.839 1.3471-0.4535 0.26783-0.72735 0.48454-1.5519 1.2279-1.2296 1.1085-2.0273 1.7481-3.1232 2.5037-0.39303 0.31371-0.7979 0.54626-1.2478 0.75761-0.25263-0.11896-0.54042-0.20807-0.85585-0.26237-0.35932-0.0619-1.1361-0.0611-1.5136 9.7e-4 -0.25903 0.043-0.7201 0.18626-0.81025 0.22971-0.33019 0.15913-0.2681 0.30406-1.1124-0.31739-1.3899-1.0231-2.6737-2.3569-3.5156-3.8676-0.23701-0.42527-0.42034-0.60499-0.85035-0.83379-0.66811-0.35546-1.1378-0.72226-1.809-1.4126-0.4411-0.45367-0.71282-0.77371-1.1329-1.3343-0.71597-0.95553-1.3889-2.0597-2.0062-3.2919-0.13472-0.26893-0.20009-0.38563-0.24792-0.3862z" stroke-width=".10214"/></g></svg>