<?xml version='1.0' encoding='utf-8'?>
<svg xmlns="http://www.w3.org/2000/svg" width="4e3" height="2667" version="1.1" viewBox="0 0 1058.3 705.64"><defs><radialGradient id="b" cx="522.66" cy="241.53" r="296.85" gradientTransform="matrix(1.3767 .0092858 -.003147 .46657 -193.62 336.92)" gradientUnits="userSpaceOnUse"><stop stop-color="#d45500" offset="0"/><stop stop-color="#d45500" stop-opacity="0" offset="1"/></radialGradient><radialGradient id="a" cx="538.37" cy="520.05" r="128.11" gradientTransform="matrix(.48006 -.0084325 .004858 .27657 276.67 456.16)" gradientUnits="userSpaceOnUse"><stop stop-color="#d45500" offset="0"/><stop stop-color="#d45500" stop-opacity="0" offset="1"/></radialGradient><linearGradient id="f" x1="559.86" x2="547.16" y1="382.66" y2="523.42" gradientUnits="userSpaceOnUse"><stop stop-color="#c87137" offset="0"/><stop stop-color="#c87137" stop-opacity="0" offset="1"/></linearGradient><radialGradient id="c" cx="767.29" cy="483.7" r="291.04" gradientTransform="matrix(1 0 0 .27225 0 352.01)" gradientUnits="userSpaceOnUse"><stop stop-color="#fc0" offset="0"/><stop stop-color="#fc0" stop-opacity="0" offset="1"/></radialGradient><linearGradient id="e" x1="659.21" x2="664.22" y1="319.1" y2="438.69" gradientUnits="userSpaceOnUse"><stop stop-color="#502d16" offset="0"/><stop stop-color="#502d16" stop-opacity="0" offset="1"/></linearGradient><linearGradient id="g" x1="404.49" x2="606.17" y1="420.51" y2="420.51" gradientUnits="userSpaceOnUse"><stop stop-color="#fc0" offset="0"/><stop stop-color="#fc0" stop-opacity="0" offset="1"/></linearGradient><linearGradient id="d" x1="456.87" x2="551.91" y1="400.12" y2="400.12" gradientUnits="userSpaceOnUse"><stop stop-color="#fc0" offset="0"/><stop stop-color="#fc0" stop-opacity="0" offset="1"/></linearGradient><filter id="h" x="-.044844" y="-.049273" width="1.0897" height="1.0985" color-interpolation-filters="sRGB"><feGaussianBlur stdDeviation="3.7474764"/></filter></defs><g><rect x=".0004069" y=".00058594" width="1058.3" height="705.64" fill="#f60" style="font-variation-settings:'wght' 700;paint-order:markers fill stroke"/><rect x=".0004069" y="264.58" width="1058.3" height="441.06" fill="#ff8b00" style="font-variation-settings:'wght' 700;paint-order:markers fill stroke"/><ellipse transform="matrix(.51837 0 0 .51837 295.69 305.49)" cx="523.1" cy="272.37" rx="100.28" ry="91.266" fill="#fa0" filter="url(#h)" style="mix-blend-mode:normal;paint-order:markers fill stroke"/><path d="m653.23 163.2c-27.477 7.1326-64.554-20.745-101.32-1.9249-14.791 7.5712-104.39-0.93263-74.461 6.3614 75.47 18.393 173.05 13.23 202.8 65.107 5.2175 9.0965-434.67-10.745-498.78-25.818-27.206-6.3966 250.83 10.809 349.11-5.9867-21.952-5.0929-76.223-7.4928-145.93-8.6062-37.811-30.985-198.95-5.7492-262.67 1.8707-10.97 1.3119-18.818 5.7399-36.295 0.37413-55.47-17.031-72.422-14.282-85.686-10.158v115.66c64.774 10.208 199.16 16.101 170.62 4.5041-22.856-9.2886-75.001-7.9537-71.093-12.722 5.2371-6.3909 248.37-2.1328 419.83 11.226 139.39 10.86 393.34-12.882 538.97-6.8048v-145.19c-17.251 0.35347-36.486 1.2818-61.524 4.1982-31.548 3.6746-62.988 5.7115-99.531 4.116-51.956-2.2684-95.01 15.232-135.83 3.7419-41.64-11.722-51.067-14.782-108.22 0.0537z" fill="#ff7e00" style="font-variation-settings:'wght' 700;paint-order:markers fill stroke"/><path d="m1058.3 404.57c-66.498-0.97603-130.66 5.052-193.67 14.53-7.2612-14.235-32.025-17.968-84.138-5.2917l11.642 35.983c-125.62 11.744-217.85 6.2158-315.91 3.7042 34.902 13.806 86.709 22.233 143.4 29.104-0.7856 1.9403-22.167 3.8806-45.508 5.8208 21.76 1.7713 53.249 2.4907 50.8 6.8792-7.6422 2.6688-25.224 6.496-40.874 11.781 46.393 5.0621 75.988 6.5146 97.777 5.5988 178.19-7.4898 250.99 33.497 376.48 50.26z" fill="url(#c)" style="font-variation-settings:'wght' 700;paint-order:markers fill stroke"/><path d="m998.72 413.34c-10.374-0.49814-21.489 4.2413-23.983 15.568-20.434-9.846-28.334 13.673-23.987 19.29-8.6382-0.84387-21.006 21.195 2.1807 27.677-4.1518 2.4015-7.6352 2.9644-12.581 7.5484-3.6876-1.7309-8.0215-2.9053-19.626 2.1808-0.86824-13.841-21.448-16.081-29.522-6.3743-8.7105-5.3868-25.155-1.0705-21.638 9.3932-8.476 1.5893-25.896 10.919-19.29 21.135-4.0467 0.60418-8.1622 1.1272-8.723 5.871-13.372-5.2447-14.353-2.4208-18.786-1.8448l0.50281 96.786 235.06 0.60306v-173.05c-3.4275-1.0708-7.6748-1.9776-11.298-3.0091-6.4082-25.058-24.702-14.901-29.858-11.742-2.7664-6.0886-10.387-9.6445-18.456-10.032z" fill="#803300" style="font-variation-settings:'wght' 700;paint-order:markers fill stroke"/><path d="m335.03 433.68c-4.1118-0.0882-8.4037 2.6208-8.1421 6.8378-11.454-4.6463-24.249 0.10614-25.73 15.237-9.5662-8.3605-19.819 2.0931-17.444 8.4848-3.745-0.36152-7.4638 2.608-7.5479 5.5123-4.7268-4.364-11.746 1.1823-10.718 4.6881-15.775-8.7265-25.705 3.597-22.773 16.606-9.0374-0.23678-19.122 9.5515-12.81 16.605l4.299 118.35 587.43-1.6774-5.0782-102.44c-0.43547-8.784-16.482-7.0421-16.392 0.45785-3.3811-2.3174-6.9187-3.6171-11.239 0.16795-13.214-14.091-33.712-0.8256-32.206 6.5417-17.964-9.9388-20.465 6.4631-19.458 11.574-5.0449-1.452-10.241-3.4059-12.832 3.2711-3.3264-1.6439-5.755-0.72769-8.7654 1.5792-1.8531-1.3741-2.7828-6.3327-1.7182-7.1148 7.9497-5.8401 14.017-14.125 19.122-23.651 13.362 0.14818 34.775 4.1114 40.204-12.388 1.1541-3.5075-5.4274-11.844-19.237-13.108-0.71295-15.457-10.373-15.69-21.555-13.335-1.5004-11.739-25.84-19.009-31.787-5.3676-8.8059-7.1476-30.224 1.0426-26.839 14.509-10.926-4.2774-24.897 6.3902-22.309 16.019-9.5989-0.0213-18.84 11.735-16.774 15.097 4.6547 7.5743 15.127 10.873 39.168 4.2354 4.4615 7.7202 12.771 16.35 27.586 18.203 2.3657 0.0542 3.8658 0.72036 4.5362 2.9745 1.1932 4.0124 0.75474 6.895-2.4324 8.0512-9.6092-6.4017-18.51-6.2912-27.341-5.5351-19.324-15.409-39.547-11.345-59.799-6.626-1.9937-4.8006-5.7055-5.3053-9.8966-4.6126 3.5245-11.571-11.748-13.676-16.103-10.4-3.14-12.687-22.2-15.014-23.903-2.0133-9.1136-5.172-27.729-1.4044-23.652 15.097 0.518 2.0965-3.1116 3.2761-4.2772 1.7611-4.0069-5.2076-14.027-4.2216-18.366 3.4391-2.7581-5.0316-12.326-4.4684-15.374 0.79427 0.10309-5.6515-3.441-13.25-17.086-8.7622 0.29305-0.90486 0.80074-1.6971-0.50332-3.4386 5.8976 1.2034 12.032 2.8296 18.781 1.6919 21.825-3.679 13.596-25.827-2.5104-25.972 0.56963-9.5418-10.677-23.774-25.161-15.6 1.2233-11.235-14.934-16.619-20.296-9.4356-5.5134-6.3985-14.729-2.7478-14.091 4.4452-3.9877-1.7086-9.2541 0.71571-7.9675 6.7097-9.967-4.5198-21.259 3.5431-16.187 13.336-6.471-0.29258-9.7614 2.5949-7.9675 10.567-5.9694-3.2673-11.196-3.3274-15.045 2.5559-2.0076-1.3127-4.2718-1.965-7.06-1.2702 1.5912-2.4858 0.39733-18.965-14.081-13.941-1.9092-2.7163-4.7947-3.3306-7.5334-2.3306 0.53396-2.7871 1.1035-5.5382 1.4232-8.5395 3.982-0.74147 6.9712-2.261 13.522-3.084 24.706-3.1041 10.93-32.786-6.8936-27.601 2.2022-8.7856-6.2023-14.754-12.766-12.012 3.0913-10.319-11.607-21.3-21.38-9.2542-0.7528-4.0597-3.8418-5.8205-7.0399-5.889zm13.029 64.759c-1.7178 3.8913-3.4986 6.9633-5.116 12.161-1.7427-0.0748-3.4525 0.0167-4.8648 1.5937 0.34104-3.4427 0.75156-6.8358 0.3359-10.819 3.4401-0.22814 6.5295-1.6252 9.6449-2.9357zm-22.897 1.9291c2.4423 3.7107 4.015 7.8078 4.4452 12.413-2.2457-0.71301-3.5948-2.0979-7.4642-1.5932 0.6902-4.2389 0.86619-9.5057 3.0189-10.82zm373.14 12.547c0.78473-0.0392 1.6905 0.26761 2.7683 1.1245 1.2692 1.0091 3.9623 1.6406 7.3809 1.8448-1.9252 3.6113-2.6558 8.0191-3.6277 12.266-4.0717-3.5793-7.1575-8.0739-9.6661-13.105 0.8657-1.0396 1.8366-2.0653 3.1445-2.1306zm27.594 1.5854c-3.8342 7.1261-9.3321 13.723-14.761 19.122-0.61953-4.9793 3.4926-12.027 3.6484-17.822 3.3945-0.74307 7.0483-1.2273 11.113-1.3002zm-36.237 2.1058c1.9234 4.6816 5.8073 9.9871 11.209 15.775-10.835-3.0142-17.788-7.4632-21.35-13.166 3.9474-0.49177 7.1338-1.4911 10.141-2.6097zm-239.11 12.865c1.7954 1.2429 3.2905 0.48544 4.8643 0.25167 0.66307 3.9686 1.539 8.0194-0.16795 11.071-0.82958-3.4136-2.8849-5.4379-4.8643-7.5484 0.32667-1.1498 0.22145-2.4721 0.16795-3.7739zm15.054 3.1471c1.9175 1.2363 3.8351 1.0324 5.7526 0.0594 2.2256 3.9663 1.003 6.8032-5.9309 7.769 0.59068-3.2471 0.35264-5.4994 0.17828-7.8285z" fill="#a40" style="paint-order:markers fill stroke"/><path d="m335.03 433.68c-4.1118-0.0882-8.4037 2.6208-8.1421 6.8378-11.454-4.6463-24.249 0.10614-25.73 15.237-9.5662-8.3605-19.819 2.0931-17.444 8.4848-3.745-0.36152-7.4638 2.608-7.5479 5.5123-4.7268-4.364-11.746 1.1823-10.718 4.6881-15.775-8.7265-25.705 3.597-22.773 16.606-9.0374-0.23678-19.122 9.5515-12.81 16.605l4.299 118.35 587.43-1.6774-5.0782-102.44c-0.43547-8.784-16.482-7.0421-16.392 0.45785-3.3811-2.3174-6.9187-3.6171-11.239 0.16795-13.214-14.091-33.712-0.8256-32.206 6.5417-17.964-9.9388-20.465 6.4631-19.458 11.574-5.0449-1.452-10.241-3.4059-12.832 3.2711-3.3264-1.6439-5.755-0.72769-8.7654 1.5792-1.8531-1.3741-2.7828-6.3327-1.7182-7.1148 7.9497-5.8401 14.017-14.125 19.122-23.651 13.362 0.14818 34.775 4.1114 40.204-12.388 1.1541-3.5075-5.4274-11.844-19.237-13.108-0.71295-15.457-10.373-15.69-21.555-13.335-1.5004-11.739-25.84-19.009-31.787-5.3676-8.8059-7.1476-30.224 1.0426-26.839 14.509-10.926-4.2774-24.897 6.3902-22.309 16.019-9.5989-0.0213-18.84 11.735-16.774 15.097 4.6547 7.5743 15.127 10.873 39.168 4.2354 4.4615 7.7202 12.771 16.35 27.586 18.203 2.3657 0.0542 3.8658 0.72036 4.5362 2.9745 1.1932 4.0124 0.75474 6.895-2.4324 8.0512-9.6092-6.4017-18.51-6.2912-27.341-5.5351-19.324-15.409-39.547-11.345-59.799-6.626-1.9937-4.8006-5.7055-5.3053-9.8966-4.6126 3.5245-11.571-11.748-13.676-16.103-10.4-3.14-12.687-22.2-15.014-23.903-2.0133-9.1136-5.172-27.729-1.4044-23.652 15.097 0.518 2.0965-3.1116 3.2761-4.2772 1.7611-4.0069-5.2076-14.027-4.2216-18.366 3.4391-2.7581-5.0316-12.326-4.4684-15.374 0.79427 0.10309-5.6515-3.441-13.25-17.086-8.7622 0.29305-0.90486 0.80074-1.6971-0.50332-3.4386 5.8976 1.2034 12.032 2.8296 18.781 1.6919 21.825-3.679 13.596-25.827-2.5104-25.972 0.56963-9.5418-10.677-23.774-25.161-15.6 1.2233-11.235-14.934-16.619-20.296-9.4356-5.5134-6.3985-14.729-2.7478-14.091 4.4452-3.9877-1.7086-9.2541 0.71571-7.9675 6.7097-9.967-4.5198-21.259 3.5431-16.187 13.336-6.471-0.29258-9.7614 2.5949-7.9675 10.567-5.9694-3.2673-11.196-3.3274-15.045 2.5559-2.0076-1.3127-4.2718-1.965-7.06-1.2702 1.5912-2.4858 0.39733-18.965-14.081-13.941-1.9092-2.7163-4.7947-3.3306-7.5334-2.3306 0.53396-2.7871 1.1035-5.5382 1.4232-8.5395 3.982-0.74147 6.9712-2.261 13.522-3.084 24.706-3.1041 10.93-32.786-6.8936-27.601 2.2022-8.7856-6.2023-14.754-12.766-12.012 3.0913-10.319-11.607-21.3-21.38-9.2542-0.7528-4.0597-3.8418-5.8205-7.0399-5.889zm13.029 64.759c-1.7178 3.8913-3.4986 6.9633-5.116 12.161-1.7427-0.0748-3.4525 0.0167-4.8648 1.5937 0.34104-3.4427 0.75156-6.8358 0.3359-10.819 3.4401-0.22814 6.5295-1.6252 9.6449-2.9357zm-22.897 1.9291c2.4423 3.7107 4.015 7.8078 4.4452 12.413-2.2457-0.71301-3.5948-2.0979-7.4642-1.5932 0.6902-4.2389 0.86619-9.5057 3.0189-10.82zm373.14 12.547c0.78473-0.0392 1.6905 0.26761 2.7683 1.1245 1.2692 1.0091 3.9623 1.6406 7.3809 1.8448-1.9252 3.6113-2.6558 8.0191-3.6277 12.266-4.0717-3.5793-7.1575-8.0739-9.6661-13.105 0.8657-1.0396 1.8366-2.0653 3.1445-2.1306zm27.594 1.5854c-3.8342 7.1261-9.3321 13.723-14.761 19.122-0.61953-4.9793 3.4926-12.027 3.6484-17.822 3.3945-0.74307 7.0483-1.2273 11.113-1.3002zm-36.237 2.1058c1.9234 4.6816 5.8073 9.9871 11.209 15.775-10.835-3.0142-17.788-7.4632-21.35-13.166 3.9474-0.49177 7.1338-1.4911 10.141-2.6097zm-239.11 12.865c1.7954 1.2429 3.2905 0.48544 4.8643 0.25167 0.66307 3.9686 1.539 8.0194-0.16795 11.071-0.82958-3.4136-2.8849-5.4379-4.8643-7.5484 0.32667-1.1498 0.22145-2.4721 0.16795-3.7739zm15.054 3.1471c1.9175 1.2363 3.8351 1.0324 5.7526 0.0594 2.2256 3.9663 1.003 6.8032-5.9309 7.769 0.59068-3.2471 0.35264-5.4994 0.17828-7.8285z" fill="url(#b)" style="paint-order:markers fill stroke"/><path d="m932.38 179.76c-23.496-1.4597-42.741 4.6155-57.552 18.552-44.513-7.8704-68.887-2.2574-91.299 7.1091-20.01 8.3628 174.11 6.3993 274.81 5.056v-16.709c-29.625-7.0712-53.833-4.2118-79.111-3.314-17.118-6.2304-32.746-9.8186-46.843-10.694zm-911.82 33.456c-6.9627-0.15519-13.809 0.34256-20.563 1.3539v49.855c74.589 4.3693 162.21 2.6052 252.41-0.37207-20.124-15.52-51.205-20.632-91.281-17.198-12.392-17.581-25.581-34.257-74.083-10.848-23.659-15.983-45.596-22.325-66.484-22.791zm339.5 107.96c-14.553-0.66563-29.676 6.2368-45.206 18.551-84.653-1.1256-158.75 13.582-238.13 20.373-11.113-33.586-52.52-25.774-62.177-16.14-3.8816-9.0696-8.9262-13.777-14.552-16.308v103.13c66.27-13.467 253.06-4.1261 270.16-17.692 19.247-15.272 41.555-26.598 44.153-53.881 61.036-0.0569 128.35 3.7229 183.11-0.17054 7.5-0.53328 6.8754-4.4238 0-7.6729-12.17-5.7512-26.114-3.7886-39.555-3.5719-19.295-10.873-39.271-19.598-64.955-10.319-10.553-10.689-21.528-15.785-32.847-16.302z" fill="#e25500" opacity=".55959" style="font-variation-settings:'wght' 700;paint-order:markers fill stroke"/><path d="m6.889 383.53c-2.3463 0.0228-4.6315 0.50161-6.8885 1.1942v320.92h1058.3v-206.07c-7.5172-11.638-16.457-13.965-27.254-4.1346-9.3406-21.292-17.869-20.302-26.213-14.233-5.0944-9.0726-23.793-5.1292-19.926 12.928 0.40321 1.883-1.4334 2.8641-3.914 1.4237-14.246-8.2728-30.329 14.449-12.217 21.943-21.09-6.4679-20.858 10.881-12.335 13.877-13.201 1.3797-23.477 5.947-21.824 23.511l-77.161 0.67076c-6.764-4.9923-13.416-6.3703-19.625-3.3063-14.733 7.2704-28.249 18.706-44.479 20.164-0.72818-11.768-8.5314-15.649-20.638-9.1333-6.3263-11.212-29.952-8.8019-29.89 9.2516-10.901-1.7937-14.083 3.56-12.928 12.928-10.206-11.407-21.826-7.382-33.33-4.6256-8.4383-24.852-26.478-23.194-34.041-16.961-5.2058-13.176-21.006-11.43-24.552-2.3435-11.083-6.6504-21.961 0.0915-21.35 12.544-9.0762-1.7747-17.244 0.16992-26.806 8.0656-3.7858 3.1262-8.7445 3.545-10.794 0.94878-5.5828-7.0733-11.495-11.322-19.452-9.2516-2.9236-8.1062-7.4421-14.397-20.757-10.675-12.746-12.819-24.242-11.63-34.753 0.59273-10.399 0.21275-17.827 4.4943-21.35 14.708-1.689 4.8968-7.0429 2.658-10.675 1.1865-10.798-4.3751-19.772-4.4779-28.466 0.82992-5.3164-13.79-13.896-21.094-28.585-16.25-0.60255-17.474-15.515-20.402-25.62-12.691-4.288-10.341-21.371-12.686-23.959-0.82992-12.531-8.3533-25.917-1.6868-26.687 11.505-9.2522-4.8018-18.534-10.161-28.348-2.1353-4.937 4.0374-9.5369-1.5566-8.0651-2.4908 9.3765-5.9518 6.0839-11.346 0.23719-17.198 4.0217-10.452-2.2277-11.526-8.8961-12.217-1.9821-18.535-12.964-22.202-25.857-14.233-5.3607-25.542-32.807-23.558-43.293-12.336-3.9518-8.6563-10.795-11.072-20.756-6.7608-6.719-12.366-16.519-19.53-32.855-15.656 4.8282-13.031-4.8117-20.503-14.945-18.029 1.7664-12.172-17.796-21.694-28.704-8.7767-7.342-6.3876-18.383-10.05-27.399 2.728-0.92834 1.3158-2.3001 2.8066-4.27 0.71159-4.6026-4.8949-10.859-7.2248-17.91-8.54 16.832-8.5399 5.9911-39.978-16.369-32.025 7.8961-7.2688-1.2958-18.089-11.268-11.268 12.448-14.036-15.732-26.675-26.45-11.386-6.0963-6.9585-11.552-9.1177-16.714-9.0677z" fill="#520" style="font-variation-settings:'wght' 700;paint-order:markers fill stroke"/><path d="m6.889 383.53c-2.3463 0.0228-4.6315 0.50161-6.8885 1.1942v320.92h1058.3v-206.07c-7.5172-11.638-16.457-13.965-27.254-4.1346-9.3406-21.292-17.869-20.302-26.213-14.233-5.0944-9.0726-23.793-5.1292-19.926 12.928 0.40321 1.883-1.4334 2.8641-3.914 1.4237-14.246-8.2728-30.329 14.449-12.217 21.943-21.09-6.4679-20.858 10.881-12.335 13.877-13.201 1.3797-23.477 5.947-21.824 23.511l-77.161 0.67076c-6.764-4.9923-13.416-6.3703-19.625-3.3063-14.733 7.2704-28.249 18.706-44.479 20.164-0.72818-11.768-8.5314-15.649-20.638-9.1333-6.3263-11.212-29.952-8.8019-29.89 9.2516-10.901-1.7937-14.083 3.56-12.928 12.928-10.206-11.407-21.826-7.382-33.33-4.6256-8.4383-24.852-26.478-23.194-34.041-16.961-5.2058-13.176-21.006-11.43-24.552-2.3435-11.083-6.6504-21.961 0.0915-21.35 12.544-9.0762-1.7747-17.244 0.16992-26.806 8.0656-3.7858 3.1262-8.7445 3.545-10.794 0.94878-5.5828-7.0733-11.495-11.322-19.452-9.2516-2.9236-8.1062-7.4421-14.397-20.757-10.675-12.746-12.819-24.242-11.63-34.753 0.59273-10.399 0.21275-17.827 4.4943-21.35 14.708-1.689 4.8968-7.0429 2.658-10.675 1.1865-10.798-4.3751-19.772-4.4779-28.466 0.82992-5.3164-13.79-13.896-21.094-28.585-16.25-0.60255-17.474-15.515-20.402-25.62-12.691-4.288-10.341-21.371-12.686-23.959-0.82992-12.531-8.3533-25.917-1.6868-26.687 11.505-9.2522-4.8018-18.534-10.161-28.348-2.1353-4.937 4.0374-9.5369-1.5566-8.0651-2.4908 9.3765-5.9518 6.0839-11.346 0.23719-17.198 4.0217-10.452-2.2277-11.526-8.8961-12.217-1.9821-18.535-12.964-22.202-25.857-14.233-5.3607-25.542-32.807-23.558-43.293-12.336-3.9518-8.6563-10.795-11.072-20.756-6.7608-6.719-12.366-16.519-19.53-32.855-15.656 4.8282-13.031-4.8117-20.503-14.945-18.029 1.7664-12.172-17.796-21.694-28.704-8.7767-7.342-6.3876-18.383-10.05-27.399 2.728-0.92834 1.3158-2.3001 2.8066-4.27 0.71159-4.6026-4.8949-10.859-7.2248-17.91-8.54 16.832-8.5399 5.9911-39.978-16.369-32.025 7.8961-7.2688-1.2958-18.089-11.268-11.268 12.448-14.036-15.732-26.675-26.45-11.386-6.0963-6.9585-11.552-9.1177-16.714-9.0677z" fill="url(#f)" style="font-variation-settings:'wght' 700;paint-order:markers fill stroke"/><path d="m409.38 606.65c72.861-18.522 161.74-21.743 256.23-5.1712l-110.39 35.602z" fill="#a40" style="paint-order:markers fill stroke"/><path d="m409.38 606.65c72.861-18.522 161.74-21.743 256.23-5.1712l-110.39 35.602z" fill="url(#a)" style="paint-order:markers fill stroke"/><path d="m204.25 567.19c-30.7 0.51119-52.62 2.9141-60.966 6.1676 34.485 6.5938 63.935 24.939 94.651 40.327-2.4306-7.5312-2.5891-13.699-2.8469-19.926 7.6308 5.4718 11.751 13.752 14.945 22.773 4.5985-7.901 8.9892-17.257 13.996-22.299 2.1695 2.9444 0.0678 13.364-3.0835 25.62 6.2775-8.1138 13.609-15.174 23.01-20.164-3.1998 6.664-8.1546 13.829-8.5395 19.689 42.411 13.065 81.202 22.826 143.28 53.849-0.97483-6.6331-4.7267-15.118-8.3028-23.485 6.282 4.2788 13.117 9.9412 22.061 20.875 4.6967-7.6197 10.398-14.637 13.047-23.485 5.1088 6.4204 1.2626 17.319 0.71158 26.569 5.9857-12.462 14.918-19.032 24.908-23.485-3.7464 7.3654-8.9194 13.019-10.675 22.773 41.847-0.23048 84.797 1.6161 134.19 14.069 17.39 4.3841 37.12 11.9 50.489 10.064-2.2606-4.0691-11.734-9.1685-19.961-14.09 14.442-1.2169 32.915 0.11216 64.245 9.5612l30.864-7.2125c-19.291-9.1555-50.201-13.106-79.677-19.29-43.262-9.0762-75.247-13.544-108.86-17.948l118.09-14.761 98.296-22.813-5.0322-19.793c-62.735 1.1722-122.95 8.4853-175.46 34.554-4.4829-5.1754-1.2227-9.6468-1.3415-14.425-2.572 3.1219-5.1443 6.3279-7.7163 12.077-6.9906-2.1886-10.12-19.36-14.425-16.103-2.6537 2.0072 0.53116 9.9851 2.6836 17.445-7.4168-7.5332-15.294-13.455-24.49-14.761 2.3559 4.549 6.8161 10.437 14.09 18.116-43.83-10.575-91.844-22.173-140.16-25.855-5.9209-0.45131-118.93-35.851-192.03-34.634zm131.19 53.248c21.322-1.852 98.735 10.302 103.03 17.641 1.1956 2.0413-109.04-14.338-108.36-15.935 0.37983-0.89112 2.2809-1.4418 5.3268-1.7064z" fill="#803300" style="paint-order:markers fill stroke"/><path d="m836.38 232.43c-41.893-0.8223-82.724 18.557-95.637 35.959-36.422 0.81527-81.305 12.187-98.414 32.747-42.402 2.0293-82.1 33.858-52.241 39.517-16.507 3.5614-24.776 19.188-5.9304 27.043 15.125 6.3046 29.81 5.4901 45.072 5.1 10.22 21.903 28.525 24.206 49.104 20.994 11.982 16.087 35.41 23.157 56.815 31.432 16.528 6.3896 37.935 11.089 44.004 22.181 9.1334 16.692 20.455 29.058 20.994 55.984 0.65719 32.832-5.384 63.094-4.9816 92.754-10.984-5.2645-23.571-18.189-30.838-5.6937-14.502-18.411-44.19-17.566-46.97 15.894-23.133-25.754-66.181-1.3931-73.301 21.112-14.401 4.2032-39.294 7.2897-41.531 12.648 11.759-0.96861 27.611-0.0971 41.432-2.1802 77.176-11.632 153.2-19.605 225.93-17.822 4.2417-14.151 9.7039-21.59 15.182-28.941 2.3002 12.337 2.3232 24.105 2.1348 35.82 8.904-13.935 17.345-24.63 25.62-34.16-1.948 10.11-2.2916 18.057-11.15 37.481 30.866 1.0573 62.664-2.229 91.805 6.8792-31.283 1.9472-71.869 2.8172-81.248 7.3541-2.7272 1.3192-7.5637 3.3183-3.4396 4.27 18.374 4.2402 22.76 9.8729 29.297 15.182-33.912-0.63934-67.943-1.3714-97.853 1.0671 3.4461-5.1293 6.8758-10.265 8.7767-16.012-13.206 2.0942-22.144 12.724-33.092 19.333 2.6368-12.979 6.5733-22.708 10.438-32.618-13.484-2.3221-21.662 16.932-30.601 33.092-11.76-14.679-23.151-23.269-34.279-27.517 3.3028 10.467 10.163 22.227 16.843 33.922-75.015 6.3484-103.44 18.021-125.73 30.395h405.74v-126.09c-4.323-0.29206-9.5746 0.63444-17.337 4.8571-0.7557-9.0188 2.9564-14.208 5.0322-20.8-10.936 0.58567-21.361 11.925-31.87 21.471 4.3493-29.239 22.307-60.788 15.012-62.987-11.044-3.3287-29.041 32.846-40.006 54.18-0.45027-15.007-3.1674-27.56-10.987-27.006-8.9522 0.63439-7.7861 13.653-7.1293 24.574-14.996-8.2556-28.834-7.0578-41.935 0.16743 4.8497-6.5896 8.6259-11.569 15.18-20.716-2.1666-2.3018-4.686-3.6632-7.8-3.4386 4.7138-23.369-8.3676-20.046-18.786-20.716-9.3097-13.195-19.019-12.206-28.96-2.9812-13.891-7.8988-35.248 5.9245-24.552 24.434-12.497-7.8588-27.558 5.0532-13.284 19.334-4.7699 1.351-9.1072 1.6926-12.928 0.82992-7.95-44.813-9.5006-87.028 15.063-120.98 11.25-15.551 30.305-24.953 47.207-31.551 15.3-5.972 25.77-13.781 32.736-23.959 5.0239-2.0022 10.076-3.9972 16.338-5.6901 15.444-1.4809 41.515-1.0933 50.084-20.523 20.542 1.4311 50.023-1.8451 51.951-16.961 3.3582-26.331-28.705-33.837-35.191-35.315 20.494-10.862-8.317-28.958-44.211-30.492-13.747-28.501-38.618-28.361-64.83-24.764-20.098-19.829-45.616-27.595-70.751-28.089zm-613.23 83.846c-29.894 0.28471-61.143 12.758-66.818 25.08-15.817-3.0149-31.647-6.0846-41.6 17.445-17.947 4.3543-42.402 15.78-38.58 30.529 3.9743 15.336 40.517 9.5515 64.245 11.406 7.4099 14.396 24.548 28.189 60.051 34.722 7.9764 12.985-0.46076 71.84-1.0061 110.37-3.9993-10.817-11.242-16.699-25.497-11.91 3.3978-12.231-12.658-31.243-33.212-15.768 0.42315-30.219-44.964-43.179-54.012-13.419-4.92-4.1734-9.0081-8.2202-21.051-7.213 3.9658-12.896 0.6386-31.063-17.865-22.645 2.3314-17.552-50.157-26.876-38.748 10.568-3.3629-1.3174-6.4519-2.0878-9.0573-1.8903v53.215c26.248-0.40639 58.552 10.198 93.346 25.329-9.3319-12.356-13.598-22.179-17.673-31.906 12.076 7.9474 23.566 24.092 35.227 37.836 0.74038-8.1447 1.727-15.386 1.186-28.229 4.8327 6.9125 8.4073 17.39 10.556 31.906 4.7282-5.1955 8.3679-11.479 16.012-13.758-1.2646 5.0221-2.2405 10.477-5.2188 12.928 2.0615 1.2414 3.4122 3.3399 6.7608 3.0835 70.532-5.3993 211.28 22.661 260.7 30.078-28.01-17.917-59.843-26.595-95.444-26.167-4.9566-7.6312-9.983-15.179-24.825-11.071-3.6703-16.057-13.468-16.284-24.658-12.916-4.1998-20.877-28.439-14.75-33.548-4.3615-1.6892-32.952-3.0312-66.298 1.6774-95.109 8.5528-7.7372 17.484-13.509 24.993-26.67 10.801-1.9897 27.969-4.4647 43.444-22.477 26.526 2.3866 53.331 4.578 63.071-13.419 1.4259-2.6348-1.1693-14.711-29.355-18.116-6.5202-21.164-26.507-26.82-48.477-30.193-8.9428-20.33-31.375-27.482-54.626-27.26zm590.89 20.215c-1.1004 31.722 8.5739 44.101 20.464 52.503 1.5498 7.5341 4.6748 16.821 8.1778 24.825-7.8157 17.6-16.504 34.59-27.468 49.987-8.8636-17.503-20.636-35.26-25.665-47.974-2.4983-6.3172-2.1044-7.4728-1.1741-16.438 1.3784-13.284-1.5243-27.29-2.6836-39.755 9.0466-0.32367 39.317-3.3355 17.78-22.813 2.9048-0.0153 3.0965 0.39345 10.568-0.33538zm9.7048 1.7301c3.6498 1.2883 7.5499 2.5452 12.454 3.6768-0.67073 10.679-0.88741 22.568-2.0164 32.025-7.9689-9.0737-11.004-21.254-10.438-35.702zm21.943 7.0574c5.3819 8.1279 13.806 13.447 27.399 13.996-0.98072 20.619-5.2351 38.327-17.554 48.867-1.9782-6.8528-5.7652-13.339-8.3023-20.164-2.4383-6.5584-2.6658-9.6497-2.3725-13.522 0.52978-6.9918 0.70468-18.956 0.83044-29.178zm60.076 9.8444c-5.4167 6.9334-12.125 12.969-21.172 17.377 0.5772-4.8057 0.94312-9.5059 0.88935-13.996 6.8435-0.71308 13.597-1.8772 20.282-3.3807zm12.039 1.6015c3.5514 1.1454 7.9341 2.2151 13.225 3.2024 3.1538 34.783-38.584 46.861-57.941 50.706 3.5607-7.4725 7.2558-14.847 9.1328-23.544 9.6608-5.2259 24.412-13.931 35.583-30.364zm-178.14 3.3269c2.896-0.1158 5.9255 0.14543 9.1245 0.88367-0.0742 7.1612 0.47609 13.947 1.186 20.638-8.2654-5.224-16.643-10.142-23.84-18.266 4.2483-1.8228 8.7033-3.0626 13.53-3.2556zm34.863 0.76481c0.61496 11.74 4.8367 29.579 1.1265 40.92-6.4619-4.7151-13.329-11.997-16.25-22.298-1.1715-4.1314-1.2938-12.76-1.186-18.385 5.7518 0.17328 11.342 0.21693 16.309-0.2372zm169.73 1.8981c5.6269 1.2608 12.329 1.9072 19.037 2.5502-5.5792 6.1237-13.66 9.7454-21.706 13.403 1.2564-4.9509 2.3513-10.063 2.6686-15.953zm-227.59 1.5379c3.5473 9.0304 12.961 17.096 27.761 25.077 4.0816 2.201 7.1461 5.4704 9.3932 9.3932 5.0531 8.8214 11.038 12.609 16.858 16.019 0.60299 1.9285 1.3296 3.9344 3.6902 6.9613-13.891-5.5061-30.265-9.232-45.541-13.755-23.415-6.9322-41.611-18.308-53.174-35.309 15.265 4.218 29.101 2.1492 41.012-8.3866zm259.58 2.2645c4.028 0.56242 7.8619 0.83388 11.574 0.92243-7.31 6.5056-15.076 8.1906-20.128 8.2191 2.9121-2.9868 5.7988-5.9984 8.5545-9.1416zm-317.13 6.1609c3.1628 3.9423 6.7831 8.0806 11.505 12.691-15.999 0.43678-25.724-4.2555-31.669-12.573 6.9202 0.15944 13.893 0.37159 20.164-0.11834zm-460.6 20.677c4.8901 1.4006 8.6989 1.5042 12.496 1.5937-0.69958 9.9869-4.6536 16.991-7.8838 24.658-6.188-7.2243-11.785-14.54-12.245-22.645 2.4156-1.7161 4.9945-2.7805 7.6326-3.6065zm37.448 2.3074c5.0924 0.15263 10.38 0.89231 15.893 2.3058-5.5046 18.688-14.771 36.047-35.393 49.399-1.4471-6.8822-2.2755-13.352-4.9485-21.051 4.3664-9.0104 8.4444-18.226 9.7291-29.438 4.7303-0.93368 9.6271-1.3681 14.72-1.2154zm25.37 3.4799c5.6826 2.1202 14.199 3.4672 22.226 4.948-16.332 12.138-21.894 11.93-29.522 14.09 2.9346-5.9694 6.0849-11.777 7.2967-19.038zm-79.593 0.67076c-1.4751 4.8383 6.0064 15.098 12.748 24.91-24.646-5.5748-35.867-14.248-43.193-23.819 10.71 0.0448 22.058 0.55444 30.445-1.0904zm-132.17 176.28c-6.2588 3.7327-11.358 14.806-16.724 24.196-1.2012-5.0272-1.2098-12.479-4.9816-12.928-4.2164-0.50261-1.8229 11.43-2.2536 17.91-7.3096-3.9727-16.646-5.5805-25.619-7.6124v107.99h386.38c-40.316-30.634-92.944-54.822-163.29-63.869-25.151-39.966-90.395-43.042-109.37-22.477-21.705-8.0598-40.534-9.2888-58.693-8.9281 2.4644-4.9676 6.8852-10.058 11.861-15.183-8.9075-3.6615-16.372 7.8324-24.434 13.047-3.0649-7.981 7.9898-20.307 7.1164-32.143zm62.304 73.4c64.13 8.0008 119.43 16.269 154.15 25.161-54.27 3.7327-106.57-0.82416-154.15-25.161z" fill="#28170b" style="font-variation-settings:'wght' 700;paint-order:markers fill stroke"/><path d="m691.93 661.4c3.7728-2.682-4.0361-10.977-9.5612-14.09 0.0389 3.8494 6.8278 16.033 9.5612 14.09z" fill="#2b1100" style="paint-order:markers fill stroke"/><path d="m836.38 232.43c-41.893-0.8223-82.724 18.557-95.637 35.959-36.422 0.81527-81.305 12.187-98.414 32.747-42.402 2.0293-82.1 33.858-52.241 39.517-9.3e-4 2e-4 -2e-3 3.1e-4 -3e-3 5.1e-4 37.218 2.7099 108.09 17.922 102.72-14.589 25.236 3.857 50.306 11.328 76.385 0.94878 20.499-8.1586 11.855-14.298-7.3536-19.452 30.041 1.2046 59.236 3.7627 96.904-7.2352-7.705 12.252 4.176 15.949 21.587 17.198 45.645 3.2751 84.934 12.956 135.85-1.7498 20.489-10.862-8.321-28.957-44.214-30.491-13.747-28.501-38.618-28.361-64.83-24.764-20.098-19.829-45.616-27.595-70.751-28.089zm-613.23 83.846c-29.894 0.28471-61.143 12.758-66.818 25.08-15.817-3.0149-31.647-6.0846-41.6 17.445-6.2391 1.5138-13.265 3.8824-19.615 6.9479 20.981 17.901 43.736 31.351 81.492 7.1665 24.613 0.66994 49.383 0.9622 77.097-5.812 1.8071 7.873 12.574 13.649 44.004 14.589 6.36 15.813 24.657 20.22 57.669 10.566 0.0771-0.13633 0.15334-0.27366 0.22841-0.41238 1.4259-2.6348-1.1693-14.711-29.355-18.116-6.5202-21.164-26.507-26.82-48.477-30.193-8.9428-20.33-31.375-27.482-54.626-27.26z" fill="url(#e)" style="font-variation-settings:'wght' 700;paint-order:markers fill stroke"/><path d="m5.1676e-4 5.1676e-4v91.207c125.91 5.7719 253.2 1.2269 379.79 1.9627-32.788-15.493-75.909-15.677-117.87-17.586-11.626-15.582-32.338-17.43-59.12-10.103-11.329-31.28-40.759-27.403-69.971-23.947 2.7257-12.056 13.052-31.282-52.01-34.425-0.67224-2.2713-2.4931-4.6701-4.6705-7.1086zm645.14 0c-7.0577 6.5238-13.424 13.833-12.785 29.104-25.235-6.6957-43.027 6.2336-63.23 12.804-8.2032-0.3214-21.128 0.20026-36.295 1.1224-18.391-9.9407-57.832-2.1265-71.094-0.74827-21.541 2.2385-41.863 3.6347-55.752 0 22.722 15.953 55.353 23.183 101.03 22.076 38.664-0.93708 67.351 0.0077 120.86 0.37414 23.217 0.159 46.365-2.439 69.223-10.477-23.233 12.133-39.254 11.691-61.365 14.967 18.019 8.2772 51.997 6.2832 82.693 5.2384 24.986-0.8504 41.202-2.3472 85.384-6.0663 17.234-1.4507 30.172 1.8608 43.789 2.1167 47.879 0.89984 95.715-0.27683 137.06-5.2178-1.3523-3.6233-54.592-11.162-56.501-16.464 43.934 1.4461 86.887-1.0313 130.19-2.1275v-46.702zm393.87 71.948c-42.473-1.7349-67.554 10.632-95.518 20.66-33.552-5.2816-67.184-9.1374-101.78 4.3031-53.661-17.461-86.76 4.3341-126.1 14.219 114.24 7.7012 228.48 2.8118 342.72 3.1042v-40.632c-6.8365-0.87136-13.259-1.4068-19.326-1.6547zm-1013.4 38.669c-8.4749-0.19768-17.061-0.0521-25.642 0.0786v43.906c92.398 1.6723 185.16 3.4493 257.43-0.62896-24.828-12.639-57.008-14.075-89.054-15.715-28.794-15.131-50.238-9.7599-72.59-6.9226-20.297-16.443-44.722-20.125-70.147-20.718z" fill="#aa4200" opacity=".67916" style="font-variation-settings:'wght' 700;paint-order:markers fill stroke"/><path d="m320.68 124.35c30.876 18.626 109 22.825 232.3 13.229-2.46-8.575-135.32-9.9057-232.3-13.229z" fill="#ff7e00" style="mix-blend-mode:normal;paint-order:markers fill stroke"/><path d="m247.12 242.62c63.965-3.1259 122.3 0.12839 175.68 8.9958-57.87 5.2913-116.4 2.6447-175.68-8.9958z" fill="#ff932a" style="paint-order:markers fill stroke"/><path d="m404.49 411.22c59.81 18.735 128.96 20.944 201.68 16.838-71.911-9.776-138.75-15.041-201.68-16.838z" fill="url(#g)" style="mix-blend-mode:normal;paint-order:markers fill stroke"/><path d="m456.87 394.76c26.599 9.123 59.233 11.558 95.041 10.477-23.262-5.2962-54.322-8.9216-95.041-10.477z" fill="url(#d)" style="mix-blend-mode:normal;paint-order:markers fill stroke"/></g></svg>