<?xml version='1.0' encoding='utf-8'?>
<svg xmlns="http://www.w3.org/2000/svg" width="4e3" height="2667" version="1.1" viewBox="0 0 1058.3 705.64"><defs><linearGradient id="c" x1="510.64" x2="510.54" y1="520" y2="5.5855" gradientUnits="userSpaceOnUse"><stop stop-color="#2c89a0" offset="0"/><stop stop-color="#216778" stop-opacity="0" offset="1"/></linearGradient><filter id="m" x="-1.9763e-5" y="-.037977" width="1" height="1.076" color-interpolation-filters="sRGB"><feGaussianBlur stdDeviation="0.001 0.363"/></filter><filter id="l" x="-.02791" y="-.17133" width="1.0558" height="1.3427" color-interpolation-filters="sRGB"><feGaussianBlur stdDeviation="2.1040001"/></filter><filter id="g" x="-.017468" y="-.016644" width="1.0349" height="1.0333" color-interpolation-filters="sRGB"><feGaussianBlur stdDeviation="0.41512417"/></filter><filter id="f" x="-.0099197" y="-.0093117" width="1.0198" height="1.0186" color-interpolation-filters="sRGB"><feGaussianBlur stdDeviation="0.41512417"/></filter><filter id="e" x="-.0072449" y="-.0066436" width="1.0145" height="1.0133" color-interpolation-filters="sRGB"><feGaussianBlur stdDeviation="0.41512417"/></filter><filter id="d" x="-.001904" y="-.0070697" width="1.0038" height="1.0141" color-interpolation-filters="sRGB"><feGaussianBlur stdDeviation="0.047102612"/></filter><radialGradient id="b" cx="371.21" cy="473.25" r="8.2627" gradientTransform="matrix(1 0 0 .9507 0 23.332)" gradientUnits="userSpaceOnUse"><stop stop-color="#a80" offset="0"/><stop stop-color="#a80" stop-opacity="0" offset="1"/></radialGradient><radialGradient id="a" cx="425.63" cy="481.95" r="9.6521" gradientTransform="matrix(1 0 0 .22225 0 374.84)" gradientUnits="userSpaceOnUse"><stop stop-color="#806600" offset="0"/><stop stop-color="#806600" stop-opacity="0" offset="1"/></radialGradient><filter id="k" x="-.014845" y="-.048089" width="1.0297" height="1.0962" color-interpolation-filters="sRGB"><feGaussianBlur stdDeviation="0.66735536"/></filter><filter id="j" x="-.015282" y="-.045219" width="1.0306" height="1.0904" color-interpolation-filters="sRGB"><feGaussianBlur stdDeviation="0.66735536"/></filter><filter id="i" x="-.011994" y="-.034641" width="1.024" height="1.0693" color-interpolation-filters="sRGB"><feGaussianBlur stdDeviation="0.66735536"/></filter><filter id="h" x="-.014845" y="-.048089" width="1.0297" height="1.0962" color-interpolation-filters="sRGB"><feGaussianBlur stdDeviation="0.66735536"/></filter></defs><g><rect x=".00057052" y=".00094525" width="1058.3" height="705.64" fill="#164450" stroke-linecap="round" stroke-linejoin="round" stroke-width=".10574" style="paint-order:markers fill stroke"/><rect x=".00057052" y=".00094525" width="1058.3" height="705.64" fill="url(#c)" stroke-linecap="round" stroke-linejoin="round" stroke-width=".10574" style="paint-order:markers fill stroke"/><path d="m340.27 455.52c16.32-1.8914 62.447-13.308 67.518-23.187-18.313-5.1489-37.014-9.1333-60.317-22.152 9.5513-1.6878 17.626-4.2581 22.798-8.5627-17.61-7.5428-36.907-12.033-50.021-27.717 8.5978 2.8376 22.464 2.848 32.708-3.6536-14.795-7.9084-28.205-11.067-46.677-31.59 15.726 0.8004 30.394 1.0153 34.457-4.6374-14.227-5.5895-30.942-15.698-45.581-32.349 13.44 2.9539 26.703 4.9316 38.413-1.5882-13.468-7.4072-29.353-15.954-45.859-34.537 13.961 3.3041 24.505 3.2042 32.322 0.38896-15.619-11.221-30.96-20.572-48.262-43.104 13.796 5.8717 25.273 7.8334 33.366 4.0941-27.487-18.542-43.834-46.547-56.484-77.693-13.504 26.616-21.549 54.25-54.955 77.149 8.9961 3.8399 18.922 1.1979 28.766-0.87605-12.451 15.626-27.318 29.282-44.598 40.973 16.285 1.394 25.325-2.5034 35.285-5.7288-12.447 13.411-32.947 29.289-46.249 32.902 17.26 3.6019 28.313-0.21345 41.593-1.3679-15.358 11.572-29.045 23.583-60.506 30.935 21.086 5.2296 37.627 6.6296 53.056 7.0919-17.805 10.091-31.442 20.874-77.062 26.349 24.585 8.2853 48.699 11.646 72.406 10.75-17.453 14.762-50.522 20.476-92.071 21.276 30.763 7.3468 61.649 15.749 91.14 12.113-35.037 7.5228-57.753 25.716-110.82 17.622 20.576 24.498 45.471 29.881 69.846 37.563z" fill="#002b11" style="paint-order:markers fill stroke"/><path d="m119.54 205.33c-13.503 34.94-21.547 71.218-54.95 101.28 8.9953 5.0409 18.92 1.5727 28.764-1.1499-12.45 20.513-27.316 38.441-44.594 53.788 16.284 1.83 25.323-3.2864 35.282-7.5206-12.446 17.605-32.943 38.45-46.245 43.192 17.258 4.7285 28.31-0.28023 41.589-1.7957-15.356 15.192-29.042 30.958-60.5 40.61 21.084 6.8652 37.624 8.7033 53.051 9.3102-4.8943 3.642-9.4738 7.3527-14.489 10.968h119.72c-2e-3 -4e-3 -4e-3 -7e-3 -7e-3 -0.01 0.0499 4e-3 0.1 7e-3 0.14984 0.01h22.403c5.6707-0.79508 9.976-2.5821 11.901-6.0981-14.226-7.3377-30.939-20.607-45.577-42.467 13.439 3.8778 26.7 6.4736 38.41-2.0854-13.466-9.7239-29.351-20.943-45.855-45.338 13.96 4.3375 24.503 4.2058 32.32 0.51016-15.618-14.731-30.958-27.007-48.258-56.586 13.795 7.7082 25.27 10.284 33.363 5.3749-27.485-24.341-43.83-61.106-56.479-101.99z" fill="#052" style="paint-order:markers fill stroke"/><path d="m551.94 450.23c16.32-1.8914 62.447-13.308 67.518-23.187-18.313-5.1489-37.014-9.1333-60.317-22.152 9.5513-1.6878 17.626-4.2581 22.798-8.5627-17.61-7.5428-36.907-12.033-50.021-27.717 8.5978 2.8376 22.464 2.848 32.708-3.6536-14.795-7.9084-28.205-11.067-46.677-31.59 15.726 0.8004 30.394 1.0153 34.457-4.6374-14.227-5.5895-30.942-15.698-45.581-32.349 13.44 2.9539 26.703 4.9316 38.413-1.5882-13.468-7.4072-29.353-15.954-45.859-34.537 13.961 3.3041 24.505 3.2042 32.322 0.38896-15.619-11.221-30.96-20.572-48.262-43.104 13.796 5.8717 25.273 7.8334 33.366 4.0941-27.487-18.542-43.834-46.547-56.484-77.693-13.504 26.616-21.549 54.25-54.955 77.149 8.9961 3.8399 18.922 1.1979 28.766-0.87605-12.451 15.626-27.318 29.282-44.598 40.973 16.285 1.394 25.325-2.5034 35.285-5.7288-12.447 13.411-32.947 29.289-46.249 32.902 17.26 3.6019 28.313-0.21345 41.593-1.3679-15.358 11.572-29.045 23.583-60.506 30.935 21.086 5.2296 37.627 6.6296 53.056 7.0919-17.805 10.091-31.442 20.874-77.062 26.349 24.585 8.2853 48.699 11.646 72.406 10.75-17.453 14.762-50.522 20.476-92.071 21.276 30.763 7.3468 61.649 15.749 91.14 12.113-35.037 7.5228-57.753 25.716-110.82 17.622 20.576 24.498 45.471 29.881 69.846 37.563z" fill="#002b11" style="paint-order:markers fill stroke"/><path d="m278.58 454.56c-13.114-1.5261-50.181-10.738-54.256-18.709 14.716-4.1545 29.743-7.3694 48.469-17.874-7.6752-1.3618-14.164-3.4357-18.32-6.909 14.151-6.0861 29.657-9.709 40.196-22.364-6.909 2.2896-18.051 2.298-26.283-2.948 11.889-6.3811 22.665-8.9293 37.509-25.489-12.637 0.64582-24.424 0.81919-27.689-3.7418 11.432-4.51 24.864-12.666 36.628-26.102-10.8 2.3834-21.458 3.9792-30.868-1.2814 10.822-5.9767 23.587-12.873 36.851-27.867-11.219 2.666-19.692 2.5853-25.973 0.31384 12.551-9.0541 24.879-16.599 38.782-34.78-11.086 4.7377-20.308 6.3206-26.812 3.3034 22.088-14.961 35.224-37.557 45.389-62.688 10.851 21.475 17.317 43.773 44.161 62.25-7.2291 3.0983-15.205 0.96656-23.116-0.70686 10.005 12.608 21.952 23.627 35.838 33.06-13.086 1.1248-20.351-2.0199-28.354-4.6224 10.002 10.821 26.475 23.633 37.165 26.548-13.87 2.9063-22.752-0.17223-33.423-1.1037 12.341 9.3375 23.34 19.028 48.621 24.96-16.944 4.2196-30.236 5.3492-42.634 5.7222 14.307 8.1424 25.266 16.843 61.925 21.26-19.756 6.6851-39.133 9.3965-58.184 8.6742 14.025 11.911 40.598 16.521 73.986 17.167-24.721 5.9279-49.54 12.708-73.238 9.774 28.155 6.07 46.409 20.749 89.054 14.219-16.534 19.767-36.539 24.11-56.127 30.308z" fill="#052" style="paint-order:markers fill stroke"/><path d="m795.53 234.72c-13.504 28.845-21.549 58.795-54.954 83.613 8.9959 4.1616 18.921 1.2984 28.765-0.9493-12.45 16.935-27.318 31.736-44.597 44.406 16.285 1.5108 25.325-2.7131 35.285-6.2088-12.447 14.534-32.946 31.743-46.248 35.658 17.259 3.9037 28.312-0.23135 41.592-1.4825-15.357 12.542-29.044 25.558-60.504 33.526 21.085 5.6677 37.626 7.1852 53.054 7.6862-4.8946 3.0067-9.4744 6.0701-14.49 9.055h119.73c-2e-3 -3e-3 -4e-3 -6e-3 -7e-3 -8e-3 0.0499 3e-3 0.1 6e-3 0.14985 8e-3h22.405c5.6711-0.65639 9.9767-2.1317 11.902-5.0344-14.227-6.0577-30.941-17.013-45.58-35.059 13.44 3.2014 26.702 5.3444 38.413-1.7216-13.467-8.0277-29.353-17.29-45.858-37.43 13.961 3.5809 24.505 3.4722 32.322 0.42117-15.619-12.161-30.96-22.296-48.261-46.715 13.796 6.3636 25.272 8.49 33.366 4.4373-27.486-20.095-43.833-50.447-56.482-84.202z" fill="#052" style="paint-order:markers fill stroke"/><path d="m946.1 244.48c-13.504 28.845-21.549 58.795-54.954 83.613 8.9959 4.1616 18.921 1.2984 28.765-0.9493-12.45 16.935-27.318 31.736-44.597 44.406 16.285 1.5108 25.325-2.7131 35.285-6.2088-12.447 14.534-32.946 31.743-46.248 35.658 17.259 3.9037 28.312-0.23135 41.592-1.4825-15.357 12.542-29.044 25.558-60.504 33.526 21.085 5.6677 37.626 7.1852 53.054 7.6862-4.8946 3.0067-9.4744 6.0701-14.49 9.055h119.73c0-3e-3 0-6e-3 -0.01-8e-3 0.05 3e-3 0.1 6e-3 0.1498 8e-3h22.405c5.671-0.65639 9.9766-2.1317 11.902-5.0344-14.227-6.0577-30.941-17.013-45.58-35.059 13.44 3.2014 26.702 5.3444 38.413-1.7216-13.467-8.0277-29.352-17.29-45.858-37.43 13.961 3.5809 24.505 3.4722 32.322 0.42117-15.619-12.161-30.96-22.296-48.261-46.715 13.796 6.3636 25.272 8.49 33.366 4.4373-27.487-20.095-43.833-50.447-56.482-84.202z" fill="#002b11" style="paint-order:markers fill stroke"/><path d="m8.953e-4 428.07c18.83 8.7105 51.105 25.048 86.808 25.818 123.21 3.8927 226.84-24.425 350.99-30.615 265.95-13.185 300.66 12.329 447.5 16.496 67.917 1.9502 118.17-6.1956 173.04-11.699v277.57h-1058.3z" fill="#217821" stroke-linecap="round" stroke-linejoin="round" stroke-width=".09788" style="paint-order:markers fill stroke"/><path d="m502.15 573.61c-16.564-2.7113-45.768 9.0382-26.941 19.083 5.8138 2.8928 13.438 3.1274 21.568 4.8624-16.094 9.7441 4.2918 15.24 29.32 18.711 13.401 1.4501 26.516-2.0711 40.037-4.8643-3.2852 13.785 50.239 21.974 62.113 0.74835 16.598 3.9474 33.536 11.182 71.468 0.74835 3.6582-1.1017 5.5657-7.4443-6.7352-15.715 36.402-4.5883 9.23-24.022-9.7286-23.293z" fill="#445016" style="paint-order:markers fill stroke"/><path d="m686.92 477.15c28.368 1.3276 46.671 2.107 83.535-0.49813 34.973-2.4595 63.865-13.144 96.324-24.165 9.1291-3.4017-42.693-2.4457-64.145-3.5828z" fill="#112b00" filter="url(#l)" opacity=".4" style="mix-blend-mode:normal;paint-order:markers fill stroke"/><path d="m689.82 477.5 0.18965-47.681 119.61-17.202-0.0331 39.175z" fill="#a40" style="paint-order:markers fill stroke"/><path d="m688.74 435.99c3.494-4.1293 14.538 3.8494 19.937 6.1853l100.94-17.174 4e-3 -5.7662-109.84 12.639-11.6-9.5415z" fill="#28170b" filter="url(#m)" opacity=".42" style="mix-blend-mode:normal;paint-order:markers fill stroke"/><path d="m705.58 438.39 46.398 47.521" fill="none" stroke="#333" stroke-linecap="round" stroke-linejoin="round" stroke-width=".8" style="paint-order:markers fill stroke"/><path d="m489.63 428.78-32.179 25.912" fill="none" stroke="#333" stroke-linecap="round" stroke-linejoin="round" stroke-width=".8" style="paint-order:markers fill stroke"/><path d="m502.71 461.43 2.5797-43.722-15.561 11.576-1.4552 0.0165c37.273-34.727 71.857-70.09 110.22-134.03 31.496 50.277 63.244 100.08 108.51 143.96l-0.9822 0.28063-15.973-9.5415-0.18708 47.52-164.38-14.105z" fill="#d45500" style="paint-order:markers fill stroke"/><path d="m525.59 463.41c32.812-33.283 59.419-77.744 72.103-148.29-8.2121 125.56-38.376 132.84-37.554 151.24z" fill="#520" style="paint-order:markers fill stroke"/><path d="m559.94 466.34c-2.966-21.162 15.45-39.378 21.351-58.085 7.8637-29.815 9.7273-95.09 16.591-95.149 2.9464-6e-3 32.16 110.64 61.924 161.8z" fill="#1a1a1a" style="paint-order:markers fill stroke"/><path d="m821.38 419.4 40.536 38.602" fill="none" stroke="#333" stroke-linecap="round" stroke-linejoin="round" stroke-width=".8" style="paint-order:markers fill stroke"/><path d="m598.49 295.28 131.6 11.312 92.241 113.17-115.72 19.628c-42.628-38.884-76.447-88.798-108.12-144.11z" fill="#a40" style="paint-order:markers fill stroke"/><path d="m457.29 453.15 1.4128 2.453" fill="none" stroke="#333" stroke-linecap="round" stroke-linejoin="round" stroke-width="1.1776" style="paint-order:markers fill stroke"/><path d="m456.6 453.73c0.47129-0.68637 0.71611-0.82926 1.4711-0.92363z" fill="none" stroke="#333" stroke-linecap="round" stroke-linejoin="round" stroke-width="1.1776" style="paint-order:markers fill stroke"/><path d="m752.52 484.47-1.4128 2.453" fill="none" stroke="#333" stroke-linecap="round" stroke-linejoin="round" stroke-width="1.1776" style="paint-order:markers fill stroke"/><path d="m753.22 485.05c-0.47129-0.68637-0.71611-0.82926-1.4711-0.92363z" fill="none" stroke="#333" stroke-linecap="round" stroke-linejoin="round" stroke-width="1.1776" style="paint-order:markers fill stroke"/><path d="m862.07 456.38-0.81814 2.71" fill="none" stroke="#333" stroke-linecap="round" stroke-linejoin="round" stroke-width="1.1776" style="paint-order:markers fill stroke"/><path d="m862.87 456.79c-0.61498-0.56126-0.88587-0.64476-1.6425-0.56504z" fill="none" stroke="#333" stroke-linecap="round" stroke-linejoin="round" stroke-width="1.1776" style="paint-order:markers fill stroke"/><path d="m495.56 582.22c-7.7099-9.6702 0.49342-22.381 13.494-21.431l10.054 2.5135c0.80869-3.5219 1.8455-7.8119 12.568-8.9958l48.022 11.245c11.99 2.0894 0.93846 12.534-9.1281 22.622-12.03 7.9212-23.103 8.9693-28.31 8.2021l-38.232-7.8052c-2.938-1.943-6.0006-3.6992-8.4667-6.35z" fill="#502d16" style="paint-order:markers fill stroke"/><path d="m520.79 563.8c5.0551-0.0554 9.2789-0.38126 11.436-1.3799 7.5198-3.8091 15.039-2.7625 22.559-1.7006l25.379 5.8276-6.0037 9.1778z" fill="#28170b" filter="url(#d)" style="paint-order:markers fill stroke"/><path d="m500.93 570.62c2.0243 0.79251 2.8996 1.8148 7.2029 2.1515 15.624 1.828 21.632 6.3484 31.712 9.7286l13.283-4.116c-3.2438-2.0992-10.94-4.7328-20.393-7.5771 2.434 2.2921 6.2012 4.8065 5.8933 6.6416-14.862-3.5741-28.528-6.4716-37.698-6.8287z" fill="#28170b" style="paint-order:markers fill stroke"/><path d="m500.81 582.43c13.34 3.3333 21.041 5.3136 26.928 6.8587l10.104-5.6961c-5.4597-1.5561-10.854-4.3535-16.532-1.7653-6.3045 1.6463-13.453 0.98497-20.499 0.60267z" fill="#28170b" style="paint-order:markers fill stroke"/><path d="m670.62 558.55c-1.6263-0.023-3.1956 0.19237-4.7284 0.51728-11.117 3.2345-22.368 5.6704-33.734 7.4083l-51.659 4.7284c-2.2832-2.5193-5.1755-4.0026-8.3798-3.2003l-63.495 18.104c0.57293 5.6232 0.70535 19.2 11.262 22.529l59.323-17.679c-7e-3 4.2012-0.20457 8.9593-0.81184 14.923l35.049-3.269c-2.2292-5.6883-2.7868-6.9243-3.4479-12.787 20.032 6.993 38.693 11.436 60.131 21.005l15.209-24.247c-3.4803-0.81071-7.1756-1.5946-8.7312-2.6458 3.2681-1.3817 7.3092-1.6039 8.7312-5.7547 2.259-6.6643 1.0719-12.202-6.0193-16.933-3.1202-1.9609-5.9887-2.6617-8.6992-2.7001z" fill="#803300" style="paint-order:markers fill stroke"/><path d="m670.62 558.55c-1.6263-0.023-3.1956 0.19237-4.7284 0.51728-11.117 3.2345-22.368 5.6704-33.734 7.4083l-51.659 4.7284c-2.2832-2.5193-5.1755-4.0026-8.3798-3.2003l-63.495 18.104c0.57293 5.6232 0.70535 19.2 11.262 22.529l59.323-17.679c-7e-3 4.2012-0.20457 8.9593-0.81184 14.923l35.049-3.269c-2.2292-5.6883-2.7868-6.9243-3.4479-12.787 20.032 6.993 38.693 11.436 60.131 21.005l15.209-24.247c-3.4803-0.81071-7.1756-1.5946-8.7312-2.6458 3.2681-1.3817 7.3092-1.6039 8.7312-5.7547 2.259-6.6643 1.0719-12.202-6.0193-16.933-3.1202-1.9609-5.9887-2.6617-8.6992-2.7001z" fill="#520" style="paint-order:markers fill stroke"/><path d="m629.44 570.97-17.595 1.9844c-4.6145 1.2048-2.4697 10.01 3.0427 11.642 10.364 3.4547 31.851 10.219 37.439 11.245 2.1649 0.3973 14.298 2.3494 17.595 0l13.626-8.9958zm-6.3448 5.7299c16.627 6.0804 21.85 6.3871 30.028 9.9157 2.8434 1.2706 4.9349 2.2691 7.3902 3.3678-27.575-6.5006-35.076-10.246-37.418-13.283z" fill="#803300" style="paint-order:markers fill stroke"/><path d="m640.86 565.2c5.6976 1.3497 11.173 2.7526 12.546 5.1402 8.7192-2.6555 16.323-2.4605 24.322-3.2741-13.841 2.0404-19.078 1.4339-23.683 4.1779 2.1147 2.804 2.8748 4.3064 3.2205 5.6442 9.0087-3.6777 18.413-4.7855 27.759-6.2675 2.3218-0.38023-3.2154-8.881-10.5-11.295-6.4412-1.8695-22.501 4.4072-33.664 5.8746z" fill="#803300" style="paint-order:markers fill stroke"/><path d="m587.77 595.64c0.43898-5.0467 1.4901-10.849-0.92604-12.369-0.1246 5.9645 0.35413 9.3649 0.92604 12.369z" fill="#2b1100" style="paint-order:markers fill stroke"/><path d="m597.96 580.69c2.2395-1.6118 2.4535 5.0227 2.249 13.361-2.0572-1.3158-1.829-8.1164-2.249-13.361z" fill="#2b1100" style="paint-order:markers fill stroke"/><ellipse transform="matrix(.99963 -.027163 .25198 .96773 0 0)" cx="357.28" cy="627.12" rx="12.479" ry="11.532" fill="#a0892c" stroke="#a40" stroke-linecap="round" stroke-linejoin="round" stroke-width=".93344" style="paint-order:markers fill stroke"/><ellipse transform="matrix(.99963 -.027163 .25198 .96773 0 0)" cx="357.12" cy="626.94" rx="7.4642" ry="6.6764" fill="#c8ab37" stroke="#a40" stroke-linecap="round" stroke-linejoin="round" stroke-width=".92856" style="paint-order:markers fill stroke"/><ellipse transform="matrix(.99963 -.027163 .25198 .96773 0 0)" cx="356.88" cy="626.9" rx="3.8618" ry="3.5118" fill="#a0892c" stroke="#a40" stroke-linecap="round" stroke-linejoin="round" stroke-width=".48441" style="paint-order:markers fill stroke"/><ellipse transform="matrix(.99013 -.14018 .33678 .94158 0 0)" cx="364.82" cy="699.08" rx="17.438" ry="11.942" fill="#a0892c" stroke="#a40" stroke-linecap="round" stroke-linejoin="round" stroke-width="1.1229" style="paint-order:markers fill stroke"/><ellipse transform="matrix(.99013 -.14018 .33678 .94158 0 0)" cx="364.59" cy="698.9" rx="10.43" ry="6.9139" fill="#d3bc5f" stroke="#a40" stroke-linecap="round" stroke-linejoin="round" stroke-width="1.117" style="paint-order:markers fill stroke"/><ellipse transform="matrix(.99013 -.14018 .33678 .94158 0 0)" cx="364.26" cy="698.85" rx="5.3964" ry="3.6368" fill="#a0892c" stroke="#a40" stroke-linecap="round" stroke-linejoin="round" stroke-width=".58272" style="paint-order:markers fill stroke"/><ellipse transform="matrix(.85301 -.52189 .26598 .96398 0 0)" cx="513.76" cy="899.11" rx="13.641" ry="10.19" fill="#a0892c" stroke="#a40" stroke-linecap="round" stroke-linejoin="round" stroke-width=".91738" style="paint-order:markers fill stroke"/><ellipse transform="matrix(.85301 -.52189 .26598 .96398 0 0)" cx="513.58" cy="898.95" rx="8.1589" ry="5.8996" fill="#c8ab37" stroke="#a40" stroke-linecap="round" stroke-linejoin="round" stroke-width=".91259" style="paint-order:markers fill stroke"/><ellipse transform="matrix(.85301 -.52189 .26598 .96398 0 0)" cx="513.32" cy="898.91" rx="4.2212" ry="3.1032" fill="#a0892c" stroke="#a40" stroke-linecap="round" stroke-linejoin="round" stroke-width=".47608" style="paint-order:markers fill stroke"/><path d="m526.84 587.83c29.65-9.883 44.236-13.31 47.708-11.974-49.966 14.031-42.426 11.113-47.708 11.974z" fill="#28170b" style="paint-order:markers fill stroke"/><path d="m520.48 585.59c18.546-6.2606 27.669-8.4315 29.841-7.585-31.253 8.8882-26.537 7.0397-29.841 7.585z" fill="#28170b" style="paint-order:markers fill stroke"/><path d="m527.98 605.76 51.461-15.28c0.0607-2.8548 6.9327-12.734 8.062-14.849-9.5843 11.253-25.544 17.143-46.36 23.978-7.243 2.4399-9.536 4.2048-13.163 6.1516z" fill="#28170b" style="paint-order:markers fill stroke"/><path d="m609.68 589.38 48.321 15.867c4.1363 1.8355 5.6634 2.2674 8.0391 3.403-2.4115-1.7535-0.71747-2.0515-8.6528-5.3788-17.977-6.6272-42.81-12.6-53.746-26.874 1.0549 1.9021 4.6031 5.0609 6.0381 12.982z" fill="#28170b" style="paint-order:markers fill stroke"/><path d="m668.99 581.03c2.85 1.1027 4.961 1.9098 7.22 2.7762l4.4197-1.4429c1.723-0.6931 3.4331-1.4331 4.6071-4.1393-5.4156 2.8813-10.831 2.611-16.247 2.806z" fill="#28170b" style="paint-order:markers fill stroke"/><path d="m548.17 483.81c-24.28 20.022-33.617 56.714-4.116 78.203 29.171 18.05 67.077 18.86 100.65 4.1159 16.448-9.1796 19.894-26.158 17.96-32.553-4.6142-12.597-2.6341-18.748-2.2224-26.653-7.3252 3.2275-13.513 9.8548-19.48 18.422 5.8478-21.303 2.0066-38.728-13.648-50.514 9.6843 22.486-17.438 22.934-16.573 8.1145 0.2911-6.008 1.6354-9.9781 3.54-14.669 6.0219-14.831 3.8274-26.187-16.768-41.801 6.6129 23.084-16.574 31.521-28.766 45.362-8.7267 10.905-15.027 22.768-10.477 38.914-9.9294-9.6833-9.7626-16.697-10.103-26.941z" fill="#d45500" filter="url(#e)" style="mix-blend-mode:normal;paint-order:markers fill stroke"/><path d="m591.39 572.87c-31.754-4.1399-52.968-16.738-44.527-53.133 9.9157 22.091 30.308 11.363 29.747 2.9934-3.6734-35.041 5.9724-44.873 22.825-56.688-7.3644 15.02-4.4392 26.498 3.3676 36.295 4.3456 5.329 8.1857 10.865 11.038 20.018 4.6155 1.0013 7.5726-7.6157 11.038-13.283 8.2561 11.665 5.636 21.777 3.7418 31.992-1.0003 4.6786 8.2974 2.6783 16.277-7.1094 5.0726 29.407-26.513 40.612-53.507 38.914z" fill="#fc0" filter="url(#f)" style="mix-blend-mode:normal;paint-order:markers fill stroke"/><path d="m566.69 540.31c-11.407 37.119 61.466 46.436 55.472 2.4322l-16.651 6.9223c3.511-20.478-4.6294-29.735-14.406-37.418 2.5327 32.264-17.821 38.578-24.415 28.063z" fill="#fd5" filter="url(#g)" style="mix-blend-mode:normal;paint-order:markers fill stroke"/><path d="m541.27 381.93c28.361-25.991 56.7-55.646 57.784-81.465-20.143 35.325-37.454 57.653-57.784 81.465z" fill="#a40" style="paint-order:markers fill stroke"/><path d="m386.53 682.97c-5.3109-0.83848-9.1928-3.569-10.383-6.0804 3.1688 0.54805 7.9219 2.2685 10.383 6.0804z" fill="#250" style="paint-order:markers fill stroke"/><path d="m396.72 683.25c0.1776-5.7046-2.4371-10.944-11.225-15.154 1.3343 6.2927 4.2711 11.759 11.225 15.154z" fill="#250" style="paint-order:markers fill stroke"/><path d="m405.51 684.46c-4.9273-6.2695-7.2518-18.114-1.4967-21.048 4.0172 1.3795 5.0392 13.79 1.4967 21.048z" fill="#250" style="paint-order:markers fill stroke"/><path d="m413.28 683.62c-1.1164-11.066 3.4851-14.682 10.57-15.061-1.7524 7.0865-5.8485 11.439-10.57 15.061z" fill="#250" style="paint-order:markers fill stroke"/><path d="m433.2 676.14c-3.8446-1.305-6.1034 1.9211-8.2319 5.5191 2.3812-0.53358 4.6458-0.6477 8.2319-5.5191z" fill="#250" style="paint-order:markers fill stroke"/><path d="m321.79 644.05c-5.3109-0.83848-9.1928-3.569-10.383-6.0804 3.1688 0.54805 7.9219 2.2685 10.383 6.0804z" fill="#250" style="paint-order:markers fill stroke"/><path d="m331.99 644.33c0.1776-5.7046-2.4371-10.944-11.225-15.154 1.3343 6.2927 4.2711 11.759 11.225 15.154z" fill="#250" style="paint-order:markers fill stroke"/><path d="m340.78 645.55c-4.9273-6.2695-7.2518-18.114-1.4967-21.048 4.0172 1.3795 5.0392 13.79 1.4967 21.048z" fill="#250" style="paint-order:markers fill stroke"/><path d="m348.55 644.71c-1.1164-11.066 3.4851-14.682 10.57-15.061-1.7524 7.0865-5.8485 11.439-10.57 15.061z" fill="#250" style="paint-order:markers fill stroke"/><path d="m368.47 637.22c-3.8446-1.305-6.1034 1.9211-8.2319 5.5191 2.3812-0.53358 4.6458-0.6477 8.2319-5.5191z" fill="#250" style="paint-order:markers fill stroke"/><path d="m547.42 669.12c-5.3109-0.83848-9.1928-3.569-10.383-6.0804 3.1688 0.54805 7.9219 2.2685 10.383 6.0804z" fill="#250" style="paint-order:markers fill stroke"/><path d="m557.62 669.4c0.1776-5.7046-2.4371-10.944-11.225-15.154 1.3343 6.2927 4.2711 11.759 11.225 15.154z" fill="#250" style="paint-order:markers fill stroke"/><path d="m566.41 670.62c-4.9273-6.2695-7.2518-18.114-1.4967-21.048 4.0172 1.3795 5.0392 13.79 1.4967 21.048z" fill="#250" style="paint-order:markers fill stroke"/><path d="m574.18 669.78c-1.1164-11.066 3.4851-14.682 10.57-15.061-1.7524 7.0865-5.8485 11.439-10.57 15.061z" fill="#250" style="paint-order:markers fill stroke"/><path d="m594.1 662.29c-3.8446-1.305-6.1034 1.9211-8.2319 5.5191 2.3812-0.53358 4.6458-0.6477 8.2319-5.5191z" fill="#250" style="paint-order:markers fill stroke"/><path d="m810.84 665.21c5.3109-0.88773 9.1928-3.6543 10.383-6.1767-3.1688 0.57743-7.9219 2.3419-10.383 6.1767z" fill="#250" style="paint-order:markers fill stroke"/><path d="m800.65 665.59c-0.1776-5.703 2.4371-10.966 11.225-15.258-1.3343 6.3051-4.2711 11.799-11.225 15.258z" fill="#250" style="paint-order:markers fill stroke"/><path d="m791.85 666.89c4.9273-6.3152 7.2518-18.181 1.4967-21.061-4.0172 1.4168-5.0392 13.837-1.4967 21.061z" fill="#250" style="paint-order:markers fill stroke"/><path d="m784.09 666.12c1.1164-11.076-3.4851-14.649-10.57-14.963 1.7524 7.0702 5.8485 11.384 10.57 14.963z" fill="#250" style="paint-order:markers fill stroke"/><path d="m764.16 658.82c3.8446-1.3407 6.1034 1.8645 8.2319 5.4428-2.3812-0.51149-4.6458-0.60461-8.2319-5.4428z" fill="#250" style="paint-order:markers fill stroke"/><path d="m900.64 635.28c5.3109-0.88773 9.1928-3.6543 10.383-6.1767-3.1688 0.57743-7.9219 2.3419-10.383 6.1767z" fill="#250" style="paint-order:markers fill stroke"/><path d="m890.45 635.65c-0.1776-5.703 2.4371-10.966 11.225-15.258-1.3343 6.3051-4.2711 11.799-11.225 15.258z" fill="#250" style="paint-order:markers fill stroke"/><path d="m881.66 636.95c4.9273-6.3152 7.2518-18.181 1.4967-21.061-4.0172 1.4168-5.0392 13.837-1.4967 21.061z" fill="#250" style="paint-order:markers fill stroke"/><path d="m873.89 636.18c1.1164-11.076-3.4851-14.649-10.57-14.963 1.7524 7.0702 5.8485 11.384 10.57 14.963z" fill="#250" style="paint-order:markers fill stroke"/><path d="m853.97 628.88c3.8446-1.3407 6.1034 1.8645 8.2319 5.4428-2.3812-0.51149-4.6458-0.60461-8.2319-5.4428z" fill="#250" style="paint-order:markers fill stroke"/><path d="m1000.9 665.96c5.3109-0.88773 9.1927-3.6543 10.383-6.1767-3.1688 0.57743-7.9219 2.3419-10.383 6.1767z" fill="#250" style="paint-order:markers fill stroke"/><path d="m990.73 666.34c-0.1776-5.703 2.4371-10.966 11.225-15.258-1.3343 6.3051-4.2711 11.799-11.225 15.258z" fill="#250" style="paint-order:markers fill stroke"/><path d="m981.93 667.63c4.9273-6.3152 7.2518-18.181 1.4967-21.061-4.0172 1.4168-5.0392 13.837-1.4967 21.061z" fill="#250" style="paint-order:markers fill stroke"/><path d="m974.17 666.86c1.1164-11.076-3.4851-14.649-10.57-14.963 1.7524 7.0702 5.8485 11.384 10.57 14.963z" fill="#250" style="paint-order:markers fill stroke"/><path d="m954.25 659.57c3.8446-1.3407 6.1034 1.8645 8.2319 5.4428-2.3812-0.51149-4.6458-0.60461-8.2319-5.4428z" fill="#250" style="paint-order:markers fill stroke"/><path d="m173.24 680.93c5.3109-0.88773 9.1927-3.6543 10.383-6.1767-3.1688 0.57743-7.9219 2.3419-10.383 6.1767z" fill="#250" style="paint-order:markers fill stroke"/><path d="m163.05 681.3c-0.1776-5.703 2.4371-10.966 11.225-15.258-1.3343 6.3051-4.2711 11.799-11.225 15.258z" fill="#250" style="paint-order:markers fill stroke"/><path d="m154.25 682.6c4.9273-6.3152 7.2518-18.181 1.4967-21.061-4.0172 1.4168-5.0392 13.837-1.4967 21.061z" fill="#250" style="paint-order:markers fill stroke"/><path d="m146.49 681.83c1.1164-11.076-3.4851-14.649-10.57-14.963 1.7524 7.0702 5.8485 11.384 10.57 14.963z" fill="#250" style="paint-order:markers fill stroke"/><path d="m126.57 674.53c3.8446-1.3407 6.1034 1.8645 8.2319 5.4428-2.3812-0.51149-4.6458-0.60461-8.2319-5.4428z" fill="#250" style="paint-order:markers fill stroke"/><path d="m76.706 645.01c5.3109-0.88773 9.1927-3.6543 10.383-6.1767-3.1688 0.57743-7.9219 2.3419-10.383 6.1767z" fill="#250" style="paint-order:markers fill stroke"/><path d="m66.51 645.38c-0.1776-5.703 2.4371-10.966 11.225-15.258-1.3343 6.3051-4.2711 11.799-11.225 15.258z" fill="#250" style="paint-order:markers fill stroke"/><path d="m57.717 646.68c4.9273-6.3152 7.2518-18.181 1.4967-21.061-4.0172 1.4168-5.0392 13.837-1.4967 21.061z" fill="#250" style="paint-order:markers fill stroke"/><path d="m49.953 645.91c1.1164-11.076-3.4851-14.649-10.57-14.963 1.7524 7.0702 5.8485 11.384 10.57 14.963z" fill="#250" style="paint-order:markers fill stroke"/><path d="m30.028 638.61c3.8446-1.3407 6.1034 1.8645 8.2319 5.4428-2.3812-0.51149-4.6458-0.60461-8.2319-5.4428z" fill="#250" style="paint-order:markers fill stroke"/><path d="m214.4 638.27c5.3109-0.88773 9.1927-3.6543 10.383-6.1767-3.1688 0.57743-7.9219 2.3419-10.383 6.1767z" fill="#250" style="paint-order:markers fill stroke"/><path d="m204.21 638.65c-0.1776-5.703 2.4371-10.966 11.225-15.258-1.3343 6.3051-4.2711 11.799-11.225 15.258z" fill="#250" style="paint-order:markers fill stroke"/><path d="m195.41 639.94c4.9273-6.3152 7.2518-18.181 1.4967-21.061-4.0172 1.4168-5.0392 13.837-1.4967 21.061z" fill="#250" style="paint-order:markers fill stroke"/><path d="m187.65 639.17c1.1164-11.076-3.4851-14.649-10.57-14.963 1.7524 7.0702 5.8485 11.384 10.57 14.963z" fill="#250" style="paint-order:markers fill stroke"/><path d="m167.72 631.88c3.8446-1.3407 6.1034 1.8645 8.2319 5.4428-2.3812-0.51149-4.6458-0.60461-8.2319-5.4428z" fill="#250" style="paint-order:markers fill stroke"/><path d="m698.5 649.02c-1.2093-5.2842-3.9987-8.645-9.2604-8.9958-0.0375 3.9454 3.4839 6.8123 9.2604 8.9958z" fill="#250" style="paint-order:markers fill stroke"/><path d="m704.59 648.49c5.54-3.008 3.0087-8.8746 0.26458-14.817-1.2156 4.4378-6.2725 7.1684-0.26458 14.817z" fill="#250" style="paint-order:markers fill stroke"/><path d="m712.79 650.35c7.0274-2.1592 7.3479-7.4342 11.112-11.642-8.9264 2.4957-11.71 6.2859-11.112 11.642z" fill="#250" style="paint-order:markers fill stroke"/><path d="m720.72 652.2c1.1859-3.8015 2.3912-7.593 9.2604-8.4667-4.5529 5.6416-6.9547 7.1465-9.2604 8.4667z" fill="#250" style="paint-order:markers fill stroke"/><path d="m677.24 682.5c2.2009-5.046 5.6119-8.0157 10.916-7.7366-0.70708 3.879-4.7536 6.277-10.916 7.7366z" fill="#250" style="paint-order:markers fill stroke"/><path d="m671.28 681.26c-4.9476-3.6107-1.3208-9.0719 2.5322-14.582 0.37278 4.5022 4.8918 7.7831-2.5322 14.582z" fill="#250" style="paint-order:markers fill stroke"/><path d="m662.77 682.11c-6.5884-2.9534-5.9122-8.1717-8.8661-12.75 8.4155 3.509 10.472 7.5611 8.8661 12.75z" fill="#250" style="paint-order:markers fill stroke"/><path d="m654.51 682.98c-0.46336-3.8738-0.94782-7.74-7.6214-9.4123 3.468 6.0799 5.5751 7.8425 7.6214 9.4123z" fill="#250" style="paint-order:markers fill stroke"/><path d="m768.52 612.92c2.2009-5.046 5.6119-8.0157 10.916-7.7366-0.70708 3.879-4.7536 6.277-10.916 7.7366z" fill="#250" style="paint-order:markers fill stroke"/><path d="m762.56 611.67c-4.9476-3.6107-1.3208-9.0719 2.5322-14.582 0.37278 4.5022 4.8918 7.7831-2.5322 14.582z" fill="#250" style="paint-order:markers fill stroke"/><path d="m754.05 612.52c-6.5884-2.9534-5.9122-8.1717-8.8661-12.75 8.4155 3.509 10.472 7.5611 8.8661 12.75z" fill="#250" style="paint-order:markers fill stroke"/><path d="m745.8 613.4c-0.46336-3.8738-0.94782-7.74-7.6214-9.4123 3.468 6.0799 5.5751 7.8425 7.6214 9.4123z" fill="#250" style="paint-order:markers fill stroke"/><path d="m788.14 572.7c1.8716-5.046 4.7722-8.0157 9.2829-7.7366-0.60128 3.879-4.0424 6.277-9.2829 7.7366z" fill="#250" style="paint-order:markers fill stroke"/><path d="m783.08 571.46c-4.2073-3.6107-1.1231-9.0719 2.1533-14.582 0.317 4.5022 4.1599 7.7831-2.1533 14.582z" fill="#250" style="paint-order:markers fill stroke"/><path d="m775.84 572.3c-5.6026-2.9534-5.0276-8.1717-7.5395-12.75 7.1563 3.509 8.9048 7.5611 7.5395 12.75z" fill="#250" style="paint-order:markers fill stroke"/><path d="m768.82 573.18c-0.39403-3.8738-0.806-7.74-6.481-9.4123 2.9491 6.0799 4.7409 7.8425 6.481 9.4123z" fill="#250" style="paint-order:markers fill stroke"/><path d="m783.39 526.66c2.0512-5.046 5.2302-8.0157 10.174-7.7366-0.65899 3.879-4.4303 6.277-10.174 7.7366z" fill="#250" style="paint-order:markers fill stroke"/><path d="m777.84 525.42c-4.6111-3.6107-1.2309-9.0719 2.36-14.582 0.34743 4.5022 4.5592 7.7831-2.36 14.582z" fill="#250" style="paint-order:markers fill stroke"/><path d="m769.9 526.27c-6.1403-2.9534-5.5101-8.1717-8.2631-12.75 7.8431 3.509 9.7594 7.5611 8.2631 12.75z" fill="#250" style="paint-order:markers fill stroke"/><path d="m762.21 527.15c-0.43185-3.8738-0.88336-7.74-7.103-9.4123 3.2321 6.0799 5.1959 7.8425 7.103 9.4123z" fill="#250" style="paint-order:markers fill stroke"/><path d="m726.64 542.12c1.5722-3.8302 4.0088-6.0844 7.798-5.8725-0.5051 2.9444-3.3957 4.7646-7.798 5.8725z" fill="#250" style="paint-order:markers fill stroke"/><path d="m722.39 541.18c-3.5343-2.7407-0.94348-6.8861 1.8089-11.069 0.26629 3.4174 3.4945 5.9079-1.8089 11.069z" fill="#250" style="paint-order:markers fill stroke"/><path d="m716.31 541.82c-4.7064-2.2418-4.2234-6.2028-6.3335-9.6779 6.0116 2.6635 7.4804 5.7393 6.3335 9.6779z" fill="#250" style="paint-order:markers fill stroke"/><path d="m710.41 542.49c-0.331-2.9404-0.67708-5.8752-5.4443-7.1445 2.4774 4.615 3.9825 5.9529 5.4443 7.1445z" fill="#250" style="paint-order:markers fill stroke"/><path d="m701.54 499.46c-1.5722-3.8302-4.0088-6.0844-7.798-5.8725 0.5051 2.9444 3.3957 4.7646 7.798 5.8725z" fill="#250" style="paint-order:markers fill stroke"/><path d="m705.8 498.52c3.5343-2.7407 0.94348-6.8861-1.8089-11.069-0.26629 3.4174-3.4945 5.9079 1.8089 11.069z" fill="#250" style="paint-order:markers fill stroke"/><path d="m711.88 499.16c4.7064-2.2418 4.2234-6.2028 6.3335-9.6779-6.0116 2.6635-7.4804 5.7393-6.3335 9.6779z" fill="#250" style="paint-order:markers fill stroke"/><path d="m717.77 499.83c0.331-2.9404 0.67708-5.8752 5.4443-7.1445-2.4774 4.615-3.9825 5.9529-5.4443 7.1445z" fill="#250" style="paint-order:markers fill stroke"/><path d="m788.54 491.61c-1.5722-3.8302-4.0088-6.0844-7.798-5.8725 0.5051 2.9444 3.3957 4.7646 7.798 5.8725z" fill="#250" style="paint-order:markers fill stroke"/><path d="m792.79 490.66c3.5343-2.7407 0.94348-6.8861-1.8089-11.069-0.26629 3.4174-3.4945 5.9079 1.8089 11.069z" fill="#250" style="paint-order:markers fill stroke"/><path d="m798.88 491.31c4.7064-2.2418 4.2234-6.2028 6.3335-9.6779-6.0116 2.6635-7.4804 5.7393-6.3335 9.6779z" fill="#250" style="paint-order:markers fill stroke"/><path d="m804.77 491.97c0.331-2.9404 0.67708-5.8752 5.4443-7.1445-2.4774 4.615-3.9825 5.9529-5.4443 7.1445z" fill="#250" style="paint-order:markers fill stroke"/><path d="m483.99 530.15c1.5722-3.8302 4.0088-6.0844 7.798-5.8725-0.5051 2.9444-3.3957 4.7646-7.798 5.8725z" fill="#250" style="paint-order:markers fill stroke"/><path d="m479.73 529.2c-3.5343-2.7407-0.94348-6.8861 1.8089-11.069 0.26629 3.4174 3.4945 5.9079-1.8089 11.069z" fill="#250" style="paint-order:markers fill stroke"/><path d="m473.65 529.85c-4.7064-2.2418-4.2234-6.2028-6.3335-9.6779 6.0116 2.6635 7.4804 5.7393 6.3335 9.6779z" fill="#250" style="paint-order:markers fill stroke"/><path d="m467.76 530.51c-0.331-2.9404-0.67708-5.8752-5.4443-7.1445 2.4774 4.615 3.9825 5.9529 5.4443 7.1445z" fill="#250" style="paint-order:markers fill stroke"/><path d="m425.25 555.65c1.5722-4.1776 4.0088-6.6362 7.798-6.4051-0.5051 3.2114-3.3957 5.1967-7.798 6.4051z" fill="#250" style="paint-order:markers fill stroke"/><path d="m420.99 554.62c-3.5343-2.9893-0.94348-7.5106 1.8089-12.072 0.26629 3.7274 3.4945 6.4437-1.8089 12.072z" fill="#250" style="paint-order:markers fill stroke"/><path d="m414.91 555.32c-4.7064-2.4452-4.2234-6.7653-6.3335-10.556 6.0116 2.9051 7.4804 6.2598 6.3335 10.556z" fill="#250" style="paint-order:markers fill stroke"/><path d="m409.01 556.05c-0.331-3.2071-0.67708-6.408-5.4443-7.7924 2.4774 5.0335 3.9825 6.4928 5.4443 7.7924z" fill="#250" style="paint-order:markers fill stroke"/><path d="m407.69 603.66c-1.9814-4.9591-5.0521-7.8777-9.8273-7.6034 0.63655 3.8122 4.2794 6.1689 9.8273 7.6034z" fill="#250" style="paint-order:markers fill stroke"/><path d="m413.05 602.44c4.454-3.5486 1.189-8.9158-2.2796-14.331-0.33559 4.4247-4.4039 7.6492 2.2796 14.331z" fill="#250" style="paint-order:markers fill stroke"/><path d="m420.72 603.27c5.9312-2.9026 5.3225-8.031 7.9817-12.53-7.576 3.4486-9.427 7.4309-7.9817 12.53z" fill="#250" style="paint-order:markers fill stroke"/><path d="m428.15 604.13c0.41714-3.8071 0.85328-7.6068 6.8612-9.2503-3.1221 5.9753-5.019 7.7075-6.8612 9.2503z" fill="#250" style="paint-order:markers fill stroke"/><path d="m474.13 646.78c1.9814-4.9591 5.0521-7.8777 9.8273-7.6034-0.63655 3.8122-4.2794 6.1689-9.8273 7.6034z" fill="#250" style="paint-order:markers fill stroke"/><path d="m468.76 645.56c-4.454-3.5486-1.189-8.9158 2.2796-14.331 0.33559 4.4247 4.4039 7.6492-2.2796 14.331z" fill="#250" style="paint-order:markers fill stroke"/><path d="m461.1 646.4c-5.9312-2.9026-5.3225-8.031-7.9817-12.53 7.576 3.4486 9.427 7.4309 7.9817 12.53z" fill="#250" style="paint-order:markers fill stroke"/><path d="m453.67 647.26c-0.41714-3.8071-0.85328-7.6068-6.8612-9.2503 3.1221 5.9753 5.019 7.7075 6.8612 9.2503z" fill="#250" style="paint-order:markers fill stroke"/><path d="m353.48 583.28c1.9814-4.9591 5.0521-7.8777 9.8273-7.6034-0.63655 3.8122-4.2794 6.1689-9.8273 7.6034z" fill="#250" style="paint-order:markers fill stroke"/><path d="m348.11 582.06c-4.454-3.5486-1.189-8.9158 2.2796-14.331 0.33559 4.4247 4.4039 7.6492-2.2796 14.331z" fill="#250" style="paint-order:markers fill stroke"/><path d="m340.45 582.9c-5.9312-2.9026-5.3225-8.031-7.9817-12.53 7.576 3.4486 9.427 7.4309 7.9817 12.53z" fill="#250" style="paint-order:markers fill stroke"/><path d="m333.02 583.76c-0.41714-3.8071-0.85328-7.6068-6.8612-9.2503 3.1221 5.9753 5.019 7.7075 6.8612 9.2503z" fill="#250" style="paint-order:markers fill stroke"/><path d="m313.7 546.51c1.8403-4.9591 4.6922-7.8777 9.1273-7.6034-0.59121 3.8122-3.9746 6.1689-9.1273 7.6034z" fill="#250" style="paint-order:markers fill stroke"/><path d="m308.72 545.29c-4.1368-3.5486-1.1043-8.9158 2.1172-14.331 0.31169 4.4247 4.0902 7.6492-2.1172 14.331z" fill="#250" style="paint-order:markers fill stroke"/><path d="m301.6 546.12c-5.5088-2.9026-4.9434-8.031-7.4132-12.53 7.0364 3.4486 8.7556 7.4309 7.4132 12.53z" fill="#250" style="paint-order:markers fill stroke"/><path d="m294.7 546.98c-0.38742-3.8071-0.7925-7.6068-6.3724-9.2503 2.8997 5.9753 4.6615 7.7075 6.3724 9.2503z" fill="#250" style="paint-order:markers fill stroke"/><path d="m292.79 611.33c1.8403-4.9591 4.6922-7.8777 9.1273-7.6034-0.59121 3.8122-3.9746 6.1689-9.1273 7.6034z" fill="#250" style="paint-order:markers fill stroke"/><path d="m287.81 610.11c-4.1368-3.5486-1.1043-8.9158 2.1172-14.331 0.31169 4.4247 4.0902 7.6492-2.1172 14.331z" fill="#250" style="paint-order:markers fill stroke"/><path d="m280.69 610.94c-5.5088-2.9026-4.9434-8.031-7.4132-12.53 7.0364 3.4486 8.7556 7.4309 7.4132 12.53z" fill="#250" style="paint-order:markers fill stroke"/><path d="m273.79 611.8c-0.38742-3.8071-0.7925-7.6068-6.3724-9.2503 2.8997 5.9753 4.6615 7.7075 6.3724 9.2503z" fill="#250" style="paint-order:markers fill stroke"/><path d="m303.37 677.89c2.1084-6.1872 5.376-9.8286 10.457-9.4864-0.67735 4.7563-4.5538 7.6967-10.457 9.4864z" fill="#250" style="paint-order:markers fill stroke"/><path d="m297.66 676.37c-4.7396-4.4274-1.2652-11.124 2.4258-17.88 0.3571 5.5205 4.6862 9.5435-2.4258 17.88z" fill="#250" style="paint-order:markers fill stroke"/><path d="m289.51 677.4c-6.3114-3.6214-5.6637-10.02-8.4934-15.633 8.0617 4.3026 10.031 9.2712 8.4934 15.633z" fill="#250" style="paint-order:markers fill stroke"/><path d="m281.6 678.48c-0.44387-4.7499-0.90798-9.4906-7.301-11.541 3.3222 7.455 5.3407 9.6162 7.301 11.541z" fill="#250" style="paint-order:markers fill stroke"/><path d="m510.93 475.92c1.5722-3.4828 4.0088-5.5326 7.798-5.3399-0.5051 2.6773-3.3957 4.3325-7.798 5.3399z" fill="#250" style="paint-order:markers fill stroke"/><path d="m506.68 475.07c-3.5343-2.4922-0.94348-6.2616 1.8089-10.065 0.26629 3.1075 3.4945 5.3721-1.8089 10.065z" fill="#250" style="paint-order:markers fill stroke"/><path d="m500.59 475.65c-4.7064-2.0385-4.2234-5.6403-6.3335-8.8002 6.0116 2.422 7.4804 5.2188 6.3335 8.8002z" fill="#250" style="paint-order:markers fill stroke"/><path d="m494.7 476.26c-0.331-2.6738-0.67708-5.3423-5.4443-6.4966 2.4774 4.1965 3.9825 5.413 5.4443 6.4966z" fill="#250" style="paint-order:markers fill stroke"/><path d="m499.13 450.86c-3.5343-2.4922-0.94348-6.2616 1.8089-10.065 0.26629 3.1075 3.4945 5.3721-1.8089 10.065z" fill="#250" style="paint-order:markers fill stroke"/><path d="m493.05 451.44c-4.7064-2.0385-4.2234-5.6403-6.3335-8.8002 6.0116 2.422 7.4804 5.2188 6.3335 8.8002z" fill="#250" style="paint-order:markers fill stroke"/><path d="m487.16 452.05c-0.331-2.6738-0.67708-5.3423-5.4443-6.4966 2.4774 4.1965 3.9825 5.413 5.4443 6.4966z" fill="#250" style="paint-order:markers fill stroke"/><path d="m271.53 470.25c1.1488-2.6027 2.9293-4.1344 5.698-3.9905-0.36908 2.0007-2.4813 3.2376-5.698 3.9905z" fill="#250" style="paint-order:markers fill stroke"/><path d="m268.42 469.61c-2.5825-1.8624-0.68941-4.6792 1.3218-7.5213 0.19458 2.3222 2.5534 4.0145-1.3218 7.5213z" fill="#250" style="paint-order:markers fill stroke"/><path d="m263.98 470.05c-3.439-1.5234-3.0861-4.2149-4.6279-6.5763 4.3927 1.8099 5.466 3.9 4.6279 6.5763z" fill="#250" style="paint-order:markers fill stroke"/><path d="m259.67 470.5c-0.24187-1.9981-0.49475-3.9923-3.9782-4.8548 1.8102 3.136 2.9101 4.0451 3.9782 4.8548z" fill="#250" style="paint-order:markers fill stroke"/><path d="m239.35 567.41c1.8403-4.9591 4.6922-7.8777 9.1273-7.6034-0.59121 3.8122-3.9746 6.1689-9.1273 7.6034z" fill="#250" style="paint-order:markers fill stroke"/><path d="m234.37 566.19c-4.1368-3.5486-1.1043-8.9158 2.1172-14.331 0.31169 4.4247 4.0902 7.6492-2.1172 14.331z" fill="#250" style="paint-order:markers fill stroke"/><path d="m227.25 567.02c-5.5088-2.9026-4.9434-8.031-7.4132-12.53 7.0364 3.4486 8.7556 7.4309 7.4132 12.53z" fill="#250" style="paint-order:markers fill stroke"/><path d="m220.35 567.88c-0.38742-3.8071-0.7925-7.6068-6.3724-9.2503 2.8997 5.9753 4.6615 7.7075 6.3724 9.2503z" fill="#250" style="paint-order:markers fill stroke"/><path d="m145.69 590.69c1.8403-4.9591 4.6922-7.8777 9.1273-7.6034-0.59121 3.8122-3.9746 6.1689-9.1273 7.6034z" fill="#250" style="paint-order:markers fill stroke"/><path d="m140.7 589.47c-4.1368-3.5486-1.1043-8.9158 2.1172-14.331 0.31169 4.4247 4.0902 7.6492-2.1172 14.331z" fill="#250" style="paint-order:markers fill stroke"/><path d="m133.59 590.3c-5.5088-2.9026-4.9434-8.031-7.4132-12.53 7.0364 3.4486 8.7556 7.4309 7.4132 12.53z" fill="#250" style="paint-order:markers fill stroke"/><path d="m126.69 591.17c-0.38742-3.8071-0.7925-7.6068-6.3724-9.2503 2.8997 5.9753 4.6615 7.7075 6.3724 9.2503z" fill="#250" style="paint-order:markers fill stroke"/><path d="m48.478 560.53c-1.8403-4.9591-4.6922-7.8777-9.1273-7.6034 0.59121 3.8122 3.9746 6.1689 9.1273 7.6034z" fill="#250" style="paint-order:markers fill stroke"/><path d="m53.46 559.31c4.1368-3.5486 1.1043-8.9158-2.1172-14.331-0.31169 4.4247-4.0902 7.6492 2.1172 14.331z" fill="#250" style="paint-order:markers fill stroke"/><path d="m60.58 560.14c5.5088-2.9026 4.9434-8.031 7.4132-12.53-7.0364 3.4486-8.7556 7.4309-7.4132 12.53z" fill="#250" style="paint-order:markers fill stroke"/><path d="m67.479 561c0.38742-3.8071 0.7925-7.6068 6.3724-9.2503-2.8997 5.9753-4.6615 7.7075-6.3724 9.2503z" fill="#250" style="paint-order:markers fill stroke"/><path d="m170.72 521.9c-1.8403-4.9591-4.6922-7.8777-9.1273-7.6034 0.59121 3.8122 3.9746 6.1689 9.1273 7.6034z" fill="#250" style="paint-order:markers fill stroke"/><path d="m175.7 520.68c4.1368-3.5486 1.1043-8.9158-2.1172-14.331-0.31169 4.4247-4.0902 7.6492 2.1172 14.331z" fill="#250" style="paint-order:markers fill stroke"/><path d="m182.82 521.51c5.5088-2.9026 4.9434-8.031 7.4132-12.53-7.0364 3.4486-8.7556 7.4309-7.4132 12.53z" fill="#250" style="paint-order:markers fill stroke"/><path d="m189.72 522.38c0.38742-3.8071 0.7925-7.6068 6.3724-9.2503-2.8997 5.9753-4.6615 7.7075-6.3724 9.2503z" fill="#250" style="paint-order:markers fill stroke"/><path d="m119.76 492.27c1.8403-4.9591 4.6922-7.8777 9.1273-7.6034-0.59121 3.8122-3.9746 6.1689-9.1273 7.6034z" fill="#250" style="paint-order:markers fill stroke"/><path d="m114.78 491.05c-4.1368-3.5486-1.1043-8.9158 2.1172-14.331 0.31169 4.4247 4.0902 7.6492-2.1172 14.331z" fill="#250" style="paint-order:markers fill stroke"/><path d="m107.66 491.88c-5.5088-2.9026-4.9434-8.031-7.4132-12.53 7.0364 3.4486 8.7556 7.4309 7.4132 12.53z" fill="#250" style="paint-order:markers fill stroke"/><path d="m100.76 492.74c-0.38742-3.8071-0.7925-7.6068-6.3724-9.2503 2.8997 5.9753 4.6615 7.7075 6.3724 9.2503z" fill="#250" style="paint-order:markers fill stroke"/><path d="m35.249 513.43c-1.8403-4.9591-4.6922-7.8777-9.1273-7.6034 0.59121 3.8122 3.9746 6.1689 9.1273 7.6034z" fill="#250" style="paint-order:markers fill stroke"/><path d="m40.231 512.21c4.1368-3.5486 1.1043-8.9158-2.1172-14.331-0.31169 4.4247-4.0902 7.6492 2.1172 14.331z" fill="#250" style="paint-order:markers fill stroke"/><path d="m47.351 513.05c5.5088-2.9026 4.9434-8.031 7.4132-12.53-7.0364 3.4486-8.7556 7.4309-7.4132 12.53z" fill="#250" style="paint-order:markers fill stroke"/><path d="m54.25 513.91c0.38742-3.8071 0.7925-7.6068 6.3724-9.2503-2.8997 5.9753-4.6615 7.7075-6.3724 9.2503z" fill="#250" style="paint-order:markers fill stroke"/><path d="m870.03 586.86c-1.5722-3.8302-4.0088-6.0844-7.798-5.8725 0.5051 2.9444 3.3957 4.7646 7.798 5.8725z" fill="#250" style="paint-order:markers fill stroke"/><path d="m874.28 585.91c3.5343-2.7407 0.94348-6.8861-1.8089-11.069-0.26629 3.4174-3.4945 5.9079 1.8089 11.069z" fill="#250" style="paint-order:markers fill stroke"/><path d="m880.37 586.56c4.7064-2.2418 4.2234-6.2028 6.3335-9.6779-6.0116 2.6635-7.4804 5.7393-6.3335 9.6779z" fill="#250" style="paint-order:markers fill stroke"/><path d="m886.26 587.22c0.331-2.9404 0.67708-5.8752 5.4443-7.1445-2.4774 4.615-3.9825 5.9529-5.4443 7.1445z" fill="#250" style="paint-order:markers fill stroke"/><path d="m859.57 527.06c1.5722-3.8302 4.0088-6.0844 7.798-5.8725-0.5051 2.9444-3.3957 4.7646-7.798 5.8725z" fill="#250" style="paint-order:markers fill stroke"/><path d="m855.31 526.12c-3.5343-2.7407-0.94348-6.8861 1.8089-11.069 0.26629 3.4174 3.4945 5.9079-1.8089 11.069z" fill="#250" style="paint-order:markers fill stroke"/><path d="m849.23 526.76c-4.7064-2.2418-4.2234-6.2028-6.3335-9.6779 6.0116 2.6635 7.4804 5.7393 6.3335 9.6779z" fill="#250" style="paint-order:markers fill stroke"/><path d="m843.33 527.43c-0.331-2.9404-0.67708-5.8752-5.4443-7.1445 2.4774 4.615 3.9825 5.9529 5.4443 7.1445z" fill="#250" style="paint-order:markers fill stroke"/><path d="m919.36 480.49c1.5722-3.8302 4.0088-6.0844 7.798-5.8725-0.5051 2.9444-3.3957 4.7646-7.798 5.8725z" fill="#250" style="paint-order:markers fill stroke"/><path d="m915.11 479.55c-3.5343-2.7407-0.94348-6.8861 1.8089-11.069 0.26629 3.4174 3.4945 5.9079-1.8089 11.069z" fill="#250" style="paint-order:markers fill stroke"/><path d="m909.02 480.19c-4.7064-2.2418-4.2234-6.2028-6.3335-9.6779 6.0116 2.6635 7.4804 5.7393 6.3335 9.6779z" fill="#250" style="paint-order:markers fill stroke"/><path d="m903.13 480.86c-0.331-2.9404-0.67708-5.8752-5.4443-7.1445 2.4774 4.615 3.9825 5.9529 5.4443 7.1445z" fill="#250" style="paint-order:markers fill stroke"/><path d="m942.12 533.94c1.5722-3.8302 4.0088-6.0844 7.798-5.8725-0.5051 2.9444-3.3957 4.7646-7.798 5.8725z" fill="#250" style="paint-order:markers fill stroke"/><path d="m937.86 533c-3.5343-2.7407-0.94348-6.8861 1.8089-11.069 0.26629 3.4174 3.4945 5.9079-1.8089 11.069z" fill="#250" style="paint-order:markers fill stroke"/><path d="m931.78 533.64c-4.7064-2.2418-4.2234-6.2028-6.3335-9.6779 6.0116 2.6635 7.4804 5.7393 6.3335 9.6779z" fill="#250" style="paint-order:markers fill stroke"/><path d="m925.88 534.31c-0.331-2.9404-0.67708-5.8752-5.4443-7.1445 2.4774 4.615 3.9825 5.9529 5.4443 7.1445z" fill="#250" style="paint-order:markers fill stroke"/><path d="m961.57 597.44c-1.5722-3.8302-4.0088-6.0844-7.798-5.8725 0.5051 2.9444 3.3957 4.7646 7.798 5.8725z" fill="#250" style="paint-order:markers fill stroke"/><path d="m965.83 596.5c3.5343-2.7407 0.94348-6.8861-1.8089-11.069-0.26629 3.4174-3.4945 5.9079 1.8089 11.069z" fill="#250" style="paint-order:markers fill stroke"/><path d="m971.91 597.14c4.7064-2.2418 4.2234-6.2028 6.3335-9.6779-6.0116 2.6635-7.4804 5.7393-6.3335 9.6779z" fill="#250" style="paint-order:markers fill stroke"/><path d="m977.81 597.81c0.331-2.9404 0.67708-5.8752 5.4443-7.1445-2.4774 4.615-3.9825 5.9529-5.4443 7.1445z" fill="#250" style="paint-order:markers fill stroke"/><path d="m995.44 539.76c-1.5722-3.8302-4.0088-6.0844-7.798-5.8725 0.5051 2.9444 3.3957 4.7646 7.798 5.8725z" fill="#250" style="paint-order:markers fill stroke"/><path d="m999.7 538.82c3.5343-2.7407 0.94351-6.8861-1.8089-11.069-0.26629 3.4174-3.4945 5.9079 1.8089 11.069z" fill="#250" style="paint-order:markers fill stroke"/><path d="m1005.8 539.46c4.7064-2.2418 4.2234-6.2028 6.3335-9.6779-6.0116 2.6635-7.4804 5.7393-6.3335 9.6779z" fill="#250" style="paint-order:markers fill stroke"/><path d="m1011.7 540.13c0.331-2.9404 0.6771-5.8752 5.4443-7.1445-2.4773 4.615-3.9825 5.9529-5.4443 7.1445z" fill="#250" style="paint-order:markers fill stroke"/><path d="m1000.3 492.13c1.5723-3.8302 4.0089-6.0844 7.798-5.8725-0.5051 2.9444-3.3957 4.7646-7.798 5.8725z" fill="#250" style="paint-order:markers fill stroke"/><path d="m996.07 491.19c-3.5343-2.7407-0.94351-6.8861 1.8089-11.069 0.26629 3.4174 3.4945 5.9079-1.8089 11.069z" fill="#250" style="paint-order:markers fill stroke"/><path d="m989.99 491.84c-4.7064-2.2418-4.2234-6.2028-6.3335-9.6779 6.0116 2.6635 7.4804 5.7393 6.3335 9.6779z" fill="#250" style="paint-order:markers fill stroke"/><path d="m984.09 492.5c-0.331-2.9404-0.6771-5.8752-5.4443-7.1445 2.4773 4.615 3.9825 5.9529 5.4443 7.1445z" fill="#250" style="paint-order:markers fill stroke"/><path d="m1039 469.38c1.5723-3.8302 4.0089-6.0844 7.798-5.8725-0.5051 2.9444-3.3957 4.7646-7.798 5.8725z" fill="#250" style="paint-order:markers fill stroke"/><path d="m1034.7 468.44c-3.5343-2.7407-0.9435-6.8861 1.8089-11.069 0.2663 3.4174 3.4945 5.9079-1.8089 11.069z" fill="#250" style="paint-order:markers fill stroke"/><path d="m1028.6 469.08c-4.7064-2.2418-4.2234-6.2028-6.3335-9.6779 6.0116 2.6635 7.4804 5.7393 6.3335 9.6779z" fill="#250" style="paint-order:markers fill stroke"/><path d="m1022.7 469.75c-0.331-2.9404-0.6771-5.8752-5.4443-7.1445 2.4773 4.615 3.9825 5.9529 5.4443 7.1445z" fill="#250" style="paint-order:markers fill stroke"/><path d="m966.41 459.98c0.91602-2.5611 2.3356-4.0684 4.5431-3.9268-0.29427 1.9688-1.9783 3.1859-4.5431 3.9268z" fill="#250" style="paint-order:markers fill stroke"/><path d="m963.93 459.35c-2.0591-1.8327-0.54968-4.6046 1.0539-7.4012 0.15514 2.2852 2.0359 3.9504-1.0539 7.4012z" fill="#250" style="paint-order:markers fill stroke"/><path d="m960.38 459.78c-2.7419-1.499-2.4605-4.1476-3.6899-6.4713 3.5023 1.781 4.358 3.8377 3.6899 6.4713z" fill="#250" style="paint-order:markers fill stroke"/><path d="m956.95 460.22c-0.19284-1.9662-0.39447-3.9285-3.1718-4.7773 1.4433 3.0859 2.3202 3.9805 3.1718 4.7773z" fill="#250" style="paint-order:markers fill stroke"/><path d="m1031.2 595.54c0.9161-2.5611 2.3356-4.0684 4.5431-3.9268-0.2942 1.9688-1.9783 3.1859-4.5431 3.9268z" fill="#250" style="paint-order:markers fill stroke"/><path d="m1028.7 594.91c-2.059-1.8327-0.5496-4.6046 1.0539-7.4012 0.1551 2.2852 2.0359 3.9504-1.0539 7.4012z" fill="#250" style="paint-order:markers fill stroke"/><path d="m1025.2 595.34c-2.7419-1.499-2.4606-4.1476-3.6899-6.4713 3.5023 1.781 4.3581 3.8377 3.6899 6.4713z" fill="#250" style="paint-order:markers fill stroke"/><path d="m1021.7 595.78c-0.1929-1.9662-0.3945-3.9285-3.1718-4.7773 1.4432 3.0859 2.3201 3.9805 3.1718 4.7773z" fill="#250" style="paint-order:markers fill stroke"/><path d="m240.1 526.01c1.1488-2.6027 2.9293-4.1344 5.698-3.9905-0.36908 2.0007-2.4813 3.2376-5.698 3.9905z" fill="#250" style="paint-order:markers fill stroke"/><path d="m236.99 525.37c-2.5825-1.8624-0.68941-4.6792 1.3218-7.5213 0.19458 2.3222 2.5534 4.0145-1.3218 7.5213z" fill="#250" style="paint-order:markers fill stroke"/><path d="m232.55 525.8c-3.439-1.5234-3.0861-4.2149-4.6279-6.5763 4.3927 1.8099 5.466 3.9 4.6279 6.5763z" fill="#250" style="paint-order:markers fill stroke"/><path d="m228.24 526.25c-0.24187-1.9981-0.49475-3.9923-3.9782-4.8548 1.8102 3.136 2.9101 4.0451 3.9782 4.8548z" fill="#250" style="paint-order:markers fill stroke"/><path d="m376 522.74c-29.127 2.2622-57.69-5.4141-74.605-9.3658-22.519-5.9726-59.625-10.764-30.308-16.651 16.009-2.6568 34.812-1.4035 52.385-1.8709l133.21 10.29c11.469-0.46915 16.886 6.8708 4.303 8.6061-34.307 5.7426-59.548 7.0162-84.982 8.9916z" fill="#445016" style="paint-order:markers fill stroke"/><path d="m440.64 355-104.16 2.65c-3.574 0.13787-7.2285-0.38379-10.186 0.8599-12.37 6.6262-12.971 16.135-10.319 24.606 1.4814 4.4179 4.5198 7.9705 9.3684 10.518-16.042 10.055-30.337 42.5-31.431 69.223-3e-3 3.0529-0.64606 7.6317 2.806 8.2315-1.1976 21.997 12.78 32.443 35.173 36.483 10.393 8.7504 28.696 13.337 46.585 14.967 23.462-2.7284 47.426-5.0149 69.592-9.7762 5.5906-1.218 13.458-8.0827 10.848-17.595 3.8032-1.2557 8.0148-2.994 7.9375-9.3927l-0.66146-21.034c-0.33342-5.2185-0.98322-10.659-7.8285-12.079 0.50826-8.0985-2.2265-17.999-3.7419-27.222 1.1078-3.027 2.9038-6.1519 2.3099-11.367-1.4656-10.016-5.7522-18.624-12.7-25.4 14.978-5.818 11.68-30.699-3.5946-33.672zm-106.59 49.392-2.4324 42.843c-8.3031 0.50248-16.184 13.021-12.441 19.083l0.84181 29.653c-6.6719-5.8822-13.842-11.179-14.967-23.573 1.9931-0.75468 3.1987-1.9165 2.9001-6.2678-0.60366-11.267 3.3263-19.561 6.3608-30.308 3.9859-12.173 9.7027-23.31 19.738-31.431z" fill="#2b1100" style="paint-order:markers fill stroke"/><path d="m301.83 473.67c-7.7737 0.0105-8.0221-4.354-8.1427-9.197-0.18721-12.844 3.2727-25.688 7.1339-35.837 5.5504-14.416 13.131-28.184 25.981-36.917l1.9176 1.45c-1.8445 3.1074-3.7833 6.2278-0.28064 8.6061l4.841 3.5547c-9.3285 7.8945-14.706 18.487-18.265 29.326-3.034 10.424-7.4476 19.365-6.8415 31.527 0.43422 6.1353-3.1646 7.4364-6.344 7.4874z" fill="#520" style="paint-order:markers fill stroke"/><path d="m356.56 357.06c10.702 5.249 12.281 23.287 7.243 29.17-5.9751 1.4554-11.673 1.0335-17.435 5.2189-10.193 6.8416-17.079 4.5347-20.996 2.2556l1.1245-35.388c3.337-1.4138 20.031-0.8599 30.063-1.2568z" fill="#fc0" style="paint-order:markers fill stroke"/><path d="m419.3 355.47 22.462-0.5138c18.322 6.495 15.049 27.685 2.9378 34.05-3.4-3.5563-9.1857-6.2785-17.264-5.3578 4.8562-6.3713 3.942-25.051-8.1359-28.178z" fill="#fc0" style="paint-order:markers fill stroke"/><path d="m365.5 412.68c4.4177 6.9656 7.4206 22.788 23.037 23.879 18.326 1.2141 33.275 0.0632 55.166-4.101 3.7211-0.91006 6.8247-2.4159 10.919-7.021 2.0069 9.8038 4.1171 18.597 4.2947 27.262 8.0948 0.46153 7.8726 11.891 7.9134 21.719 0.34985 7.7146 3.1556 18.933-7.5166 20.747 1.2555 9.4319-2.6734 14.558-10.98 17.937-30.537 5.7748-46.257 7.3425-68.037 9.4248-6.8695 0.84609-14.604-2.1536-14.513-12.28z" fill="#a40" style="paint-order:markers fill stroke"/><path d="m319.16 466.31c8.2889 2.0448 16.578 3.3406 24.867 4.5145-0.05-5.6735-0.99759-13.662 11.972-18.587l-24.71-4.1383c-1.4308-0.25984-2.1747-0.0969-3.0636-0.0233-6.2427 2.5378-12.775 12.643-9.0659 18.234z" fill="#803300" style="paint-order:markers fill stroke"/><path d="m319.24 468.97 0.76894 26.979c3.3733 2.8158 2.3563 4.9255 16.1 8.4379 5.3597 1.4279 10.835 2.0492 16.37 2.2451-4.5699-2.6069-7.7893-5.3668-7.9513-11.693l-0.37417-21.094-14.094-2.5824z" fill="#803300" style="paint-order:markers fill stroke"/><path d="m380.51 459.15c-1.7056-0.0423-3.2935 2.5902-2.7544 5.7893v42.003c0.67836 7.088 7.0815 8.191 15.478 7.2099 13.115-1.0782 26.204-1.9708 39.489-4.2333 10.214-1.959 22.542-0.81669 25.268-13.758 0.50071-9.2256 0.0119-18.822-0.89297-28.575 3.5e-4 5.5758-4.4346 7.5992-7.5076 8.0863-5.225 0.97442-10.3 2.2144-15.895 2.8195l-29.978 2.836c-6.381 0.23831-8.3986 0.48185-12.181-1.7291-1.0041-0.58689-1.7055-0.99135-3.0298-2.6923-3.0281-4.3332-0.51106-16.354-7.8316-17.743-0.0552-7e-3 -0.11034-0.011-0.16536-0.0124z" fill="#520" style="paint-order:markers fill stroke"/><path d="m388.01 478.76 0.79375 22.49c0.13847 1.643-1.658 7.104-4.4979 8.9958 4.7019 1.0818 11.22 1.0583 18.785 0.39688 14.494-1.378 28.558-1.632 44.582-7.0115 2.9704-1.1113 7.7369-3.9294 8.0698-9.2604l0.52916-18.785c-8.7024 2.4589-16.041 3.6393-22.754 4.2333-2.252 0.13898-1.7255 0.78645-1.6867 2.3316 0.088 3.9244 0.2483 7.607 0.0992 11.294-0.23265 3.9242-13.142 7.1869-14.023 1.4552-0.70556-4.7405-0.687-9.1188-0.66146-13.494l-16.762 1.836c-4.7908 0.58624-10.425-0.96813-12.474-4.4819z" fill="#a40" style="paint-order:markers fill stroke"/><path d="m380.28 459.16c4.0301 1.2611 5.5929 6.0981 6.2627 12.257 0.85859 6.3324 3.6435 11.977 18.45 10.103l16.477-1.866c-0.24118-3.9871-2.4142-6.8108-0.54165-8.4606 1.5226-1.3414 7.6642-1.5653 9.4041-0.78483 2.1071 0.94523 1.69 4.6109 1.9732 8.215 3.0674-0.25263 12.971-1.6716 20.268-3.3652 5.9405-1.568 4.7918-10.497 3.8249-13.295l-2.7756-5.457c-1.544-2.9339-3.5946-3.4228-7.2902-2.9766l-17.226 1.0966c0.52908 4.7531-1.5969 4.1931-4.1145 4.5369-6.9784 1.085-6.0351-0.41607-6.9698-3.5547z" fill="#d45500" style="paint-order:markers fill stroke"/><path d="m409.71 411.16c2.2491 6.6585 4.3864 13.429 6.2838 20.439 1.1149 4.3797 1.12 6.677 1.1906 10.186l-0.46303 1.3891c0.50907 5.845 1.1709 11.507 2.9104 15.875 3.2532 0.60879 6.6849-0.20965 10.186-1.5875-0.57387-7.4488-1.9172-11.637-2.9652-16.241 0.74146-2.4608-0.38256-8.1031-0.93738-11.937l-2.6038-12.723c-0.14105-2.4968-3.7925-5.939-5.003-5.1367z" fill="#28170b" style="paint-order:markers fill stroke"/><path d="m366.93 356.73 43.792-1.0153c9.17 6.1345 13.543 15.294 8.4521 28.471l-46.297 1.6468c5.204-11.71 2.417-21.445-5.9478-29.102z" fill="#fc0" style="paint-order:markers fill stroke"/><path d="m352.1 388.58c9.0169 4.9763 11.683 14.77 15.903 23.386 10.247 19.939 12.09 19.724 27.315 22.264 2.6356 0.49942 12.944-8e-3 19.416-1.3083l-4.6302-17.529c-0.10192-1.4487 1.1829-1.8189 2.6458-2.0505l6.4823-0.26459c2.266-0.25838 3.2915 1.034 4.1672 2.5136l3.3073 16.272c6.8098 0.46415 14.184 0.83406 23.482-4.6302 11.24-7.4177 5.2633-21.652-0.33073-31.287-7.4806-13.8-15.692-12.723-25.268-12.435l-61.053 2.249c-4.1684 0.27112-9.9097 0.45212-11.437 2.8207z" fill="#a40" style="paint-order:markers fill stroke"/><rect transform="matrix(.9958 -.091534 .11026 .9939 0 0)" x="364.26" y="466.71" width="13.902" height="13.087" ry="3.5693" fill="none" stroke="#540" stroke-linecap="round" stroke-linejoin="round" stroke-width="2.6232" style="paint-order:markers fill stroke"/><rect transform="matrix(.9958 -.091534 .11026 .9939 0 0)" x="364.26" y="466.71" width="13.902" height="13.087" ry="3.5693" fill="none" stroke="url(#b)" stroke-linecap="round" stroke-linejoin="round" stroke-width="2.6232" style="paint-order:markers fill stroke"/><path d="m331.89 507.57c6.5204 1.6791 13.054 2.6741 19.409 2.6128 2.1078-0.15281 9.2827-1.4174 9.3266-9.4919l0.26458-45.409c-0.58517-4.3768-5.6246-3.9924-9.3266-4.7625l-16.57-2.6789-3.669-0.58188 2.9084-50.45c5.0511-1.158 11.792-2.6695 16.669-0.8599 6.9133 2.438 10.673 10.197 14.883 17.198l0.39688 99.483c0.89706 5.3649 4.2617 8.2699 12.334 10.031-22.855 1.9814-42.973-8.6116-46.626-15.091z" fill="#803300" style="paint-order:markers fill stroke"/><path d="m343.83 470.69c-1.118-8.9735 2.7589-15.71 11.906-18.488 2.6778 0.12556 3.1214 2.0396 3.0427 3.638l-0.0331 8.2682-11.609 5.92c-1.6038 0.78449-3.0737 1.0347-3.3073 0.66146z" fill="#a40" style="paint-order:markers fill stroke"/><path d="m343.93 473.8 14.717-7.0776-0.13229 36.645c-0.72191 4.1164-5.8868 3.2419-6.2928 3.259-1.2371-0.53628-3.1663-1.9173-4.4228-3.1267-1.7672-1.9407-3.4609-3.3096-3.5388-10.22z" fill="#a40" style="paint-order:markers fill stroke"/><path d="m419.24 494.14c0.0112-6.7871 0.70128-14.355-1.4534-21.237-0.66703-1.9065 0.33028-3.6036 6.8276-3.4322 6.6691-0.0641 7.9239 1.7539 7.8619 5.3778l0.59864 18.468c-0.0229 4.8299-13.878 5.302-13.835 0.82268z" fill="#28170b" style="paint-order:markers fill stroke"/><path d="m417.33 482.75c5.6698-0.36126 11.183-0.91764 16.604-1.5903" fill="none" stroke="#540" stroke-linecap="round" stroke-linejoin="round" stroke-width="2.7" style="paint-order:markers fill stroke"/><path d="m417.33 482.75c5.6698-0.36126 11.183-0.91764 16.604-1.5903" fill="none" stroke="url(#a)" stroke-linecap="round" stroke-linejoin="round" stroke-width="2.7" style="paint-order:markers fill stroke"/><ellipse cx="331.59" cy="376.78" rx="17.201" ry="19.003" fill="#806600" stroke="#28220b" stroke-linecap="round" stroke-linejoin="round" stroke-width=".80321" style="paint-order:markers fill stroke"/><ellipse cx="331.26" cy="376.72" rx="15.582" ry="17.517" fill="#540" stroke="#28220b" stroke-linecap="round" stroke-linejoin="round" stroke-width=".73396" style="paint-order:markers fill stroke"/><ellipse cx="331.39" cy="376.72" rx="14.029" ry="15.964" fill="#806600" stroke="#28220b" stroke-linecap="round" stroke-linejoin="round" stroke-width=".66484" style="paint-order:markers fill stroke"/><ellipse cx="331.39" cy="376.85" rx="12.092" ry="13.63" fill="#540" stroke="#28220b" stroke-linecap="round" stroke-linejoin="round" stroke-width=".57033" style="paint-order:markers fill stroke"/><ellipse cx="331.52" cy="377.05" rx="9.8858" ry="12.019" fill="#806600" stroke="#28220b" stroke-linecap="round" stroke-linejoin="round" stroke-width=".48426" style="paint-order:markers fill stroke"/><ellipse cx="331.39" cy="377.05" rx="8.2036" ry="10.337" fill="#540" stroke="#28220b" stroke-linecap="round" stroke-linejoin="round" stroke-width=".4091" style="paint-order:markers fill stroke"/><path d="m301.16 136.79c-7.5 0.0567-5.3399-11.7 1.0583-18.653 10.186-10.299 20.008-5.5098 27.517-1.9844 0.75245-12.821 10.355-25.378 32.147-25.4 19.059 0.14043 35.288 9.7184 32.411 29.501 4.653-3.0557 13.513-6.5903 25.003-2.1167 7.3828 2.7689 15.978 18.904 6.4162 18.852z" fill="#e6e6e6" filter="url(#i)" opacity=".22081" style="paint-order:markers fill stroke"/><path d="m589.98 99.157c-5.5556-0.0342-2.5264-6.7486 1.2161-8.8867 6.5836-3.1801 14.314 0.25302 13.33-0.44434-2.4071-1.7054 1.1722-10.459 7.9045-12.558 5.6078-1.8101 10.756-1.9102 15.622 0.0935 1.573-6.6669 5.5746-12.214 19.083-13.377 7.5541-0.42332 13.514 1.2352 16.37 10.196 9.9287-2.1466 19.987-4.754 25.912 7.2965 6.2314 15.475-1.0438 17.762-10.477 17.867z" fill="#e6e6e6" filter="url(#j)" opacity=".22081" style="paint-order:markers fill stroke"/><path d="m932.32 188.51c-5.3875 0.12063 0.41141-9.2829 5.5562-10.583 3.4885-0.73081 7.3-0.85146 11.906 0.52917 0.29094-5.246 2.6474-9.2856 10.583-11.509 5.9681-1.6299 11.875-1.8157 17.595 2.3812 2.0241-8.2569 7.2015-14.894 27.252-13.891 10.599 0.93281 20.959 11.295 17.595 20.77 5.1201-1.3983 9.8146-1.6449 12.832 2.6458 3.0891 4.0728 3.4371 9.814-0.2646 9.7896z" fill="#e6e6e6" filter="url(#k)" opacity=".22081" style="paint-order:markers fill stroke"/><path d="m200.74 112.18c5.3875 0.12063-0.41141-9.2829-5.5562-10.583-3.4885-0.73081-7.3-0.85146-11.906 0.52917-0.29094-5.246-2.6474-9.2855-10.583-11.509-5.9681-1.6299-11.875-1.8157-17.595 2.3812-2.0241-8.2569-7.2015-14.894-27.252-13.891-10.599 0.93281-20.959 11.295-17.595 20.77-5.1201-1.3983-9.8146-1.6449-12.832 2.6458-3.0891 4.0728-3.4371 9.814 0.2646 9.7896z" fill="#e6e6e6" filter="url(#h)" opacity=".22081" style="paint-order:markers fill stroke"/><path d="m844.3 61a44.34 42.095 3.9805 0 0-1.8936-0.09343 45.275 46.211 3.9805 0 1 19.471 41.263 45.275 46.211 3.9805 0 1-32.661 41.23 44.34 42.095 3.9805 0 0 9.2402 1.5873 44.34 42.095 3.9805 0 0 47.155-38.916 44.34 42.095 3.9805 0 0-41.311-45.071z" fill="#999" stroke-linecap="round" stroke-linejoin="round" stroke-width=".086493" style="paint-order:markers fill stroke"/></g></svg>