<?xml version='1.0' encoding='utf-8'?>
<svg xmlns="http://www.w3.org/2000/svg" width="4e3" height="2667" version="1.1" viewBox="0 0 1058.3 705.64"><defs><filter id="o" x="-.014845" y="-.048089" width="1.0297" height="1.0962" color-interpolation-filters="sRGB"><feGaussianBlur stdDeviation="0.66735536"/></filter><filter id="b" x="-.015282" y="-.045219" width="1.0306" height="1.0904" color-interpolation-filters="sRGB"><feGaussianBlur stdDeviation="0.66735536"/></filter><filter id="a" x="-.011994" y="-.034641" width="1.024" height="1.0693" color-interpolation-filters="sRGB"><feGaussianBlur stdDeviation="0.66735536"/></filter><filter id="n" x="-.014845" y="-.048089" width="1.0297" height="1.0962" color-interpolation-filters="sRGB"><feGaussianBlur stdDeviation="0.66735536"/></filter><filter id="l" x="-.37413" y="-.40702" width="1.7483" height="1.814" color-interpolation-filters="sRGB"><feGaussianBlur stdDeviation="23.098341"/></filter><filter id="m" x="-.011879" y="-.011375" width="1.0238" height="1.0228" color-interpolation-filters="sRGB"><feGaussianBlur stdDeviation="0.8429716"/></filter><filter id="k" x="-.0047339" y="-.016351" width="1.0095" height="1.0327" color-interpolation-filters="sRGB"><feGaussianBlur stdDeviation="0.029780508"/></filter><linearGradient id="g" x1="86.313" x2="88.395" y1="203.36" y2="196.62" gradientTransform="matrix(1.2473 0 0 1.4514 151.11 -149.07)" gradientUnits="userSpaceOnUse"><stop stop-color="#808080" offset="0"/><stop stop-color="#808080" stop-opacity="0" offset="1"/></linearGradient><linearGradient id="f" x1="116.63" x2="116.8" y1="198.76" y2="203.97" gradientTransform="matrix(1.2473 0 0 1.4514 151.11 -149.07)" gradientUnits="userSpaceOnUse"><stop stop-color="#ccc" offset="0"/><stop stop-color="#ccc" stop-opacity="0" offset="1"/></linearGradient><radialGradient id="d" cx="102.32" cy="203.26" r="1.486" gradientTransform="matrix(1.2473 0 0 2.8614 162.11 -436.35)" gradientUnits="userSpaceOnUse"><stop stop-color="#808080" offset="0"/><stop stop-color="#808080" stop-opacity="0" offset="1"/></radialGradient><radialGradient id="c" cx="135.55" cy="204.6" r="1.1286" gradientTransform="matrix(1.2473 0 0 2.1987 151.11 -302.25)" gradientUnits="userSpaceOnUse"><stop stop-color="#666" offset="0"/><stop stop-color="#666" stop-opacity="0" offset="1"/></radialGradient><linearGradient id="e" x1="60.617" x2="74.783" y1="202.92" y2="197.87" gradientTransform="matrix(1.2473 0 0 1.4514 151.11 -149.07)" gradientUnits="userSpaceOnUse"><stop stop-color="#808080" offset="0"/><stop stop-color="#808080" stop-opacity="0" offset="1"/></linearGradient><linearGradient id="j" x1="118.43" x2="117.45" y1="207.75" y2="198.96" gradientTransform="matrix(1.2473 0 0 1.4514 151.11 -149.07)" gradientUnits="userSpaceOnUse"><stop stop-color="#999" offset="0"/><stop stop-color="#999" stop-opacity="0" offset="1"/></linearGradient><linearGradient id="i" x1="122.64" x2="123.81" y1="183.43" y2="196.53" gradientTransform="matrix(1.2473 0 0 1.4514 151.11 -149.07)" gradientUnits="userSpaceOnUse"><stop stop-color="#fff" offset="0"/><stop stop-color="#f4eed7" offset="1"/></linearGradient><linearGradient id="h" x1="283.96" x2="944.8" y1="705.44" y2="312.81" gradientUnits="userSpaceOnUse"><stop stop-color="#ffb380" offset="0"/><stop stop-color="#a0892c" offset="1"/></linearGradient></defs><g><rect x=".00057052" y=".00094525" width="1058.3" height="705.64" fill="#59f" stroke-linecap="round" stroke-linejoin="round" stroke-width=".10574" style="paint-order:markers fill stroke"/><ellipse cx="896.81" cy="131.21" rx="74.087" ry="68.1" fill="#ffd42a" filter="url(#l)" opacity=".84" style="paint-order:markers fill stroke"/><path d="m857.35 393.05-42.959-41.149c-3.5138-4.1173-5.9303-3.139-9.2604-0.39687l-8.9958 7.5406-37.174-45.111c-3.1259-3.9723-4.4389-3.4316-8.4667 0-11.969 10.478-20.656 23.94-30.03 36.777l-7.4083-3.8365c-6.7578-2.9989-61.515 69.382-99.904 92.15l437.78-0.86828c-18.929-35.976-34.604-71.185-61.383-109.01-4.5224-5.9858-22.578 35.983-33.867 53.975-6.2859-8.5949-18.811-24.952-20.108-23.283-12.206 17.075-21.872 36.689-32.808 55.033z" fill="#a0892c" style="paint-order:markers fill stroke"/><path d="m623.85 436.56c15.567-17.871 49.385-43.149 70.674-62.77 10.871-9.9752 12.777 13.142 26.498 12.925 4.1329-0.0531 8.1016-3.0949 12.044-6.6082 5.9408-5.1686 21.379 34.591 35.822 27.403 15.236-7.0439 26.742-1.9747 35.628 3.4354 8.5427 5.7349 15.062 9.9123 22.047 14.868l-50.015 31.664z" fill="#250" opacity=".655" style="paint-order:markers fill stroke"/><path d="m753.18 312.45c-1.4491 2.4956-6.2246 19.94-8.419 31.057-0.72833 3.5336 7.5305 10.933 12.348 16.838-2.5813 5.5639-5.2088 11.035-8.1383 15.903 1.7346 3.7927 5.6562 5.4739 9.9157 6.8287 2.6814 0.83542 5.1345 0.87798 7.5771-3.274l7.8577-14.219c0.86781-1.6381 2.8542-4.153 4.8643-2.4322 8.8846 7.8764 16.624 17.471 24.883 26.286 2.1896 2.394 2.7551 3.5349 8.5513 5.6958 11.048 4.2124 16.323 6.0495 21.57 8.71 22.243 9.0021 31.067-2.2491 23.164-10.794-14.383-13.796-30.01-29.494-43.463-41.778-3.4874-3.1982-4.5213-2.5627-4.0224 0.46773 1.6393 7.2997 2.0472 12.025 4.9578 21.983 1.3928 3.4245 1.0997 4.5238-0.37417 3.8353-6.5858-6.0108-13.017-11.871-18.321-18.519-12.488-15.652-24.853-30.214-37.338-45.278-1.3943-1.946-3.9231-4.1364-5.6127-1.3096z" fill="#decd87" style="paint-order:markers fill stroke"/><path d="m712.92 346.82c0.14534 7.0918 0.61723 9.5423 0.93236 14.37 2.2606-3.176 4.3642-6.7698 6.6249-10.502-2.5834-1.4815-7.2492-3.8006-7.5572-3.8681z" fill="#decd87" style="paint-order:markers fill stroke"/><path d="m906 409.18 12.447-21.883c5.7813-10.488 14.678 7.9573 32.069 6.9339 7.7366-0.89207 32.993-19.208 43.259-0.52916 5.6408 10.263 32.279-2.3813 32.279-2.3813-8.9498 23.452-28.697 34.049-52.388 39.952-36.153-5.0199-51.376-13.648-67.667-22.093z" fill="#17280b" opacity=".215" style="paint-order:markers fill stroke"/><path d="m5.7052e-4 399.19c113.04-19.636 162.3 48.458 252.94 6.908 74.905-35.012 172.77 17.529 263.87 24.127 63.917 4.6291 186.63-16.258 269.53 6.5647 118.59-55.838 138.69-22.26 172.08-15.997 45.749 8.5796 75.478-64.517 99.908-47.802v332.65h-1058.3z" fill="#250" stroke-linecap="round" stroke-linejoin="round" stroke-width=".065268" style="paint-order:markers fill stroke"/><path transform="matrix(-1 0 0 1 1093.5 5.2917)" d="m557.18 76.932c-5.5556-0.0342-2.5264-6.7486 1.2161-8.8867 6.5836-3.1801 14.314 0.25302 13.33-0.44434-2.4071-1.7054 1.1722-10.459 7.9045-12.558 5.6078-1.8101 10.756-1.9102 15.622 0.0935 1.573-6.6669 5.5746-12.214 19.083-13.377 7.5541-0.42332 13.514 1.2352 16.37 10.196 9.9287-2.1466 19.987-4.754 25.912 7.2965 6.2314 15.475-1.0438 17.762-10.477 17.867z" fill="#e6e6e6" filter="url(#b)" opacity=".22081" style="paint-order:markers fill stroke"/><path d="m161.58 96.301c5.3875 0.12063-0.41141-9.2829-5.5562-10.583-3.4885-0.73081-7.3-0.85146-11.906 0.52917-0.29094-5.246-2.6474-9.2855-10.583-11.509-5.9681-1.6299-11.875-1.8157-17.595 2.3812-2.0241-8.2569-7.2015-14.894-27.252-13.891-10.599 0.93281-20.959 11.295-17.595 20.77-5.1201-1.3983-9.8146-1.6449-12.832 2.6458-3.0891 4.0728-3.4371 9.814 0.2646 9.7896z" fill="#e6e6e6" filter="url(#n)" opacity=".22081" style="paint-order:markers fill stroke"/><path d="m5.7052e-4 461.43c59.07-18.798 302 10.824 324.91 0 151.96-64.521 425.26 0.82553 461.43 0 27.137 0.1863 203.86-42.344 271.99 0v244.21h-1058.3z" fill="#008000" stroke-linecap="round" stroke-linejoin="round" stroke-width=".062205" style="paint-order:markers fill stroke"/><path d="m767.6 459.74c3.5238 0.47876 7.1881 0.88673 10.887 1.2781-15.871 3.6846-28.172 6.4943-35.554 11.565-1.6782 1.5252-1.9158 3.9414 2.4321 5.6127 9.9732 3.9658 38.742 7.5172 60.43 16.09 26.336 10.492 36.059 24.338 10.664 45.275-29.736 22.449-88.796 43.415-102.34 52.759-13.551 10.204-37.462 22.796-21.889 44.153 18.444 23.144 82.398 44.967 168.76 69.169l-860.99-0.00118c133.62-69.129 282.93-117.07 443.72-144.14 101.87-14.159 213.3-18.194 304.95-41.614 22.518-5.3949 29.428-15.646-4.0581-27.47-12.911-4.1465-48.633-11.688-29.186-23.947 4.4517-2.5767 24.205-5.4586 52.17-8.727z" fill="#fca" style="paint-order:markers fill stroke"/><path d="m767.6 459.74c3.5238 0.47876 7.1881 0.88673 10.887 1.2781-15.871 3.6846-28.172 6.4943-35.554 11.565-1.6782 1.5252-1.9158 3.9414 2.4321 5.6127 9.9732 3.9658 38.742 7.5172 60.43 16.09 26.336 10.492 36.059 24.338 10.664 45.275-29.736 22.449-88.796 43.415-102.34 52.759-13.551 10.204-37.462 22.796-21.889 44.153 18.444 23.144 82.398 44.967 168.76 69.169l-860.99-0.00118c133.62-69.129 282.93-117.07 443.72-144.14 101.87-14.159 213.3-18.194 304.95-41.614 22.518-5.3949 29.428-15.646-4.0581-27.47-12.911-4.1465-48.633-11.688-29.186-23.947 4.4517-2.5767 24.205-5.4586 52.17-8.727z" fill="url(#h)" style="paint-order:markers fill stroke"/><path d="m988.87 328.63c-3.3969 8.0652-4.8208 17.551-4.0251 32.383 1.6564 21.927 20.05 19.273 35.259 17.64-8.8224-16.181-18.582-32.582-30.565-49.507-0.1977-0.26168-0.42148-0.43186-0.66921-0.51625zm-53.016 31.09c-0.23145 5.0197 0.0643 10.567 1.2976 17.051 1.1872 5.5748 16.708 9.6569 18.364 6.6435l0.15193-0.30024c-5.9614-8.1509-17.524-23.27-19.813-23.394z" fill="#decd87" style="paint-order:markers fill stroke"/><path transform="matrix(-1 0 0 1 809.97 78.317)" d="m382.65 184.41c-7.5 0.0567-5.3399-11.7 1.0583-18.653 10.186-10.299 20.008-5.5098 27.517-1.9844 0.75245-12.821 10.355-25.378 32.147-25.4 19.059 0.14043 35.288 9.7184 32.411 29.501 4.653-3.0557 13.513-6.5903 25.003-2.1167 7.3828 2.7689 15.978 18.904 6.4162 18.852z" fill="#e6e6e6" filter="url(#a)" opacity=".22081" style="paint-order:markers fill stroke"/><path d="m558.23 177.47c-5.5556-0.0342-2.5264-6.7486 1.2161-8.8867 6.5836-3.1801 14.314 0.25302 13.33-0.44434-2.4071-1.7054 1.1722-10.459 7.9045-12.558 5.6078-1.8101 10.756-1.9102 15.622 0.0935 1.573-6.6669 5.5746-12.214 19.083-13.377 7.5541-0.42332 13.514 1.2352 16.37 10.196 9.9287-2.1466 19.987-4.754 25.912 7.2965 6.2314 15.475-1.0438 17.762-10.477 17.867z" fill="#e6e6e6" filter="url(#b)" opacity=".22081" style="paint-order:markers fill stroke"/><path d="m745.66 186.53c-7.5 0.0567-5.3399-11.7 1.0583-18.653 10.186-10.299 20.008-5.5098 27.517-1.9844 0.75245-12.821 10.355-25.378 32.147-25.4 19.059 0.14043 35.288 9.7184 32.411 29.501 4.653-3.0557 13.513-6.5903 25.003-2.1167 7.3828 2.7689 15.978 18.904 6.4162 18.852z" fill="#e6e6e6" filter="url(#a)" opacity=".22081" style="paint-order:markers fill stroke"/><path d="m914.33 101.72c-5.3875 0.12063 0.41141-9.2829 5.5562-10.583 3.4885-0.73081 7.3-0.85146 11.906 0.52917 0.29094-5.246 2.6474-9.2856 10.583-11.509 5.9681-1.6299 11.875-1.8157 17.595 2.3812 2.0241-8.2569 7.2015-14.894 27.252-13.891 10.599 0.93281 20.959 11.295 17.595 20.77 5.1201-1.3983 9.8146-1.6449 12.832 2.6458 3.0891 4.0728 3.4371 9.814-0.2646 9.7896z" fill="#e6e6e6" filter="url(#o)" opacity=".22081" style="paint-order:markers fill stroke"/><path d="m75.843 549.85c5.3109-0.88773 9.1928-3.6543 10.383-6.1767-3.1688 0.57743-7.9219 2.3419-10.383 6.1767z" fill="#250" style="paint-order:markers fill stroke"/><path d="m65.647 550.23c-0.1776-5.703 2.4371-10.966 11.225-15.258-1.3343 6.3051-4.2711 11.799-11.225 15.258z" fill="#250" style="paint-order:markers fill stroke"/><path d="m56.854 551.53c4.9273-6.3152 7.2518-18.181 1.4967-21.061-4.0172 1.4168-5.0392 13.837-1.4967 21.061z" fill="#250" style="paint-order:markers fill stroke"/><path d="m49.09 550.76c1.1164-11.076-3.4851-14.649-10.57-14.963 1.7524 7.0702 5.8485 11.384 10.57 14.963z" fill="#250" style="paint-order:markers fill stroke"/><path d="m29.165 543.46c3.8446-1.3407 6.1034 1.8645 8.2319 5.4428-2.3812-0.51149-4.6458-0.60461-8.2319-5.4428z" fill="#250" style="paint-order:markers fill stroke"/><path d="m136.01 561.18c-1.2093-5.2842-3.9987-8.645-9.2604-8.9958-0.0375 3.9454 3.4839 6.8123 9.2604 8.9958z" fill="#250" style="paint-order:markers fill stroke"/><path d="m142.09 560.65c5.54-3.008 3.0087-8.8746 0.26458-14.817-1.2156 4.4378-6.2725 7.1684-0.26458 14.817z" fill="#250" style="paint-order:markers fill stroke"/><path d="m150.3 562.5c7.0274-2.1592 7.3479-7.4342 11.112-11.642-8.9264 2.4957-11.71 6.2859-11.112 11.642z" fill="#250" style="paint-order:markers fill stroke"/><path d="m158.23 564.36c1.1859-3.8015 2.3912-7.593 9.2604-8.4667-4.5529 5.6416-6.9547 7.1465-9.2604 8.4667z" fill="#250" style="paint-order:markers fill stroke"/><path d="m114.75 594.66c2.2009-5.046 5.6119-8.0157 10.916-7.7366-0.70708 3.879-4.7536 6.277-10.916 7.7366z" fill="#250" style="paint-order:markers fill stroke"/><path d="m108.79 593.42c-4.9476-3.6107-1.3208-9.0719 2.5322-14.582 0.37278 4.5022 4.8918 7.7831-2.5322 14.582z" fill="#250" style="paint-order:markers fill stroke"/><path d="m100.27 594.27c-6.5884-2.9534-5.9122-8.1717-8.8661-12.75 8.4155 3.509 10.472 7.5611 8.8661 12.75z" fill="#250" style="paint-order:markers fill stroke"/><path d="m92.024 595.14c-0.46336-3.8738-0.94782-7.74-7.6214-9.4123 3.468 6.0799 5.5751 7.8425 7.6214 9.4123z" fill="#250" style="paint-order:markers fill stroke"/><path d="m131.04 626.78c3.6021-0.64003 6.235-2.6346 7.0425-4.4532-2.1492 0.41631-5.373 1.6885-7.0425 4.4532z" fill="#250" style="paint-order:markers fill stroke"/><path d="m124.13 627.05c-0.12045-4.1117 1.653-7.9065 7.6135-11.001-0.90499 4.5458-2.8968 8.5066-7.6135 11.001z" fill="#250" style="paint-order:markers fill stroke"/><path d="m118.16 627.99c3.3419-4.553 4.9185-13.108 1.0151-15.185-2.7247 1.0214-3.4178 9.9761-1.0151 15.185z" fill="#250" style="paint-order:markers fill stroke"/><path d="m112.9 627.43c0.75719-7.9858-2.3638-10.562-7.1694-10.788 1.1886 5.0974 3.9667 8.2078 7.1694 10.788z" fill="#250" style="paint-order:markers fill stroke"/><path d="m99.383 622.17c2.6076-0.96657 4.1396 1.3442 5.5833 3.9241-1.615-0.36877-3.151-0.43591-5.5833-3.9241z" fill="#250" style="paint-order:markers fill stroke"/><path d="m54.846 615.11c-0.8202-3.8098-2.7121-6.2327-6.2808-6.4857-0.025 2.8445 2.3629 4.9114 6.2808 6.4857z" fill="#250" style="paint-order:markers fill stroke"/><path d="m58.974 614.73c3.7575-2.1687 2.0406-6.3984 0.1794-10.682-0.8244 3.1995-4.2543 5.1682-0.1794 10.682z" fill="#250" style="paint-order:markers fill stroke"/><path d="m64.537 616.06c4.7663-1.5568 4.9837-5.3599 7.537-8.3933-6.0543 1.7993-7.9424 4.5319-7.537 8.3933z" fill="#250" style="paint-order:markers fill stroke"/><path d="m69.92 617.4c0.80436-2.7407 1.6218-5.4743 6.2809-6.1042-3.088 4.0674-4.717 5.1524-6.2809 6.1042z" fill="#250" style="paint-order:markers fill stroke"/><path d="m40.426 639.24c1.4928-3.638 3.8063-5.7791 7.404-5.5778-0.4796 2.7966-3.2242 4.5255-7.404 5.5778z" fill="#250" style="paint-order:markers fill stroke"/><path d="m36.385 638.35c-3.3557-2.6032-0.8958-6.5406 1.7175-10.513 0.2528 3.246 3.3179 5.6114-1.7175 10.513z" fill="#250" style="paint-order:markers fill stroke"/><path d="m30.609 638.96c-4.4686-2.1293-4.01-5.8915-6.0134-9.1922 5.7077 2.5299 7.1023 5.4513 6.0134 9.1922z" fill="#250" style="paint-order:markers fill stroke"/><path d="m25.013 639.59c-0.3143-2.7929-0.6428-5.5803-5.1692-6.786 2.3522 4.3834 3.7813 5.6542 5.1692 6.786z" fill="#250" style="paint-order:markers fill stroke"/><path d="m781.8 614.75c-5.3109-0.88773-9.1928-3.6543-10.383-6.1767 3.1688 0.57743 7.9219 2.3419 10.383 6.1767z" fill="#250" style="paint-order:markers fill stroke"/><path d="m792 615.13c0.1776-5.703-2.4371-10.966-11.225-15.258 1.3343 6.3051 4.2711 11.799 11.225 15.258z" fill="#250" style="paint-order:markers fill stroke"/><path d="m800.79 616.43c-4.9273-6.3152-7.2518-18.181-1.4967-21.061 4.0172 1.4168 5.0392 13.837 1.4967 21.061z" fill="#250" style="paint-order:markers fill stroke"/><path d="m808.55 615.66c-1.1164-11.076 3.4851-14.649 10.57-14.963-1.7524 7.0702-5.8485 11.384-10.57 14.963z" fill="#250" style="paint-order:markers fill stroke"/><path d="m828.48 608.36c-3.8446-1.3407-6.1034 1.8645-8.2319 5.4428 2.3812-0.51149 4.6458-0.60461 8.2319-5.4428z" fill="#250" style="paint-order:markers fill stroke"/><path d="m894.14 598.57c1.2093-5.2842 3.9987-8.645 9.2604-8.9958 0.0375 3.9454-3.4839 6.8123-9.2604 8.9958z" fill="#250" style="paint-order:markers fill stroke"/><path d="m888.06 598.04c-5.54-3.008-3.0087-8.8746-0.26458-14.817 1.2156 4.4378 6.2725 7.1684 0.26458 14.817z" fill="#250" style="paint-order:markers fill stroke"/><path d="m879.85 599.89c-7.0274-2.1592-7.3479-7.4342-11.112-11.642 8.9264 2.4957 11.71 6.2859 11.112 11.642z" fill="#250" style="paint-order:markers fill stroke"/><path d="m871.92 601.74c-1.1859-3.8015-2.3912-7.593-9.2604-8.4667 4.5529 5.6416 6.9547 7.1465 9.2604 8.4667z" fill="#250" style="paint-order:markers fill stroke"/><path d="m915.4 632.04c-2.2009-5.046-5.6119-8.0157-10.916-7.7366 0.70708 3.879 4.7536 6.277 10.916 7.7366z" fill="#250" style="paint-order:markers fill stroke"/><path d="m921.36 630.8c4.9476-3.6107 1.3208-9.0719-2.5322-14.582-0.37278 4.5022-4.8918 7.7831 2.5322 14.582z" fill="#250" style="paint-order:markers fill stroke"/><path d="m929.88 631.65c6.5884-2.9534 5.9122-8.1717 8.8661-12.75-8.4155 3.509-10.472 7.5611-8.8661 12.75z" fill="#250" style="paint-order:markers fill stroke"/><path d="m938.13 632.53c0.46336-3.8738 0.94782-7.74 7.6214-9.4123-3.468 6.0799-5.5751 7.8425-7.6214 9.4123z" fill="#250" style="paint-order:markers fill stroke"/><path d="m899.11 664.16c-3.6021-0.64003-6.235-2.6346-7.0425-4.4532 2.1492 0.41631 5.373 1.6885 7.0425 4.4532z" fill="#250" style="paint-order:markers fill stroke"/><path d="m906.02 664.43c0.12045-4.1117-1.653-7.9065-7.6135-11.001 0.90499 4.5458 2.8968 8.5066 7.6135 11.001z" fill="#250" style="paint-order:markers fill stroke"/><path d="m911.99 665.37c-3.3419-4.553-4.9185-13.108-1.0151-15.185 2.7247 1.0214 3.4178 9.9761 1.0151 15.185z" fill="#250" style="paint-order:markers fill stroke"/><path d="m917.25 664.81c-0.75719-7.9858 2.3638-10.562 7.1694-10.788-1.1886 5.0974-3.9667 8.2078-7.1694 10.788z" fill="#250" style="paint-order:markers fill stroke"/><path d="m930.77 659.55c-2.6076-0.96657-4.1396 1.3442-5.5833 3.9241 1.615-0.36877 3.151-0.43591 5.5833-3.9241z" fill="#250" style="paint-order:markers fill stroke"/><path d="m975.31 652.49c0.8202-3.8098 2.7121-6.2327 6.2808-6.4857 0.025 2.8445-2.3629 4.9114-6.2808 6.4857z" fill="#250" style="paint-order:markers fill stroke"/><path d="m971.18 652.11c-3.7575-2.1687-2.0406-6.3984-0.1794-10.682 0.8244 3.1995 4.2543 5.1682 0.1794 10.682z" fill="#250" style="paint-order:markers fill stroke"/><path d="m965.61 653.45c-4.7663-1.5568-4.9837-5.3599-7.537-8.3933 6.0543 1.7993 7.9424 4.5319 7.537 8.3933z" fill="#250" style="paint-order:markers fill stroke"/><path d="m960.23 654.78c-0.80436-2.7407-1.6218-5.4743-6.2809-6.1042 3.088 4.0674 4.717 5.1524 6.2809 6.1042z" fill="#250" style="paint-order:markers fill stroke"/><path d="m989.73 676.63c-1.4928-3.638-3.8063-5.7791-7.404-5.5778 0.4796 2.7966 3.2242 4.5255 7.404 5.5778z" fill="#250" style="paint-order:markers fill stroke"/><path d="m993.77 675.73c3.3557-2.6032 0.8958-6.5406-1.7175-10.513-0.2528 3.246-3.3179 5.6114 1.7175 10.513z" fill="#250" style="paint-order:markers fill stroke"/><path d="m999.54 676.34c4.4686-2.1293 4.01-5.8915 6.0134-9.1922-5.7077 2.5299-7.1023 5.4513-6.0134 9.1922z" fill="#250" style="paint-order:markers fill stroke"/><path d="m1005.1 676.98c0.3143-2.7929 0.6428-5.5803 5.1692-6.786-2.3522 4.3834-3.7813 5.6542-5.1692 6.786z" fill="#250" style="paint-order:markers fill stroke"/><path d="m1005.3 491.28c4.057-0.65868 7.0224-2.7114 7.9319-4.583-2.4207 0.42845-6.0516 1.7377-7.9319 4.583z" fill="#250" style="paint-order:markers fill stroke"/><path d="m997.5 491.56c-0.13567-4.2315 1.8618-8.137 8.5751-11.321-1.0192 4.6783-3.2627 8.7545-8.5751 11.321z" fill="#250" style="paint-order:markers fill stroke"/><path d="m990.79 492.52c3.7639-4.6858 5.5397-13.49 1.1433-15.627-3.0688 1.0512-3.8495 10.267-1.1433 15.627z" fill="#250" style="paint-order:markers fill stroke"/><path d="m984.86 491.95c0.85282-8.2186-2.6623-10.87-8.0748-11.102 1.3387 5.246 4.4677 8.4471 8.0748 11.102z" fill="#250" style="paint-order:markers fill stroke"/><path d="m969.64 486.54c2.9369-0.99475 4.6624 1.3834 6.2884 4.0384-1.819-0.37952-3.5489-0.44861-6.2884-4.0384z" fill="#250" style="paint-order:markers fill stroke"/><path d="m919.47 479.27c-0.92382-3.9208-3.0546-6.4144-7.0741-6.6748-0.0287 2.9274 2.6614 5.0546 7.0741 6.6748z" fill="#250" style="paint-order:markers fill stroke"/><path d="m924.12 478.88c4.232-2.2319 2.2984-6.5849 0.20212-10.994-0.92858 3.2928-4.7916 5.3188-0.20212 10.994z" fill="#250" style="paint-order:markers fill stroke"/><path d="m930.39 480.25c5.3682-1.6021 5.6131-5.5161 8.4889-8.638-6.8189 1.8518-8.9454 4.664-8.4889 8.638z" fill="#250" style="paint-order:markers fill stroke"/><path d="m936.45 481.63c0.90593-2.8206 1.8266-5.6339 7.0741-6.2822-3.478 4.186-5.3127 5.3026-7.0741 6.2822z" fill="#250" style="paint-order:markers fill stroke"/><path d="m903.23 504.11c1.6813-3.744 4.2869-5.9475 8.3389-5.7404-0.54014 2.8781-3.6313 4.6574-8.3389 5.7404z" fill="#250" style="paint-order:markers fill stroke"/><path d="m898.68 503.19c-3.7794-2.6791-1.0089-6.7312 1.9344-10.82 0.28477 3.3406 3.7369 5.775-1.9344 10.82z" fill="#250" style="paint-order:markers fill stroke"/><path d="m892.18 503.82c-5.0329-2.1914-4.5164-6.0633-6.7728-9.4602 6.4286 2.6036 7.9993 5.6102 6.7728 9.4602z" fill="#250" style="paint-order:markers fill stroke"/><path d="m885.87 504.47c-0.35396-2.8743-0.72404-5.743-5.822-6.9838 2.6492 4.5112 4.2588 5.819 5.822 6.9838z" fill="#250" style="paint-order:markers fill stroke"/><path d="m926.69 536.11c3.6021-0.64003 6.235-2.6346 7.0425-4.4532-2.1492 0.41631-5.373 1.6885-7.0425 4.4532z" fill="#250" style="paint-order:markers fill stroke"/><path d="m919.78 536.38c-0.12045-4.1117 1.653-7.9065 7.6135-11.001-0.90499 4.5458-2.8968 8.5066-7.6135 11.001z" fill="#250" style="paint-order:markers fill stroke"/><path d="m913.81 537.31c3.3419-4.553 4.9185-13.108 1.0151-15.185-2.7247 1.0214-3.4178 9.9761-1.0151 15.185z" fill="#250" style="paint-order:markers fill stroke"/><path d="m908.55 536.76c0.75719-7.9858-2.3638-10.562-7.1694-10.788 1.1886 5.0974 3.9667 8.2078 7.1694 10.788z" fill="#250" style="paint-order:markers fill stroke"/><path d="m895.03 531.49c2.6076-0.96657 4.1396 1.3442 5.5833 3.9241-1.615-0.36877-3.151-0.43591-5.5833-3.9241z" fill="#250" style="paint-order:markers fill stroke"/><path d="m850.5 524.43c-0.8202-3.8098-2.7121-6.2327-6.2808-6.4857-0.025 2.8445 2.3629 4.9114 6.2808 6.4857z" fill="#250" style="paint-order:markers fill stroke"/><path d="m854.62 524.05c3.7575-2.1687 2.0406-6.3984 0.1794-10.682-0.8244 3.1995-4.2543 5.1682-0.1794 10.682z" fill="#250" style="paint-order:markers fill stroke"/><path d="m860.19 525.39c4.7663-1.5568 4.9837-5.3599 7.537-8.3933-6.0543 1.7993-7.9424 4.5319-7.537 8.3933z" fill="#250" style="paint-order:markers fill stroke"/><path d="m865.57 526.72c0.80436-2.7407 1.6218-5.4743 6.2809-6.1042-3.088 4.0674-4.717 5.1524-6.2809 6.1042z" fill="#250" style="paint-order:markers fill stroke"/><path d="m836.08 548.57c1.4928-3.638 3.8063-5.7791 7.404-5.5778-0.4796 2.7966-3.2242 4.5255-7.404 5.5778z" fill="#250" style="paint-order:markers fill stroke"/><path d="m832.03 547.68c-3.3557-2.6032-0.8958-6.5406 1.7175-10.513 0.2528 3.246 3.3179 5.6114-1.7175 10.513z" fill="#250" style="paint-order:markers fill stroke"/><path d="m826.26 548.29c-4.4686-2.1293-4.01-5.8915-6.0134-9.1922 5.7077 2.5299 7.1023 5.4513 6.0134 9.1922z" fill="#250" style="paint-order:markers fill stroke"/><path d="m820.66 548.92c-0.3143-2.7929-0.6428-5.5803-5.1692-6.786 2.3522 4.3834 3.7813 5.6542 5.1692 6.786z" fill="#250" style="paint-order:markers fill stroke"/><path d="m979.22 535c-0.8202-3.8098-2.7121-6.2327-6.2808-6.4857-0.025 2.8445 2.3629 4.9114 6.2808 6.4857z" fill="#250" style="paint-order:markers fill stroke"/><path d="m983.35 534.62c3.7575-2.1687 2.0406-6.3984 0.1794-10.682-0.8244 3.1995-4.2543 5.1682-0.1794 10.682z" fill="#250" style="paint-order:markers fill stroke"/><path d="m988.91 535.95c4.7663-1.5568 4.9837-5.3599 7.537-8.3933-6.0543 1.7993-7.9424 4.5319-7.537 8.3933z" fill="#250" style="paint-order:markers fill stroke"/><path d="m994.3 537.29c0.80436-2.7407 1.6218-5.4743 6.2809-6.1042-3.088 4.0674-4.717 5.1524-6.2809 6.1042z" fill="#250" style="paint-order:markers fill stroke"/><path d="m964.8 559.14c1.4928-3.638 3.8063-5.7791 7.404-5.5778-0.4796 2.7966-3.2242 4.5255-7.404 5.5778z" fill="#250" style="paint-order:markers fill stroke"/><path d="m960.76 558.24c-3.3557-2.6032-0.8958-6.5406 1.7175-10.513 0.2528 3.246 3.3179 5.6114-1.7175 10.513z" fill="#250" style="paint-order:markers fill stroke"/><path d="m954.99 558.85c-4.4686-2.1293-4.01-5.8915-6.0134-9.1922 5.7077 2.5299 7.1023 5.4513 6.0134 9.1922z" fill="#250" style="paint-order:markers fill stroke"/><path d="m949.39 559.49c-0.3143-2.7929-0.6428-5.5803-5.1692-6.786 2.3522 4.3834 3.7813 5.6542 5.1692 6.786z" fill="#250" style="paint-order:markers fill stroke"/><path d="m979.22 575.41c-0.8202-3.8098-2.7121-6.2327-6.2808-6.4857-0.025 2.8445 2.3629 4.9114 6.2808 6.4857z" fill="#250" style="paint-order:markers fill stroke"/><path d="m983.35 575.03c3.7575-2.1687 2.0406-6.3984 0.1794-10.682-0.8244 3.1995-4.2543 5.1682-0.1794 10.682z" fill="#250" style="paint-order:markers fill stroke"/><path d="m988.91 576.36c4.7663-1.5568 4.9837-5.3599 7.537-8.3933-6.0543 1.7993-7.9424 4.5319-7.537 8.3933z" fill="#250" style="paint-order:markers fill stroke"/><path d="m994.3 577.7c0.80436-2.7407 1.6218-5.4743 6.2809-6.1042-3.088 4.0674-4.717 5.1524-6.2809 6.1042z" fill="#250" style="paint-order:markers fill stroke"/><path d="m964.8 599.55c1.4928-3.638 3.8063-5.7791 7.404-5.5778-0.4796 2.7966-3.2242 4.5255-7.404 5.5778z" fill="#250" style="paint-order:markers fill stroke"/><path d="m960.76 598.65c-3.3557-2.6032-0.8958-6.5406 1.7175-10.513 0.2528 3.246 3.3179 5.6114-1.7175 10.513z" fill="#250" style="paint-order:markers fill stroke"/><path d="m954.99 599.26c-4.4686-2.1293-4.01-5.8915-6.0134-9.1922 5.7077 2.5299 7.1023 5.4513 6.0134 9.1922z" fill="#250" style="paint-order:markers fill stroke"/><path d="m949.39 599.9c-0.3143-2.7929-0.6428-5.5803-5.1692-6.786 2.3522 4.3834 3.7813 5.6542 5.1692 6.786z" fill="#250" style="paint-order:markers fill stroke"/><path d="m1029.2 626.73c4.057-0.65868 7.0224-2.7114 7.9319-4.583-2.4207 0.42845-6.0516 1.7377-7.9319 4.583z" fill="#250" style="paint-order:markers fill stroke"/><path d="m1021.5 627.01c-0.1357-4.2315 1.8618-8.137 8.575-11.321-1.0192 4.6783-3.2627 8.7545-8.575 11.321z" fill="#250" style="paint-order:markers fill stroke"/><path d="m1014.7 627.98c3.7639-4.6858 5.5397-13.49 1.1433-15.627-3.0687 1.0512-3.8494 10.267-1.1433 15.627z" fill="#250" style="paint-order:markers fill stroke"/><path d="m1008.8 627.4c0.8528-8.2186-2.6623-10.87-8.0748-11.102 1.3386 5.246 4.4676 8.4471 8.0748 11.102z" fill="#250" style="paint-order:markers fill stroke"/><path d="m993.58 621.99c2.9369-0.99475 4.6624 1.3834 6.2884 4.0384-1.819-0.37952-3.5489-0.44861-6.2884-4.0384z" fill="#250" style="paint-order:markers fill stroke"/><path d="m842.07 645.51c2.2009-5.046 5.6119-8.0157 10.916-7.7366-0.70708 3.879-4.7536 6.277-10.916 7.7366z" fill="#250" style="paint-order:markers fill stroke"/><path d="m836.11 644.27c-4.9476-3.6107-1.3208-9.0719 2.5322-14.582 0.37278 4.5022 4.8918 7.7831-2.5322 14.582z" fill="#250" style="paint-order:markers fill stroke"/><path d="m827.59 645.12c-6.5884-2.9534-5.9122-8.1717-8.8661-12.75 8.4155 3.509 10.472 7.5611 8.8661 12.75z" fill="#250" style="paint-order:markers fill stroke"/><path d="m858.36 677.63c3.6021-0.64003 6.235-2.6346 7.0425-4.4532-2.1492 0.41631-5.373 1.6885-7.0425 4.4532z" fill="#250" style="paint-order:markers fill stroke"/><path d="m851.45 677.9c-0.12045-4.1117 1.653-7.9065 7.6135-11.001-0.90499 4.5458-2.8968 8.5066-7.6135 11.001z" fill="#250" style="paint-order:markers fill stroke"/><path d="m845.48 678.84c3.3419-4.553 4.9185-13.108 1.0151-15.185-2.7247 1.0214-3.4178 9.9761-1.0151 15.185z" fill="#250" style="paint-order:markers fill stroke"/><path d="m840.22 678.29c0.75719-7.9858-2.3638-10.562-7.1694-10.788 1.1886 5.0974 3.9667 8.2078 7.1694 10.788z" fill="#250" style="paint-order:markers fill stroke"/><path d="m826.7 673.02c2.6076-0.96657 4.1396 1.3442 5.5833 3.9241-1.615-0.36877-3.151-0.43591-5.5833-3.9241z" fill="#250" style="paint-order:markers fill stroke"/><path d="m226.95 561.94c0.8202-3.8098 2.7121-6.2327 6.2808-6.4857 0.025 2.8445-2.3629 4.9114-6.2808 6.4857z" fill="#250" style="paint-order:markers fill stroke"/><path d="m222.82 561.56c-3.7575-2.1687-2.0406-6.3984-0.1794-10.682 0.8244 3.1995 4.2543 5.1682 0.1794 10.682z" fill="#250" style="paint-order:markers fill stroke"/><path d="m217.26 562.89c-4.7663-1.5568-4.9837-5.3599-7.537-8.3933 6.0543 1.7993 7.9424 4.5319 7.537 8.3933z" fill="#250" style="paint-order:markers fill stroke"/><path d="m211.88 564.23c-0.80436-2.7407-1.6218-5.4743-6.2809-6.1042 3.088 4.0674 4.717 5.1524 6.2809 6.1042z" fill="#250" style="paint-order:markers fill stroke"/><path d="m241.37 586.08c-1.4928-3.638-3.8063-5.7791-7.404-5.5778 0.4796 2.7966 3.2242 4.5255 7.404 5.5778z" fill="#250" style="paint-order:markers fill stroke"/><path d="m245.41 585.18c3.3557-2.6032 0.8958-6.5406-1.7175-10.513-0.2528 3.246-3.3179 5.6114 1.7175 10.513z" fill="#250" style="paint-order:markers fill stroke"/><path d="m251.19 585.79c4.4686-2.1293 4.01-5.8915 6.0134-9.1922-5.7077 2.5299-7.1023 5.4513-6.0134 9.1922z" fill="#250" style="paint-order:markers fill stroke"/><path d="m256.78 586.43c0.3143-2.7929 0.6428-5.5803 5.1692-6.786-2.3522 4.3834-3.7813 5.6542-5.1692 6.786z" fill="#250" style="paint-order:markers fill stroke"/><path d="m230.87 484.86c-0.8202-3.8098-2.7121-6.2327-6.2808-6.4857-0.025 2.8445 2.3629 4.9114 6.2808 6.4857z" fill="#250" style="paint-order:markers fill stroke"/><path d="m240.56 485.81c4.7663-1.5568 4.9837-5.3599 7.537-8.3933-6.0543 1.7993-7.9424 4.5319-7.537 8.3933z" fill="#250" style="paint-order:markers fill stroke"/><path d="m245.94 487.15c0.80436-2.7407 1.6218-5.4743 6.2809-6.1042-3.088 4.0674-4.717 5.1524-6.2809 6.1042z" fill="#250" style="paint-order:markers fill stroke"/><path d="m216.45 509c1.4928-3.638 3.8063-5.7791 7.404-5.5778-0.4796 2.7966-3.2242 4.5255-7.404 5.5778z" fill="#250" style="paint-order:markers fill stroke"/><path d="m212.41 508.1c-3.3557-2.6032-0.8958-6.5406 1.7175-10.513 0.2528 3.246 3.3179 5.6114-1.7175 10.513z" fill="#250" style="paint-order:markers fill stroke"/><path d="m206.63 508.71c-4.4686-2.1293-4.01-5.8915-6.0134-9.1922 5.7077 2.5299 7.1023 5.4513 6.0134 9.1922z" fill="#250" style="paint-order:markers fill stroke"/><path d="m201.04 509.35c-0.3143-2.7929-0.6428-5.5803-5.1692-6.786 2.3522 4.3834 3.7813 5.6542 5.1692 6.786z" fill="#250" style="paint-order:markers fill stroke"/><path d="m280.89 536.18c4.057-0.65868 7.0224-2.7114 7.9319-4.583-2.4207 0.42845-6.0516 1.7377-7.9319 4.583z" fill="#250" style="paint-order:markers fill stroke"/><path d="m273.1 536.46c-0.1357-4.2315 1.8618-8.137 8.575-11.321-1.0192 4.6783-3.2627 8.7545-8.575 11.321z" fill="#250" style="paint-order:markers fill stroke"/><path d="m266.38 537.42c3.7639-4.6858 5.5397-13.49 1.1433-15.627-3.0687 1.0512-3.8494 10.267-1.1433 15.627z" fill="#250" style="paint-order:markers fill stroke"/><path d="m260.45 536.85c0.8528-8.2186-2.6623-10.87-8.0748-11.102 1.3386 5.246 4.4676 8.4471 8.0748 11.102z" fill="#250" style="paint-order:markers fill stroke"/><path d="m245.23 531.44c2.9369-0.99475 4.6624 1.3834 6.2884 4.0384-1.819-0.37952-3.5489-0.44861-6.2884-4.0384z" fill="#250" style="paint-order:markers fill stroke"/><path d="m226.95 561.94c0.8202-3.8098 2.7121-6.2327 6.2808-6.4857 0.025 2.8445-2.3629 4.9114-6.2808 6.4857z" fill="#250" style="paint-order:markers fill stroke"/><path d="m222.82 561.56c-3.7575-2.1687-2.0406-6.3984-0.1794-10.682 0.8244 3.1995 4.2543 5.1682 0.1794 10.682z" fill="#250" style="paint-order:markers fill stroke"/><path d="m217.26 562.89c-4.7663-1.5568-4.9837-5.3599-7.537-8.3933 6.0543 1.7993 7.9424 4.5319 7.537 8.3933z" fill="#250" style="paint-order:markers fill stroke"/><path d="m211.88 564.23c-0.80436-2.7407-1.6218-5.4743-6.2809-6.1042 3.088 4.0674 4.717 5.1524 6.2809 6.1042z" fill="#250" style="paint-order:markers fill stroke"/><path d="m241.37 586.08c-1.4928-3.638-3.8063-5.7791-7.404-5.5778 0.4796 2.7966 3.2242 4.5255 7.404 5.5778z" fill="#250" style="paint-order:markers fill stroke"/><path d="m245.41 585.18c3.3557-2.6032 0.8958-6.5406-1.7175-10.513-0.2528 3.246-3.3179 5.6114 1.7175 10.513z" fill="#250" style="paint-order:markers fill stroke"/><path d="m251.19 585.79c4.4686-2.1293 4.01-5.8915 6.0134-9.1922-5.7077 2.5299-7.1023 5.4513-6.0134 9.1922z" fill="#250" style="paint-order:markers fill stroke"/><path d="m256.78 586.43c0.3143-2.7929 0.6428-5.5803 5.1692-6.786-2.3522 4.3834-3.7813 5.6542-5.1692 6.786z" fill="#250" style="paint-order:markers fill stroke"/><path d="m230.87 484.86c-0.8202-3.8098-2.7121-6.2327-6.2808-6.4857-0.025 2.8445 2.3629 4.9114 6.2808 6.4857z" fill="#250" style="paint-order:markers fill stroke"/><path d="m240.56 485.81c4.7663-1.5568 4.9837-5.3599 7.537-8.3933-6.0543 1.7993-7.9424 4.5319-7.537 8.3933z" fill="#250" style="paint-order:markers fill stroke"/><path d="m245.94 487.15c0.80436-2.7407 1.6218-5.4743 6.2809-6.1042-3.088 4.0674-4.717 5.1524-6.2809 6.1042z" fill="#250" style="paint-order:markers fill stroke"/><path d="m216.45 509c1.4928-3.638 3.8063-5.7791 7.404-5.5778-0.4796 2.7966-3.2242 4.5255-7.404 5.5778z" fill="#250" style="paint-order:markers fill stroke"/><path d="m212.41 508.1c-3.3557-2.6032-0.8958-6.5406 1.7175-10.513 0.2528 3.246 3.3179 5.6114-1.7175 10.513z" fill="#250" style="paint-order:markers fill stroke"/><path d="m206.63 508.71c-4.4686-2.1293-4.01-5.8915-6.0134-9.1922 5.7077 2.5299 7.1023 5.4513 6.0134 9.1922z" fill="#250" style="paint-order:markers fill stroke"/><path d="m201.04 509.35c-0.3143-2.7929-0.6428-5.5803-5.1692-6.786 2.3522 4.3834 3.7813 5.6542 5.1692 6.786z" fill="#250" style="paint-order:markers fill stroke"/><path d="m280.89 536.18c4.057-0.65868 7.0224-2.7114 7.9319-4.583-2.4207 0.42845-6.0516 1.7377-7.9319 4.583z" fill="#250" style="paint-order:markers fill stroke"/><path d="m273.1 536.46c-0.1357-4.2315 1.8618-8.137 8.575-11.321-1.0192 4.6783-3.2627 8.7545-8.575 11.321z" fill="#250" style="paint-order:markers fill stroke"/><path d="m266.38 537.42c3.7639-4.6858 5.5397-13.49 1.1433-15.627-3.0687 1.0512-3.8494 10.267-1.1433 15.627z" fill="#250" style="paint-order:markers fill stroke"/><path d="m260.45 536.85c0.8528-8.2186-2.6623-10.87-8.0748-11.102 1.3386 5.246 4.4676 8.4471 8.0748 11.102z" fill="#250" style="paint-order:markers fill stroke"/><path d="m245.23 531.44c2.9369-0.99475 4.6624 1.3834 6.2884 4.0384-1.819-0.37952-3.5489-0.44861-6.2884-4.0384z" fill="#250" style="paint-order:markers fill stroke"/><path d="m583.17 535.75c0.8202-3.8098 2.7121-6.2327 6.2808-6.4857 0.025 2.8445-2.3629 4.9114-6.2808 6.4857z" fill="#250" style="paint-order:markers fill stroke"/><path d="m579.04 535.37c-3.7575-2.1687-2.0406-6.3984-0.1794-10.682 0.8244 3.1995 4.2543 5.1682 0.1794 10.682z" fill="#250" style="paint-order:markers fill stroke"/><path d="m573.48 536.7c-4.7663-1.5568-4.9837-5.3599-7.537-8.3933 6.0543 1.7993 7.9424 4.5319 7.537 8.3933z" fill="#250" style="paint-order:markers fill stroke"/><path d="m568.09 538.04c-0.80436-2.7407-1.6218-5.4743-6.2809-6.1042 3.088 4.0674 4.717 5.1524 6.2809 6.1042z" fill="#250" style="paint-order:markers fill stroke"/><path d="m661.95 483.55c-1.4928-3.638-3.8063-5.7791-7.404-5.5778 0.4796 2.7966 3.2242 4.5255 7.404 5.5778z" fill="#250" style="paint-order:markers fill stroke"/><path d="m665.99 482.66c3.3557-2.6032 0.8958-6.5406-1.7175-10.513-0.2528 3.246-3.3179 5.6114 1.7175 10.513z" fill="#250" style="paint-order:markers fill stroke"/><path d="m671.76 483.27c4.4686-2.1293 4.01-5.8915 6.0134-9.1922-5.7077 2.5299-7.1023 5.4513-6.0134 9.1922z" fill="#250" style="paint-order:markers fill stroke"/><path d="m677.36 483.9c0.3143-2.7929 0.6428-5.5803 5.1692-6.786-2.3522 4.3834-3.7813 5.6542-5.1692 6.786z" fill="#250" style="paint-order:markers fill stroke"/><path d="m587.09 458.67c-0.8202-3.8098-2.7121-6.2327-6.2808-6.4857-0.025 2.8445 2.3629 4.9114 6.2808 6.4857z" fill="#250" style="paint-order:markers fill stroke"/><path d="m591.21 458.29c3.7575-2.1687 2.0406-6.3984 0.1794-10.682-0.8244 3.1995-4.2543 5.1682-0.1794 10.682z" fill="#250" style="paint-order:markers fill stroke"/><path d="m596.78 459.62c4.7663-1.5568 4.9837-5.3599 7.537-8.3933-6.0543 1.7993-7.9424 4.5319-7.537 8.3933z" fill="#250" style="paint-order:markers fill stroke"/><path d="m602.16 460.96c0.80436-2.7407 1.6218-5.4743 6.2809-6.1042-3.088 4.0674-4.717 5.1524-6.2809 6.1042z" fill="#250" style="paint-order:markers fill stroke"/><path d="m572.67 482.8c1.4928-3.638 3.8063-5.7791 7.404-5.5778-0.4796 2.7966-3.2242 4.5255-7.404 5.5778z" fill="#250" style="paint-order:markers fill stroke"/><path d="m568.62 481.91c-3.3557-2.6032-0.8958-6.5406 1.7175-10.513 0.2528 3.246 3.3179 5.6114-1.7175 10.513z" fill="#250" style="paint-order:markers fill stroke"/><path d="m562.85 482.52c-4.4686-2.1293-4.01-5.8915-6.0134-9.1922 5.7077 2.5299 7.1023 5.4513 6.0134 9.1922z" fill="#250" style="paint-order:markers fill stroke"/><path d="m557.25 483.15c-0.3143-2.7929-0.6428-5.5803-5.1692-6.786 2.3522 4.3834 3.7813 5.6542 5.1692 6.786z" fill="#250" style="paint-order:markers fill stroke"/><path d="m637.1 509.99c4.057-0.65868 7.0224-2.7114 7.9319-4.583-2.4207 0.42845-6.0516 1.7377-7.9319 4.583z" fill="#250" style="paint-order:markers fill stroke"/><path d="m629.31 510.27c-0.1357-4.2315 1.8618-8.137 8.575-11.321-1.0192 4.6783-3.2627 8.7545-8.575 11.321z" fill="#250" style="paint-order:markers fill stroke"/><path d="m622.6 511.23c3.7639-4.6858 5.5397-13.49 1.1433-15.627-3.0687 1.0512-3.8494 10.267-1.1433 15.627z" fill="#250" style="paint-order:markers fill stroke"/><path d="m616.67 510.66c0.8528-8.2186-2.6623-10.87-8.0748-11.102 1.3386 5.246 4.4676 8.4471 8.0748 11.102z" fill="#250" style="paint-order:markers fill stroke"/><path d="m601.44 505.25c2.9369-0.99475 4.6624 1.3834 6.2884 4.0384-1.819-0.37952-3.5489-0.44861-6.2884-4.0384z" fill="#250" style="paint-order:markers fill stroke"/><path d="m63.827 484.89c-0.8202-3.8098-2.7121-6.2327-6.2808-6.4857-0.025 2.8445 2.3629 4.9114 6.2808 6.4857z" fill="#250" style="paint-order:markers fill stroke"/><path d="m67.954 484.51c3.7575-2.1687 2.0406-6.3984 0.1794-10.682-0.8244 3.1995-4.2543 5.1682-0.1794 10.682z" fill="#250" style="paint-order:markers fill stroke"/><path d="m73.517 485.85c4.7663-1.5568 4.9837-5.3599 7.537-8.3933-6.0543 1.7993-7.9424 4.5319-7.537 8.3933z" fill="#250" style="paint-order:markers fill stroke"/><path d="m78.901 487.18c0.80436-2.7407 1.6218-5.4743 6.2809-6.1042-3.088 4.0674-4.717 5.1524-6.2809 6.1042z" fill="#250" style="paint-order:markers fill stroke"/><path d="m49.406 509.03c1.4928-3.638 3.8063-5.7791 7.404-5.5778-0.4796 2.7966-3.2242 4.5255-7.404 5.5778z" fill="#250" style="paint-order:markers fill stroke"/><path d="m45.365 508.14c-3.3557-2.6032-0.8958-6.5406 1.7175-10.513 0.2528 3.246 3.3179 5.6114-1.7175 10.513z" fill="#250" style="paint-order:markers fill stroke"/><path d="m39.59 508.75c-4.4686-2.1293-4.01-5.8915-6.0134-9.1922 5.7077 2.5299 7.1023 5.4513 6.0134 9.1922z" fill="#250" style="paint-order:markers fill stroke"/><path d="m33.993 509.38c-0.3143-2.7929-0.6428-5.5803-5.1692-6.786 2.3522 4.3834 3.7813 5.6542 5.1692 6.786z" fill="#250" style="paint-order:markers fill stroke"/><path d="m99.127 506.59c0.8202-3.8098 2.7121-6.2327 6.2808-6.4857 0.025 2.8445-2.3629 4.9114-6.2808 6.4857z" fill="#250" style="paint-order:markers fill stroke"/><path d="m94.999 506.21c-3.7575-2.1687-2.0406-6.3984-0.1794-10.682 0.8244 3.1995 4.2543 5.1682 0.1794 10.682z" fill="#250" style="paint-order:markers fill stroke"/><path d="m89.436 507.54c-4.7663-1.5568-4.9837-5.3599-7.537-8.3933 6.0543 1.7993 7.9424 4.5319 7.537 8.3933z" fill="#250" style="paint-order:markers fill stroke"/><path d="m84.053 508.88c-0.80436-2.7407-1.6218-5.4743-6.2809-6.1042 3.088 4.0674 4.717 5.1524 6.2809 6.1042z" fill="#250" style="paint-order:markers fill stroke"/><path d="m113.55 530.73c-1.4928-3.638-3.8063-5.7791-7.404-5.5778 0.4796 2.7966 3.2242 4.5255 7.404 5.5778z" fill="#250" style="paint-order:markers fill stroke"/><path d="m117.59 529.83c3.3557-2.6032 0.8958-6.5406-1.7175-10.513-0.2528 3.246-3.3179 5.6114 1.7175 10.513z" fill="#250" style="paint-order:markers fill stroke"/><path d="m123.36 530.44c4.4686-2.1293 4.01-5.8915 6.0134-9.1922-5.7077 2.5299-7.1023 5.4513-6.0134 9.1922z" fill="#250" style="paint-order:markers fill stroke"/><path d="m128.96 531.08c0.3143-2.7929 0.6428-5.5803 5.1692-6.786-2.3522 4.3834-3.7813 5.6542-5.1692 6.786z" fill="#250" style="paint-order:markers fill stroke"/><path d="m139.61 480.93c0.8202-3.8098 2.7121-6.2327 6.2808-6.4857 0.025 2.8445-2.3629 4.9114-6.2808 6.4857z" fill="#250" style="paint-order:markers fill stroke"/><path d="m135.48 480.54c-3.7575-2.1687-2.0406-6.3984-0.1794-10.682 0.8244 3.1995 4.2543 5.1682 0.1794 10.682z" fill="#250" style="paint-order:markers fill stroke"/><path d="m129.92 481.88c-4.7663-1.5568-4.9837-5.3599-7.537-8.3933 6.0543 1.7993 7.9424 4.5319 7.537 8.3933z" fill="#250" style="paint-order:markers fill stroke"/><path d="m124.53 483.21c-0.80436-2.7407-1.6218-5.4743-6.2809-6.1042 3.088 4.0674 4.717 5.1524 6.2809 6.1042z" fill="#250" style="paint-order:markers fill stroke"/><path d="m154.03 505.06c-1.4928-3.638-3.8063-5.7791-7.404-5.5778 0.4796 2.7966 3.2242 4.5255 7.404 5.5778z" fill="#250" style="paint-order:markers fill stroke"/><path d="m158.07 504.17c3.3557-2.6032 0.8958-6.5406-1.7175-10.513-0.2528 3.246-3.3179 5.6114 1.7175 10.513z" fill="#250" style="paint-order:markers fill stroke"/><path d="m163.85 504.78c4.4686-2.1293 4.01-5.8915 6.0134-9.1922-5.7077 2.5299-7.1023 5.4513-6.0134 9.1922z" fill="#250" style="paint-order:markers fill stroke"/><path d="m169.44 505.41c0.3143-2.7929 0.6428-5.5803 5.1692-6.786-2.3522 4.3834-3.7813 5.6542-5.1692 6.786z" fill="#250" style="paint-order:markers fill stroke"/><path d="m236.53 485.69c-4.4686-2.1293-4.01-5.8915-6.0134-9.1922 5.7077 2.5299 7.1023 5.4513 6.0134 9.1922z" fill="#250" style="paint-order:markers fill stroke"/><path d="m827.11 474.2c1.4928-3.638 3.8063-5.7791 7.404-5.5778-0.4796 2.7966-3.2242 4.5255-7.404 5.5778z" fill="#250" style="paint-order:markers fill stroke"/><path d="m823.07 473.3c-3.3557-2.6032-0.8958-6.5406 1.7175-10.513 0.2528 3.246 3.3179 5.6114-1.7175 10.513z" fill="#250" style="paint-order:markers fill stroke"/><path d="m817.29 473.91c-4.4686-2.1293-4.01-5.8915-6.0134-9.1922 5.7077 2.5299 7.1023 5.4513 6.0134 9.1922z" fill="#250" style="paint-order:markers fill stroke"/><path d="m811.69 474.55c-0.3143-2.7929-0.6428-5.5803-5.1692-6.786 2.3522 4.3834 3.7813 5.6542 5.1692 6.786z" fill="#250" style="paint-order:markers fill stroke"/><path d="m841.53 490.47c-0.8202-3.8098-2.7121-6.2327-6.2808-6.4857-0.025 2.8445 2.3629 4.9114 6.2808 6.4857z" fill="#250" style="paint-order:markers fill stroke"/><path d="m845.65 490.09c3.7575-2.1687 2.0406-6.3984 0.1794-10.682-0.8244 3.1995-4.2543 5.1682-0.1794 10.682z" fill="#250" style="paint-order:markers fill stroke"/><path d="m851.22 491.43c4.7663-1.5568 4.9837-5.3599 7.537-8.3933-6.0543 1.7993-7.9424 4.5319-7.537 8.3933z" fill="#250" style="paint-order:markers fill stroke"/><path d="m856.6 492.76c0.80436-2.7407 1.6218-5.4743 6.2809-6.1042-3.088 4.0674-4.717 5.1524-6.2809 6.1042z" fill="#250" style="paint-order:markers fill stroke"/><path d="m434.97 684.21c4.6585-4.9037 8.906-1.9981 13.229-0.52917-4.7666 0.46188-11.62 2.5934-13.229 0.52917z" fill="#4d4d4d" style="font-variation-settings:'opsz' 32, 'wght' 900;paint-order:markers fill stroke"/><path d="m292.22 650.79c4.6585-4.9037 8.906-1.9981 13.229-0.52917-4.7666 0.46188-11.62 2.5934-13.229 0.52917z" fill="#4d4d4d" style="font-variation-settings:'opsz' 32, 'wght' 900;paint-order:markers fill stroke"/><path d="m654.96 677.31c3.9668-2.4935 7.5836-1.016 11.265-0.26908-4.0588 0.23487-9.8947 1.3188-11.265 0.26908z" fill="#4d4d4d" style="font-variation-settings:'opsz' 32, 'wght' 900;paint-order:markers fill stroke"/><path d="m662.56 587.76c2.8138-2.2398 5.3794-0.91266 7.9907-0.2417-2.8791 0.21097-7.0189 1.1846-7.9907 0.2417z" fill="#4d4d4d" style="font-variation-settings:'opsz' 32, 'wght' 900;paint-order:markers fill stroke"/><path d="m603.1 607.99c3.9668-2.4935 7.5836-1.016 11.265-0.26908-4.0588 0.23487-9.8947 1.3188-11.265 0.26908z" fill="#4d4d4d" style="font-variation-settings:'opsz' 32, 'wght' 900;paint-order:markers fill stroke"/><path d="m709.14 541.6c1.0021-0.90789 1.9158-0.36994 2.8458-0.098-1.0254 0.0855-2.4997 0.48015-2.8458 0.098z" fill="#4d4d4d" style="font-variation-settings:'opsz' 32, 'wght' 900;paint-order:markers fill stroke"/><path d="m302.67 148.45c0.14408 0.81658-0.0378 1.5456 1.0519 2.6162 0.2553 0.26793 2.0394 0.42436 4.0426 0.60003 0.30629 0.37602 0.57599 0.75204 1.0107 1.1281 0.37239 0.34704 3.1651 0.69122 6.2083 0.36002 1.6293-0.2013 3.3134-0.51563 4.9089-1.2721 0.65821-0.36744 1.229-0.7195 1.5263-1.9201 0.22556-1.1702 0.24903-2.5202 0.14438-3.9842z" fill="#808080" style="font-variation-settings:'opsz' 32, 'wght' 900;paint-order:markers fill stroke"/><path d="m317.37 146.51c-0.0258 1.5022-0.16426 2.976 0.76569 4.7181 0.27419 0.41852 0.57695 0.77716 0.948 0.99283 2.1409-0.57187 2.1348-1.3855 2.421-2.3336 0.28872-1.259 0.17408-2.6679 0.28439-3.9798z" fill="#4d4d4d" style="font-variation-settings:'opsz' 32, 'wght' 900;paint-order:markers fill stroke"/><path d="m318.63 146.29c2e-3 1.3836 0.0808 2.7756 0.88691 4.2482 0.41397 0.59704 1.2071 0.50685 1.5263-0.12003 0.59444-1.5918 0.3944-3.0367 0.24751-4.4402z" fill="#1a1a1a" style="font-variation-settings:'opsz' 32, 'wght' 900;paint-order:markers fill stroke"/><path d="m219.44 592.49c45.158 24.12 87.107 38.717 130.66 58.075 7.0887 2.8865 22.544 7.6453 30.417-2.7218l107.61-17.215c10.158-0.46599 21.403 1.5227 29.472-3.6623l8.3505-39.533c-86.775-8.0317-161.91-27.702-260.34-24.081-46.541 3.9803-68.116 16.422-46.173 29.139z" fill="#1a1a1a" opacity=".1" style="paint-order:markers fill stroke"/><ellipse cx="328.94" cy="614.74" rx="12.251" ry="14.232" fill="#520" opacity=".98" style="paint-order:markers fill stroke"/><ellipse cx="324.51" cy="614.87" rx="7.0836" ry="10.932" fill="#2b1100" opacity=".98" style="paint-order:markers fill stroke"/><ellipse cx="368.88" cy="641.89" rx="12.251" ry="14.232" fill="#520" opacity=".98" style="paint-order:markers fill stroke"/><ellipse cx="364.44" cy="642.02" rx="7.0836" ry="10.932" fill="#2b1100" opacity=".98" style="paint-order:markers fill stroke"/><ellipse cx="511.93" cy="616.14" rx="12.251" ry="14.232" fill="#520" opacity=".98" style="paint-order:markers fill stroke"/><ellipse cx="507.5" cy="616.27" rx="7.0836" ry="10.932" fill="#2b1100" opacity=".98" style="paint-order:markers fill stroke"/><path d="m475.01 347.42c5.8033-0.46914 7.7677 0.26883 15.46 2.774l27.828 8.2262c5.4949 1.7951 11.59 8.5391 11.88 16.692l0.44752 208.81c-0.0812 16.507-7.953 24-15.908 25.109l-136.7 24.183c-7.518 1.4326-17.549 0.66109-26.689-5.8175l-28.435-19.291c-7.4585-5.7613-8.1758-14.744-8.5066-22.605l-0.16274-203.17c0.21948-9.5682 3.2507-20.435 27.991-23.148z" fill="#a05a2c" style="paint-order:markers fill stroke"/><path d="m380.29 384.43 131.49-11.861-2.6038-6.887-134.75 11.861z" fill="#d38d5f" style="paint-order:markers fill stroke"/><path d="m337.33 399.93 0.16275-20.661 10.741-9.1827 26.363-3.0609c5.8853 0.42282 7.2837 4.4189 9.3574 8.6088 4.818 12.553-2.6437 18.039-6.9163 23.531-4.4515 4.9582-10.122 8.392-15.786 9.7567-12.543-2.1708-16.345-4.759-23.922-8.9914z" fill="#c87137" opacity=".98" style="paint-order:markers fill stroke"/><path d="m486.01 357.49 12.198 5.1405c1.7188 0.72939 7.0741 9.6433 8.6304 12.851 6.0224 8.9126 12.686 16.568 23.705 15.692l-0.23013-20.697c-1.1294-7.251-6.2107-11.547-11.335-12.411-4.0136-0.49843-7.907-1.9851-11.852-3.0437z" fill="#c87137" opacity=".98" style="paint-order:markers fill stroke"/><path d="m341.89 620.99c-3.3422-6.1139-3.7549-14.603-3.8281-21.912l0.65094-209.58c0.0313-10.698 8.6736-18.626 20.505-20.087l151.58-13.215-9.1731-2.7127-147.72 12.526c-14.775 1.6799-22.06 12.325-22.152 22.05l0.0576 211.16c0.0721 5.5209 0.39281 11.88 3.1481 17.067z" fill="#520" style="paint-order:markers fill stroke"/><path d="m505.66 610.68-0.0839-9.1542c-0.0316-6.3585 6.1865-15.05 11.162-17.315l13.977-6.6441 0.18386 10.497c0.76792 6.272-6.8735 19.351-12.086 20.199-5.1592 0.9712-7.8298 1.4285-13.152 2.4171z" fill="#c87137" opacity=".98" style="paint-order:markers fill stroke"/><path d="m349.54 599.27 6.6722 3.0609c1.8975 1.0452 3.2352 1.859 5.0449 1.7218 16.029-1.5542 21.471 8.4383 24.98 20.47 0.58856 2.692 1.0324 5.3653-0.4043 7.3055-6.8634 1.4356-12.71 2.4201-18.244 2.0021-2.3818-0.23907-6.7455-1.3216-10.075-2.8032-4.3388-2.0262-7.7146-4.6184-11.336-7.0664-3.557-4.8865-3.9337-7.4215-4.1244-10.725-0.18597-7.2407 4.7323-15.153 7.4859-13.965z" fill="#c87137" opacity=".98" style="paint-order:markers fill stroke"/><path transform="matrix(1.2301 0 0 1.4461 -.22391 -342.09)" d="m259.19 496 23.611 5.4079c4.5363 1.1848 7.2558 4.9753 7.276 14.354l0.79375 141.88c-0.0294 4.4903 5.0752 14.026 10.385 13.692l125.68-18.587c-1.4727 2.0025-5.6197 3.6954-9.37 4.2513l-111.32 16.575c-9.8324 1.3325-18.52-3.0148-23.133-5.7577l-18.147-10.358c-3.8997-2.176-7.9908-5.9993-7.9661-15.884l-0.35015-137.34c-0.19297-4.0046 0.67908-8.6906 2.5456-8.2354z" fill="#520" filter="url(#m)" opacity=".55" style="mix-blend-mode:normal;paint-order:markers fill stroke"/><path d="m404.77 363.85-8.2852 0.40584c-3.2278-2.1711-2.925-6.1942-0.23015-8.7928 4.7659-4.7552 9.6838-9.4693 25.546-11.228 12.12-1.2187 19.768 1.5423 24.971 8.2517v7.0343l-10.011 0.94693c-0.54085-1.1266-1.4294-3.3583-0.0198-4.8105 0.91394-0.78743 2.462-0.50908 3.8172-1.0063 2.9428-1.2824-9.3019-3.5633-18.354-2.8408-8.9428 0.8605-23.205 3.3678-20.656 5.6815 0.84113 0.73997 2.2148 1.3311 3.1645 1.3528 1.101 0.10508 3.8932 4.3637 0.0575 5.0052z" fill="#520" opacity=".98" style="paint-order:markers fill stroke"/><rect transform="matrix(.97378 .22751 -.24804 .96875 0 0)" x="561.48" y="304.15" width="26.769" height="58.105" ry="5.6688" fill="#c8c4b7" style="paint-order:markers fill stroke"/><ellipse cx="410.55" cy="504.72" rx="22.161" ry="21.42" fill="#c8b7b7" style="paint-order:markers fill stroke"/><rect transform="matrix(.9498 -.31285 .34368 .93909 0 0)" x="230.79" y="642.62" width="37.728" height="45.549" rx="0" ry="4.7518" fill="#4a0" style="paint-order:markers fill stroke"/><path d="m470.33 567.63c-1.2403-7.5507-3.4299-15.067-5.5139-22.588-1.3585 2.8177-1.849 6.2677-2.5889 9.536-0.16238 0.84764-0.87635 0.40492-1.2361-0.22729-3.4872-6.8813-1.547-7.0414-0.96006-8.8775-2.4993 0.99949-4.7321 2.3698-6.7795 3.9978-0.79215 0.6924-0.87501-0.32225-0.95239-0.70297-0.82264-5.0825 3.5663-6.3484 6.9025-8.3852-2.755-0.95108-5.7032-1.8497-7.3791-3.0937-1.0836-0.87759-0.3178-1.0049 0.0811-1.2962 2.1357-1.4912 6.6196-0.66718 10.583 1.0436 0.78667-3.3525 2.3543-6.4356 7.8719-8.1559 0.39953-0.10197 0.99437 0.19936 0.52894 1.3573-1.5829 3.1463-2.7258 5.3546-3.7589 7.3287 3.467-0.12428 6.533-2.1268 10.943 2.1655 0.57573 0.56801-0.4871 1.1726-1.3558 1.181-0.56767 5e-3 -7.3462 0.68095-7.1393 0.67937 3.8163 2.3671 5.0768 5.1359 5.4286 8.0476 3e-3 0.57743-0.14415 0.84961-0.75027 0.40693-2.6288-1.9526-5.2145-3.4453-7.812-5.0633 2.6537 6.4873 5.0052 12.701 9.1906 20.573z" fill="#2d5016" style="paint-order:markers fill stroke"/><rect transform="matrix(.9498 -.31285 .34368 .93909 0 0)" x="230.79" y="642.62" width="37.728" height="45.549" rx="0" ry="4.7518" fill="none" stroke="#b3ff80" stroke-linejoin="round" stroke-width="5.8503" style="paint-order:markers fill stroke"/><path d="m413.52 486.72-0.70974 2.8374-0.55201 0.42688c-0.80269 0.82026-1.0259 1.6405-1.2092 2.4608 7e-3 0.49342 0.22096 0.82886 0.57831 1.0546-0.90376 5.2137-2.4958 9.1672-4.2321 12.856-1.3074-0.40137-1.9141 1.7865-0.68345 2.0841-3.1582 5.335-6.588 9.1134-10.094 12.455l3.6538 1.9837c1.488-1.6297 2.3668-3.6086 4.495-4.8714 2.654-1.6062 5.7388-0.56409 7.9122 1.6824 0.89564 1.0849 1.8774 3.1565 2.8389 4.9969l3.7064-1.2806c-2.8756-4.1845-5.0385-8.6242-5.6779-13.61 0.95412-0.0756 0.96614-2.4261-0.36801-2.511-0.35676-5.3544-0.35152-9.4477 0.31543-13.283 0.32033-0.28458 0.46869-0.56917 0.65717-0.85376 0.16873-1.0659 0.10192-1.9969-0.0788-2.8625l-0.55202-0.65288zm-2.7802 17.287 0.14867 2.2992-1.0597-0.17735zm-2.0857 4.9192 2.6155 0.37194 0.18564 5.7173-4.8745-0.83178z" fill="#ac9393" style="paint-order:markers fill stroke"/><ellipse cx="410.55" cy="504.72" rx="22.161" ry="21.42" fill="none" stroke="#916f6f" stroke-linejoin="round" stroke-width="3.2161" style="paint-order:markers fill stroke"/><rect transform="matrix(.22336 .97474 -.97883 .20467 0 0)" x="499.31" y="-322.05" width="35.209" height="37.471" ry="6.624" fill="#2c5aa0" style="paint-order:markers fill stroke"/><rect transform="matrix(.22336 .97474 -.97883 .20467 0 0)" x="499.31" y="-322.05" width="35.209" height="37.471" ry="6.624" fill="none" stroke="#87aade" stroke-linejoin="round" stroke-width="3.8045" style="paint-order:markers fill stroke"/><path d="m425.34 438.82c-0.0976-0.45793-0.55195-0.94785-1.6016-1.4021-3.0565-0.44388-5.4776 0.7827-8.165 1.1956-2.426-3.0316-5.0754-5.8161-7.8677-8.4426-0.69546-0.61677-2.3076-0.72869-2.0931 0.40501 0.35546 2.6084 3.2847 6.3932 4.2882 9.403-2.0235 0.85397-4.2351 1.2707-6.5129 1.5346-0.95812-0.97897-1.8861-2.2738-2.9203-2.4576-1.1653-0.21861-1.3567 0.38135-1.3499 0.79426-6e-3 1.3512 1.1414 2.6769 2.1367 4.006-0.32306 1.6047-0.78584 3.2671-0.18937 4.4924 0.17443 0.37786 0.6108 0.8469 1.5739 0.18323 0.85929-0.57962 1.136-2.1268 1.5784-3.3986 2.1849-0.66917 4.3766-1.1728 6.5885-1.2045 0.40456 3.1351-0.60155 7.7428 0.21661 10.254 0.30095 1.1156 1.7167 0.37059 2.0788-0.46731 1.3883-3.5007 2.5777-7.0879 3.456-10.81 2.6222-0.69728 5.3583-0.54907 7.9412-2.1721 0.75499-0.83162 0.95336-1.4584 0.84188-1.9134z" fill="#87aade" style="paint-order:markers fill stroke"/><g transform="matrix(.20427 .047726 -.049961 .19513 476.14 425.87)"><path d="m68.271 241.14-59.425 0.447 0.449-6.053 55.389-0.451 2.691 0.451z"/><path d="m13.557 233.74 50.678-0.672-1.719-24.52s-0.746-0.652-3.662 1.812c-2.916 2.467-0.336-1.793-0.336-1.793s-1.16-5.178-1.311-5.551-1.047 0.299-1.047 0.674c0 0.373 0.076-1.943-0.146-2.168-0.227-0.225-0.973-1.869-1.943 0.598s-2.842 24.443-2.842 24.443 0.076 4.561-0.299 4.857c-0.373 0.299-4.484-3.514-4.484-4.186s4.932-23.174 4.635-23.994-5.906 4.559-7.475 4.334 0.373 17.492 0.072 17.641-3.139 2.768-3.887 3.141c-0.746 0.375 1.496-16.443 1.496-17.715s-4.859 6.203-5.232 8.521-0.973 0.615-1.646-0.301c-0.346-0.471 1.271-6.576 1.123-6.803s-2.691 0.898-2.99 1.348-2.691 12.855-4.561 14.275-0.299-7.773-0.896-8.072-3.363 2.393-3.363 2.393 0.523 9.193-0.074 9.867-1.57 0.447-1.943 0.148 1.943-5.232 1.793-5.83-0.223-1.348-0.598-0.896c-0.373 0.447 0.299-1.795-0.074-2.02s-1.195 0.225-1.195 0.225-2.766 6.877-3.363 7.475-4.264 1.05-4.711 2.769z"/><path d="m8.623 43.51c0.148-0.6 0.598-1.57 0.973-1.645 0.373-0.076-0.301-2.469-0.301-2.469s6.203-0.895 6.729 0.898c0.523 1.793-0.074 1.793-0.074 1.943s3.064 3.66 2.018 11.959 3.064 21.527 2.318 26.609-1.197 5.83-1.945 8.67-2.018-11.359-2.914-12.258-1.346-4.186-0.449-4.41 1.646-2.242 2.094-2.615-1.645-10.615-1.795-11.062c0 0-1.119 2.766-2.24 1.121s0.598-4.336 0.447-4.934-0.225-4.41 0.076-4.783c0.299-0.375 0.373-2.395 0.146-2.467-0.225-0.076-1.643 0.371-2.391 0.447-0.748 0.074-1.57-2.018-0.973-2.018s-0.674-1.795-0.746-2.244-0.973-0.742-0.973-0.742z"/><path d="m12.283 83.949c0.455 0.043 0.674 8.221 0.674 8.221s0.748 3.59 1.197 4.262-0.598 2.094-2.02 2.242-2.094-0.074-2.094-0.074c-0.148-0.074-0.447 3.961-0.521 4.188-0.076 0.225-2.916-1.943-2.842-4.785s3.292-14.278 5.606-14.054z"/><path d="m57.396 133.45c-0.232-0.23 6.502-9.699 6.502-9.699l1.346 0.336 0.225-2.129 13.117 5.494-1.457 1.178 0.896 1.064-2.02 2.689s2.916 2.859 2.637 4.484-8.576 10.146-9.363 10.314c-0.783 0.168-5.045 8.129-5.045 8.129l-3.195-0.447s-1.682-10.203-3.025-11.381c-1.348-1.178-1.121-2.131-0.842-3.309s0.39-6.555 0.224-6.723z"/><path d="m45.1 110.48c-0.299 0.299-12.857 29.75-13.307 31.096s-3.139 12.855-7.475 19.883-5.084 10.764-5.232 13.305 0.896 6.129 0.748 7.625c-0.148 1.494-4.336 6.578-4.484 9.418s0.447 2.99 0.447 2.99 5.383-3.139 7.477-4.635c2.092-1.494 11.512-16.895 12.258-23.771s4.037-16.443 4.486-17.49c0.447-1.045 4.932-18.986 4.783-20.779s0.598-15.846 0.598-15.846z"/><path d="m15.641 196.78s21.033-14.121 23.846-22.803l1.639-2.248c0.295-0.598-4.875 18.105-7.408 20.953s-3.721 4.945-4.162 6.742c-0.443 1.795-3.557 10.027-4.742 13.021s-2.223 6.287-2.516 8.082-8.201 6.455-9.252 5.113-0.607-2.988-0.607-2.988-2.244-0.891-0.16-3.438-0.09-2.832-0.066-3.465c0.033-0.959-0.143-13.875 3.428-18.969z"/><path d="m46.855 165.57s-0.447 36.217-1.346 38.346-9.531 3.252-13.117 6.951-4.822 6.055-6.84 7.625-2.914 3.588-2.691 3.027c0.225-0.561 7.736-19.959 13.006-26.799s4.037-13.455 5.158-15.922c1.121-2.464 4.26-11.995 5.83-13.228z"/><path d="m49.322 145.28c0 0.336-0.561 49.334-0.561 50.23s13.902-7.398 15.023-8.969-5.719-32.18-6.391-36.777-2.354-13.564-3.027-14.352-1.008 6.391-2.242 6.727-2.802 3.141-2.802 3.141z"/><path d="m46.52 110.18s8.186 7.852 9.754 17.492 0.094 3.344-0.111 3.701c-0.355 0.615-1.57-3.701-3.363-2.244s-2.578 1.682-2.578 2.131-0.225-9.756-0.225-9.756z"/><path d="m10.527 104.47s8.186-3.701 9.082-4.709-7.623 9.979-8.857 9.867-2.354-0.449-2.018-0.898 0.449-2.467 0.783-2.578c0.338-0.112 1.01-1.682 1.01-1.682z"/><path d="m40.689 107.94c-0.113 0.336-9.531 10.539-13.344 13.006s-8.521 8.855-9.754 11.322-4.934 8.299-5.494 9.98-0.896 3.588-0.674 5.045c0.227 1.457 0.814 2.527 1.234 2.916 0.486 0.447 2.316 0.746 2.877 0.523 0.562-0.227 1.496-0.748 1.496-0.748s3.699-19.512 4.709-19.734c1.008-0.225 0.896 3.252-0.338 5.832s-1.008 3.025-1.119 3.475 0.223 0.896 0.223 0.896 14.689-22.312 15.473-24.217c0.788-1.905 4.711-8.296 4.711-8.296z"/><path d="m33.961 129.13c-0.334 0.338-19.957 30.273-20.182 33.525s0.672 3.477 1.234 3.924 2.467 0 2.803-0.225 1.682-4.035 1.682-4.035z"/><path d="m19.273 118.48c-0.449 1.01-6.615 5.156-6.279 6.055s0.562 1.795 1.01 1.795 0.674 0.111 0.785 0.561 0 0.561 0.225 1.232 0.896 2.242 0.896 2.242z"/><path d="m43.68 90.488c0.262-0.037 1.941 0.039 1.568-0.746-0.324-0.68-0.926-2.982-0.766-4.17l11.529-0.428s-8.232-1.627-11.039-2.152c-2e-3 -0.48-0.039-0.965-0.1-1.406l10.314-4.141s-8.857 1.457-11.135 1.799c-0.424-0.799-0.861-1.463-0.861-1.463l-0.326-0.287 7.539-7.896s-7.705 5.357-9.502 6.564c-0.994-0.521-1.986-0.822-2.949-0.963l0.268-10.461c0 0.189-2.191 8.025-2.869 10.438-1.365 0.164-2.6 0.578-3.594 1.02l-7.291-7.494 5.09 8.713-0.307 0.221c-0.629 0.447-1.168 0.906-1.633 1.373l-8.756-0.141 0.146 1.195 6.787 1.467c-0.25 0.523-0.428 1.041-0.547 1.545l-2.875 0.352 0.023 0.08c-0.688-1.119-1.293-1.799-1.293-1.799s0.521 2.916 0.072 5.906-8.146 12.107-8.146 12.107-0.373 0.822 2.318 0.523 7.398-3.363 8.744-8.521c0.648-2.486-0.025-4.904-0.896-6.742l1.852 0.295c0.111 2.189 1.062 3.758 1.062 3.758 0-0.15 2.467-2.916 3.176-2.73s4.338-1.645 4.523-1.457c0.188 0.188 1.719 1.42 1.719 1.42s1.496 0.711 1.496 0.859 0.074 3.738-0.113 3.773-0.746 0.189-0.746 0.189-0.262 1.867-0.523 1.793c-0.262-0.076-0.336 0.447-0.486 0.598s1.309 1.234 1.309 1.234 0.486 1.492 0 1.531-0.783 2.018-0.447 2.393c0.336 0.373 0.973 0.373 1.156 0.336 0.189-0.037 0.711 0.412 2.244-0.262s3.887-7.475 3.887-7.475 0.116-0.709 0.378-0.748zm1.718 13.455c0.037-0.111-1.309-5.156-1.121-5.27s0.672-0.449 1.01-1.234-0.711-2.504-0.711-2.578-0.822-3.102-0.822-3.102c0 0.188-3.215 7.25-3.215 7.25s0.15 3.438 0.227 3.775c0.074 0.336 1.346 0.111 1.346 0.26s0.148 2.691 0.223 2.691 0.412 0.41 0.859 0.039c0.449-0.375 2.543-0.227 2.543-0.227s-0.376-1.492-0.339-1.604zm-32.404 12.856c-1.457 0.785-1.23 0.898-1.008 1.234s0.447 1.008 0.447 1.008-0.561-0.561-0.896 1.123c-0.336 1.682-0.449 2.129-0.111 2.242s7.287-4.037 8.408-6.842 5.158-13.902 5.158-13.902c-0.113 0.451-10.541 14.354-11.998 15.137zm7.961-13.34 3.812-9.307c-0.111 0.447-5.83 7.176-6.504 10.539s-1.346 4.035-1.793 4.82 4.485-6.052 4.485-6.052zm14.576 1.344c-0.447-0.111-1.346-0.896-2.354-1.793s-3.812-4.822-3.812-4.822c-0.783-2.018-3.588-3.924-2.914-3.027s-0.561 11.887-0.785 12.559-4.82 13.902-4.484 13.455 1.346-1.346 2.803-2.244 0.785-2.354 1.01-4.482c0.225-2.133 0.672-1.795 1.457-3.588s2.58-1.906 3.924-2.355c1.348-0.447 4.262-1.121 4.711-1.232 0.444-0.116 0.892-2.358 0.444-2.471z"/><path d="m7.725 38.314s5.324-2.521 9.277-0.084c0 0 2.523 0.59 4.346-2.242 0 0-0.281-1.541-4.43-2.242s-7.457-0.029-7.457-0.029-3.586 0.701-4.736 2.047 3 2.55 3 2.55z"/><path d="m5.764 34.082s6.055-3.924 14.406-0.279c0 0 0.113-2.328 0.646-2.523s-7.598-3.336-15.277-0.225c0-2e-3 1.094 1.373 0.225 3.027z"/><path d="m10.406 26.859c2e-3 4e-3 0.602 0.311 0.756 0.402 1.262 0.936 5.068-0.393 5.068-0.393s5.182-2.861 4.408-9.588c0 0 0.061 2.043-2.197 3.912-0.211-0.967-0.498-1.766-1.061-2.891-0.268-0.535-0.502-0.977-0.701-1.379 0.057-0.064 0.113-0.127 0.17-0.184 1.004-1.006 5.949-5.26 1.121-16.74 0 0 0.695 8.119-1.045 9.51s-9.395 4.641-9.162 11.135 1.238 5.281 2.65 6.225"/><path d="m3.363 245.76h68.279v11.438h-68.279z"/><path d="m0 260.22h79.043v12.109h-79.043z"/></g><text transform="matrix(.36159 .89689 -.97096 .3572 0 0)" x="589.07294" y="-275.77472" fill="#666666" font-family="'Adwaita Sans'" font-size="4.17px" stroke-linejoin="round" stroke-width=".13134" style="font-variant-caps:normal;font-variant-east-asian:normal;font-variant-ligatures:normal;font-variant-numeric:normal;font-variation-settings:'opsz' 32, 'wght' 900;paint-order:markers fill stroke"><tspan x="589.07294" y="-275.77472" fill="#666666" font-family="'Adwaita Sans'" font-size="4.17px" stroke-width=".13134" style="font-variant-caps:normal;font-variant-east-asian:normal;font-variant-ligatures:normal;font-variant-numeric:normal;font-variation-settings:'opsz' 32, 'wght' 900">New York</tspan></text><rect transform="matrix(.97378 .22751 -.24804 .96875 0 0)" x="561.48" y="304.15" width="26.769" height="58.105" ry="5.6688" fill="none" stroke="#4d4d4d" stroke-linejoin="round" stroke-width="2.962" style="paint-order:markers fill stroke"/><path d="m318.63 146.29c2e-3 1.3836 0.0808 2.7756 0.88691 4.2482 0.41397 0.59704 1.2071 0.50685 1.5263-0.12003 0.59444-1.5918 0.3944-3.0367 0.24751-4.4402z" fill="url(#c)" style="font-variation-settings:'opsz' 32, 'wght' 900;paint-order:markers fill stroke"/><path d="m227.18 114.94c1.3843-0.358 3.0452-0.69692 4.1128-0.78069 0.94654-0.0287 1.2702 0.4718 1.721 0.98434l18.231 20.637c0.54296 0.48412 3.9896 1.176 4.9296 1.0183l75.052-11.642c6.4335-0.66497 13.686 0.28789 17.151 2.7154l3.4711 2.6815c1.4415 1.0242 3.0587 1.9554 3.2669 3.6319 0.15786 1.829-2.3002 3.3925-4.3462 4.8878-4.6166 3.0175-13.156 5.1052-19.252 5.974l-9.5383 1.2898-10.851 1.2559-1.4293 0.30548-3.3836 0.33943c-0.64804 0.0649-1.3768 0.17346-2.0418 0.28004l-2.3335 0.46671c-7.5484 0.85893-15.121 1.4598-22.635 2.6815-5.7823 0.933-11.165 1.4651-16.247 1.3577-2.7754 0.0261-4.9698-0.1929-7.5256-0.50915l-19.427-2.953c-2.2777-0.38515-4.4612-0.79677-5.6296-1.4935-1.1241-0.7627-0.97189-2.137-0.35003-2.4439l5.863-2.9191z" fill="#fff" style="font-variation-settings:'opsz' 32, 'wght' 900;paint-order:markers fill stroke"/><path d="m227.18 114.94c1.3843-0.358 3.0452-0.69692 4.1128-0.78069 0.94654-0.0287 1.2702 0.4718 1.721 0.98434l18.231 20.637c0.54296 0.48412 3.9896 1.176 4.9296 1.0183l75.052-11.642c6.4335-0.66497 13.686 0.28789 17.151 2.7154l3.4711 2.6815c1.4415 1.0242 3.0587 1.9554 3.2669 3.6319 0.15786 1.829-2.3002 3.3925-4.3462 4.8878-4.6166 3.0175-13.156 5.1052-19.252 5.974l-9.5383 1.2898-10.851 1.2559-1.4293 0.30548-3.3836 0.33943c-0.64804 0.0649-1.3768 0.17346-2.0418 0.28004l-2.3335 0.46671c-7.5484 0.85893-15.121 1.4598-22.635 2.6815-5.7823 0.933-11.165 1.4651-16.247 1.3577-2.7754 0.0261-4.9698-0.1929-7.5256-0.50915l-19.427-2.953c-2.2777-0.38515-4.4612-0.79677-5.6296-1.4935-1.1241-0.7627-0.97189-2.137-0.35003-2.4439l5.863-2.9191z" fill="url(#i)" style="font-variation-settings:'opsz' 32, 'wght' 900;paint-order:markers fill stroke"/><path d="m227.18 114.94c1.3843-0.358 3.0452-0.69692 4.1128-0.78069 0.94654-0.0287 1.2702 0.4718 1.721 0.98434l18.231 20.637c0.54296 0.48412 3.9896 1.176 4.9296 1.0183l75.052-11.642c6.4335-0.66497 13.686 0.28789 17.151 2.7154l3.4711 2.6815c1.4415 1.0242 3.0587 1.9554 3.2669 3.6319 0.15786 1.829-2.3002 3.3925-4.3462 4.8878-4.6166 3.0175-13.156 5.1052-19.252 5.974l-9.5383 1.2898-10.851 1.2559-1.4293 0.30548-3.3836 0.33943c-0.64804 0.0649-1.3768 0.17346-2.0418 0.28004l-2.3335 0.46671c-7.5484 0.85893-15.121 1.4598-22.635 2.6815-5.7823 0.933-11.165 1.4651-16.247 1.3577-2.7754 0.0261-4.9698-0.1929-7.5256-0.50915l-19.427-2.953c-2.2777-0.38515-4.4612-0.79677-5.6296-1.4935-1.1241-0.7627-0.97189-2.137-0.35003-2.4439l5.863-2.9191z" fill="url(#j)" style="font-variation-settings:'opsz' 32, 'wght' 900;paint-order:markers fill stroke"/><rect transform="matrix(.98663 -.16299 -.040448 .99918 0 0)" x="289.38" y="185.74" width=".56343" height="1.1059" ry=".23459" fill="#808080" stroke="#333" stroke-linecap="round" stroke-linejoin="round" stroke-width=".15704" style="font-variation-settings:'opsz' 32, 'wght' 900;paint-order:markers fill stroke"/><path d="m250.91 140.94c-0.25817 1.7189-0.41619 3.423 0 5.4563 0.0416 0.20254 0.25295 0.45727 0.47716 0.4423l1.6813-0.20468c0.19307-0.0273 0.36167-0.52993 0.33545-0.81464-0.0442-0.47939-0.4104-3.7267-0.0875-4.8708z" fill="none" stroke="#000" stroke-linecap="round" stroke-linejoin="round" stroke-width=".13455" style="font-variation-settings:'opsz' 32, 'wght' 900;paint-order:markers fill stroke"/><path d="m216.33 142.19c1.2388-0.33004 2.5686-0.53055 4.0545-0.50915l24.123 3.1906c1.3982 0.22643-0.74457 1.2037-1.7793 1.222l-6.913-0.20366-14.147-2.4778c-2.1633-0.39077-3.917-0.7992-5.3379-1.222z" fill="#b3b3b3" style="font-variation-settings:'opsz' 32, 'wght' 900;paint-order:markers fill stroke"/><path d="m288.09 150.41c-0.11662 0-2.4039 0.0476-2.4039 0.0476-1.3319 0.0145-2.6227-0.1815-3.3715-0.55679-0.88726-0.48556-1.0964-1.2342-1.2543-2.0026l-0.27638-4.234 6.9269-1.6042z" fill="#808080" style="font-variation-settings:'opsz' 32, 'wght' 900;paint-order:markers fill stroke"/><rect transform="matrix(.98663 -.16299 -.040448 .99918 0 0)" x="287.83" y="185.68" width=".56343" height="1.1059" ry=".23459" fill="#808080" stroke="#333" stroke-linecap="round" stroke-linejoin="round" stroke-width=".15704" style="font-variation-settings:'opsz' 32, 'wght' 900;paint-order:markers fill stroke"/><path d="m233.18 133.49c-0.84256-0.0392-3.9304 0.39571-4.0201 0.48003-0.22835 0.21483-0.61259 0.47842-0.0413 0.62404l16.093 3.6894-0.64197 1.4941 21.781 5.7596 11.064 3.7442 2.0542-0.79654 7.2164-1.7701c-0.2534-0.52852-0.38607-0.91143-0.17145-2.4406l4.0284 0.66453 12.809-1.032c1.0371-0.33433 1.8519-0.88433 2.6607-1.4401 0.38208-0.37679 0.51675-0.81753-0.14437-1.4641-1.1706-0.9182-4.1467-1.2328-4.9914-1.2241l-5.9196 0.50402h-6.2702l-11.241-0.93605c-14.589-1.3036-29.52-3.06-44.056-5.8083-0.0135-0.0274-0.0878-0.0424-0.20819-0.048z" fill="#b3b3b3" style="font-variation-settings:'opsz' 32, 'wght' 900;paint-order:markers fill stroke"/><path d="m287.24 142.09 11.113-2.2402c1.3988-0.22358 1.7473-0.62752 3.1211 1.1541 1.0644 1.2445 1.9232 4.3936 1.1668 7.0601-0.30018 1.1301-1.135 1.7758-2.071 2.2063-2.373 1.1458-4.7556 1.3201-7.1756 1.4595l-3.5586 0.16972c-1.2614 0.065-2.407-1.2073-2.7283-2.0184-0.93635-2.3633-0.89691-6.3604 0.0292-7.6711z" fill="#808080" style="font-variation-settings:'opsz' 32, 'wght' 900;paint-order:markers fill stroke"/><path d="m287.24 142.09 11.113-2.2402c1.3988-0.22358 1.7473-0.62752 3.1211 1.1541 1.0644 1.2445 1.9232 4.3936 1.1668 7.0601-0.30018 1.1301-1.135 1.7758-2.071 2.2063-2.373 1.1458-4.7556 1.3201-7.1756 1.4595l-3.5586 0.16972c-1.2614 0.065-2.407-1.2073-2.7283-2.0184-0.93635-2.3633-0.89691-6.3604 0.0292-7.6711z" fill="url(#f)" style="font-variation-settings:'opsz' 32, 'wght' 900;paint-order:markers fill stroke"/><path d="m299.61 139.65c-0.33392 6e-3 -0.96141 0.17826-1.1273 0.37053-0.44331 0.58193-0.9333 1.0512-1.1808 1.9261-0.37475 1.3873-0.41646 2.9811 0.0413 5.0643 0.49714 1.5042 0.7834 2.6768 2.146 3.2858 0.18904 0.0875 0.77892 0.1225 1.0806-0.0232 0.936-0.4305 1.7708-1.0758 2.071-2.2059 0.75649-2.6666-0.10228-5.8156-1.1666-7.0601-0.84993-1.1022-1.3075-1.3682-1.864-1.3576z" fill="#666" style="font-variation-settings:'opsz' 32, 'wght' 900;paint-order:markers fill stroke"/><ellipse transform="matrix(1 0 .073586 .99729 0 0)" cx="289.74" cy="145.25" rx="1.8535" ry="4.2522" style="font-variation-settings:'opsz' 32, 'wght' 900;paint-order:markers fill stroke"/><path transform="matrix(1.2473 0 0 1.4514 151.11 -149.07)" d="m75.493 197.92 0.06614-0.1447 17.517 3.9097-0.62127 1.1877 0.61835-1.1935 8.0798 2.4172-0.4134 1.1079" fill="none" filter="url(#k)" opacity=".61" stroke="#999" stroke-linecap="round" stroke-linejoin="round" stroke-width=".1" style="font-variation-settings:'opsz' 32, 'wght' 900;paint-order:markers fill stroke"/><path d="m233.18 133.49c-0.84256-0.0392-3.9304 0.39571-4.0201 0.48003-0.22835 0.21483-0.61259 0.47842-0.0413 0.62404l16.093 3.6894-0.64197 1.4941 21.781 5.7596 11.064 3.7442 2.0542-0.79654 7.2164-1.7701c-0.2534-0.52852-0.38607-0.91143-0.17145-2.4406l4.0284 0.66453 12.809-1.032c1.0371-0.33433 1.8519-0.88433 2.6607-1.4401 0.38208-0.37679 0.51675-0.81753-0.14437-1.4641-1.1706-0.9182-4.1467-1.2328-4.9914-1.2241l-5.9196 0.50402h-6.2702l-11.241-0.93605c-14.589-1.3036-29.52-3.06-44.056-5.8083-0.0135-0.0274-0.0878-0.0424-0.20819-0.048z" fill="url(#g)" style="font-variation-settings:'opsz' 32, 'wght' 900;paint-order:markers fill stroke"/><ellipse transform="matrix(1 0 .073586 .99729 0 0)" cx="289.74" cy="145.25" rx="1.8535" ry="4.2522" fill="url(#d)" style="font-variation-settings:'opsz' 32, 'wght' 900;paint-order:markers fill stroke"/><path d="m216.33 142.19c1.2388-0.33004 2.5686-0.53055 4.0545-0.50915l24.123 3.1906c1.3982 0.22643-0.74457 1.2037-1.7793 1.222l-6.913-0.20366-14.147-2.4778c-2.1633-0.39077-3.917-0.7992-5.3379-1.222z" fill="url(#e)" style="font-variation-settings:'opsz' 32, 'wght' 900;paint-order:markers fill stroke"/><rect transform="matrix(.98663 -.16299 -.040448 .99918 0 0)" x="292.56" y="185.81" width=".56343" height="1.1059" ry=".23459" fill="#808080" stroke="#333" stroke-linecap="round" stroke-linejoin="round" stroke-width=".15704" style="font-variation-settings:'opsz' 32, 'wght' 900;paint-order:markers fill stroke"/><rect transform="matrix(.98663 -.16299 -.040448 .99918 0 0)" x="294.13" y="185.81" width=".56343" height="1.1059" ry=".23459" fill="#808080" stroke="#333" stroke-linecap="round" stroke-linejoin="round" stroke-width=".15704" style="font-variation-settings:'opsz' 32, 'wght' 900;paint-order:markers fill stroke"/><rect transform="matrix(.98663 -.16299 -.040448 .99918 0 0)" x="295.73" y="185.83" width=".56343" height="1.1059" ry=".23459" fill="#808080" stroke="#333" stroke-linecap="round" stroke-linejoin="round" stroke-width=".15704" style="font-variation-settings:'opsz' 32, 'wght' 900;paint-order:markers fill stroke"/><rect transform="matrix(.98663 -.16299 -.040448 .99918 0 0)" x="297.44" y="185.85" width=".56343" height="1.1059" ry=".23459" fill="#808080" stroke="#333" stroke-linecap="round" stroke-linejoin="round" stroke-width=".15704" style="font-variation-settings:'opsz' 32, 'wght' 900;paint-order:markers fill stroke"/><rect transform="matrix(.98663 -.16299 -.040448 .99918 0 0)" x="298.99" y="185.87" width=".56343" height="1.1059" ry=".23459" fill="#808080" stroke="#333" stroke-linecap="round" stroke-linejoin="round" stroke-width=".15704" style="font-variation-settings:'opsz' 32, 'wght' 900;paint-order:markers fill stroke"/><rect transform="matrix(.98663 -.16299 -.040448 .99918 0 0)" x="300.61" y="185.88" width=".56343" height="1.1059" ry=".23459" fill="#808080" stroke="#333" stroke-linecap="round" stroke-linejoin="round" stroke-width=".15704" style="font-variation-settings:'opsz' 32, 'wght' 900;paint-order:markers fill stroke"/><rect transform="matrix(.98663 -.16299 -.040448 .99918 0 0)" x="302.14" y="185.9" width=".56343" height="1.1059" ry=".23459" fill="#808080" stroke="#333" stroke-linecap="round" stroke-linejoin="round" stroke-width=".15704" style="font-variation-settings:'opsz' 32, 'wght' 900;paint-order:markers fill stroke"/><rect transform="matrix(.98663 -.16299 -.040448 .99918 0 0)" x="303.65" y="185.93" width=".56343" height="1.1059" ry=".23459" fill="#808080" stroke="#333" stroke-linecap="round" stroke-linejoin="round" stroke-width=".15704" style="font-variation-settings:'opsz' 32, 'wght' 900;paint-order:markers fill stroke"/><rect transform="matrix(.98663 -.16299 -.040448 .99918 0 0)" x="305.32" y="185.93" width=".56343" height="1.1059" ry=".23459" fill="#808080" stroke="#333" stroke-linecap="round" stroke-linejoin="round" stroke-width=".15704" style="font-variation-settings:'opsz' 32, 'wght' 900;paint-order:markers fill stroke"/><rect transform="matrix(.98663 -.16299 -.040448 .99918 0 0)" x="306.99" y="185.95" width=".56343" height="1.1059" ry=".23459" fill="#808080" stroke="#333" stroke-linecap="round" stroke-linejoin="round" stroke-width=".15704" style="font-variation-settings:'opsz' 32, 'wght' 900;paint-order:markers fill stroke"/><rect transform="matrix(.98663 -.16299 -.040448 .99918 0 0)" x="308.77" y="185.97" width=".56343" height="1.1059" ry=".23459" fill="#808080" stroke="#333" stroke-linecap="round" stroke-linejoin="round" stroke-width=".15704" style="font-variation-settings:'opsz' 32, 'wght' 900;paint-order:markers fill stroke"/><rect transform="matrix(.98663 -.16299 -.040448 .99918 0 0)" x="310.46" y="185.98" width=".56343" height="1.1059" ry=".23459" fill="#808080" stroke="#333" stroke-linecap="round" stroke-linejoin="round" stroke-width=".15704" style="font-variation-settings:'opsz' 32, 'wght' 900;paint-order:markers fill stroke"/><rect transform="matrix(.98663 -.16299 -.040448 .99918 0 0)" x="312.29" y="186" width=".56343" height="1.1059" ry=".23459" fill="#808080" stroke="#333" stroke-linecap="round" stroke-linejoin="round" stroke-width=".15704" style="font-variation-settings:'opsz' 32, 'wght' 900;paint-order:markers fill stroke"/><rect transform="matrix(.98663 -.16299 -.040448 .99918 0 0)" x="314.03" y="186.02" width=".56343" height="1.1059" ry=".23459" fill="#808080" stroke="#333" stroke-linecap="round" stroke-linejoin="round" stroke-width=".15704" style="font-variation-settings:'opsz' 32, 'wght' 900;paint-order:markers fill stroke"/><rect transform="matrix(.98663 -.16299 -.040448 .99918 0 0)" x="315.75" y="186.04" width=".56343" height="1.1059" ry=".23459" fill="#808080" stroke="#333" stroke-linecap="round" stroke-linejoin="round" stroke-width=".15704" style="font-variation-settings:'opsz' 32, 'wght' 900;paint-order:markers fill stroke"/><rect transform="matrix(.98663 -.16299 -.040448 .99918 0 0)" x="317.39" y="186.05" width=".56343" height="1.1059" ry=".23459" fill="#808080" stroke="#333" stroke-linecap="round" stroke-linejoin="round" stroke-width=".15704" style="font-variation-settings:'opsz' 32, 'wght' 900;paint-order:markers fill stroke"/><rect transform="matrix(.98663 -.16299 -.040448 .99918 0 0)" x="319.24" y="186.07" width=".56343" height="1.1059" ry=".23459" fill="#808080" stroke="#333" stroke-linecap="round" stroke-linejoin="round" stroke-width=".15704" style="font-variation-settings:'opsz' 32, 'wght' 900;paint-order:markers fill stroke"/><rect transform="matrix(.98663 -.16299 -.040448 .99918 0 0)" x="321.05" y="186.08" width=".56343" height="1.1059" ry=".23459" fill="#808080" stroke="#333" stroke-linecap="round" stroke-linejoin="round" stroke-width=".15704" style="font-variation-settings:'opsz' 32, 'wght' 900;paint-order:markers fill stroke"/><rect transform="matrix(.98663 -.16299 -.040448 .99918 0 0)" x="322.89" y="186.11" width=".56343" height="1.1059" ry=".23459" fill="#808080" stroke="#333" stroke-linecap="round" stroke-linejoin="round" stroke-width=".15704" style="font-variation-settings:'opsz' 32, 'wght' 900;paint-order:markers fill stroke"/><rect transform="matrix(.98663 -.16299 -.040448 .99918 0 0)" x="324.59" y="186.13" width=".56343" height="1.1059" ry=".23459" fill="#808080" stroke="#333" stroke-linecap="round" stroke-linejoin="round" stroke-width=".15704" style="font-variation-settings:'opsz' 32, 'wght' 900;paint-order:markers fill stroke"/><rect transform="matrix(.98663 -.16299 -.040448 .99918 0 0)" x="326.21" y="186.14" width=".56343" height="1.1059" ry=".23459" fill="#808080" stroke="#333" stroke-linecap="round" stroke-linejoin="round" stroke-width=".15704" style="font-variation-settings:'opsz' 32, 'wght' 900;paint-order:markers fill stroke"/><rect transform="matrix(.98663 -.16299 -.040448 .99918 0 0)" x="327.94" y="186.17" width=".56343" height="1.1059" ry=".23459" fill="#808080" stroke="#333" stroke-linecap="round" stroke-linejoin="round" stroke-width=".15704" style="font-variation-settings:'opsz' 32, 'wght' 900;paint-order:markers fill stroke"/><rect transform="matrix(.98663 -.16299 -.040448 .99918 0 0)" x="329.62" y="186.18" width=".56343" height="1.1059" ry=".23459" fill="#808080" stroke="#333" stroke-linecap="round" stroke-linejoin="round" stroke-width=".15704" style="font-variation-settings:'opsz' 32, 'wght' 900;paint-order:markers fill stroke"/><rect transform="matrix(.98663 -.16299 -.040448 .99918 0 0)" x="331.35" y="186.2" width=".56343" height="1.1059" ry=".23459" fill="#808080" stroke="#333" stroke-linecap="round" stroke-linejoin="round" stroke-width=".15704" style="font-variation-settings:'opsz' 32, 'wght' 900;paint-order:markers fill stroke"/><rect transform="matrix(.98663 -.16299 -.040448 .99918 0 0)" x="333.26" y="186.2" width=".56343" height="1.1059" ry=".23459" fill="#808080" stroke="#333" stroke-linecap="round" stroke-linejoin="round" stroke-width=".15704" style="font-variation-settings:'opsz' 32, 'wght' 900;paint-order:markers fill stroke"/><rect transform="matrix(.98663 -.16299 -.040448 .99918 0 0)" x="335.18" y="186.24" width=".56343" height="1.1059" ry=".23459" fill="#808080" stroke="#333" stroke-linecap="round" stroke-linejoin="round" stroke-width=".15704" style="font-variation-settings:'opsz' 32, 'wght' 900;paint-order:markers fill stroke"/><rect transform="matrix(.98663 -.16299 -.040448 .99918 0 0)" x="337.13" y="186.26" width=".56343" height="1.1059" ry=".23459" fill="#808080" stroke="#333" stroke-linecap="round" stroke-linejoin="round" stroke-width=".15704" style="font-variation-settings:'opsz' 32, 'wght' 900;paint-order:markers fill stroke"/><rect transform="matrix(.98663 -.16299 -.040448 .99918 0 0)" x="291" y="185.79" width=".56343" height="1.1059" ry=".23459" fill="#808080" stroke="#333" stroke-linecap="round" stroke-linejoin="round" stroke-width=".15704" style="font-variation-settings:'opsz' 32, 'wght' 900;paint-order:markers fill stroke"/><rect transform="matrix(.98663 -.16299 -.040448 .99918 0 0)" x="339.18" y="186.29" width=".56343" height="1.1059" ry=".23459" fill="#808080" stroke="#333" stroke-linecap="round" stroke-linejoin="round" stroke-width=".15704" style="font-variation-settings:'opsz' 32, 'wght' 900;paint-order:markers fill stroke"/><rect transform="matrix(.98663 -.16299 -.040448 .99918 0 0)" x="341.13" y="186.31" width=".56343" height="1.1059" ry=".23459" fill="#808080" stroke="#333" stroke-linecap="round" stroke-linejoin="round" stroke-width=".15704" style="font-variation-settings:'opsz' 32, 'wght' 900;paint-order:markers fill stroke"/><path d="m332.83 134.84c-0.30403 0.0276-0.64471 0.14427-0.75148-0.96428-0.12273-2.0528-0.12677-3.9149 0.0223-5.0236 0.0476-0.32661 0.23694-0.55808 0.64171-0.64492l2.3335-0.30548c0.18357-0.0257 0.35491 0.0334 0.32262 0.47726-0.12654 1.7976-0.12298 3.5832-0.0309 5.4288 0.0262 0.42709 2e-3 0.78951-0.43239 0.83657z" fill="none" stroke="#333" stroke-linecap="round" stroke-linejoin="round" stroke-width=".13455" style="font-variation-settings:'opsz' 32, 'wght' 900;paint-order:markers fill stroke"/><ellipse transform="matrix(1 0 -.037895 .99928 0 0)" cx="338.49" cy="130.97" rx=".22601" ry=".31984" fill="#1a1a1a" stroke="#000" stroke-linecap="round" stroke-linejoin="round" stroke-width=".12052" style="font-variation-settings:'opsz' 32, 'wght' 900;paint-order:markers fill stroke"/><path d="m349.03 128.62-2.2-0.14268 0.97431 1.7713c0.13422 0.15711 0.36109 0.14872 0.52624 0.15875l3.6211 0.2085-2.3268-1.7881z" fill="#4d4d4d" style="font-variation-settings:'opsz' 32, 'wght' 900;paint-order:markers fill stroke"/><path d="m345.71 128.57-0.0563 2.0784c0.0798 0.13179 0.17456 0.22342 0.28361 0.27602 0.15177 0.0784 0.37157 0.0894 0.59617 0.035l1.0606-0.3937c0.0918-0.0379 0.0318-0.31506-0.0325-0.40931-0.016-0.0235-0.91011-1.6741-0.91011-1.6741z" fill="#4d4d4d" style="font-variation-settings:'opsz' 32, 'wght' 900;paint-order:markers fill stroke"/><path d="m345.46 130.56-1.1032 0.15693c-0.27044 0.0145-0.44797-0.24058-0.44861-0.69005 2e-3 -0.26712 0.0498-0.49671 0.21657-0.69003 0.23583-0.25499 0.5012-0.47558 1.0625-0.686 0.33543-0.12425 0.31827 0.11205 0.31358 0.36157z" fill="#4d4d4d" style="font-variation-settings:'opsz' 32, 'wght' 900;paint-order:markers fill stroke"/></g></svg>