<?xml version='1.0' encoding='utf-8'?>
<svg xmlns="http://www.w3.org/2000/svg" width="4e3" height="2667" version="1.1" viewBox="0 0 1058.3 705.64"><defs><linearGradient id="a" x1="533.07" x2="533.96" y1="180.64" y2="32.806" gradientUnits="userSpaceOnUse"><stop stop-color="#2ad4ff" offset="0"/><stop stop-color="#2ad4ff" stop-opacity="0" offset="1"/></linearGradient><linearGradient id="b" x1="563.51" x2="566.13" y1="340.21" y2="811.54" gradientUnits="userSpaceOnUse"><stop stop-color="#216778" offset="0"/><stop stop-color="#216778" stop-opacity="0" offset="1"/></linearGradient></defs><g><rect x=".0004069" y=".0046753" width="1058.3" height="705.63" fill="#00aad4" style="paint-order:markers fill stroke"/><rect x=".0004069" y=".0046753" width="1058.3" height="705.63" fill="url(#a)" style="paint-order:markers fill stroke"/><path d="m513.94 256.97c42.846-5.0974 87.161-7.8832 123.05-22.61 27.636-11.34 53.752-22.934 80.874-13.044 39.841 14.527 86.14 19.665 129.14 26.088l3.9132 50.003-339.15 4.7828z" fill="#37c8ab" style="paint-order:markers fill stroke"/><path d="m286.75 223.05c26.427-5.695 50.8-13.833 75.221-21.958 18.768-6.2438 36.421-8.1772 51.959-1.087 24.945 11.383 49.938 22.869 80.221 29.784 35.694 8.1511 72.44 16.984 112.4 28.48 20.356 5.8564 41.556 6.6632 62.829 6.3047 49.832-0.83974 79.396 12.967 92.613 26.74l-471.55 7.3917z" fill="#2ca089" style="paint-order:markers fill stroke"/><path d="m34.784 266.1c22.229-41.397 73.225-62.593 136.53-79.569 42.449-11.384 59.914-10.787 84.352 0 37.1 16.376 101.55 46.419 151.31 56.959 29.17 6.1789 53.467 11.579 86.961 23.045 20.502 7.0187 46.028 15.237 71.743 23.479l-518.29 7.3917z" fill="#217867" style="paint-order:markers fill stroke"/><path d="m716.37 291.47c-2.7532-21.283 17.603-22.515 24.289-13.835-2.092-7.6317 11.746-10.652 15.68-7.6863-0.27239-7.0213 20.886-28.478 41.506-12.606-4.9339-11.21 8.5394-34.306 26.748-20.599-2.1556-16.26 20.699-28.056 32.283-13.22 6.5318-14.508 28.822-24.932 42.121-2.4596 7.4249-3.5286 15.61-4.8849 27.056 3.0745l1.5373 76.556-212.45-4.3044z" fill="#217821" style="paint-order:markers fill stroke"/><path d="m1041.1 149.57c-14.544 0.54752-26.8 14.749-22.737 36.308-9.6387-7.0916-25.177-0.94379-24.784 21.523-6.2084-3.5382-10.632-3.11-14.24-0.86971 1.5784-46.21-15.746-54.181-20.436-20.762-25.082-18.872-40.335 3.8497-38.697 37.719-24.468-10.447-32.144 10.808-30.436 22.936l5.2178 53.046 163.4-0.96531v-142.93c-5.5504-4.3443-11.592-6.2206-17.283-6.0064z" fill="#165016" style="paint-order:markers fill stroke"/><path d="m1048.8 194.59c-20.6 0.95173-29.293 20.436-23.513 34.768-13.088-5.996-19.793-1.682-25.436 4.3481-4.1389-16.345-25.298-17.594-31.306-2.3916-15.043-25.087-45.828-13.716-45.002 18.262-7.6382-7.4028-21.146-8.9598-28.045 0.86971-10.403-17.198-33.039-8.2286-32.827 7.3913-17.753-17.761-44.345 3.8475-42.611 20.218-13.972-9.8067-31.102-0.99021-26.088 20.001l264.38 2.9946v-105.67c-3.4214-0.6895-6.6074-0.93178-9.5503-0.79582z" fill="#173a0c" style="paint-order:markers fill stroke"/><path d="m176.79 306.53 2.1522-70.714c2.4106-19.407 40.507-26.252 42.429 4.3044 12.095-10.463 26.497-3.0246 25.239 13.144 4.4057-4.9028 8.3058-4.8709 12.463-1.7294 6.6792-10.017 23.442-10.437 28.862 7.571 10.381-6.088 19.592-6.0096 26.902 4.0738 1.6897-2.7811 2.8905-9.4221 15.373-6.1491 4.9258-9.3793 27.558-5.6423 28.593 9.2236 10.041-3.7757 16.283-0.0905 20.599 7.3789 6.3385-3.5568 11.267 0.28825 15.988 5.2267 6.2694-7.4504 18.509 6.1346 21.829 10.146l-0.61492 16.91z" fill="#250" style="paint-order:markers fill stroke"/><path d="m183.55 301.92c-10.81-21.226 22.001-75.77 51.037-35.357 7.8578-8.762 24.393-5.397 29.208 8.9161 17.07-2.0742 17.798 8.3026 23.674 14.758l1.2298 11.068z" fill="#173f0b" style="paint-order:markers fill stroke"/><path d="m19.362 107.43c-6.7917 0.11708-13.528 1.5579-19.361 3.9414v195.34l190.88-0.6103-2.8262-24.566c31.133-25.989-10.611-62.572-24.132-54.568 5.8301-43.73-32.771-52.916-50.22-32.828 7.3416-40.785-34.115-58.116-54.568-41.741 1.48-33.756-19.397-45.317-39.772-44.966z" fill="#338000" style="paint-order:markers fill stroke"/><path d="m15.095 149.01c-4.4378 0.0914-9.5185 1.8865-15.094 6.0156v151.31l190.44 0.41496-0.65268-24.784c-5.0156-7.4983-11.144-12.213-18.479-13.914 4.4592-20.695-18.594-30.891-32.393-17.827 5.6934-24.132-19.325-33.532-37.611-13.262 2.8913-15.807-3.94-32.236-26.958-34.132-4.3369-17.418-16.34-30.99-40.654-25.653 2.2396-13.383-5.2891-28.444-18.602-28.17z" fill="#226400" style="paint-order:markers fill stroke"/><path d="m40.87 210.29c-9.6793 0.16163-19.224 7.8051-19.347 25.596-3.9458-7.3404-14.784-6.7427-21.522-2.4304v39.385l63.046-2.0619c32.555-0.62907 26.939-48.261-3.9135-29.675 6.8485-18.862-5.8187-31.022-18.263-30.814z" fill="#385500" style="paint-order:markers fill stroke"/><rect x=".0004069" y="287.85" width="1058.3" height="417.79" fill="#37abc8" style="paint-order:markers fill stroke"/><rect x=".0004069" y="287.85" width="1058.3" height="417.79" fill="url(#b)" style="paint-order:markers fill stroke"/><path d="m223.66 287.85 50.898 21.452c-9e-3 0.11678-0.0191 0.23237-0.0315 0.34726l5.7196-0.0398c51.743 7.2574-38.785 14.438-78.093 20.753-0.24222 0.0389-0.47221 0.0783-0.69091 0.11782-1.842 1.1531-1.5743 2.4715 2.0748 2.8029 13.351 1.2125 21.432 2.4688 26.138 3.6463 0.20467 0.0148 0.40802 0.0292 0.61029 0.0434 4.1048 0.28829 5.6598 1.2542 5.1036 2.45 1.016 1.488-2.3567 2.5873-3.6354 2.881-0.88171 0.20246-1.7719 0.39478-2.6701 0.57722-3.1282 0.97505-7.3067 1.8442-12.326 2.3931-14.519 1.5879-27.066 2.9764-57.148 3.3414-4.4763 0.52339-8.4761 1.4107-9.6687 2.4846-0.0942 0.63232 0.20807 1.3015 0.93379 1.8955 1.2313 0.58804 3.4027 1.1967 6.7722 1.8066 0.0267 8.7e-4 0.0533 2e-3 0.0801 3e-3 9.1735 0.26978 14.785 0.92326 17.211 2.9797 1.8868 1.1487 2.4561 3.0183 0.72606 6.2585-0.26589 0.70777-0.60864 1.4702-1.0268 2.2913-2.9521 5.7971 2.3658 8.448 8.2109 9.7906 2.2633 0.25904 4.9154 0.29513 7.9261 0.0935 6.6853-0.44756 12.194-0.0272 16.607 0.92242 1.5124 0.19569 3.1429 0.47853 4.9191 0.87695 4.108 0.92146 6.2467 2.5934 6.1671 4.0669 3.842 3.375 3.8337 7.2662 0.56947 9.1343-18.471 10.571-48.662 5.1884-74.134 7.0657-0.92392 0.0681-1.8674 0.141-2.8252 0.21911 0.40947 2.0781-1.0439 4.2319-4.949 4.7248-6.4652 0.81597-12.595-0.56511-17.064 0.61495-5.1321 2.3598-8.1414 11.353 6.7639 10.761 7.7229-0.30679 16.502-0.28192 26.134 2.1518 7.2561 1.8335 4.0667 10.339-2.1523 13.682-2.4595 1.3219-7.5394 0.75612-12.759 0.30747-8.8966-0.76465-8.8438 8.352-1.6262 13.68 11.068-0.19893 21.638-0.30561 30.327-0.0522 44.097 1.286 102.26 0.0866 90.439 11.305-8.6979 8.2548-61.77 3.1489-55.872 13.913 7.2122 13.163 91.237 11.873 133.48 10.218 9.317-0.36492 18.558-1.1429 24.566-4.3481 7.27-3.878 12.522-1.76 18.479-2.8262 11.442-2.0479 10.901-5.2404 6.7396-8.261-3.849-2.7938-26.772-4.0704-62.395-5.2178-12.143-0.39112-8.3891-7.3162 1.0873-10 6.085-1.7236 17.493-1.1434 30.001-1.3043 10.46-0.13458 16.29-1.687 23.48-3.2613 22.918-5.0184 28.653-3.8642 37.393-2.174 19.104 3.6946 38.294 4.1287 55.437 1.5219 13.447-2.0448 27.632-1.9692 42.176 0 13.911 1.8834 27.711 3.507 41.307 2.3916 14.517-1.191 36.723-2.0721 21.328-8.2062-13.542-5.3959-24.829-2.2116-36.203-3.9202-16.796-2.5232-19.386-7.3889-4.6116-10.146 13.646-2.5461 34.38-1.8952 53.19-1.9988 40.474-0.22311 81.245 0.0164 119.35-1.3829 32.697-1.2007 30.756-7.3648 20.001-8.6961-26.351-3.262-59.565-1.2776-95.223-2.6086-24.132-0.90081-27.837-7.5396-16.74-8.6961 17.221-1.7947 40.219-1.2512 60.655-2.8262 23.719-1.828 25.271-10.28 7.3913-11.305-27.606-1.5832-63.244-0.58424-94.787-2.6086-25.134-1.6131-18.737-7.8305-10.436-8.6961 52.864-5.5126 121.9-0.59617 182.84-2.174 26.887-0.69624 71.349 0.80456 78.917-5.0002 5.1695-3.9652-12.243-4.5163-20.762-4.2395-30.042 0.9758-60.215 1.7874-87.396-2.8262-11.217-1.9039-6.9647-4.745-2.5001-5.4348 9.8694-1.5249 28.629-1.3326 43.589-1.7394 9.9481-0.27054 11.21-4.7923 3.6959-5.2178-40.069-2.269-74.891 0.34152-111.2 0.43511-12.017 0.031-21.187-4.7611-14.348-5.979 7.7656-1.3828 18.515-1.8556 20.11-5.6524 1.0463-2.4903-9.8803-4.1429-19.784-4.022-17.892 0.21849-34.815 0.0878-46.089-1.7389-15.213-2.4649-4.3747-5.5608 1.1958-6.0875 14.005-1.324 34.82-1.5148 70.221-0.21756 13.842 0.50723 28.426 1.3272 38.371-0.32608 13.735-2.2833 6.8948-5.1184 2.5001-5.4348-23.774-1.7116-42.496-0.7963-62.829-0.97823-7.8785-0.0705-6.9081-5.5943-3.0437-5.7614 58.899-2.5471 132.15-0.42428 198.27-1.0868 9.63-0.0965 20.855-0.21743 23.045-3.3698 1.8236-2.6255-6.983-4.1828-32.936-4.2395-29.673-0.0649-59.729 0.52823-87.722-2.065-7.0626-0.65427-6.4422-3.6313-2.174-3.8049 48.276-1.9641 102.52-1.6743 154.14-1.5214 53.014 0.15703 104.44 0.22733 155.24-0.51366v-8.3952zm748.35 59.129c-7.327 0.073-13.732 2.5657-5.4353 4.1305 20.502 3.8666 54.63 3.2098 91.762 2.4686v-5.8379c-27.903-2.0494-57.558-1.0477-86.326-0.76119zm-648.56 65.164c8.2104-0.19088 16.146 0.10809 23.307 1.5782 11.849 2.4324 5.2773 7.5514 2.3916 8.261-12.635 3.1071-30.007 2.0107-43.698 4.3481-18.616 3.1783-36.39 1.6716-53.481-0.65216-11.918-1.6203-21.359-1.016-31.089-0.65216-12.746 0.47674-20.953 0.50576-26.74-1.5219-8.9363-3.1307-3.6492-4.1906 1.5219-5.0002 20.326-3.1824 38.849-5.7255 55.438-5.6524 15.916 0.0702 32.904 1.5102 47.393 0.65216 8.2603-0.48917 16.746-1.1698 24.956-1.3606z" fill="#0ff" opacity=".22483" style="paint-order:markers fill stroke"/><ellipse cx="340.45" cy="310.56" rx="90.222" ry="4.0219" fill="#37abc8" style="paint-order:markers fill stroke"/><path d="m280.24 309.61-280.24 1.9513v181.49c26.883 3.5484 92.207 5.5148 128.52-1.7343 12.599-2.5155 15.252-11.183 2.4593-13.22-12.292-1.9578-25.099-1.8434-37.817-3.0748-17.834-1.7268-15.175-7.8481-3.0742-9.5312 22.66-3.1518 60.715-3.5206 92.543-4.4576 12.397-0.36498 7.973-10.654-0.92191-11.991-9.4179-1.4156-20.686-0.54012-33.82-0.92242-4.8057-0.13989-8.6121-1.6437-11.397-3.6907-0.0247 4.4e-4 -0.043-4.5e-4 -0.0677 0-0.24494-0.18082-0.46049-0.37582-0.68885-0.56483-0.13232-0.10951-0.27119-0.21409-0.39791-0.32608-0.4932-0.43576-0.94809-0.88641-1.3555-1.3518-0.0837-0.0956-0.15152-0.19391-0.23151-0.29042-0.32087-0.38707-0.61189-0.77876-0.87333-1.1767-0.13594-0.20685-0.27254-0.41225-0.39223-0.62063-0.0503-0.0876-0.10295-0.17426-0.15038-0.262-0.18974-0.35099-0.35961-0.70213-0.50281-1.0526-0.0238-0.0584-0.041-0.11588-0.0636-0.17415-0.11753-0.30381-0.21621-0.60518-0.29817-0.90485-0.0246-0.0899-0.0489-0.1789-0.0703-0.2682-0.0831-0.34735-0.15048-0.69175-0.18449-1.0278-0.0235-0.23205-0.0312-0.45993-0.031-0.68471 5e-5 -0.0633 3e-3 -0.12544 5e-3 -0.1881 5e-3 -0.17318 0.0179-0.34341 0.0377-0.51108 7e-3 -0.0563 0.0108-0.11333 0.0191-0.16898 0.0316-0.21175 0.0737-0.41864 0.12919-0.6196 0.011-0.0398 0.0258-0.0775 0.0377-0.11679 0.0502-0.16573 0.1092-0.32718 0.17622-0.48421 0.0226-0.0529 0.0458-0.10524 0.0703-0.1571 0.0761-0.16103 0.16067-0.31697 0.25528-0.46715 0.0184-0.0292 0.0336-0.0601 0.0527-0.0889 0.013-0.0195 0.0275-0.038 0.0408-0.0574 0.0708-0.10297 0.14678-0.20271 0.22686-0.29972 0.0265-0.0321 0.0531-0.0641 0.0806-0.0956 0.0972-0.11105 0.19854-0.21923 0.30851-0.32143h5.2e-4v-5.2e-4h5.1e-4c6e-3 -5e-3 0.0119-0.0102 0.0176-0.0155 0.0964-0.0886 0.20038-0.17127 0.30644-0.2527 0.17152-0.13169 0.35275-0.25617 0.54984-0.36793 0.0218-0.0124 0.0466-0.022 0.0687-0.0341 0.17917-0.0981 0.37011-0.18643 0.56999-0.26717 0.0623-0.0251 0.12589-0.0489 0.19017-0.0723 0.18871-0.0687 0.38603-0.12947 0.59221-0.18242 0.0515-0.0132 0.0999-0.0291 0.15245-0.0413 0.25605-0.0595 0.52609-0.10611 0.80822-0.14056 0.0649-8e-3 0.13366-0.0115 0.19999-0.0181 0.18462-0.0182 0.37819-0.0273 0.5736-0.0346 0.44106-0.0165 0.8993-0.0148 1.3958 0.0279 2.61 0.22433 5.1852 0.47776 7.4151 0.51005 2.2299 0.0323 4.1146-0.15656 5.3444-0.81752 1.1661-0.62674 2.2259-1.4349 3.13-2.3466 0.60278-0.60784 1.1363-1.2617 1.5865-1.9384 1.0128-1.5224 1.6025-3.161 1.6046-4.6519v-5.2e-4c8.7e-4 -0.6625-0.11442-1.2957-0.36018-1.8769v-5.2e-4c-0.0614-0.14518-0.13136-0.28699-0.20929-0.42529v-5.2e-4c-0.078-0.13831-0.16449-0.27288-0.25942-0.40359v-5.2e-4c-0.095-0.13082-0.1986-0.25734-0.31109-0.37982-0.22499-0.24497-0.48536-0.47278-0.7829-0.68006-0.29754-0.20729-0.63242-0.39428-1.0061-0.55811-0.37371-0.16383-0.78621-0.3045-1.2397-0.41909-9.6314-2.4337-18.411-2.4586-26.134-2.1518-2.7945 0.11101-4.9594-0.11506-6.5986-0.57102h-5.2e-4c-0.54641-0.15202-1.0342-0.32947-1.4676-0.52865-0.86688-0.39837-1.5154-0.88313-1.9766-1.4227-0.34595-0.40464-0.58669-0.84008-0.73484-1.2929-0.0988-0.30191-0.15624-0.61157-0.17674-0.92501s-4e-3 -0.63069 0.046-0.94775c0.0751-0.47557 0.22552-0.95088 0.43769-1.4123 0.28295-0.61535 0.67606-1.2057 1.1488-1.7405 0.70887-0.80186 1.5963-1.4779 2.5585-1.9203 3.3518-0.88505 7.638-0.32942 12.299-0.34055 1.5535-4e-3 3.149-0.0704 4.7651-0.2744 0.47972-0.0606 0.92075-0.14731 1.3276-0.25476 0.36737-0.0971 0.70275-0.21382 1.0124-0.34417 0.0309-0.013 0.0647-0.0244 0.0951-0.0377 0.0779-0.0342 0.14961-0.0713 0.22376-0.10749 0.0865-0.0421 0.17433-0.0835 0.2558-0.12816 0.067-0.0367 0.12863-0.0763 0.19223-0.11472 0.0804-0.0485 0.16161-0.0968 0.23668-0.14779 0.0597-0.0406 0.11471-0.083 0.17105-0.12506 0.0686-0.0512 0.13737-0.10229 0.20102-0.15555 0.0557-0.0467 0.10715-0.095 0.15917-0.14314 0.0576-0.0533 0.11489-0.10667 0.16794-0.16175 0.0473-0.0491 0.0912-0.0994 0.13488-0.14986 0.0486-0.0561 0.0968-0.11243 0.14108-0.17002 0.0422-0.0549 0.0811-0.11074 0.11937-0.16691 0.0377-0.0554 0.0746-0.11093 0.10852-0.16743 0.0355-0.0593 0.0678-0.11944 0.0992-0.17984 0.0298-0.0573 0.0588-0.11489 0.0847-0.17311 0.026-0.0582 0.0495-0.11714 0.0718-0.17622 0.0237-0.0625 0.046-0.12524 0.0656-0.18862 0.0184-0.0595 0.0348-0.1192 0.0496-0.17931 0.0157-0.0637 0.0291-0.1279 0.0408-0.19224 0.011-0.06 0.0209-0.12039 0.0284-0.18087 8e-3 -0.0651 0.0139-0.13038 0.0181-0.19585 4e-3 -0.0614 7e-3 -0.12278 7e-3 -0.18449 5.1e-4 -0.0657-2e-3 -0.13148-5e-3 -0.1974-3e-3 -0.0608-7e-3 -0.12159-0.0129-0.18242-7e-3 -0.0681-0.0178-0.13608-0.0289-0.20412-0.31953-1.9542-2.288-3.8697-5.4265-4.3067-16.24-2.2614-27.284-0.27228-40.738-1.9988-9.7414-1.2502-17.957-5.7672-1.2299-7.3789 35.431-3.4139 78.471 2.0238 117.29 0 4.3647-0.22752 6.4478-1.4779 6.475-2.9022 4.6e-4 -0.0241 1e-3 -0.0481 5.2e-4 -0.0723-6.3e-4 -0.0214-3e-3 -0.0431-4e-3 -0.0646-2e-3 -0.0235-3e-3 -0.0472-6e-3 -0.0708-3e-3 -0.0227-7e-3 -0.0455-0.0103-0.0682-4e-3 -0.0239-7e-3 -0.0479-0.0124-0.0718-5e-3 -0.0231-0.0112-0.0461-0.0171-0.0692-6e-3 -0.0241-0.0124-0.0482-0.0196-0.0723-3e-3 -0.011-7e-3 -0.022-0.0109-0.0331-0.0197-0.0614-0.0469-0.12288-0.0739-0.18449-0.0185-0.0423-0.0365-0.0847-0.0584-0.12712-0.0257-0.0496-0.0565-0.0992-0.0868-0.14883-0.0272-0.0444-0.0534-0.089-0.0842-0.13333-0.0327-0.047-0.0702-0.0937-0.10697-0.14056-0.037-0.047-0.0731-0.0942-0.1142-0.14107-0.0413-0.0471-0.0878-0.0937-0.13333-0.14056-0.0431-0.0444-0.0849-0.0892-0.13177-0.13333-0.0253-0.0238-0.0547-0.047-0.0811-0.0708-0.17686-0.159-0.37664-0.31606-0.60203-0.46974-0.15682-0.10691-0.34344-0.20927-0.52348-0.31265-0.11718-0.0673-0.22032-0.13654-0.34726-0.20205-0.19927-0.10282-0.42952-0.19938-0.65268-0.29714-0.13972-0.0612-0.26441-0.12553-0.41341-0.18449-0.0251-0.01-0.0557-0.0185-0.0811-0.0284-0.75335-0.29295-1.6151-0.55805-2.5967-0.77824-1.7762-0.39842-3.4067-0.68126-4.9191-0.87695h-0.00155l-5.2e-4 -5.2e-4c-8.842-1.1438-13.65 0.68977-19.983-0.19895-1.4595-0.20484-3.0209-0.46614-4.5465-0.81649h-0.00207c-0.45761-0.10511-0.90028-0.23402-1.3477-0.35605-0.26695-0.0728-0.54287-0.13307-0.80408-0.21239-0.69866-0.21219-1.3744-0.44832-2.0112-0.7121-3.7e-4 -1.6e-4 -6.9e-4 -3.7e-4 -1e-3 -5.2e-4 -0.63705-0.26389-1.2352-0.55529-1.7803-0.87798h-5.1e-4c-0.17846-0.10568-0.34154-0.22031-0.50798-0.3328-0.0878-0.0593-0.18345-0.11441-0.26769-0.1757-0.2438-0.17739-0.47233-0.36326-0.68368-0.55759-0.31697-0.2915-0.59555-0.60217-0.82889-0.93431v-5.1e-4c-0.0777-0.11064-0.15058-0.22363-0.21807-0.339v-5.2e-4c-0.0675-0.11536-0.13029-0.23274-0.18707-0.35295v-5.2e-4c-0.0568-0.1202-0.10788-0.24277-0.15348-0.36793v-5.2e-4c-0.0913-0.25064-0.15992-0.5112-0.2036-0.78238-0.064-0.39722-0.0734-0.81723-0.0253-1.2609 1e-3 -0.0107 9e-4 -0.0208 2e-3 -0.0315 3e-3 -0.0238 8e-3 -0.0494 0.0114-0.0734 0.0948-0.7395 0.34961-1.5438 0.79633-2.421 0.37207-0.73061 0.66201-1.3982 0.91364-2.0386 1.2163-3.0954 1.029-5.1868-0.72037-6.5918-0.0857-0.0688-0.17559-0.13591-0.26871-0.20154-0.0715-0.0504-0.14376-0.10029-0.21963-0.14883-0.0636-0.0407-0.13228-0.0794-0.19895-0.11885-0.19215-0.11357-0.41764-0.21389-0.63562-0.3173-0.23606-0.11199-0.47962-0.22124-0.74621-0.32194-0.20399-0.0771-0.42138-0.14936-0.64337-0.22014-0.2234-0.0712-0.46261-0.1374-0.70435-0.20257-0.83514-0.22523-1.8016-0.40974-2.8587-0.57051-2.8193-0.42967-6.3679-0.66621-10.828-0.79737-0.0268-7.9e-4 -0.0534-2e-3 -0.0801-3e-3 -7e-3 -1e-3 -0.0111-3e-3 -0.0186-4e-3 -3.3776-0.11322-5.5904-0.85936-6.7422-1.7978-3e-3 -2e-3 -8e-3 -3e-3 -0.0114-5e-3 -0.0117-0.01-0.0211-0.0194-0.0326-0.0289-0.0342-0.0286-0.0644-0.0579-0.0966-0.0868-0.0611-0.0549-0.12-0.10995-0.17415-0.16588-0.0318-0.0328-0.0617-0.0656-0.0909-0.0987-0.0468-0.0527-0.0905-0.10578-0.13126-0.15917-0.0264-0.0346-0.0526-0.0691-0.0765-0.10387-0.0382-0.0557-0.0715-0.11174-0.10335-0.16795-0.0208-0.0367-0.0439-0.0732-0.062-0.11007-5e-3 -0.01-9e-3 -0.0195-0.014-0.0294-0.0345-0.0735-0.065-0.14735-0.0889-0.22118-1e-3 -4e-3 -2e-3 -8e-3 -3e-3 -0.0119-0.0223-0.0709-0.0391-0.14157-0.0517-0.21239l-6e-3 -0.03c-0.0113-0.0717-0.0168-0.14317-0.0181-0.21445-2.1e-4 -0.0114-5.6e-4 -0.0227-5.2e-4 -0.0341 2.3e-4 -0.0721 5e-3 -0.14414 0.0155-0.21549 2.5e-4 -2e-3 2.6e-4 -3e-3 5.2e-4 -5e-3l5.1e-4 -5.1e-4c0.20182-1.3535 2.2194-2.5366 5.7872-2.4438 32.915-0.28923 45.901-1.7266 61.029-3.3812 2.6146-0.28596 4.9773-0.66609 7.106-1.0955 0.71612-0.14454 1.2554-0.31923 1.912-0.47543 5.4414-1.2948 8.981-2.9216 9.6134-4.2804 0.0173-0.0372 0.0328-0.0748 0.046-0.11163v-5.1e-4c0.0132-0.0369 0.0245-0.0731 0.0336-0.10956 0.0272-0.10924 0.0355-0.21657 0.0248-0.32091-0.0143-0.13912-0.0625-0.27368-0.14573-0.40256-0.0416-0.0644-0.0922-0.12707-0.15141-0.18862-0.1479-0.1538-0.35092-0.29812-0.61082-0.43149v-5.2e-4h-5.2e-4v5.2e-4c-0.20795-0.10669-0.45225-0.20704-0.7338-0.29869h-5.2e-4c-0.84529-0.27508-2.0259-0.47791-3.5652-0.58601-0.20227-0.0142-0.40562-0.0286-0.61029-0.0434-2.3e-4 -6e-5 -1e-3 -4.2e-4 -2e-3 -5.2e-4h-5.2e-4c-16.415-1.1863-40.178-4.2291-28.243-6.4275 0.0111-7e-3 0.0202-0.0146 0.0315-0.0217 0.14484-0.0262 0.29457-0.0516 0.44959-0.0775 0.079-0.0132 0.15952-0.0267 0.24132-0.0398 19.654-3.1576 52.113-6.5314 73.191-10.023 7.9042-1.3094 14.208-2.6356 17.636-3.9729 1.1426-0.44577 1.9653-0.89289 2.4216-1.341 0.11393-0.11191 0.2054-0.22386 0.27285-0.3359v-5.2e-4c0.16858-0.28025 0.1891-0.5608 0.0506-0.8418v-5.2e-4c-0.0138-0.028-0.0295-0.0557-0.0465-0.0837v-5.1e-4c-0.0511-0.0843-0.11662-0.16838-0.19689-0.2527-0.26804-0.28142-0.70028-0.56339-1.3079-0.84543-0.24305-0.11281-0.51444-0.22557-0.81442-0.33848-2.3998-0.9032-6.6443-1.8095-13.112-2.7166zm-219.38 211.16c-21.577 0.15128-41.665 1.5552-60.867 2.8396v20.953c47.054 2.4103 91.111 3.4476 130.05-3.7445 9.9132-1.8309 37.663-9.8865 0.61444-15.373-25.157-3.7254-48.223-4.8264-69.8-4.6752zm965.96 59.506c-10.033 0.16651-19.494 0.79946-28.078 2.3699-14.363 2.6276-44.759 3.4209-26.523 15.653 12.937 8.6781 53.168 7.2001 86.109 8.4496v-26.044c-10.871-0.29445-21.475-0.5944-31.508-0.42788zm-956.18 46.16c-25.217-1.3463-50.102-1.649-70.641 0.2589v31.166c33.811 5.158 86.293 5.3122 138.66-4.5144 37.778-7.0889 21.9-19.114 4.6121-20.907-21.866-2.2669-47.415-4.6569-72.632-6.0032zm946.58 27.412c-13.019 0.24229-25.019 1.29-34.995 4.0194-11.863 3.2456-38.326 6.8709-9.5653 16.958 33.978 11.916 59.784 8.7148 85.674 6.4761v-26.64c-14.056-0.49197-28.095-1.0552-41.114-0.81287z" fill="#164450" opacity=".76979" style="paint-order:markers fill stroke"/><path d="m5.1676e-4 258.44v84.747c42.966-5.4443 85.06-11.343 126.98-17.289 47.644-6.7578 100.75-10.57 152.49-14.471 7.8311-0.59052 4.4345-5.4435-0.6103-7.6652-40.119-17.668-86.446-26.646-131.59-32.283-57.263-7.8362-105.4-12.073-147.27-13.039z" fill="#338000" style="paint-order:markers fill stroke"/><path d="m84.57 289.36c-3.6412 9.065-2.9756 24.59-0.65319 42.6 3.0636-0.42667 6.1249-0.85464 9.1845-1.2831-5.228-13.326-9.2565-26.876-8.5313-41.317zm-18.914 5.0002c4.2123 12.56 8.2495 25.169 7.6455 39.073 3.2992-0.456 6.5956-0.91299 9.8893-1.3715-5.54-14.87-11.53-27.532-17.535-37.702zm46.959 0c-13.9 0.47423-20.403 12.134-18.701 36.203 2.7518-0.38557 5.5017-0.77182 8.2507-1.1586-3.9018-16.144-3.3193-29.578 10.45-35.045zm-112.61 3.715v45.111c19.464-2.4663 38.748-5.0259 57.919-7.6409-7.9294-18.771-17.812-36.464-57.919-37.471zm206.62 4.7201c-23.885-0.12617-46.496 0.7509-65.088 4.8266-14.505 3.1797-28.819 7.6507-36.594 21.393 7.3557-1.0362 14.702-2.0759 22.044-3.1171 47.644-6.7578 100.75-10.57 152.49-14.471 7.5748-0.57119 4.6445-5.1304-0.12093-7.4388-23.689 0.0631-48.848-1.066-72.733-1.1922zm-150.96 0.47852c3.3314 11.115 7.1522 22.54 7.2285 31.593 2.9653-0.40633 5.928-0.81398 8.8883-1.2227-6.1082-15.704-11.543-26.3-16.117-30.371z" fill="#250" style="paint-order:markers fill stroke"/><path d="m97.463 588.77c-26.618-5.892-11.892-13.024 0.99922-14.681 31.758-4.0815 65.346-5.4267 98.308 0.8455 17.419 3.3146 20.282 13.706 6.764 16.602-35.364 7.5765-71.54 4.8768-106.07-2.7671z" fill="#164450" opacity=".82374" style="paint-order:markers fill stroke"/><path d="m858.74 633.95c-12.152-2.372-19.337-11.543 0-14.349 31.908-4.6298 65.183-3.0976 97.831 1.3044 20.691 2.7899 12.823 11.422 6.0873 12.609-35.482 6.257-70.488 6.9604-103.92 0.43482z" fill="#164450" opacity=".82374" style="paint-order:markers fill stroke"/><path d="m846.8 552.26c-8.6971-2.2529-5.0886-8.6874-2.1522-9.0699 1.3537-0.17636 2.5257-0.73897 3.2283-2.229-10.995-1.0654-16.934-10.408-15.531-11.488 1.135-0.87392 13.221 7.654 41.8 4.8641 4.1139-0.4016 5.6328 3.3913 1.8626 6.7011-2.3308 2.0461-10.389 1.3718-10.377 2.6134 0.0162 1.6539 10.604 3.9806 4.6118 8.455-4.8843 3.6468-18.969 1.3128-23.443 0.15372z" fill="#164450" opacity=".82374" style="paint-order:markers fill stroke"/><path d="m850.8 566.41c-2.4066-1.553-3.5722-5.0904-0.18942-5.9045 3.2236-0.77577 9.1358-1.0059 13.026-0.16768 2.2602 0.48704 3.1372 3.6552 2.0753 4.535-3.897 3.2289-13.531 2.4279-14.912 1.5372z" fill="#164450" opacity=".82374" style="paint-order:markers fill stroke"/><path d="m850.72 578.4c-3.3839-0.85177-1.9541-3.1428-0.46117-3.8432 2.7087-1.2707 8.8148-0.75739 14.378-0.57842 2.277 0.0732 2.1167 3.337 0.0722 3.8067-5.2484 1.2057-10.384 1.5223-13.989 0.61489z" fill="#164450" opacity=".82374" style="paint-order:markers fill stroke"/><ellipse cx="321.83" cy="349.96" rx="36.126" ry="2.8439" fill="#37abc8" style="paint-order:markers fill stroke"/><path d="m1052.7 345.24a90.222 4.0219 0 0 0-90.222 4.0215 90.222 4.0219 0 0 0 90.222 4.022 90.222 4.0219 0 0 0 5.6704-8e-3v-8.0279a90.222 4.0219 0 0 0-5.6704-8e-3z" fill="#37abc8" style="paint-order:markers fill stroke"/><ellipse cx="941.46" cy="393.06" rx="31.415" ry="3.261" fill="#37abc8" style="paint-order:markers fill stroke"/><ellipse cx="983.96" cy="438.61" rx="33.48" ry="2.9349" fill="#37abc8" style="paint-order:markers fill stroke"/><ellipse cx="880.81" cy="335.67" rx="47.502" ry="2.8262" fill="#37abc8" style="paint-order:markers fill stroke"/><ellipse cx="292.41" cy="331.76" rx="42.611" ry="3.0436" fill="#37abc8" style="paint-order:markers fill stroke"/><path d="m786.95 475.94c-26.841 1.6923-41.831 3.5816-57.104 6.1758a2.15 2.15 0 0 0-1.7598 2.4805 2.15 2.15 0 0 0 2.4805 1.7598c15.155-2.5742 29.913-4.437 56.654-6.123a2.15 2.15 0 0 0 2.0098-2.2812 2.15 2.15 0 0 0-2.2812-2.0117z" fill="#37abc8" stop-color="#000000" stroke-linecap="round" stroke-linejoin="round" style="paint-order:markers fill stroke"/><path d="m803.31 493.48c-1.5709-0.15428-3.2504 0.12267-5.3223 0.60157s-4.4406 1.2058-6.8828 2.1387c-4.8844 1.8658-10.033 4.4791-13.502 7.9082-1.7342 1.7146-3.1122 3.6979-3.5059 6.0703-0.3936 2.3724 0.43006 4.9587 2.3086 7.0664 3.7571 4.2155 11.253 7.5039 24.898 10.559a2.45 2.45 0 0 0 2.9258-1.8555 2.45 2.45 0 0 0-1.8555-2.9258c-13.239-2.9637-20.021-6.4705-22.311-9.0391-1.1446-1.2843-1.2846-2.0869-1.1328-3.002 0.15181-0.91506 0.82952-2.1175 2.1152-3.3887 2.5714-2.5423 7.3174-5.0996 11.807-6.8145 2.2446-0.85741 4.4309-1.5236 6.2383-1.9414 1.8074-0.41777 3.3316-0.53994 3.7383-0.5a2.45 2.45 0 0 0 2.6777-2.1992 2.45 2.45 0 0 0-2.1973-2.6777z" fill="#37abc8" stop-color="#000000" stroke-linecap="round" stroke-linejoin="round" style="paint-order:markers fill stroke"/><path d="m798.6 545.4a2.3 2.3 0 0 0-2.9277 1.418 2.3 2.3 0 0 0 1.4199 2.9277c27.951 9.6907 59.907 12.005 95.068 8.416a2.3 2.3 0 0 0 2.0547-2.5215 2.3 2.3 0 0 0-2.5215-2.0547c-34.682 3.5404-65.955 1.2237-93.094-8.1856z" fill="#37abc8" stop-color="#000000" stroke-linecap="round" stroke-linejoin="round" style="paint-order:markers fill stroke"/><path d="m927.62 507.34a2.75 2.75 0 0 0-3.0664 2.3926 2.75 2.75 0 0 0 2.3926 3.0664c9.0528 1.1179 13.75 3.6895 15.195 5.6543 0.72262 0.98239 0.85553 1.7309 0.65235 2.7637-0.20319 1.0328-0.9059 2.3749-2.248 3.7988-5.3686 5.6958-20.392 11.591-37.604 9.9863a2.75 2.75 0 0 0-2.9941 2.4824 2.75 2.75 0 0 0 2.4824 2.9941c18.666 1.7403 34.752-3.877 42.117-11.691 1.8414-1.9536 3.1736-4.1143 3.6445-6.5078 0.47089-2.3935-0.0831-4.9951-1.6211-7.0859-3.076-4.1817-9.1929-6.6485-18.951-7.8535z" fill="#37abc8" stop-color="#000000" stroke-linecap="round" stroke-linejoin="round" style="paint-order:markers fill stroke"/><path d="m895.36 484.97a2.65 2.65 0 0 0-2.7031 2.5977 2.65 2.65 0 0 0 2.5976 2.7031c24.189 0.48127 73.338 6.88 102.08 16.891 7.186 2.5027 13.093 5.2488 16.895 7.9883 3.8013 2.7395 5.169 5.0958 4.9395 7.1543-0.2295 2.0585-2.4061 5.1541-8.3828 8.6758-5.9768 3.5217-15.424 7.3447-28.906 11.283a2.65 2.65 0 0 0-1.8008 3.2871 2.65 2.65 0 0 0 3.2852 1.8008c13.724-4.0092 23.49-7.9022 30.113-11.805 6.623-3.9024 10.433-7.9398 10.959-12.656 0.5259-4.7165-2.5826-8.7781-7.1074-12.039-4.5248-3.2609-10.793-6.0977-18.252-8.6953-29.834-10.39-78.757-16.689-103.72-17.186z" fill="#37abc8" stop-color="#000000" stroke-linecap="round" stroke-linejoin="round" style="paint-order:markers fill stroke"/><ellipse cx="670.59" cy="447.54" rx="30.817" ry="4.4531" fill="#37abc8" style="paint-order:markers fill stroke"/><ellipse cx="233.98" cy="508.71" rx="50.955" ry="6.759" fill="#37abc8" style="paint-order:markers fill stroke"/><path d="m856.24 506.41c-8.4166 0-16.035 0.83741-21.621 2.2168-2.793 0.6897-5.0767 1.5062-6.7422 2.4785-1.6655 0.97236-2.8652 2.1886-2.8652 3.7598s1.1998 2.7874 2.8652 3.7598c1.6655 0.97236 3.9492 1.7888 6.7422 2.4785 5.5859 1.3794 13.205 2.2168 21.621 2.2168 8.4166 0 16.033-0.8374 21.619-2.2168 2.793-0.68969 5.0767-1.5062 6.7422-2.4785 1.6655-0.97237 2.8652-2.1886 2.8652-3.7598s-1.1998-2.7874-2.8652-3.7598c-1.6655-0.97237-3.9492-1.7888-6.7422-2.4785-5.5859-1.3794-13.203-2.2168-21.619-2.2168zm0 1.9746c8.2848 0 15.787 0.83485 21.146 2.1582 2.6795 0.66168 4.8237 1.4531 6.2188 2.2676 1.395 0.81447 1.8867 1.5637 1.8867 2.0547s-0.4917 1.2402-1.8867 2.0547c-1.395 0.81446-3.5392 1.6059-6.2188 2.2676-5.359 1.3234-12.862 2.1582-21.146 2.1582-8.2848 0-15.789-0.83484-21.148-2.1582-2.6795-0.66168-4.8237-1.4531-6.2188-2.2676-1.395-0.81447-1.8867-1.5637-1.8867-2.0547s0.49169-1.2402 1.8867-2.0547c1.395-0.81446 3.5392-1.6059 6.2188-2.2676 5.359-1.3234 12.864-2.1582 21.148-2.1582z" fill="#37abc8" stop-color="#000000" stroke-linecap="round" stroke-linejoin="round" style="paint-order:markers fill stroke"/><path d="m381.46 475.03-225.1 230.61h736.71l-216.37-230.32z" fill="#502d16" style="paint-order:markers fill stroke"/><path d="m381.46 475.03-17.753 18.188 329.91 0.10284-16.912-18.001zm-22.338 22.885-23.383 23.955 385.11 0.4346-22.813-24.283zm-28.258 28.95-33.424 34.241 460.33 0.50385-32.222-34.3zm-38.981 39.935-44.647 45.739 558.01-0.39946-42.11-44.825zm520.87 53.335-573.33 0.41032-57.622 59.033 686.26-0.57309zm64.879 69.062-705.8 0.58859-15.471 15.85h736.71z" fill="#a05a2c" style="paint-order:markers fill stroke"/><path d="m714.49 56.681c-19.517 0.95157-38.296 9.1708-55.926 22.334-21.759 16.246-40.462 36.466-58.109 58.109-24.084 29.539-46.967 60.953-66.717 97.462-26.251 48.526-51.356 97.896-75.019 150.96-21.398 47.986-44.898 98.249-64.411 149.58-6.5364 0.25528-9.993 3.6744-11.991 7.9933-24.672 53.33-47.202 108.12-70.445 162.52h67.605c16.092-47.716 31.287-95.83 46.959-143.84 2.6536-8.1298 0.49181-15.611-3.2282-18.908l47.828-132.46c14.384-42.574 65.771-153.93 77.524-172.98 18.865-30.575 34.932-62.85 56.523-91.457 4.4856-5.9433 32.402-40.506 54.478-59.243 4.6985-3.988 33.412-27.725 63.535-26.024 2.2405-0.24942 1.6392-3.8833-0.19741-3.9925-2.8171-0.16749-5.6206-0.17986-8.4088-0.04393z" style="paint-order:markers fill stroke"/><path d="m403.1 541.12c-5.7905 0.20225-12.871 3.5296-16.322 11.373l-67.378 153.15h34.593l57.689-157.14c1.7093-4.656-2.7914-7.5785-8.5819-7.3763z" fill="#333" style="paint-order:markers fill stroke"/><path d="m723.84 63.537a0.2 0.2 0 0 0-0.15625 0.23438c23.038 114.59 69.496 244.62 112.33 370.19a0.2 0.2 0 0 0 0.25391 0.12305 0.2 0.2 0 0 0 0.12305-0.25391c-42.833-125.57-89.283-255.59-112.31-370.13a0.2 0.2 0 0 0-0.23633-0.15625z" fill="#fff" stop-color="#000000" stroke-linecap="round" stroke-linejoin="round" style="paint-order:markers fill stroke"/><ellipse cx="723.45" cy="61.956" rx="1.661" ry="1.7099" fill="none" stroke="#000" stroke-linecap="round" stroke-linejoin="round" stroke-width=".74157" style="paint-order:markers fill stroke"/><path d="m722.53 63.111c-16.124 12.689-38.507 19.61-58.094 25.52a0.25 0.25 0 0 0-0.16797 0.3125 0.25 0.25 0 0 0 0.3125 0.16602c19.589-5.9106 42.029-12.832 58.26-25.605a0.25 0.25 0 0 0 0.041-0.35156 0.25 0.25 0 0 0-0.35157-0.04102z" fill="#fff" stop-color="#000000" stroke-linecap="round" stroke-linejoin="round" style="paint-order:markers fill stroke"/><ellipse cx="661.62" cy="87.99" rx="2.8325" ry="2.9159" fill="none" stroke="#000" stroke-linecap="round" stroke-linejoin="round" stroke-width="1.2646" style="paint-order:markers fill stroke"/><path d="m661.98 90.115a0.3 0.3 0 0 0-0.41602 0.08984c-13.419 20.754-30.853 38.972-48.885 55.725a0.3 0.3 0 0 0-0.0156 0.42383 0.3 0.3 0 0 0 0.42383 0.0156c18.049-16.769 35.52-35.019 48.98-55.838a0.3 0.3 0 0 0-0.0879-0.41602z" fill="#fff" stop-color="#000000" stroke-linecap="round" stroke-linejoin="round" style="paint-order:markers fill stroke"/><ellipse cx="609.26" cy="145.11" rx="3.6916" ry="3.8002" fill="none" stroke="#000" stroke-linecap="round" stroke-linejoin="round" stroke-width="1.6481" style="paint-order:markers fill stroke"/><path d="m610.24 147.7a0.35 0.35 0 0 0-0.45703 0.19336c-13.584 33.696-32.138 66.467-53.822 94.371a0.35 0.35 0 0 0 0.0625 0.49024 0.35 0.35 0 0 0 0.49024-0.0605c21.728-27.961 40.312-60.784 53.92-94.539a0.35 0.35 0 0 0-0.19336-0.45508z" fill="#fff" stop-color="#000000" stroke-linecap="round" stroke-linejoin="round" style="paint-order:markers fill stroke"/><ellipse cx="551.42" cy="242.27" rx="5.1643" ry="5.3162" fill="none" stroke="#000" stroke-linecap="round" stroke-linejoin="round" stroke-width="2.3056" style="paint-order:markers fill stroke"/><path d="m553.04 245.63a0.4 0.4 0 0 0-0.5 0.26562c-18.482 59.943-39.955 113.86-69.98 164.54a0.4 0.4 0 0 0 0.14062 0.54883 0.4 0.4 0 0 0 0.54688-0.14062c30.067-50.751 51.565-104.74 70.059-164.72a0.4 0.4 0 0 0-0.26562-0.5z" fill="#fff" stop-color="#000000" stroke-linecap="round" stroke-linejoin="round" style="paint-order:markers fill stroke"/><ellipse cx="477.17" cy="409.71" rx="6.2953" ry="6.4805" fill="none" stroke="#000" stroke-linecap="round" stroke-linejoin="round" stroke-width="2.8105" style="paint-order:markers fill stroke"/><path d="m478.62 414.26a0.45 0.45 0 0 0-0.49609 0.39648c-5.5398 49.999-23.042 87.599-39.904 124.1a0.45 0.45 0 0 0 0.2207 0.59766 0.45 0.45 0 0 0 0.59766-0.2207c16.862-36.501 34.423-74.222 39.98-124.38a0.45 0.45 0 0 0-0.39844-0.49609z" fill="#fff" stop-color="#000000" stroke-linecap="round" stroke-linejoin="round" style="paint-order:markers fill stroke"/><ellipse cx="431.54" cy="537.75" rx="7.7887" ry="8.0177" fill="none" stroke="#000" stroke-linecap="round" stroke-linejoin="round" stroke-width="3.4772" style="paint-order:markers fill stroke"/><path d="m432.97 543.35a0.5 0.5 0 0 0-0.48938 0.4408c-7.2832 62.43-28.293 111.15-47.414 161.85h1.0697c19.078-50.547 40.052-99.285 47.337-161.73a0.5 0.5 0 0 0-0.4377-0.555 0.5 0.5 0 0 0-0.0651-3e-3z" fill="#fff" stop-color="#000000" stroke-linecap="round" stroke-linejoin="round" style="paint-order:markers fill stroke"/><path d="m840.27 512.78c11.838 1.5863 21.483 1.1675 30.134-0.86801 2.219-20.554-0.79381-37.615-19.062-44.273-2.7087-0.98726-3.103-2.47-3.5357-3.9969-2.9517-10.415-5.8396-20.902-8.847-30.031-0.46405-1.4086-5.7245 0.0339-5.3264 1.8479 1.9476 8.8742 5.7454 19.118 9.2396 29.458 0.95151 2.8157 0.2822 4.1169-0.76091 5.0002-8.0617 6.827-14.193 20.88-1.8419 42.863z" fill="#a00" style="paint-order:markers fill stroke"/><path d="m847.57 462.82c-1.5812 0.61245-3.2255 1.0875-4.916 1.4614 0.071 0.20945 0.14209 0.41884 0.21291 0.62838 0.95151 2.8157 0.28243 4.1174-0.76068 5.0007-5.9001 4.9964-10.766 13.863-8.1096 26.876 13.771 4.2553 25.827 2.6031 35.82-7.8445-2.2042-9.7907-7.672-17.372-18.48-21.311-2.7087-0.98726-3.103-2.4697-3.5357-3.9966-0.077-0.27152-0.15412-0.54335-0.23099-0.81494z" fill="#fff" style="paint-order:markers fill stroke"/><path d="m837.71 433.04c-0.2105-3e-3 -0.43702 0.0121-0.67179 0.0434 3.5222 10.568 6.3832 20.872 9.2268 31.169 13.743 18.95 20.156 35.263 18.599 48.712 1.8955-0.27995 3.7374-0.63356 5.5361-1.0568 2.219-20.554-0.79361-37.615-19.062-44.273-2.7087-0.98726-3.103-2.4697-3.5357-3.9966-2.9517-10.415-5.8396-20.902-8.847-30.031-0.12705-0.38565-0.61389-0.55776-1.2454-0.56689z" fill="#4d4d4d" opacity=".32712" style="paint-order:markers fill stroke"/><path d="m847.26 461.73c-1.664 0.56421-3.328 1.0528-4.9919 1.4216 0.19988 0.58603 0.39905 1.1722 0.59738 1.7591 0.8069 2.3878 0.44807 3.6868-0.31575 4.5651 2.448-1.0274 5.2418-1.8467 7.9825-2.1813-1.9918-0.97126-2.3469-2.2974-2.7326-3.6587-0.17997-0.63502-0.35996-1.2706-0.5395-1.9058z" style="paint-order:markers fill stroke"/><path d="m223.81 100.89c3.6326-9.1463-15.204-12.368-20.265-6.0364 5.4606-18.49-24.55-26.476-34.925-16.816 11.305-27.134-47.576-35.452-43.98-1.7247-5.5406-12.361-24.162-2.7025-19.834 7.33-6.775-8.5219-16.258 5.8475-9.2629 11.157-3.9918-1.9931-9.5728 2.4024-8.7386 6.3056 0.78739 3.6842 4.6091 3.5549 7.2222 3.5572l123.75 0.10779c2.3377 2e-3 5.275-1.9636 6.0364-3.8806z" fill="#fff" opacity=".26683" style="paint-order:markers fill stroke"/><path d="m813.95 81.143c-4.5418-11.435 19.009-15.463 25.337-7.5472-6.8272-23.117 30.694-33.102 43.666-21.024-14.134-33.925 59.482-44.324 54.986-2.1563 6.9272-15.454 30.209-3.3788 24.798 9.1644 8.4706-10.655 20.326 7.311 11.581 13.949 4.9908-2.4919 11.969 3.0036 10.926 7.8836-0.98445 4.6063-5.7625 4.4446-9.0296 4.4474l-154.72 0.13477c-2.9227 0.0025-6.5952-2.455-7.5472-4.8517z" fill="#fff" opacity=".26683" style="paint-order:markers fill stroke"/></g></svg>