<?xml version='1.0' encoding='utf-8'?>
<svg xmlns="http://www.w3.org/2000/svg" width="4e3" height="2667" version="1.1" viewBox="0 0 1058.3 705.64"><defs><linearGradient id="a" x1="549.4" x2="542.14" y1="472.85" y2="679.7" gradientUnits="userSpaceOnUse"><stop stop-color="#4a0" offset="0"/><stop stop-color="#4a0" stop-opacity="0" offset="1"/></linearGradient></defs><g><rect x=".0004069" y=".00058594" width="1058.3" height="705.64" fill="#80b3ff" style="font-variation-settings:'wght' 700;paint-order:markers fill stroke"/><path d="m358.27 75.329c5.1543-9.3179-21.572-12.6-28.754-6.1497 7.7479-18.837-34.834-26.972-49.554-17.131 16.04-27.643-67.504-36.117-62.402-1.757-7.8614-12.593-34.283-2.7532-28.142 7.4675-9.6129-8.6818-23.068 5.9572-13.143 11.366-5.6639-2.0305-13.583 2.4474-12.399 6.4239 1.1172 3.7534 6.5396 3.6216 10.247 3.6239l175.58 0.10981c3.3168 2e-3 7.4846-2.0004 8.5649-3.9534z" fill="#fff" opacity=".26683" style="paint-order:markers fill stroke"/><path d="m1033.8 82.078c-7.5952 25.142-15.428 50.086-34.16 65.947l-40.328 21.35-37.48 20.876-41.751 10.912-57.407 5.6932-66.422-5.2188c-14.785-12.882-21.008-31.758-27.043-50.765-1.6945 15.403-6.2773 28.949-14.233 40.327l-37.845-9.5178c-21.686 17.452-40.75 39.46-67.006 46.524l-67.223 33.096c-11.901-2.6962-18.973-10.463-24.591-19.756 9.9757 3.7358 16.18 3.2563 20.8 1.0061-18.655-8.1732-22.333-23.835-31.2-36.903-6.4124 13.624-6.5376 31.064-20.8 39.922 6.9324 2.1221 12.385-0.56377 18.116-2.3482-2.142 9.0946-8.331 16.096-19.643 20.447-11.479-10.778-15.075-28.608-20.994-44.361-5.0832 15.396-8.6366 32.628-18.156 42.7l7.1252 25.264c-8.1504-1.5464-15.155-9.9695-22.062-18.978 9.8961 3.2662 12.499 1.4266 16.369 0.47439-19.04-6.0433-20.114-20.072-25.857-32.025-4.835 12.525-10.348 24.514-24.196 29.89 2.6494 3.4511 7.9984 7.313 12.098 3.7956-4.3867 9.5522-10.001 18.143-21.587 22.061l-13.996-8.7772c-17.299-11.069-34.892-21.876-43.886-40.327 8.1683 2.9636 15.835 5.1254 20.875 3.084-10.924-8.7868-19.031-21.041-25.857-34.872 8.3575 3.7247 15.139 5.937 15.656 2.1353-13.554-16.111-23.819-34.277-27.28-56.696-3.6317 23.628-13.838 40.335-23.248 57.882 3.7955 0.88351 7.5909-2.1901 11.386-4.9816-7.7004 12.088-7.4895 24.431-23.959 36.236 8.5458 6.2899 14.282 1.3413 20.401-2.0758-9.9105 18.841-21.742 34.896-37.955 44.597 7.007 2.3083 16.729-2.751 25.146-4.27-6.0662 10.779-16.93 16.228-26.806 22.773l-17.08-82.553c-11.41-12.124-24.767-21.437-34.218-36.391 3.0717 0.0718 6.4645-2.2177 3.7982-4.6726-12.616-11.616-13.877-30.965-20.583-45.285-5.7468 15.589-11.278 31.267-20.401 44.834-2.6138 3.8874-0.67217 6.7215 5.9304 6.8797-8.1569 19.84-16.066 30.502-26.095 37.243l-116.95-45.072c-13.084-17.354-25.459-35.464-33.21-58.506v581.96h1058.3v-571.49c-11.397-10.915-16.908-33.602-24.526-52.076z" fill="#165016" style="font-variation-settings:'wght' 700;paint-order:markers fill stroke"/><path d="m657.15 112.41c-7.2412-9.1463 30.306-12.368 40.396-6.0364-10.885-18.49 48.938-26.476 69.619-16.816-22.535-27.134 94.836-35.452 87.668-1.7247 11.044-12.361 48.165-2.7025 39.537 7.33 13.505-8.5219 32.408 5.8475 18.464 11.157 7.9572-1.9931 19.082 2.4024 17.419 6.3056-1.5696 3.6842-9.1875 3.5549-14.396 3.5572l-246.67 0.10779c-4.6598 2e-3 -10.515-1.9636-12.033-3.8806z" fill="#fff" opacity=".26683" style="paint-order:markers fill stroke"/><path d="m982.57 50.765c-7.481 22.336-11.784 46.982-28.466 62.626 6.3577 0.0636 11.028-3.2472 16.131-5.6932-5.0959 20.186-16.849 27.533-27.992 36.057 5.2355 4.5572 16.701-1.7873 27.043-6.1676-10.971 21.53-30.578 35.717-50.291 49.816 12.652-0.28713 25.304-2.781 37.955-6.642-27.838 35.857-65.286 61.189-102.24 87.06-21.397-18.418-41.111-36.888-48.393-55.747 10.401 4.6662 18.327 2.3232 26.094-0.47439-13.282-7.9797-24.903-18.661-31.076-38.192 6.6217 2.1818 14.529 6.3847 18.266 4.0328-17.126-22-32.044-45.891-36.769-78.52-8.3205 28.585-15.81 57.802-33.211 79.469 4.4006 1.7877 10.193-1.5273 15.894-4.5072-6.4801 17.213-15.816 32.242-29.89 43.648 9.0413 4.2055 18.514-0.20579 27.992-4.7444-6.8294 19.491-20.838 32.879-36.532 44.835-10.438-8.1545-12.205-15.225-15.894-22.536 10.84 4.1314 21.695 7.9857 32.974 3.7956-17.388-12.107-30.516-28.473-39.853-48.63 7.486 5.3478 15.342 7.7346 23.722 5.9304-21.856-24.441-34.062-50.447-39.378-77.571-6.0074 29.978-17.837 55.941-36.813 76.975 7.2687 1.8374 14.538 1.3176 21.806-4.8643-4.9298 17.726-14.086 29.905-26.167 38.245-21.368-15.829-30.583-32.961-39.718-50.101 13.291 8.3688 24.365 11.297 32.736 7.5913-14.672-14.711-28.689-31.096-39.378-55.984 8.5924 4.2209 19.543 12.796 22.773 7.1169-17.774-21.599-31.778-45.809-37.955-75.436-7.5748 28.432-18.011 54.182-32.736 75.911 3.3916 2.7558 12.262-2.4964 21.35-8.0656-8.1213 25.389-24.953 39.507-40.327 55.51 10.685 2.6633 20.559-2.3751 30.364-8.0657-11.338 25.087-30.114 43.088-50.765 59.305 13.301 4.5358 26.018-0.27947 38.905-2.372-16.26 22.891-36.474 42.62-61.677 58.356 23.051 4.1461 48.337-2.8842 73.064-7.1164-14.195 49.935-42.637 76.465-68.794 106.75-13.767-12.083-21.957-24.167-28.16-36.25 15.443 3.5204 20.567 2.1061 25.999 0.83871-12.252-13.04-26.74-24.031-34.051-41.6 6.054 2.8163 11.477 4.4601 14.426 1.51-17.695-17.75-23.031-40.356-28.516-62.903-4.5635 21.208-7.8997 42.585-24.993 62.064 2.607 2.268 8.0507 0.2805 13.251-1.342-2.4965 10.104-7.6263 14.94-12.245 20.8-13.318-8.0397-23.25-19.917-29.858-35.561 8.7647 4.6712 16.601 7.1361 21.806 3.3543-11.387-10.775-22.71-21.619-28.851-38.077 5.7157 2.7992 11.611 6.0474 15.6 4.5289-15.889-20.535-22.295-39.61-26.671-58.374-7.2846 18.631-4.68 33.244-24.658 57.032 1.593 1.8764 7.2638-0.73261 13.251-3.6902-5.6798 15.586-17.558 26.88-28.851 38.58 4.9691 1.9642 13.908-0.0411 22.309-1.5095-7.7462 18.486-22.565 31.863-38.245 44.619 6.8644 1.78 17.324-0.54915 27.174-2.1808-5.1579 14.661-17.966 22.765-29.019 32.374-18.284-13.343-35.057-27.235-43.612-44.116 14.925 5.8409 29.554 9.4915 42.271-1.0061-23.912-12.382-37.856-28.086-49.819-44.451 12.943 1.6527 27.082 4.6711 34.051-0.50333-19.169-15.69-36.731-32.117-45.29-52.671 9.9967 2.4291 21.915 9.904 28.684 3.8582-13.835-13.119-26.713-27.307-33.044-48.813 6.9009 3.1146 14.106 6.736 17.11 3.3548-17.918-19.16-25.024-44.142-31.536-69.444-7.4716 25.865-16.259 50.872-33.883 70.116 5.5485 1.733 14.01-2.8451 22.142-6.7097-8.1597 17.311-18.289 34-34.89 48.645 9.6243 3.4627 18.628-2.3804 27.845-5.0322-12.331 16.437-23.547 34.794-43.612 37.909l-53.341-60.051c-18.12-15.576-31.826-28.772-48.841-48.67 11.314 2.9364 20.867 1.2887 23.961-2.0975-16.967-8.2378-21.927-19.61-29.468-30.419 6.0678 3.0667 13.153 7.3306 14.09 4.3615-14.652-21.904-23.225-45.51-30.026-69.612-6.3654 27.643-15.927 51.45-30.193 69.612 3.9633 2.0884 9.8028-1.4522 15.264-3.8582-5.7842 16.907-16.632 29.701-27.341 42.606 8.5262 1.28 16.593-2.0305 24.49-7.045-6.9893 18.938-17.051 32.61-30.025 41.288v12.324c7.871-0.12228 16.162-3.8162 24.489-7.8192-6.7165 14.203-15.563 24.145-24.489 33.929v463.38h1058.3v-416.33c-13.807-8.712-26.222-21.321-38.759-33.587 14.667 3.7067 27.44 4.2244 38.759 2.2929v-22.382c-20.58-15.508-40.434-33.253-49.671-64.361 8.9044 3.6788 28.54 8.9739 36.997 6.3981-15.251-11.179-37.416-27.088-45.063-39.609 9.2195 4.4343 17.235 4.6565 24.671 2.8463-10.556-9.0733-21.442-16.993-29.415-35.108 6.412 3.5757 9.4097 4.2246 12.81 5.2188-14.838-20.085-22.879-40.169-26.094-60.254z" fill="#215921" style="font-variation-settings:'wght' 700;paint-order:markers fill stroke"/><path d="m1021.9 283.24c-8.2207 25.875-13.488 53.521-32.262 73.064 6.2768 1.3853 11.675-0.74097 17.08-2.8463-7.1453 15.887-17.487 28.776-31.787 37.955 7.3661 2.6056 16.511 2.3649 26.094 1.4232-13.734 18.381-28.083 28.139-42.225 40.802 5.1662 6.7098 20.963 4.3074 35.109 3.3207-10.675 15.576-19.489 18.132-28.941 25.146-17.013-23.98-36.179-33.725-61.203-4.7444-15.853-10.067-31.38-23.512-49.817-6.8797-22.581-39.387-55.438-5.1351-53.849 17.08-33.397-10.638-51.372-1.9098-65.71 11.386-22.073-41.63-51.393-8.7762-47.681 5.9304-33.939-0.56969-50.001 16.737-69.506 30.602-17.148-6.7969-30.232-26.057-53.375-14.47-7.2076-11.617-9.4129-22.734-12.336-33.922-4.2741 18.5-11.876 34.782-24.196 47.919-21.125-17.014-32.66-35.841-37.244-55.984-3.443 12.377-8.2972 22.651-16.131 32.499-4.709-1.3596-7.9703-6.5794-11.386-11.387 5.825 1.514 10.289 1.8186 12.098-0.23719-7.9042-9.2674-12.444-16.666-16.368-23.722 4.2194 0.8452 7.5045 0.94292 9.4888 0-11.172-12.828-14.985-26.116-19.215-39.378-4.9401 14.975-9.9063 29.921-19.215 40.09 3.8486 0.96727 6.982 0.26602 9.4888-1.8976-3.716 11.378-9.3386 19.791-17.08 24.908 3.538 3.0881 7.6743 1.3924 11.624 1.1865-5.3831 10.044-10.74 20.136-18.74 25.382 9.5465 1.9725 14.403-1.3311 20.638-3.084-6.6023 11.301-14.203 21.771-23.485 30.839 4.2572 1.6584 16.859-2.644 30.364-7.5913l-3.7951 46.021-141.38-0.9493-2.8469-26.687c-4.1517-14.992-3.4614-34.251-32.814-27.032-4.3997-5.4172-6.2815-11.254-8.0512-17.11l14.761 1.342c-13.044-15.988-24.287-31.421-31.535-45.626-3.714 14.048-10.62 23.947-18.787 32.206-5.0738-5.4251-8.6204-16.958-12.413-27.509-2.7764 10.198-4.815 20.519-12.749 29.858-3.9627-3.7229-7.9759-7.0151-11.071-18.116 3.4639 1.9515 5.951 1.9495 8.5545 2.1802-8.5206-11.406-12.684-23.316-16.606-34.722-4.9572 11.684-7.324 25.217-15.096 34.89 1.158 1.2206 4.1017 1.0124 9.7286-1.342-3.9178 6.9511-6.3542 13.675-15.768 21.471-7.8144-10.693-5.1881-11.641-7.045-16.774-3.8423 10.87-8.1592 21.061-15.097 27.509-12.075-13.196-15.93-29.59-36.232-39.587-13.203-13.494-12.09-19.18-16.438-27.845-2.8247 10.259-6.4975 19.67-13.755 25.497-8.3996 3.3863-12.558 9.8567-16.103 16.774l-47.638-2.0826v226.65h1058.3v-289.2c-6.0948-7.1285-10.559-14.343-12.19-21.706 3.9504 1.5271 7.6314 3.6937 12.19 3.775v-14.306c-7.6781-9.5653-14.792-19.836-20.256-32.169 5.2734 3.4416 10.356 5.3539 15.182 5.2188-18.938-21.838-25.551-47.784-31.313-74.013z" fill="#167016" style="font-variation-settings:'wght' 700;paint-order:markers fill stroke"/><path d="m883.17 16.605c-9.037 39.88-24.192 73.467-48.868 97.261 10.551 0.5927 19.939-2.8838 28.704-8.54-9.6523 26.86-29.868 38.46-46.969 54.56 16.2 4.3102 30.614-1.3861 44.597-9.4888-13.236 30.72-39.183 47.712-63.101 66.896 13.532 1.2121 27.79 1.1316 45.309-4.7444-14.776 26.793-41.455 42.816-64.998 61.677 20.314 4.9136 41.472 2.4387 63.575-8.3023-21.966 35.959-54.435 52.913-85.399 72.589 25.25 7.3822 50.157 1.4008 74.962-8.54-20.626 28.182-48.217 50.666-73.301 75.199 31.883 5.1556 64.509 7.9822 109.12-26.806 0.82506 36.694-0.80293 72.336-3.084 107.7-3.7164-0.0782-7.4327-1.0425-11.149 6.642-22.754-13.38-33.292-7.2151-33.685 15.182-37.102 2.2328-75.834 2.8862-85.162 32.025-0.99537-1.5887-2.0534-3.0803-5.456-0.94878-6.5703-39.758-50.142-34.591-73.775-7.5913 4.4083-18.662-37.203-38.504-53.137-11.624-4.1845-36.558-45.071-24.007-51.477-4.5072-7.8166-4.9621-14.583-12.444-20.164-22.773 5.9351 0.9076 12.26 2.1496 15.182 0.47439-12.018-9.2586-16.243-17.454-18.503-25.382 5.4648 3.3662 7.7815 2.6847 10.2 2.1348-11.838-11.969-14.359-25.409-18.029-38.667-4.9591 14.178-8.834 29.115-18.028 40.328 1.9256 1.8164 6.6215-0.52293 11.149-2.6097-5.7293 14.75-12.673 25.616-20.638 33.211 7.6893 2.5473 13.448-4.5588 19.926-8.0657-5.3939 14.183-14.108 25.415-23.485 36.058l-64.287 8.7772c-13.641-19.509-27.117-39.763-51.657-10.011-15.108-3.2528-28.481 0.0861-34.722 30.529-39.397-17.091-78.94-33.407-124.46-18.116-20.02-16.528-47.671-27.562-78.838-36.064-3.0796-40.987-4.2906-80.729-4.6964-119.93 15.984 12.863 27.422 29.538 56.36 31.535-6.3192-9.52-13.038-19.34-12.413-23.651 22.328 8.5966 44.699 17.493 64.412 8.2191-26.966-16.809-51.303-35.919-67.599-62.064 27.396 11.272 48.171 10.203 65.754 3.1874-32.161-20.331-63.569-41.203-81.69-71.625 22.781 4.8845 46.707 12.44 63.07 2.3482-27.736-19.144-56.205-37.764-71.793-65.586 21.562 6.9247 36.912 9.2811 43.277 5.0317-25.463-16.403-44.371-37.107-55.522-62.902 17.193 9.5562 28.605 10.61 38.245 9.0578-15.706-14.742-32.222-28.436-40.593-52.671 9.2007 4.2427 18.411 8.5101 24.993 6.2063-23.047-27.237-35.232-56.529-41.767-86.889-5.3156 33.973-20.921 58.514-36.735 82.864 8.8335 2.4559 16.475-1.4485 23.987-6.0384-10.873 27.079-29.965 41.829-46.632 60.219 12.568 4.9867 25.575-0.5525 38.58-6.0389-12.193 28.02-34.651 41.782-54.348 59.38 13.804 8.2352 30.604 2.3439 47.47-3.8582-16.073 28.14-42.508 46.955-67.096 67.432 14.457 10.362 35.878 6.0999 59.212-2.1808-18.611 28.314-45.785 43.453-69.612 63.741 9.4446 8.2312 26.735 8.3721 50.49 1.8454-14.532 23.283-37.415 37.724-58.877 53.67v3.9104c20.281 4.105 41.21 3.0506 59.715-5.5811l-13.923 19.458c21.328-4.5237 42.529-9.9342 61.225-32.877-0.39446 36.621-0.41875 73.52-2.5161 108.86-4.3883-1.9587-9.3242-2.823-15.935-0.3359-3.1496-22.035-16.569-22.161-33.044-15.768-1.6108-41.098-34.319-43.407-55.522-32.251v263.86h1058.3v-242.91c-58.979-9.3118-109.17 12.815-160.69 30.212-3.0636-40.861-3.8472-78.138-3.7956-114.1 16.484 9.3592 22.939 25.404 50.29 27.518-4.2736-6.051-8.4774-12.067-9.2516-16.369 27.95 12.386 53.064 14.304 75.199 5.2193-31.253-17.23-59.382-37.846-79.943-66.659 22.893 2.1337 47.266 10.024 66.422-2.3725-34.224-18.013-55.747-39.46-73.538-61.915 25.765 11.1 47.466 13.058 64.287 4.0328-28.708-13.554-54.725-32.631-74.961-63.575 19.924 5.0098 40.612 12.396 56.696 5.456-24.707-16.042-49.431-32.065-61.915-61.203 15.376 4.4766 33.242 12.614 41.513 6.6425-22.094-14.566-38.817-32.394-48.393-54.561 11.599 5.9953 22.839 11.034 31.788 9.9632-25.668-28.877-44.173-59.736-48.867-94.414z" fill="#217a21" style="font-variation-settings:'wght' 700;paint-order:markers fill stroke"/><path d="m57.032 610.74c-0.85964-4.9622-1.4029-9.2918-2.6838-15.097-4.8174-5.4725-41.42-10.074-34.89-20.8 5.9014-9.6941 27.173 5.7112 34.348 18.402-1.6705-10.352-4.5789-20.98-7.1739-31.486-6.7175-1.4016-37.902-9.9356-32.038-19.793 5.6214-9.4508 23.321 2.7655 31.535 17.277-1.1393-4.8235-1.9335-9.8831-4.6967-13.922-25.442-37.192-25.808-44.763-19.31-46.85 12.323-3.9576 20.644 29.966 24.175 53.225 9.349-31.77 22.514-44.725 28.348-41.096 7.2467 4.5071-8.741 35.874-27.352 43.209 1.9017 6.0899 3.6056 13.07 5.1915 20.581 10.976-29.837 18.238-29.681 21.993-26.217 6.8261 6.2979-8.7813 25.967-21.303 28.516 2.9996 11.973 4.9582 23.368 6.5419 34.554z" fill="#82bc34" style="paint-order:markers fill stroke"/><path d="m1016.3 634.06c1.7982-8.424 0.9021-14.154 0.3355-20.213-10.116-2.4689-23.098-9.466-20.213-14.593 0.74008-1.3153 14.506 0.12406 20.38 12.245-0.5939-10.134-0.3-18.492 0.671-25.497-9.3036-6.4021-26.961-14.177-20.884-19.206 5.2195-4.3193 12.975 2.1173 20.129 13.839l2.1807-20.464c-6.0989-7.9322-20.593-17.638-15.768-23.4 2.2082-2.6368 5.0148-6.0608 16.103 17.78-0.4799-20.313-3.2275-44.649 6.458-46.296 7.9199-1.347 4.6917 17.257-3.9419 46.212 6.1812-7.5406 10.784-25.173 19.626-18.955 6.5929 4.6368-5.4057 14.818-19.29 24.155l-2.0129 19.877c6.9516-3.747 12.72-17.659 21.471-8.3032 2.7915 2.9846 3.7438 7.2656-21.89 15.264-0.5194 7.0526-1.5604 12.54-0.8387 23.316 6.2388-6.6032 12.054-14.407 20.716-11.993 4.7559 1.3255 0.6606 8.2396-20.38 15.851-0.2973 6.3312-0.2809 13.342 0.7548 22.561z" fill="#009b00" style="paint-order:markers fill stroke"/><path d="m559.84 520.94c-83.407 1.2914-174.85 12.002-249.53 37.254-22.563 7.6295-47.051 8.6645-70.241 14.935-108.02 16.437-188.6 33.82-240.07 52.208v80.311h1058.3v-54.122c-64.516-32.806-138.88-50.002-213.83-65.112-36.948-7.4491-67.235-23.79-117.66-26.569-50.864-2.8029-105.53-39.856-167-38.904z" fill="#009833" style="font-variation-settings:'wght' 700;paint-order:markers fill stroke"/><path d="m97.918 599.96c-19.465-17.963-25.468-28.271-20.59-30.529 10.669-4.9385 15.87 10.501 20.8 24.238 0.13668-4.8256 0.47673-9.4479-0.12581-15.013-11.696-28.314-11.806-41.527-4.7806-43.906 8.2969-2.8094 7.8581 18.424 6.3322 39.042 6.1577-14.67 12.657-29.978 20.926-23.777 9.7618 7.32-12.025 19.834-20.045 30.026-0.42752 3.1915-0.31047 7.55 0.0419 12.413 6.494-12.539 13.885-23.397 20.213-18.074 8.5888 7.2246-15.025 17.762-21.135 25.706z" fill="#58a500" style="paint-order:markers fill stroke"/><path d="m925.76 637.24c-35.362-13.865-32.908-20.154-28.18-24.658 10.083-9.6058 19.717 6.3478 28.684 19.122 0.71374-10.179 1.9769-19.443 3.3548-28.516-20.142-5.5463-42.675-33.496-36.735-38.245 14.414-11.525 37.038 29.161 37.071 33.884 2.4175-12.632 4.491-16.663 6.7096-24.322-20.17-10.982-40.255-38.427-33.884-42.606 12.822-8.4101 33.453 31.785 34.387 38.245 2.6017-8.252 5.4509-15.844 8.7225-22.309-33.025-36.782-28.881-40.802-24.322-43.612 9.2217-5.685 24.274 17.595 25.664 38.077-1.7466-20.686 28.629-63.073 39.251-56.193 17.683 13.258-24.682 40.894-37.238 61.393 20.213-19.01 36.82-29.092 42.271-20.297 7.0222 11.332-19.556 18.636-43.612 25.329-4.2175 7.5277-6.2679 16.913-9.058 25.664 16.832-16.38 40.97-26.88 45.961-20.8 13.198 16.079-44.513 26.119-47.135 25.664-2.1851 6.8851-4.3748 13.762-5.0322 23.484 31.041-22.206 37.545-19.761 41.096-14.593 7.6755 11.168-22.175 16.302-41.767 18.619-2.3048 7.6696-2.9872 17.773-4.0258 27.342 28.736-21.699 28.621-13.588 28.851-8.7225 0.70565 14.917-16.185 12.967-28.809 11.574-0.47004 0.96636-0.33648 2.4994-0.33007 4.4721 4e-3 1.1878-1.8642 1.0081-2.0757 0-0.55971-2.6685-0.22423-5.5538 0.18319-7.9947z" fill="#589d39" style="paint-order:markers fill stroke"/><path d="m559.84 520.94c-83.407 1.2914-174.85 12.002-249.53 37.254-22.563 7.6295-47.051 8.6645-70.241 14.935-108.02 16.437-188.6 33.82-240.07 52.208v80.311h1058.3v-54.122c-64.516-32.806-138.88-50.002-213.83-65.112-36.948-7.4491-67.235-23.79-117.66-26.569-50.864-2.8029-105.53-39.856-167-38.904z" fill="url(#a)" style="font-variation-settings:'wght' 700;paint-order:markers fill stroke"/><path d="m458.45 543.67c0.21169 4.9314-3.079 22.623 0.52565 27.86 5.9405 8.6307 15.595 5.6621 15.638-1.1827 0.0446-7.0726-1.15-10.961-2.2341-15.441-1.2695-5.2464-1.4696-8.9331-1.7741-12.747-0.10129-1.2688-12.249-0.66156-12.156 1.5113z" fill="#f95" style="paint-order:markers fill stroke"/><path d="m468.65 541.55c-3.455-0.26264-10.271 0.48635-10.201 2.116 0.0723 1.6853-0.26439 4.861-0.59513 8.5204 4.0393-0.64389 8.0506-1.2186 10.52 2.0111 2.0102 6.726 1.2999 10.596 0.92914 14.822-1.7734 4.8198-4.6093 5.4712-7.601 5.5119 5.7697 4.701 12.874 1.682 12.911-4.1876 0.0446-7.0726-1.15-10.961-2.234-15.441-1.2695-5.2464-1.4696-8.9332-1.7741-12.747-0.0253-0.31719-0.8036-0.51711-1.9552-0.60465z" fill="#c87137" style="paint-order:markers fill stroke"/><path d="m450.99 544.21c-6.5384-1.8447-6.8409-7.1482-4.1351-12.777 3.6902-7.6769 9.8748-11.64 17.423-11.197 13.145 0.77099 17.815 11.445 17.563 17.749-0.15362 3.8392-4.1542 5.2021-8.5955 5.9936-9.3244 1.6618-16.698 1.8003-22.255 0.23233z" fill="#a05a2c" style="paint-order:markers fill stroke"/><path d="m478.63 527.77c0.37186 3.9865-0.51933 6.6166-2.5496 7.9362-5.9374 3.859-14.832 5.0773-23.231 6.0403-2.8615 0.32806-5.2406-0.19238-6.955-1.2862 0.81463 1.68 2.4414 2.9997 5.0965 3.7488 5.5575 1.568 12.931 1.4294 22.256-0.23238 4.4413-0.79152 8.4419-2.1545 8.5955-5.9937 0.11751-2.937-0.83322-6.8223-3.2117-10.213z" fill="#784421" style="paint-order:markers fill stroke"/><ellipse transform="matrix(.99779 -.066383 -.4001 .91647 0 0)" cx="758.57" cy="616.21" rx="21.315" ry="3.4511" fill="#502d16" style="paint-order:markers fill stroke"/><path d="m505.32 567.44c-6.8708-4.9436-9.5888-17.226-4.4834-44.499 1.0346-5.5266 0.37796-7.8237 1.1215-10.755 4.2951-0.63447 12.186-1.2336 16.159-1.2665 0.29543 6.8936 1.8562 12.734 3.7183 20.441 5.0729 20.993 4.8252 29.834 0.81413 34.555-4.5972 5.4102-11.778 5.5195-17.33 1.5248z" fill="#f95" style="paint-order:markers fill stroke"/><path d="m508.77 482.93c-5.7393 0.23929-11.055 2.381-15.741 5.6837-10.987 7.7434-13.26 15.58-11.668 22.538 0.84925 3.7113 4.5742 6.4092 11.661 7.5252 2.8074 0.44209 5.5732 0.73835 8.2964 0.89017 0.0612-0.62301 0.10127-1.1957 0.1302-1.73a3.0555 21.376 85.571 0 1-12.369-2.0446 3.0555 21.376 85.571 0 1 12.871-3.5947c3.8e-4 -4e-3 2e-3 -9e-3 4e-3 -0.0136 0.0699-0.01 0.19103-0.0104 0.26266-0.0212a3.0555 21.376 85.571 0 1 9.5118-0.94921 3.0555 21.376 85.571 0 1 6.055-0.27075c0.0842-1e-3 0.24851-0.0247 0.32952-0.0254 2.8e-4 6e-3 5.3e-4 0.0111 9.8e-4 0.0166a3.0555 21.376 85.571 0 1 1.6486-0.0208 3.0555 21.376 85.571 0 1 11.854 2.0484 3.0555 21.376 85.571 0 1-12.972 3.6084c0.0889 0.62271 0.18689 1.2433 0.29314 1.8644 5.0291-0.96867 9.88-2.4962 14.544-4.5711 3.2208-1.4328 4.2876-5.3986 3.4073-10.217-1.8996-10.398-9.059-15.82-17.376-18.933-3.7041-1.3863-7.3001-1.9277-10.744-1.7842z" fill="#a05a2c" style="paint-order:markers fill stroke"/><path d="m518.12 510.92c-3.9731 0.0328-11.864 0.63197-16.159 1.2664-0.73942 2.9152-0.0942 5.2032-1.1043 10.663 2.0671-1.3109 4.4766-2.3273 7.7149-2.2688 9.2919 0.16788 7.6085 7.8282 8.7086 13.09 2.9083 13.911 1.8157 24.68-3.9264 28.671-5.4509 3.7888-8.4998 3.244-10.832 2.3496 0.83186 1.0988 1.7698 2.0064 2.8012 2.7486 5.552 3.9947 12.732 3.8854 17.329-1.5248 4.0111-4.7205 4.2589-13.561-0.81399-34.555-1.8622-7.7063-3.423-13.547-3.7184-20.441z" fill="#c87137" style="paint-order:markers fill stroke"/><path d="m527.53 488.86c1.994 3.4011 2.8006 7.639 1.3391 10.377-3.1122 5.8306-11.022 6.1232-19.042 6.6383-8.1002 0.52025-16.326 0.52063-23.931 4.4635-1.1543 0.59843-3.4167 1.529-2.7592 4.1093 1.8725 2.0098 5.1187 3.4767 9.8868 4.2276 2.8074 0.44209 5.5732 0.73835 8.2964 0.89017 0.0612-0.62301 0.10127-1.1957 0.1302-1.73a3.0555 21.376 85.571 0 1-12.369-2.0446 3.0555 21.376 85.571 0 1 12.871-3.5947c3.8e-4 -4e-3 2e-3 -9e-3 4e-3 -0.0136 0.0699-0.01 0.19103-0.0104 0.26266-0.0212a3.0555 21.376 85.571 0 1 9.5118-0.94921 3.0555 21.376 85.571 0 1 6.055-0.27075c0.0843-1e-3 0.24851-0.0247 0.32953-0.0254 2.7e-4 6e-3 5.5e-4 0.0111 1e-3 0.0166a3.0555 21.376 85.571 0 1 1.6486-0.0208 3.0555 21.376 85.571 0 1 11.854 2.0484 3.0555 21.376 85.571 0 1-12.972 3.6084c0.0889 0.6227 0.18688 1.2433 0.29313 1.8644 5.0291-0.96868 9.88-2.4962 14.544-4.5711 3.2208-1.4328 4.2876-5.3986 3.4073-10.217-1.2453-6.8166-4.751-11.494-9.3614-14.785z" fill="#784421" style="paint-order:markers fill stroke"/><path d="m108.09 626.74c0.4401-10.012 13.361-19.438 17.964-23.456 8.4858-7.4075 20.035-8.5562 29.718-1.3795 9.1786 6.8029 19.841 15.537 19.61 23.77-0.16887 6.014-12.28 8.3391-22.539 9.3877-9.9072 1.0128-21.517 0.80309-30.82-0.35353-5.8961-0.73302-13.58-3.9286-13.933-7.9684z" fill="#ff2a2a" style="paint-order:markers fill stroke"/><ellipse transform="matrix(.99995 -.0095239 .070953 .99748 0 0)" cx="96.944" cy="630.19" rx="30.568" ry="6.6454" fill="#faa" style="paint-order:markers fill stroke"/><path d="m133.14 621.36a6.6323 30.571 89.629 0 0-3.3692 0.27985c2.3723 1.1949 4.7095 2.3023 6.8291 2.8659-2.3274-0.093-5.3695-1.4477-8.3569-2.7058a6.6323 30.571 89.629 0 0-3.2938 0.42562c3.6849 1.3711 7.8533 2.3621 12.3 3.1342-5.4343-0.42356-9.8499-1.5427-13.958-2.8719a6.6323 30.571 89.629 0 0-4.0873 0.82582c4.7204 1.4334 9.6922 2.2303 15.007 2.1584-5.763 0.6793-11.218-0.39183-16.626-1.7359a6.6323 30.571 89.629 0 0-5.9264 2.8417c7.0424 1.0676 14.785 1.0348 22.732-0.53005-8.1084 2.5206-15.868 2.3385-23.228 1.3292a6.6323 30.571 89.629 0 0-0.0796 0.59194 6.6323 30.571 89.629 0 0 4.8467 3.4526c6.5744-0.81984 12.703-2.9122 18.921-4.7487-4.9635 2.1329-9.7666 4.3662-16.363 5.4765a6.6323 30.571 89.629 0 0 9.2238 1.5174c3.1184-1.5865 5.6891-3.6707 8.0447-5.9504l0.19919 0.36669c-1.9157 1.9957-3.7861 4.0034-6.6953 5.7347a6.6323 30.571 89.629 0 0 12.862 0.48887 6.6323 30.571 89.629 0 0 11.511-0.60106c-2.8915-1.9747-5.2657-4.0122-7.0498-6.1216l0.55341-0.47995c1.8994 2.4085 4.82 4.436 7.7099 6.475a6.6323 30.571 89.629 0 0 11.79-2.2341c-7.6357-1.1424-13.093-3.2072-18.854-5.1436 6.4376 1.6733 12.74 3.398 20.218 4.6763a6.6323 30.571 89.629 0 0 4.2164-3.4909 6.6323 30.571 89.629 0 0-2.1229-2.315c-7.2736 2.5634-13.901 1.0665-20.704 0.67241 6.3946-0.42526 13.255 1.1112 19.158-1.3844a6.6323 30.571 89.629 0 0-8.8513-2.1469c-5.0663 2.6179-8.3059 2.4256-12.056 3.0194 3.8677-0.89797 8.1408-1.5655 10.684-3.2163a6.6323 30.571 89.629 0 0-3.4446-0.39896c-2.0407 1.6567-4.9258 2.2231-7.5163 3.1698 2.2138-1.0703 4.7245-2.0741 6.3401-3.2785a6.6323 30.571 89.629 0 0-3.2621-0.23701c-1.0448 1.2298-2.7347 2.1688-4.1051 3.1696l-0.4773-0.25091c1.3142-0.86078 2.7985-1.8712 3.7315-2.9659a6.6323 30.571 89.629 0 0-7.6061-0.18035c0.0423 0.98753 0.0498 1.9914-0.23197 2.8879l-0.41331 0.0293c0.22159-0.95148 0.22485-1.9306 0.18952-2.9148a6.6323 30.571 89.629 0 0-0.35015 3e-3 6.6323 30.571 89.629 0 0-6.847 0.23439c0.98949 0.92675 2.1487 1.8941 3.5632 2.9226l-0.98183 0.31225c-1.5214-1.1774-2.6586-2.1734-3.7724-3.1582z" fill="#ff8080" style="paint-order:markers fill stroke"/><path d="m134.09 672.39c-2.28-9.5384 0.63071-16.799 1.6213-24.903-1.6847-0.31375-4.4246-0.53238-3.5693-1.9964 2.9578-5.0631 3.8-12.791 3.3423-20.663 2.5153-2.0512 10.516-1.7952 11.619 0.0563 0.47159 7.1401-0.0434 14.553 4.3917 20.615 1.1459 1.5662-1.6719 1.8214-3.4893 2.0484 0.80419 8.0777 3.1728 16.803 1.7742 23.969-2.8839 9.9744-14.487 6.1462-15.69 0.8737z" fill="#ccc" style="paint-order:markers fill stroke"/><path d="m139.98 623.45c-1.833 0.1578-3.5477 0.6026-4.4909 1.3718 0.13298 2.2869 0.15625 4.5616 0.0497 6.7624 0.68487-0.62537 1.87-1.1604 5.0119-1.3064 4.4799-0.2081 4.3444 2.8967 4.695 5.6551 0.62593 4.9242 1.8691 7.7306 2.7774 9.3574 0.90607 1.6229-2.4596 1.6602-2.9303 0.17378-0.4679-1.4777-0.50134-3.4834-1.0935-4.1803-0.26555 0.61869-0.0512 3.1159-0.0801 4.7139-0.0268 1.4828-6.0149 1.4147-6.1066 0.29583-0.15869-1.9362-0.2319-3.9071-0.13115-5.7374-0.40622 0.98462-0.70095 2.0893-0.94333 3.2867-0.5846 2.8881-3.2422 2.4683-4.5231 2.6529 0.61232 0.59166 2.3172 0.7651 3.501 0.98557-0.0616 0.50418-0.13065 1.0052-0.20543 1.5036 1.5705-0.27166 3.2405-0.41373 5.3396 0.10449 3.8243 0.94412 4.0641 3.4012 4.4123 5.0867 0.89579 4.3358 1.0786 8.2227 1.0396 12.181-0.0468 4.7416-1.0768 6.2375-2.2239 7.6705-1.8825 2.3515-4.0407 2.4298-6.1259 2.6379 4.0109 2.0176 9.8928 1.5517 11.832-5.1555 1.3986-7.1654-0.96999-15.891-1.7742-23.969 1.8174-0.22702 4.6353-0.48224 3.4894-2.0484-4.4351-6.0616-3.9201-13.475-4.3917-20.615-0.689-1.1572-4.0728-1.6912-7.1279-1.4281z" fill="#b3b3b3" style="paint-order:markers fill stroke"/><path d="m144.34 598.12a0.97671 1.1682 85.931 0 0-1.096 1.0571 0.97671 1.1682 85.931 0 0 1.2346 0.89136 0.97671 1.1682 85.931 0 0 1.0961-1.0571 0.97671 1.1682 85.931 0 0-1.2347-0.89136zm-5.8212 0.75686a0.97671 1.1682 85.931 0 0-1.096 1.0571 0.97671 1.1682 85.931 0 0 1.2346 0.89136 0.97671 1.1682 85.931 0 0 1.096-1.0571 0.97671 1.1682 85.931 0 0-1.2346-0.89137zm-7.3047 3.3592a0.78974 1.1703 59.381 0 0-1.3248 0.97539 0.78974 1.1703 59.381 0 0 0.77272 0.8263 0.78974 1.1703 59.381 0 0 1.3248-0.9755 0.78974 1.1703 59.381 0 0-0.7727-0.82619zm21.934-0.97278a1.3251 0.9951 18.44 0 0-0.92087 1.1182 1.3251 0.9951 18.44 0 0 1.5844 0.93984 1.3251 0.9951 18.44 0 0 0.92088-1.118 1.3251 0.9951 18.44 0 0-1.5844-0.93997zm-8.531 3.1038a1.2453 1.4895 85.931 0 0-1.3974 1.3478 1.2453 1.4895 85.931 0 0 1.5741 1.1365 1.2453 1.4895 85.931 0 0 1.3974-1.3479 1.2453 1.4895 85.931 0 0-1.5741-1.1364zm-9.3912 0.81488a1.2453 1.4895 85.931 0 0-1.3974 1.3479 1.2453 1.4895 85.931 0 0 1.5741 1.1364 1.2453 1.4895 85.931 0 0 1.3974-1.3478 1.2453 1.4895 85.931 0 0-1.5741-1.1365zm-9.608 1.7605a1.053 1.5604 59.381 0 0-1.7664 1.3007 1.053 1.5604 59.381 0 0 1.0303 1.1017 1.053 1.5604 59.381 0 0 1.7663-1.3006 1.053 1.5604 59.381 0 0-1.0302-1.1017zm27.075-0.94675a1.7565 1.3191 18.44 0 0-1.2208 1.4822 1.7565 1.3191 18.44 0 0 2.1002 1.246 1.7565 1.3191 18.44 0 0 1.2208-1.4822 1.7565 1.3191 18.44 0 0-2.1002-1.246zm7.2123 1.2006a1.4765 1.1088 18.44 0 0-1.0262 1.2459 1.4765 1.1088 18.44 0 0 1.7655 1.0474 1.4765 1.1088 18.44 0 0 1.0262-1.246 1.4765 1.1088 18.44 0 0-1.7655-1.0473zm-31.31 2.9615a0.78974 1.1703 59.381 0 0-1.3249 0.97551 0.78974 1.1703 59.381 0 0 0.77271 0.82631 0.78974 1.1703 59.381 0 0 1.3249-0.97552 0.78974 1.1703 59.381 0 0-0.77271-0.8263zm6.1392 1.2773a1.1089 1.3604 72.897 0 0-1.3813 1.2241 1.1089 1.3604 72.897 0 0 1.2983 1.0335 1.1089 1.3604 72.897 0 0 1.3813-1.2241 1.1089 1.3604 72.897 0 0-1.2983-1.0335zm9.0211-0.59317a1.2453 1.4895 85.931 0 0-1.3974 1.3479 1.2453 1.4895 85.931 0 0 1.5741 1.1365 1.2453 1.4895 85.931 0 0 1.3974-1.3479 1.2453 1.4895 85.931 0 0-1.5741-1.1365zm-23.395 1.7621a1.2504 1.853 59.381 0 0-2.0976 1.5446 1.2504 1.853 59.381 0 0 1.2234 1.3083 1.2504 1.853 59.381 0 0 2.0976-1.5446 1.2504 1.853 59.381 0 0-1.2234-1.3083zm33.245-1.0429a1.6576 1.3542 8.4472 0 0-1.3964 1.4727 1.6576 1.3542 8.4472 0 0 1.8724 1.2402 1.6576 1.3542 8.4472 0 0 1.3964-1.4727 1.6576 1.3542 8.4472 0 0-1.8724-1.2402zm11.569 1.576a1.7289 1.2983 18.44 0 0-1.2016 1.4588 1.7289 1.2983 18.44 0 0 2.0672 1.2264 1.7289 1.2983 18.44 0 0 1.2016-1.459 1.7289 1.2983 18.44 0 0-2.0672-1.2263zm-50.993 4.3127a0.7722 1.1969 58.588 0 0-1.3736 0.97899 0.7722 1.1969 58.588 0 0 0.72401 0.82977 0.7722 1.1969 58.588 0 0 1.3735-0.97898 0.7722 1.1969 58.588 0 0-0.7239-0.82978z" fill="#e6e6e6" style="paint-order:markers fill stroke"/><path d="m941.62 635.26c-2.9097-1.7451-2.8162-3.7424-1.8062-5.8056 2.0559-4.1994 4.2066-8.5782 8.5471-11.256 1.6492-1.0176 6.1777-0.69736 7.5795 0.80633 5.6866 6.0998 8.2555 15.839 6.4184 17.159-3.9368 2.8272-17.462 1.0622-20.739-0.90309z" fill="#483726" style="paint-order:markers fill stroke"/><path d="m950.27 633.01c-0.71899 0.0134-1.3017 0.11486-1.3187 0.29594-0.81528 8.7115-2.4616 17.106-3.5122 25.68-0.4415 3.6028-1.1246 7.6441-0.51628 10.229-5.6701-5.0666-8.4443-11.787-8.5106-19.692l-2.1852-0.0701c-7e-3 11.308 2.7601 18.661 8.3841 22.989 1.0872 0.83668 3.5959 0.40284 4.2473-0.54383 0.77182 0.5398 1.5072 0.86159 2.1587 0.76205 0.67807 0.70545 2.1282 1.2524 4.085 0.76248 8.5612-2.1437 13.204-11.508 14.87-24.517l-1.8702-0.61578c-1.866 9.747-6.2981 18.284-15.262 22.11 0.44024-1.4493 0.71361-3.6885 0.7567-6.9888 0.13404-10.265 0.76211-20.026 1.4141-29.694 0.0342-0.50624-1.5426-0.72866-2.7409-0.7064z" fill="#540a25" style="paint-order:markers fill stroke"/><path d="m956.7 619.86c1.3342 2.3874 2.0336 5.2064 2.3249 8.3169 0.19733 2.1072 0.22141 3.8566-2.2122 3.4665-4.7545-0.76203-9.5216-0.70029-14.178 0.0815-2.3387 0.39266-2.9979 0.80078-3.251 1.2043 0.31556 0.81129 1.0085 1.5917 2.235 2.3273 3.2769 1.9652 16.802 3.7304 20.739 0.90313 1.753-1.2589-0.50588-10.185-5.6574-16.3z" fill="#351c1b" style="paint-order:markers fill stroke"/><ellipse transform="matrix(.99611 .088111 0 1 0 0)" cx="954.91" cy="550.65" rx="9.7706" ry="2.0873" fill="#3e1e31" style="paint-order:markers fill stroke"/><path d="m950.27 633.01c-0.71899 0.0134-1.3017 0.11486-1.3187 0.29594-0.15013 1.6041-0.32841 3.1974-0.52597 4.7831 1.6584 0.32025 2.2041 1.1562 2.2592 2.1501 0.51859 9.3625 0.17097 16.238-1.7789 26.045-0.5285 2.6581-2.4543 2.2267-4.1069 2.2693 0.0332 0.22958 0.0744 0.45041 0.12409 0.66158-0.22958-0.20515-0.45441-0.41297-0.67451-0.6235-0.0444 6e-3 -0.0885 0.012-0.13209 0.0188l-4e-3 -0.1491c-5.1248-4.9718-7.6378-11.42-7.7009-18.938l-2.1852-0.0701c-9.5e-4 1.4873 0.0461 2.9062 0.14136 4.2588 1.0222-0.15802 2.1555 0.0253 2.3062 1.5072 0.48085 4.7265 2.3868 9.4048 5.4508 13.724 0.88961 1.254-0.71781 1.1283-2.0207 1.1562 0.76087 0.86284 1.5962 1.6424 2.5063 2.3429 1.0872 0.83668 3.5959 0.40284 4.2473-0.54383 0.77183 0.53981 1.5072 0.86159 2.1587 0.76205 0.67807 0.70545 2.1282 1.2524 4.085 0.76248 8.5612-2.1437 13.204-11.508 14.87-24.517l-1.8702-0.61578c-0.22845 1.1934-0.49535 2.3686-0.80434 3.5192 0.75144 0.4307 1.2247 1.0187 0.98675 1.9771-1.3966 5.6257-3.3503 11.048-7.0143 14.186-2.239 1.9176-3.4447 0.97893-4.7395 0.42957-1.135 0.76171-2.363 1.4315-3.6902 1.998 0.44025-1.4493 0.71361-3.6885 0.7567-6.9888 0.13404-10.265 0.76211-20.026 1.4141-29.694 0.0342-0.50623-1.5426-0.72866-2.7409-0.7064z" fill="#310025" style="paint-order:markers fill stroke"/><path d="m959.71 646.85c0.11377-1.6176 6.7544-8.4848 9.2822-7.9823 5.4416 1.0819 6.1452 10.02 5.6788 12.315-0.3407 1.6766-4.5509 0.23133-7.4805-0.6842-2.2971-0.71786-7.6039-1.8946-7.4805-3.649z" fill="#483726" style="paint-order:markers fill stroke"/><path d="m972.07 640.73c0.33473 2.1582 0.59468 4.3186 0.0448 6.4006-0.30197 1.1434-1.2903 2.2192-2.4403 1.9385-1.3247-0.32333-2.4802-0.67041-4.4929-1.2088-1.9854-0.53103-3.723-0.60514-5.3949-0.57403 0.66726 1.5192 5.2975 2.562 7.4018 3.2196 2.9296 0.91554 7.1398 2.3608 7.4805 0.6842 0.35766-1.76 0.0274-7.4253-2.5991-10.46z" fill="#351c1b" style="paint-order:markers fill stroke"/><path d="m930.74 649.45c-1.51-0.36873-1.9667-1.8983-1.3224-3.3382 2.0679-4.6211 3.958-6.2906 5.854-6.3378 2.9636-0.0736 5.3142 5.1449 5.483 7.1118 0.39378 4.5878-6.8187 3.3446-10.015 2.5641z" fill="#483726" style="paint-order:markers fill stroke"/><path d="m936.62 640.1c0.75088 1.3055 1.4093 2.811 1.6508 5.4798 0.12528 1.3843-5e-3 2.7649-1.8383 3.0319-3.5199 0.51271-5.9749 0.25799-7.2067-0.56574 0.1961 0.67368 0.70317 1.2063 1.5138 1.4042 3.196 0.78044 10.408 2.0237 10.015-2.5641-0.14224-1.6572-1.8331-5.6222-4.1344-6.7861z" fill="#351c1b" style="paint-order:markers fill stroke"/><path d="m632.22 533.6c0.21169 4.9314-3.079 22.623 0.52565 27.86 5.9405 8.6307 15.595 5.6621 15.638-1.1827 0.0446-7.0726-1.15-10.961-2.2341-15.441-1.2695-5.2464-1.4696-8.9331-1.7741-12.747-0.10129-1.2688-12.249-0.66156-12.156 1.5113z" fill="#f95" style="paint-order:markers fill stroke"/><path d="m642.42 531.49c-3.455-0.26264-10.271 0.48635-10.201 2.116 0.0723 1.6853-0.26439 4.861-0.59513 8.5204 4.0393-0.64389 8.0506-1.2186 10.52 2.0111 2.0102 6.726 1.2999 10.596 0.92914 14.822-1.7734 4.8198-4.6093 5.4712-7.601 5.5119 5.7697 4.701 12.874 1.682 12.911-4.1876 0.0446-7.0726-1.15-10.961-2.234-15.441-1.2695-5.2464-1.4696-8.9332-1.7741-12.747-0.0253-0.31719-0.8036-0.51711-1.9552-0.60465z" fill="#c87137" style="paint-order:markers fill stroke"/><path d="m624.77 534.14c-6.5384-1.8447-6.8409-7.1482-4.1351-12.777 3.6902-7.6769 9.8748-11.64 17.423-11.197 13.145 0.77099 17.815 11.445 17.563 17.749-0.15362 3.8392-4.1542 5.2021-8.5955 5.9936-9.3244 1.6618-16.698 1.8003-22.255 0.23233z" fill="#a05a2c" style="paint-order:markers fill stroke"/><path d="m652.41 517.71c0.37186 3.9865-0.51933 6.6166-2.5496 7.9362-5.9374 3.859-14.832 5.0773-23.231 6.0403-2.8615 0.32806-5.2406-0.19238-6.955-1.2862 0.81463 1.68 2.4414 2.9997 5.0965 3.7488 5.5575 1.568 12.931 1.4294 22.256-0.23238 4.4413-0.79152 8.4419-2.1545 8.5955-5.9937 0.11751-2.937-0.83322-6.8223-3.2117-10.213z" fill="#784421" style="paint-order:markers fill stroke"/><path d="m388.47 533.5c0.12243 2.8522-1.7808 13.084 0.30401 16.113 3.4358 4.9916 9.0197 3.2748 9.0447-0.68406 0.0258-4.0905-0.66514-6.3396-1.2921-8.9307-0.73423-3.0344-0.84996-5.1666-1.0261-7.3726-0.0586-0.73382-7.0845-0.38262-7.0305 0.87406z" fill="#f95" style="paint-order:markers fill stroke"/><path d="m394.37 532.28c-1.9982-0.1519-5.9402 0.28129-5.8997 1.2238 0.0418 0.97471-0.15292 2.8114-0.3442 4.9279 2.3362-0.3724 4.6562-0.70477 6.0841 1.1632 1.1626 3.8901 0.75181 6.1281 0.53738 8.5722-1.0257 2.7876-2.6659 3.1644-4.3961 3.1879 3.337 2.7189 7.4461 0.9728 7.4675-2.422 0.0258-4.0905-0.6651-6.3397-1.2921-8.9307-0.73424-3.0344-0.84995-5.1666-1.0261-7.3726-0.0146-0.18345-0.46477-0.29908-1.1308-0.34971z" fill="#c87137" style="paint-order:markers fill stroke"/><path d="m384.16 533.81c-3.7816-1.0669-3.9565-4.1342-2.3916-7.3898 2.1343-4.4401 5.7112-6.7322 10.077-6.4762 7.6027 0.44591 10.304 6.6191 10.158 10.265-0.0889 2.2204-2.4027 3.0087-4.9713 3.4665-5.3929 0.96112-9.6574 1.0412-12.872 0.13437z" fill="#a05a2c" style="paint-order:markers fill stroke"/><path d="m400.15 524.31c0.21507 2.3056-0.30036 3.8268-1.4746 4.59-3.434 2.2319-8.5784 2.9365-13.436 3.4935-1.655 0.18974-3.031-0.11127-4.0225-0.74391 0.47116 0.97166 1.412 1.7349 2.9476 2.1681 3.2142 0.90685 7.4789 0.82672 12.872-0.1344 2.5687-0.45778 4.8825-1.2461 4.9713-3.4665 0.068-1.6986-0.4819-3.9458-1.8575-5.9068z" fill="#784421" style="paint-order:markers fill stroke"/><path d="m412.33 563.83c-0.16752 0-0.22774 0.0159-0.33939 0.0898-0.0746 0.0494-0.16544 0.14802-0.20171 0.21912-0.14036 0.27512-0.0454 0.67846 0.19757 0.83924 0.14446 0.0956 0.15494 0.13042 0.27389 0.90887 0.1945 1.2728 0.30005 2.5877 0.2621 3.2651-0.0486 0.86721-0.17579 1.337-0.6013 2.2203-0.34846 0.72336-0.71585 1.357-1.1191 1.9186-0.21567 0.22872-0.57501 0.34264-1.1584 0.39501 0.0197-0.0504-0.0137-0.0958-0.18347-0.2688-0.45535-0.46392-0.60254-0.80947-0.91978-2.1591-0.2742-1.1666-0.42807-1.6474-0.74249-2.32-0.97558-2.0868-2.867-3.6876-5.0703-4.2911-1.4691-0.40245-3.1125-0.36162-4.5548 0.11314-3.3904 1.116-5.6237 4.1998-5.4742 7.5591 0.0707 1.5877 0.63715 2.9465 1.6844 4.0406 0.93285 0.97459 1.916 1.5358 3.1235 1.7761-0.10721 0.27714-0.47266 0.29103-0.72948 0.32122-0.23708 0.0296-1.0622 0.23772-1.5591 0.39329-0.77573 0.24281-2.5206 0.92104-3.0166 1.1726-0.43394 0.22005-0.32508 0.43081 0.24673 0.47758 0.36525 0.0298 2.5989 0.0957 4.3208 0.1274 1.9349 0.0351 11.321 0.0355 11.996 0 0.68225-0.0359 1.1117-0.094 1.603-0.21692 1.2602-0.31539 2.2983-1.0384 2.9932-2.0846 0.45703-0.68802 0.75322-1.4966 1.0384-2.835 0.20592-0.96615 0.36727-1.3815 0.70946-1.8262 0.24426-0.31743 0.68818-0.62096 0.97653-0.66775 0.25242-0.041 0.56551 0.18643 0.74544 0.54148 0.0925 0.18257 0.15971 0.2327 0.31221 0.2327 0.14342 0 0.22681-0.0532 0.27887-0.1778 0.0815-0.19491 0.0238-0.30403-0.45029-0.85115-0.12121-0.13991-0.22039-0.28052-0.22039-0.31242 0-0.14834 0.19713-0.20013 0.47344-0.12441 0.17363 0.0475 0.55966 0.24199 0.67776 0.34136 0.21046 0.17709 0.514 0.0339 0.514-0.24258 0-0.22698-0.0652-0.26822-0.87737-0.55411l-0.73044-0.25713-0.13736-0.26375c-0.18247-0.35045-0.38152-0.6036-0.63273-0.80468l-0.20663-0.16535 0.0179-0.39182c0.039-0.85104 0.47058-2.4641 1.0307-3.8522 0.22928-0.56823 0.25869-0.61729 0.41815-0.69868 0.0671-0.0342 0.14713-0.09 0.17786-0.12403 0.0817-0.0904 0.1563-0.2863 0.1563-0.41063 0-0.15301-0.127-0.38605-0.25782-0.47299-0.14449-0.096-0.43037-0.10179-0.57816-0.0116-0.20011 0.12202-0.3071 0.41251-0.24156 0.65589 0.0346 0.12864 0.0215 0.16324-0.67202 1.7718-0.75504 1.7513-0.99453 2.259-1.2342 2.6163-0.06 0.0895-0.11223 0.17221-0.13642 0.21542-0.0847 0.0976-0.17083 0.19433-0.25839 0.29017-0.49872-0.43637-0.86362-1.5506-1.3214-3.9438-0.16857-0.88119-0.19016-1.0608-0.13188-1.0968 0.0182-0.0113 0.0623-0.0776 0.098-0.1475 0.1421-0.27857 0.0433-0.64571-0.22372-0.83126-0.12054-0.0838-0.17182-0.0984-0.34519-0.0984z" fill="#483e37" stroke-width=".1234"/><path d="m604.9 547.74c-1.8612 4.284-3.5782 8.5138 0.17932 10.683 4.0749-5.5142 0.64508-7.483-0.17932-10.683zm-12.921 3.6246c2.5534 3.0334 2.7707 6.8365 7.537 8.3933 0.40534-3.8614-1.4827-6.594-7.537-8.3933zm23.508 0.95343c-3.5687 0.25298-5.4606 2.6762-6.2808 6.4859 3.9179-1.5743 6.3058-3.6414 6.2808-6.4859zm-27.636 2.6706c3.088 4.0674 4.7169 5.1527 6.2808 6.1045-0.80436-2.7407-1.6217-5.4746-6.2808-6.1045zm38.099 16.544c-0.2528 3.246-3.3182 5.6114 1.7172 10.513 3.3557-2.6032 0.8961-6.5405-1.7172-10.513zm13.506 1.9312c-5.7077 2.5299-7.102 5.4513-6.0131 9.1922 4.4686-2.1293 4.0097-5.8915 6.0131-9.1922zm4.7527 3.0391c-4.5264 1.2056-4.8549 3.9933-5.1692 6.7862 1.3879-1.1318 2.817-2.4027 5.1692-6.7862zm-276.71 0.75913c-0.8244 3.1995-4.2542 5.1684-0.17931 10.683 3.7575-2.1687 2.0405-6.3985 0.17931-10.683zm249.38 0.0899c-0.21494-6e-3 -0.43506-2e-3 -0.65991 0.0109 0.4796 2.7966 3.2244 4.5251 7.4042 5.5774-1.3995-3.4106-3.5202-5.5056-6.7443-5.5883zm-236.46 3.5347c-6.0543 1.7993-7.9424 4.5319-7.537 8.3933 4.7663-1.5568 4.9837-5.3599 7.537-8.3933zm-23.508 0.95343c-0.025 2.8445 2.3629 4.9116 6.2808 6.4859-0.8202-3.8098-2.7121-6.2329-6.2808-6.4859zm27.636 2.6706c-4.6591 0.62991-5.4764 3.3638-6.2808 6.1045 1.5639-0.95183 3.1928-2.0372 6.2808-6.1045zm-86.408 6.4797c-2.6133 3.9725-5.0734 7.9098-1.7177 10.513 5.0354-4.9017 1.9705-7.2671 1.7177-10.513zm-13.506 1.9312c2.0034 3.3007 1.545 7.0629 6.0136 9.1922 1.0889-3.7409-0.30589-6.6623-6.0136-9.1922zm-4.7522 3.0396c2.3522 4.3834 3.7813 5.6538 5.1692 6.7856-0.3143-2.7929-0.64279-5.58-5.1692-6.7856zm27.326 0.84904c-3.224 0.0827-5.3448 2.1777-6.7443 5.5883 4.1798-1.0523 6.9246-2.7813 7.4042-5.578-0.22486-0.0126-0.44497-0.0159-0.65991-0.0103zm440.97 18.732c-3.9034 2.0764-2.327 10.632 1.0149 15.185 2.4027-5.2085 1.7097-14.163-1.0149-15.185zm-12.563 3.2484c0.90499 4.5458 2.8968 8.5067 7.6135 11.001 0.12045-4.1117-1.6529-7.9066-7.6135-11.001zm26.013 0.59377c-4.8057 0.22581-7.9268 2.8016-7.1696 10.787 3.2027-2.5797 5.981-5.69 7.1696-10.787zm4.9847 5.3072c-1.8192 0.12731-3.0505 2.0463-4.2235 4.1424 1.615-0.36877 3.1514-0.43615 5.5836-3.9243-0.48893-0.18123-0.94032-0.24745-1.3601-0.21808zm-37.342 0.37621c0.80759 1.8186 3.4404 3.8129 7.0425 4.453-1.6695-2.7647-4.8932-4.0366-7.0425-4.453zm-291.45 17.443c-2.7442 5.942-5.2754 11.809 0.26459 14.817 6.0079-7.6483 0.95098-10.379-0.26459-14.817zm-19.05 5.0271c3.7646 4.2074 4.0852 9.4824 11.112 11.642 0.59763-5.3558-2.1861-9.146-11.112-11.642zm34.66 1.3229c-5.2617 0.35088-8.0511 3.7116-9.2604 8.9958 5.7765-2.1836 9.2979-5.0504 9.2604-8.9958zm-40.746 3.7042c4.5529 5.6416 6.9546 7.1464 9.2604 8.4667-1.1859-3.8015-2.3912-7.593-9.2604-8.4667zm-350.43 8.1855c-0.37278 4.5022-4.8919 7.7833 2.5321 14.582 4.9476-3.6107 1.3208-9.0721-2.5321-14.582zm457.33 1.218c-1.2156 4.4378-6.2725 7.1684-0.26458 14.817 5.54-3.008 3.0087-8.8746 0.26458-14.817zm-322.58 0.0698c-5.7551 2.88-3.4307 14.746 1.4966 21.061 3.5425-7.2243 2.5206-19.644-1.4966-21.061zm-114.84 1.3911c-8.4155 3.509-10.472 7.5609-8.8661 12.75 6.5884-2.9534 5.9123-8.1715 8.8661-12.75zm59.661 1.617c-3.3377 1.065-4.4468 5.3439-3.9904 9.8144-1.5438-1.8236-3.8656-3.531-7.2094-5.085 0.71843 3.2306 1.9678 6.2059 4.2411 8.6873-1.2974-0.52884-2.5846-0.86576-3.6623-1.0526 1.039 2.0946 4.4206 4.392 9.0491 5.1366 3e-3 5e-3 6e-3 9e-3 8e-3 0.0134l0.00103-0.00103h0.00104v5.1e-4l5.2e-4 5.2e-4v5.2e-4h5.1e-4l5.2e-4 5.1e-4v5.2e-4h0.00155c6e-3 8e-3 0.0139 0.0165 0.0207 0.0248 0.0108-0.0118 0.0214-0.0233 0.032-0.0351 10.051-2.0189 11.959-6.3587 10.326-11.707-3.8893 2.1006-6.3889 4.6711-8.1835 7.4796 2.0013-5.4568 1.9221-12.011-0.63562-13.278zm36.661 1.4971c1.3343 6.3051 4.271 11.799 11.225 15.258 0.1776-5.703-2.437-10.967-11.225-15.258zm360.15 0.45217c-8.9264 2.4957-11.71 6.2859-11.112 11.642 7.0274-2.1592 7.3479-7.4342 11.112-11.642zm-321.79 0.37155c-7.0854 0.31321-11.687 3.8859-10.57 14.962 4.722-3.5781 8.818-7.8922 10.57-14.962zm-127.67 0.27751c-6.6736 1.6722-7.1584 5.5386-7.6218 9.4123 2.0463-1.5698 4.1538-3.3325 7.6218-9.4123zm414.8 0.67386c-0.0375 3.9454 3.4839 6.8123 9.2604 8.9958-1.2093-5.2842-3.9987-8.645-9.2604-8.9958zm-456.07 0.51831c0.70708 3.879 4.7535 6.2769 10.916 7.7365-2.2009-5.046-5.6118-8.0156-10.916-7.7365zm891.09 1.219c-5.7551 2.88-3.4307 14.746 1.4966 21.061 3.5425-7.2243 2.5206-19.644-1.4966-21.061zm-394.28 1.9668c-6.8692 0.8737-8.0745 4.6652-9.2604 8.4667 2.3058-1.3202 4.7076-2.8251 9.2604-8.4667zm375.76 2.5389c1.3343 6.3051 4.271 11.798 11.225 15.258 0.1776-5.703-2.437-10.966-11.225-15.258zm-695.82 0.16174c-0.16067-7e-3 -0.3181-5e-3 -0.47284 5e-3 -2.6821 0.17657-4.4976 2.8375-6.227 5.7449 2.3812-0.51149 4.646-0.60441 8.232-5.4426-0.54064-0.18854-1.0502-0.2871-1.5322-0.30748zm-55.53 0.52659c1.1906 2.5224 5.0724 5.2892 10.383 6.1769-2.4615-3.8347-7.2146-5.5994-10.383-6.1769zm789.7 0.13487c-7.0854 0.31321-11.687 3.8859-10.57 14.962 4.722-3.5781 8.818-7.8922 10.57-14.962zm7.3494 7.3618c-2.6821 0.17657-4.4976 2.8375-6.227 5.7449 2.3812-0.51149 4.646-0.60493 8.2321-5.4431-0.72086-0.25138-1.3861-0.34254-2.005-0.30179zm-55.057 0.52141c1.1906 2.5224 5.0724 5.2886 10.383 6.1764-2.4615-3.8347-7.2146-5.5989-10.383-6.1764z" fill="#250" style="paint-order:markers fill stroke"/><path d="m948.01 676.06c-3.6021-0.64003-6.235-2.6346-7.0425-4.4532 2.1492 0.41631 5.373 1.6885 7.0425 4.4532z" fill="#447821" style="paint-order:markers fill stroke"/><path d="m948.13 675.99c0.12045-4.1117-1.653-7.9065-7.6135-11.001 0.90499 4.5458 2.8968 8.5066 7.6135 11.001z" fill="#250" style="paint-order:markers fill stroke"/><path d="m947.99 676.07c-2.6416-4.9921-2.9526-13.686 1.2121-15.17 2.5464 1.4082 1.9251 10.368-1.2121 15.17z" fill="#447821" style="paint-order:markers fill stroke"/><path d="m947.99 676.07c7.8296-1.7446 9.3166-5.5082 8.0481-10.149-4.4817 2.7038-6.5828 6.3064-8.0481 10.149z" fill="#250" style="paint-order:markers fill stroke"/><path d="m948.01 676.09c1.7596-2.1536 0.0701-4.3518-1.9026-6.5538-0.1746 1.6474-0.60893 3.1222 1.9026 6.5538z" fill="#5aa02c" style="paint-order:markers fill stroke"/><path d="m397.38 543.74c-1.5644 1.8552-3.5479 4.6405-3.9718 6.0322-0.68998-1.4398-1.9256-2.591-2.3182-5.8151-0.99392 2.2915-0.40976 5.0397-0.28836 6.6683-1.1402-0.611-3.7821-2.0641-6.0663-2.0412 0.88367 0.57391 5.9455 4.0855 8.1612 4.455 4.5755 0.76307 4.7699-2.5524 8.2181-4.6002-1.2923-0.086-4.7467 1.3512-5.7485 1.6485 1.0913-1.7496 1.6905-4.1628 2.0138-6.3474zm117.09 6.5226c-2.6235 3.2349-1.6239 10.304-2.8138 15.357-0.93065-5.7824-1.1277-9.9558-3.2913-12.906 1.1654 5.176 0.88688 8.181 0.45165 14.179-2.4054-2.1844-3.5722-13.073-4.4008-15.344-0.0819 4.2165-0.61783 5.7354 0.15451 9.3467-1.128-3.3205-2.4906-5.743-3.9946-7.6238 1.465 3.352 3.4836 6.368 2.2826 11.338-0.73584-3.0611-1.8141-2.7755-4.2995-9.1069 0.1478 2.0542 2.2637 11.652 3.793 12.87 8.4074 6.6951 16.235 5.5433 22.414 0.94102 1.8206-1.3562 0.60518-7.2966 1.216-13.968-1.75 1.7634-1.8086 7.6501-2.3859 9.1798-1.4204-2.1075-1.0751-7.6142-2.6407-10.335 0.60228 5.033-0.0378 11.51-0.60926 11.231-0.44719-0.2185-0.49845-10.787-1.5198-11.376 0.39857 4.7531-7e-3 8.9329-0.60978 10.93-1.7202-4.4646-1.8846-11.22-1.5741-14.453-1.6431 2.6514-0.42214 10.966-1.0402 14.927-0.70647-5.7703-3.0979-7.0066-1.1317-15.187zm4.347 3.5202v5.2e-4h-0.00104v5.2e-4l-0.00103 0.00103c-0.01 0.015-5e-3 0.10778 0.0109 0.26045-2e-3 -0.0871-3e-3 -0.17423-5e-3 -0.26148l-5.1e-4 -5.2e-4h-0.00104l-5.1e-4 -5.2e-4h-0.00104zm2.1022 0.30799c0.0118 0.0329 0.0239 0.0657 0.0357 0.0987-0.0102-0.056-0.0222-0.0896-0.0357-0.0987zm-53.756 2.0846c1.4851 7.0981-1.9985 9.0937-2.5321 14.1-0.46688-3.4367 0.45559-10.652-0.78548-12.952 0.23452 2.8052 0.11023 8.667-1.1891 12.541-0.45564-1.7329-0.76149-5.3596-0.46044-9.4837-0.77146 0.51082-0.81047 9.6806-1.1482 9.8702-0.43166 0.24219-0.91484-5.3782-0.45992-9.7451-1.1825 2.3606-0.92186 7.1382-1.9947 8.9669-0.43602-1.3272-2.493-6.4767-3.8148-8.0068 1.8032 5.7463 2.4585 10.414 2.9311 12.161 1.6475 6.09 13.766 6.7959 16.93-0.81649 0.60076-1.4457 2.7533-9.3839 2.8649-11.166-1.8772 5.4936-2.6915 5.2458-3.2473 7.9018-0.90721-4.3121 0.61735-6.9292 1.7239-9.8376-1.136 1.6319-3.1297 7.047-3.9817 9.9281 0.58336-3.1334 1.143-7.7645 1.0811-11.423-0.62579 1.971-1.5075 11.419-3.3243 13.314-0.32875-5.2044 0.50975-7.141 1.3901-11.632-2.012 2.3967-3.6585 8.8763-3.5347 10.528-0.89878-4.3839 1.5336-11.44-0.44804-14.247zm-4.9614 3.977-5.2e-4 5.2e-4h-5.2e-4l-5.1e-4 5.1e-4c-2e-3 0.0757-2e-3 0.15126-4e-3 0.22686 0.0123-0.13006 0.0156-0.21008 9e-3 -0.22531l-5.2e-4 -5.1e-4v-5.2e-4l-0.00103-0.00103h-5.2e-4v-5.2e-4h-5.2e-4zm34.457 30.526c-1.8612 4.284-3.5782 8.5138 0.17931 10.683 4.0749-5.5142 0.64509-7.483-0.17931-10.683zm-12.921 3.6241c2.5534 3.0334 2.7707 6.8371 7.537 8.3938 0.40534-3.8614-1.4827-6.5945-7.537-8.3938zm23.508 0.95395c-3.5687 0.25298-5.4606 2.6762-6.2808 6.4859 3.9179-1.5743 6.3058-3.6414 6.2808-6.4859zm-27.636 2.6706c3.088 4.0674 4.7174 5.1522 6.2813 6.104-0.80436-2.7407-1.6222-5.4741-6.2813-6.104zm86.409 6.4797c-0.2528 3.246-3.3177 5.6114 1.7177 10.513 3.3557-2.6032 0.89557-6.5405-1.7177-10.513zm13.506 1.9311c-5.7077 2.5299-7.1025 5.4513-6.0136 9.1922 4.4686-2.1293 4.0102-5.8915 6.0136-9.1922zm4.7522 3.0391c-4.5264 1.2056-4.8549 3.9933-5.1692 6.7862 1.3879-1.1318 2.817-2.4027 5.1692-6.7862zm-27.326 0.84905c-0.21493-6e-3 -0.43453-2e-3 -0.65939 0.0108 0.4796 2.7966 3.2239 4.5251 7.4037 5.5774-1.3995-3.4106-3.5202-5.5056-6.7443-5.5883zm-441.94 28.95c-0.18632 3.5198-2.4452 6.0846 1.2656 11.4 2.4729-2.8228 0.66027-7.0922-1.2656-11.4zm194.37 1.8598c-3.9034 2.0764-2.327 10.632 1.0149 15.185 2.4027-5.2085 1.7097-14.163-1.0149-15.185zm-184.41 0.23409c-4.2063 2.7433-5.2337 5.9114-4.4313 9.9679 3.2931-2.309 2.9548-6.3888 4.4313-9.9679zm171.85 3.0143c0.90499 4.5458 2.8968 8.5067 7.6135 11.001 0.12045-4.1117-1.6529-7.9066-7.6135-11.001zm-168.35 0.28163c-3.3356 1.3073-3.5775 4.3298-3.8091 7.3582 1.0228-1.2272 2.0757-2.605 3.8091-7.3582zm194.36 0.31213c-4.8057 0.22581-7.9263 2.8017-7.1691 10.787 3.2027-2.5797 5.9805-5.69 7.1691-10.787zm-214.5 0.60823c-0.15839-6e-3 -0.32006-2e-3 -0.48576 0.0114 0.35341 3.0325 2.3758 4.9076 5.456 6.0487-1.0313-3.6983-2.5943-5.9704-4.9702-6.0601zm219.81 4.6953c-0.10899-5e-3 -0.21596-4e-3 -0.32091 4e-3 -1.8192 0.1273-3.05 2.0458-4.223 4.1419 1.615-0.36877 3.1508-0.43564 5.5831-3.9238-0.3667-0.13592-0.71224-0.20696-1.0392-0.22169zm-37.663 0.37982c0.80759 1.8186 3.4404 3.8129 7.0425 4.453-1.6695-2.7647-4.8932-4.0366-7.0425-4.453zm519.49 1.9156c-1.2156 4.4378-6.2725 7.1684-0.26458 14.817 5.54-3.008 3.0087-8.8747 0.26458-14.817zm19.05 5.0271c-8.9264 2.4957-11.71 6.2859-11.112 11.642 7.0274-2.1592 7.3479-7.4342 11.112-11.642zm-34.66 1.3229c-0.0375 3.9454 3.4839 6.8123 9.2604 8.9958-1.2093-5.2842-3.9987-8.645-9.2604-8.9958zm40.746 3.7042c-6.8692 0.8737-8.0745 4.6652-9.2604 8.4667 2.3058-1.3202 4.7076-2.8251 9.2604-8.4667z" fill="#579700" style="paint-order:markers fill stroke"/><path d="m645.11 557.88c1.3018 2.2915 0.53626 5.0396 0.37725 6.6683 1.4934-0.611 4.9539-2.0643 7.9457-2.0414-1.1574 0.57391-7.7873 4.0856-10.689 4.4551-5.993 0.76307-6.2479-2.5523-10.764-4.6001 1.6926-0.086 6.2176 1.3514 7.5298 1.6486-1.4294-1.7496-2.2142-4.163-2.6377-6.3476 2.049 1.8552 4.6469 4.6406 5.2022 6.0323 0.90372-1.4398 2.5224-2.591 3.0366-5.8152z" fill="#559400" style="paint-order:markers fill stroke"/><path d="m559.67 531.64c-1.8855 0.66497-2.365 6.4944-0.70228 9.8852 2.3126-2.9641 3.4035-8.5334 0.70228-9.8852zm8.6935 2.1146c-4.1248 2.0144-5.3523 4.4846-5.2689 7.1613 3.264-1.6237 4.6427-4.202 5.2689-7.1613zm-18.001 0.38654c0.82251 3.3185 2.7451 5.3434 4.9614 7.0228 0.52399-5.1988-1.6359-6.8758-4.9614-7.0228zm-3.4494 3.4551c-0.29051-0.0191-0.60269 0.0236-0.94103 0.1416 1.6832 2.2708 2.7462 2.3148 3.8638 2.5549-0.81173-1.3646-1.664-2.6136-2.9228-2.6965zm25.841 0.24495c-1.4873 0.27102-3.7183 1.0992-4.8736 2.899 2.4927-0.41666 4.3148-1.7151 4.8736-2.899zm-157.38 74.314c-3.2932 1.1614-4.1309 11.344-1.2268 17.266 4.0393-5.1771 5.9448-14.905 1.2268-17.266zm15.184 3.6938c-7.2044 3.5184-9.3481 7.833-9.2025 12.508 5.701-2.836 8.1087-7.3394 9.2025-12.508zm-31.441 0.6749c1.4366 5.7961 4.7946 9.3326 8.6656 12.266 0.9152-9.0804-2.8571-12.009-8.6656-12.266zm-6.025 6.0348c-0.50741-0.0334-1.0529 0.042-1.6438 0.24805 2.9398 3.9662 4.7964 4.0424 6.7484 4.4617-1.4178-2.3834-2.9058-4.565-5.1046-4.7098zm45.135 0.42736c-2.5977 0.47337-6.4942 1.9201-8.5121 5.0638 4.3538-0.72775 7.5361-2.9959 8.5121-5.0638zm248.56 22.947c-4.0172 1.4168-5.0395 13.838-1.4971 21.062 4.9273-6.3152 7.2522-18.182 1.4971-21.062zm18.521 4.5057c-8.7882 4.2918-11.403 9.555-11.225 15.258 6.9542-3.4595 9.8908-8.9529 11.225-15.258zm-38.353 0.8232c1.7524 7.0702 5.8489 11.385 10.571 14.963 1.1164-11.076-3.4855-14.65-10.571-14.963zm-7.3494 7.3618c-0.61895-0.0408-1.2837 0.0509-2.0045 0.3023 3.5861 4.8382 5.8504 4.9311 8.2315 5.4426-1.7294-2.9074-3.5449-5.5683-6.227-5.7449zm55.057 0.52141c-3.1688 0.57743-7.9218 2.3416-10.383 6.1764 5.3109-0.88773 9.1927-3.654 10.383-6.1764z" fill="#4a0" style="paint-order:markers fill stroke"/><path d="m412.33 563.83c-0.16752 0-0.22774 0.0159-0.33939 0.0898-0.0746 0.0494-0.16544 0.14802-0.20171 0.21912-0.14036 0.27512-0.0454 0.67846 0.19757 0.83924 0.14446 0.0956 0.15494 0.13042 0.27389 0.90887 0.1945 1.2728 0.30005 2.5877 0.2621 3.2651-0.0486 0.86721-0.17579 1.337-0.6013 2.2203-1.1367 2.3597-2.4751 3.7645-4.6017 4.8301-1.0737 0.53802-2.4167 0.99512-3.4991 1.1909-0.33088 0.0598-1.4009 0.19892-1.5349 0.19892-0.0277 6e-5 -0.16725 0.074-0.31018 0.16446-0.53353 0.33742-1.1667 0.60517-1.8434 0.77953-0.5541 0.14277-0.83486 0.17622-1.4693 0.17474-0.6242-2e-3 -1.165-0.075-1.5161-0.20637-0.15001-0.0561-0.22373-0.0656-0.36944-0.0474-0.23708 0.0296-1.0622 0.23772-1.5591 0.39328-0.77573 0.24281-2.5206 0.92104-3.0166 1.1726-0.43394 0.22005-0.32508 0.43081 0.24673 0.47758 0.36525 0.0299 2.5989 0.0957 4.3208 0.12741 1.9349 0.0351 11.321 0.0355 11.996 0 0.68225-0.0359 1.1117-0.094 1.603-0.21696 1.2602-0.31538 2.2983-1.0384 2.9932-2.0846 0.45703-0.68802 0.75322-1.4966 1.0384-2.835 0.20592-0.96616 0.36727-1.3815 0.70946-1.8262 0.24426-0.31743 0.68818-0.62096 0.97653-0.66775 0.25242-0.041 0.56551 0.18644 0.74544 0.54149 0.0925 0.18256 0.15971 0.2327 0.31221 0.2327 0.14342 0 0.22681-0.0532 0.27887-0.17779 0.0815-0.19493 0.0238-0.30404-0.45029-0.85117-0.12121-0.1399-0.22039-0.28052-0.22039-0.31242 0-0.14833 0.19713-0.20012 0.47344-0.12441 0.17363 0.0475 0.55966 0.24199 0.67776 0.34137 0.21046 0.17709 0.514 0.0339 0.514-0.24258 0-0.22698-0.0652-0.26823-0.87737-0.55412l-0.73044-0.25712-0.13736-0.26376c-0.18247-0.35044-0.38152-0.6036-0.63273-0.80467l-0.20663-0.16536 0.0179-0.39181c0.039-0.85104 0.47058-2.4641 1.0307-3.8522 0.22928-0.56824 0.25869-0.6173 0.41815-0.69868 0.0671-0.0342 0.14713-0.09 0.17786-0.12404 0.0817-0.0904 0.1563-0.2863 0.1563-0.41062 0-0.15301-0.127-0.38606-0.25782-0.47299-0.14449-0.096-0.43037-0.1018-0.57816-0.0116-0.20011 0.12203-0.3071 0.4125-0.24156 0.65589 0.0346 0.12863 0.0215 0.16323-0.67202 1.7718-0.75504 1.7513-0.99453 2.259-1.2342 2.6163-0.0829 0.12358-0.15077 0.23416-0.15077 0.24577 0 0.0116 0.0955 0.1158 0.21224 0.23149 0.11673 0.11568 0.21223 0.22771 0.21223 0.24896 0 0.06-0.25165 0.0185-0.44697-0.0739-0.61837-0.29205-1.0201-1.357-1.543-4.0906-0.16857-0.8812-0.19016-1.0608-0.13188-1.0968 0.0182-0.0113 0.0623-0.0776 0.098-0.1475 0.1421-0.27856 0.0433-0.64571-0.22372-0.83126-0.12054-0.0838-0.17182-0.0984-0.34519-0.0984z" fill="#6c5d53" stroke-width=".1234"/><path d="m400.44 564.37c-0.77478 0.0192-1.5462 0.14812-2.2674 0.3855-3.3904 1.116-5.6237 4.1998-5.4742 7.5591 0.0707 1.5877 0.63715 2.9465 1.6844 4.0406 1.0148 1.0602 2.0891 1.6312 3.4469 1.8321 0.0539 8e-3 0.39916 0.0102 0.7673 5e-3 0.72819-0.0106 1.0046-0.0529 1.6291-0.24923 0.42757-0.13446 1.1628-0.50353 1.5359-0.77105 1.3329-0.95566 2.1235-2.5513 2.1232-4.2859-7e-5 -0.67033-0.10125-1.1578-0.37804-1.8214-0.33584-0.80528-0.78609-1.3634-1.4692-1.8212-1.9879-1.3324-4.6492-0.57993-5.5823 1.5782-0.63622 1.4716-0.10574 3.1172 1.2071 3.7445 0.36403 0.17395 0.6029 0.22591 1.0484 0.22806 0.34798 2e-3 0.42446-9e-3 0.68344-0.0937 0.35183-0.11531 0.70062-0.33937 0.93368-0.59977 0.23188-0.25908 0.44623-0.70468 0.49538-1.0297 0.11066-0.73183-0.25692-1.4694-0.87693-1.7595-0.19107-0.0894-0.25616-0.10324-0.48332-0.10274-0.7273 2e-3 -1.2636 0.54278-1.2187 1.2296 0.0177 0.27075 0.10088 0.46354 0.28226 0.65442 0.20197 0.21255 0.33549 0.26431 0.68496 0.26555l0.30483 2e-3 -0.12525 0.0581c-0.19613 0.0912-0.65395 0.0637-0.89911-0.0539-0.21363-0.10245-0.43838-0.334-0.5499-0.56661-0.11111-0.2318-0.12669-0.64912-0.0355-0.9495 0.36393-1.1982 1.9205-1.5415 2.8809-0.63554 0.26658 0.25148 0.41611 0.48523 0.53856 0.84159 0.0775 0.2256 0.0899 0.31388 0.0918 0.6527 3e-3 0.71644-0.23072 1.2715-0.75627 1.7901-0.53604 0.52901-1.1235 0.7717-1.8691 0.77195-1.421 0-2.5505-0.86886-2.9928-2.3036-0.0844-0.27386-0.0898-0.32819-0.0904-0.91155-6.9e-4 -0.54755 9e-3 -0.65294 0.0747-0.8979 0.1085-0.39918 0.24254-0.72956 0.41733-1.0285 0.67125-1.148 1.5769-1.8046 2.8687-2.0795 0.43101-0.0917 1.234-0.0992 1.6577-0.0154 1.8769 0.37102 3.2497 1.7763 3.6451 3.7314 0.38205 1.8892-0.0771 3.6298-1.2997 4.9264l-0.21555 0.22857 0.21223 0.01c0.40654 0.0194 1.1136-0.13355 2.0184-0.43689 1.3076-0.43844 2.4604-1.0266 3.3877-1.7285 0.36726-0.27797 1.0978-0.95059 1.1613-1.0692 0.0302-0.0564 6e-3 -0.0942-0.1776-0.28142-0.45534-0.46393-0.60254-0.80948-0.91978-2.1591-0.2742-1.1666-0.42806-1.6474-0.74248-2.32-0.97558-2.0868-2.867-3.6875-5.0703-4.2911-0.73453-0.20122-1.5126-0.2916-2.2874-0.27236z" fill="#806648" stroke-width=".1234"/><circle cx="412.58" cy="564.29" r=".18889" style="paint-order:markers fill stroke"/><circle cx="417.27" cy="564.78" r=".18889" style="paint-order:markers fill stroke"/></g></svg>