<?xml version='1.0' encoding='utf-8'?>
<svg xmlns="http://www.w3.org/2000/svg" width="4e3" height="2667" version="1.1" viewBox="0 0 1058.3 705.64"><defs><linearGradient id="b" x1="11.975" x2="85.426" y1="700.31" y2="582.82" gradientUnits="userSpaceOnUse"><stop stop-color="#165016" offset="0"/><stop stop-color="#165016" stop-opacity="0" offset="1"/></linearGradient><linearGradient id="a" x1="853.53" x2="829.73" y1="761.15" y2="601.34" gradientUnits="userSpaceOnUse"><stop stop-color="#165016" offset="0"/><stop stop-color="#2ca02c" offset="1"/></linearGradient><filter id="g" x="-.080686" y="-.62727" width="1.1614" height="2.2545" color-interpolation-filters="sRGB"><feGaussianBlur stdDeviation="15.230632"/></filter><filter id="c" x="-.37413" y="-.40702" width="1.7483" height="1.814" color-interpolation-filters="sRGB"><feGaussianBlur stdDeviation="23.098341"/></filter><filter id="d" x="-.074997" y="-.24294" width="1.15" height="1.4859" color-interpolation-filters="sRGB"><feGaussianBlur stdDeviation="3.3713947"/></filter><filter id="e" x="-.058958" y="-.17028" width="1.1179" height="1.3406" color-interpolation-filters="sRGB"><feGaussianBlur stdDeviation="3.2805314"/></filter><filter id="f" x="-.058672" y="-.17361" width="1.1173" height="1.3472" color-interpolation-filters="sRGB"><feGaussianBlur stdDeviation="2.5622104"/></filter></defs><g><rect x=".00012704" y=".00093568" width="1058.3" height="705.64" fill="#216778" stroke-linecap="round" stroke-linejoin="round" stroke-width=".096723" style="paint-order:markers fill stroke"/><path d="m0.0011785 705.64-0.0015655-207.89c203-44.567 413.19 11.961 509.93 67.192 76.845-22.085 145.86-7.6268 212.02 20.129 111.83-73.158 224.55-77.622 336.38-92.609v213.18z" fill="#17280b" stroke-linecap="round" stroke-linejoin="round" stroke-width=".1" style="paint-order:markers fill stroke"/><path d="m691.98 593.33 21.829-0.0698-6.6679-161.01c0.28413-1.6535 1.3346-2.3753 2.8076-2.5834 1.4865-0.26623 2.9223-0.86834 4.2113-2.4438 32.689 0.32879 65.672-1.9647 98.615-3.91 1.4077-0.0648 0.97013-2.0113-0.35094-2.0947l-78.331-3.8402c-7.1281 1.6842-14.749 3.569-19.091 4.1195-1.3407-1.7938-2.6612-3.6012-7.2294-3.2118-18.097-23.018-36.533-46.036-55.379-69.054-1.6988-1.4804-2.9827-0.51635-2.5268 0.48876 4.5886 12.137 20.447 36.633 31.304 54.95 1.9684 4.1465 4.8427 6.6709 8.2121 8.3088 3.3609 2.4205 6.9706 4.841 9.2649 7.2615l-8.0015 4.329c-1.6659 2.4847-2.7804 5.7458 0.73697 7.5059 1.5143 0.69366 4.1595 0.9471 7.826 0.80295-11.916 13.848-32.016 43.771-46.552 65.719-1.9764 2.7708 0.0955 4.9244 1.7714 3.1258 5.7625-5.633 29.365-32.792 43.622-49.504z" fill="#e6e6e6" style="paint-order:markers fill stroke"/><path d="m950.9 504.12-3.6127 0.92856-3.1095 1.879c-0.65667 1.094-1.096 2.53 0.29048 3.3049 0.59691 0.30542 1.6396 0.41682 3.0849 0.35335-2e-3 3e-3 -4e-3 5e-3 -6e-3 7e-3l3.135-0.20797-3e-3 -0.0762c0.112-0.72806 0.5261-1.0458 1.1067-1.1374 0.57634-0.1153 1.1335-0.37356 1.6351-1.0421l0.35057-2.5643c-0.52631-0.78665-1.0498-1.5753-2.8433-1.4046-0.01-0.0136-0.0191-0.0271-0.0287-0.0407zm-0.21368 6.3684c-1.4647 4.1137-2.9011 8.1-3.5958 8.7732l-2.3872 61.972 8.6046-0.0307z" fill="#e6e6e6" style="paint-order:markers fill stroke"/><path d="m1058.3 705.64-7e-4 -121.11c-426.7-32.9-549.35 56.011-678.93 121.11z" fill="#2ca02c" stroke-linecap="round" stroke-linejoin="round" stroke-width=".1" style="paint-order:markers fill stroke"/><path d="m689.37 412.97v2.8e-4c4e-3 2e-3 7e-3 3e-3 0.0102 5e-3 3.3609 2.4205 6.9706 4.841 9.2649 7.2615l-8.0015 4.329c-1.6659 2.4847-2.7804 5.7459 0.73699 7.5059 1.5142 0.69364 4.1594 0.94707 7.8258 0.80295h2.7e-4l3.8604-4.0846c0.48564-0.36744 0.84997-0.37583 1.2634-0.13965 0.87394 0.64092 2.3129 1.1211 4.1488 1.4886 0.41658-0.24653 0.91142-0.3978 1.4663-0.47621 1.4865-0.26623 2.9223-0.86835 4.2113-2.4438 19.232 0.19345 38.565-0.52074 57.933-1.5377l-26.699-0.20788c-10.301-0.0801-25.078 0.34531-29.128-1.5361-0.0185-0.79461-0.25403-1.6252-0.7951-2.5065-0.16005 0.0225-0.31613 0.0435-0.4683 0.0627-1.3407-1.7938-2.6612-3.6012-7.2294-3.2118-0.10047-0.12779-0.20083-0.25569-0.30132-0.38347-1.8109 0.34434-3.591 0.71951-5.1734 1.2912-4.0142-2.6194-8.0928-5.1184-12.925-6.2191zm17.774 19.424c-2e-3 0.0206-4e-3 0.0413-6e-3 0.0619-3.0927 6.9424-7.1588 18.311-9.0894 19.969l-0.01 0.0133-6.0617 140.89 8.0086-0.0256c0.21792-48.536 0.9146-96.238 2.1687-142.97l5.2603-11.396z" fill="#808080" style="paint-order:markers fill stroke"/><path d="m950.9 504.12c-1.2042 0.30881-2.3918 0.43351-3.6127 0.92856-1.0741 0.52837-2.1762 0.98383-3.1095 1.879-0.65666 1.094-1.096 2.53 0.29048 3.3049 0.5679 0.29057 1.5393 0.4057 2.8771 0.36154-0.0848 2.8784-0.17276 5.7362-0.25423 8.6356 1.5e-4 -1.2e-4 2.6e-4 -3.3e-4 4e-4 -4.4e-4l-2.3882 62.004 3.1568-0.0114c0.0859-21.37 0.36058-42.374 0.85495-62.95l2.0735-5.0178-0.10613-2.8701v-4.4e-4c7.9e-4 -3e-3 1e-3 -6e-3 2e-3 -9e-3 -7.9e-4 4e-5 -2e-3 -3e-5 -2e-3 0 2.6559-4.7806-1.6111-0.58231-3.112 0.19136l1.505-1.7786c0.19144-0.16179 0.33488-0.16543 0.49785-0.0614 0.3445 0.2822 0.91184 0.49372 1.6355 0.65553 0.16421-0.10855 0.35918-0.17526 0.57791-0.20979 0.57632-0.1153 1.1335-0.37359 1.6351-1.0421l0.35057-2.5643c-0.5263-0.78664-1.0498-1.5753-2.8433-1.4046-0.01-0.0136-0.0192-0.0271-0.0287-0.0407zm-0.21959 6.2726c-2.7e-4 3e-3 -4e-4 6e-3 -7.9e-4 9e-3 -7.9e-4 2e-3 -2e-3 4e-3 -2e-3 6e-3l3e-3 -0.015z" fill="#808080" style="paint-order:markers fill stroke"/><path d="m1058.3 705.64-7e-4 -121.11c-426.7-32.9-549.35 56.011-678.93 121.11z" fill="url(#a)" stroke-linecap="round" stroke-linejoin="round" stroke-width=".1" style="paint-order:markers fill stroke"/><path d="m702.28 423.45c-2.2171 4.9422-6.4793 6.7479-10.621 8.7381 1.55 0.60423 4.0962 0.82049 7.547 0.68485h2.7e-4l3.8604-4.0846c0.48565-0.36743 0.84997-0.37581 1.2634-0.13964 0.87394 0.64091 2.3129 1.1211 4.1488 1.4886 0.41657-0.24651 0.91142-0.3978 1.4663-0.4762 1.4865-0.26624 2.9223-0.86834 4.2113-2.4438 0.3754 4e-3 0.75084 8e-3 1.1263 0.0103l-1.4731-0.82368c-4.0399 3.055-10.211 0.96988-11.529-2.9541z" fill="#4d4d4d" style="paint-order:markers fill stroke"/><path d="m0.0020671 705.65-7.9191e-4 -140.44c384.11-80.911 720.24 73.372 892.15 140.44z" fill="#217821" stroke-linecap="round" stroke-linejoin="round" stroke-width=".1" style="paint-order:markers fill stroke"/><ellipse cx="709.01" cy="423.48" rx="6.7726" ry="5.6979" fill="#ccc" style="paint-order:markers fill stroke"/><path d="m0.0020671 705.65-7.9191e-4 -140.44c384.11-80.911 720.24 73.372 892.15 140.44z" fill="url(#b)" stroke-linecap="round" stroke-linejoin="round" stroke-width=".1" style="paint-order:markers fill stroke"/><path d="m139.4 595.66c2.1084-6.1872 5.376-9.8286 10.457-9.4864-0.67735 4.7563-4.5538 7.6967-10.457 9.4864z" fill="#250" style="paint-order:markers fill stroke"/><path d="m133.69 594.14c-4.7396-4.4274-1.2652-11.124 2.4258-17.88 0.3571 5.5205 4.6862 9.5435-2.4258 17.88z" fill="#250" style="paint-order:markers fill stroke"/><path d="m125.54 595.18c-6.3114-3.6214-5.6637-10.02-8.4934-15.633 8.0617 4.3026 10.031 9.2712 8.4934 15.633z" fill="#250" style="paint-order:markers fill stroke"/><path d="m117.63 596.26c-0.44387-4.7499-0.90798-9.4906-7.301-11.541 3.3222 7.455 5.3407 9.6162 7.301 11.541z" fill="#250" style="paint-order:markers fill stroke"/><path transform="matrix(1.0711 0 0 .52723 -40.14 302.05)" d="m527.08 612.13c-147.36 2.2779-297.92 12.258-452.24 33.863v24.411c153.59-23.399 304.2-37.448 453.04-39.195z" fill="#17280b" filter="url(#g)" opacity=".26751" style="mix-blend-mode:normal;paint-order:markers fill stroke"/><path d="m504.43 630.37 41.143-0.13229-12.568-305.06c0.53553-3.1329 2.5154-4.5005 5.2917-4.8948 2.8017-0.50443 5.5079-1.6452 7.9375-4.6302 61.613 0.62296 123.78-3.7225 185.87-7.4083 2.6533-0.12275 1.8285-3.8108-0.66145-3.9688l-147.64-7.276c-13.435 3.1911-27.799 6.7621-35.983 7.8052-2.527-3.3987-5.0159-6.8233-13.626-6.0854-34.109-43.612-68.858-87.224-104.38-130.84-3.2019-2.8048-5.6217-0.97833-4.7625 0.92604 8.6486 22.997 38.538 69.409 59.002 104.11 3.71 7.8564 9.1276 12.639 15.478 15.743 6.3346 4.5861 13.138 9.1722 17.462 13.758l-15.081 8.2021c-3.1398 4.7078-5.2405 10.887 1.3891 14.221 2.8541 1.3143 7.8398 1.7945 14.751 1.5214-22.46 26.238-60.345 82.934-87.741 124.52-3.725 5.2498 0.18007 9.3302 3.3387 5.9224 10.861-10.673 55.347-62.131 82.219-93.795z" fill="#e6e6e6" style="paint-order:markers fill stroke"/><path d="m499.51 288.65v5.1e-4c7e-3 3e-3 0.0126 6e-3 0.0191 9e-3 6.3346 4.5861 13.138 9.1722 17.462 13.758l-15.081 8.2021c-3.1398 4.7078-5.2405 10.887 1.3891 14.221 2.854 1.3142 7.8396 1.7944 14.75 1.5214h5.2e-4l7.276-7.7391c0.91535-0.69619 1.602-0.71207 2.3812-0.26458 1.6472 1.2143 4.3594 2.1242 7.8197 2.8205 0.78516-0.4671 1.7178-0.75372 2.7636-0.90227 2.8017-0.50443 5.5079-1.6452 7.9375-4.6302 36.249 0.3665 72.688-0.98668 109.19-2.9135l-50.321-0.39377c-19.416-0.15181-47.267 0.65426-54.901-2.9104-0.0347-1.5056-0.4788-3.0793-1.4986-4.7491-0.30167 0.0426-0.59584 0.0823-0.88264 0.11885-2.527-3.3987-5.0159-6.8233-13.626-6.0854-0.18936-0.24212-0.37852-0.48445-0.56792-0.72657-3.4132 0.65243-6.7684 1.3632-9.7508 2.4464-7.5659-4.963-15.253-9.6977-24.361-11.783zm33.5 36.802c-4e-3 0.039-8e-3 0.0782-0.0114 0.1173-5.8291 13.154-13.493 34.694-17.132 37.835l-0.0181 0.0253-11.425 266.94 15.095-0.0486c0.41073-91.961 1.7238-182.34 4.0876-270.88l9.9146-21.592z" fill="#b3b3b3" style="paint-order:markers fill stroke"/><path d="m523.85 308.51c-4.1787 9.364-12.212 12.785-20.019 16.556 2.9214 1.1448 7.7206 1.5546 14.224 1.2976h5.2e-4l7.276-7.7391c0.91535-0.69619 1.602-0.71207 2.3812-0.26458 1.6472 1.2143 4.3594 2.1242 7.8197 2.8205 0.78516-0.4671 1.7178-0.75372 2.7636-0.90227 2.8017-0.50443 5.5079-1.6452 7.9375-4.6302 0.70756 7e-3 1.4152 0.0138 2.1229 0.0196l-2.7766-1.5606c-7.6144 5.7883-19.246 1.8376-21.73-5.5971z" fill="#4d4d4d" style="paint-order:markers fill stroke"/><ellipse cx="534.4" cy="309.55" rx="14.882" ry="11.783" fill="#ccc" style="paint-order:markers fill stroke"/><path d="m228.19 367.42-9.1648 2.1089-7.8884 4.2674c-1.6659 2.4847-2.7805 5.746 0.73691 7.506 1.5143 0.69366 4.1593 0.94668 7.8259 0.80253-5e-3 6e-3 -0.01 0.0114-0.0145 0.017l7.953-0.47232-7e-3 -0.17312c0.28413-1.6535 1.3346-2.3752 2.8076-2.5833 1.4621-0.26186 2.8754-0.84842 4.1481-2.3668l0.88935-5.8239c-1.3352-1.7866-2.6633-3.5778-7.213-3.19-0.0243-0.0309-0.0486-0.0616-0.0729-0.0925zm-0.54208 14.464c-3.7158 9.3428-7.3596 18.396-9.1219 19.925l-6.056 140.75 21.829-0.0698z" fill="#e6e6e6" style="paint-order:markers fill stroke"/><path d="m228.19 367.42c-3.0548 0.70136-6.0677 0.98458-9.1648 2.1089-2.7248 1.2-5.5206 2.2344-7.8884 4.2674-1.6659 2.4847-2.7805 5.746 0.73691 7.506 1.4407 0.65995 3.905 0.92142 7.2988 0.82113-0.21505 6.5373-0.43827 13.028-0.64493 19.613 3.8e-4 -2.7e-4 6.6e-4 -7.6e-4 1e-3 -1e-3l-6.0585 140.82 8.0083-0.0258c0.21792-48.536 0.91473-96.238 2.1689-142.97l5.2601-11.396-0.26923-6.5185v-1e-3c2e-3 -7e-3 3e-3 -0.013 5e-3 -0.0196-2e-3 9e-5 -4e-3 -8e-5 -6e-3 0 6.7375-10.858-4.0871-1.3225-7.8946 0.4346l3.8178-4.0395c0.48564-0.36744 0.84954-0.37571 1.263-0.13953 0.87394 0.64092 2.3132 1.1213 4.1491 1.4888 0.41658-0.24653 0.9112-0.39805 1.4661-0.47646 1.462-0.26186 2.8755-0.84849 4.1481-2.3668l0.88935-5.8239c-1.3352-1.7866-2.6633-3.5778-7.213-3.19-0.0243-0.0309-0.0486-0.0616-0.0729-0.0925zm-0.55707 14.246c-6.7e-4 7e-3 -1e-3 0.0135-2e-3 0.0202-2e-3 5e-3 -4e-3 9e-3 -6e-3 0.0139 3e-3 -0.0113 6e-3 -0.0228 8e-3 -0.0341z" fill="#808080" style="paint-order:markers fill stroke"/><path d="m222.77 372.68c-2.2171 4.9422-6.4793 6.7479-10.621 8.7381 1.55 0.60423 4.0962 0.82049 7.547 0.68485h2.7e-4l3.8604-4.0846c0.48565-0.36743 0.84997-0.37581 1.2634-0.13964 0.87394 0.64091 2.3129 1.1211 4.1488 1.4886 0.41657-0.24651 0.91142-0.3978 1.4663-0.4762 1.4865-0.26624 2.9223-0.86834 4.2113-2.4438 0.3754 4e-3 0.75084 8e-3 1.1263 0.0103l-1.4731-0.82368c-4.0399 3.055-10.211 0.96988-11.529-2.9541z" fill="#4d4d4d" style="paint-order:markers fill stroke"/><path d="m214.82 285.46c-0.62543-0.23821-1.2276 0.18338-1.2744 0.8421-1.6632 12.434 0.43884 39.696 1.1828 59.752-0.2366 4.3795 1.006 7.5959 3.057 10.177 1.692 3.2831 3.5899 6.648 4.3994 9.5807l7e-3 4e-3 0.94674 9.5054c-0.28162-0.44596-0.60447-0.65104-1.6675-0.11957l-4.5636 2.2022c-3.8e-4 2e-4 -9.4e-4 8.2e-4 -2e-3 1e-3 -16.103 8.5704-46.148 28.875-68.02 43.84-2.8816 1.8452-2.1361 4.4647 0.0595 3.396 7.3018-3.1782 39.048-19.875 58.361-30.237l-0.0801 0.14603c3.0011-1.5254 10.725-9.5639 16.452-14.848l0.13157-0.28895c0.9789-1.3953 2.173-1.7003 3.4853-1.4038 1.3496 0.24862 2.8088 0.17829 4.584-0.81655 26.899 11.034 55.22 19.804 83.353 28.874 1.1939 0.40408 1.7074-1.4918 0.65184-2.0008l-63.083-29.188c-6.6554-0.82528-13.809-1.6318-17.649-2.5626-0.3024-2.0553-0.58207-4.1161-4.537-5.2661-4.6191-26.667-9.5191-53.445-14.758-80.357-0.27738-0.70903-0.66105-1.0892-1.0363-1.2321z" fill="#e6e6e6" style="paint-order:markers fill stroke"/><path d="m217.78 356.22c2e-3 4e-3 5e-3 5e-3 6e-3 8e-3 1.692 3.2831 3.5899 6.648 4.3994 9.5807l5e-4 -2.4e-4 0.95231 9.5066c1e-4 1.8e-4 1e-4 4.6e-4 1.9e-4 6.3e-4 0.45019 0.84438 1.4095 1.7274 2.7293 2.6379 0.45557-0.0851 0.93297-0.0591 1.4273 0.0526 1.3496 0.24862 2.8087 0.17831 4.584-0.81655 15.826 6.4916 32.143 12.2 48.625 17.646l-21.997-8.9572c-8.4871-3.4559-20.904-7.9271-23.409-10.951 0.34214-0.72142 0.52065-1.5464 0.46939-2.5175-0.14255-0.0323-0.28096-0.0648-0.4155-0.0975-0.3024-2.0553-0.58206-4.1161-4.537-5.2661-0.0256-0.14805-0.0511-0.29612-0.0767-0.44418-1.6532-0.28485-3.2947-0.53209-4.8611-0.53725-2.143-3.6767-4.3937-7.2659-7.8965-9.844zm4.9375 18.703c-0.0808-0.03-0.17287-0.0446-0.28092-0.0407 0.13866-2e-3 0.25604 0.0231 0.3584 0.0754-0.0246-0.0133-0.0506-0.0246-0.0775-0.0346zm0.0775 0.0346c0.0196 0.0101 0.0379 0.0227 0.0565 0.0346-0.0181-0.0125-0.037-0.0242-0.0565-0.0346zm-0.3584-0.0754c-0.0412 1e-3 -0.0853 6e-3 -0.13133 0.0137 0.0446-6e-3 0.0906-0.0129 0.13133-0.0137zm-0.54453 0.12897c-0.12608 0.0477-0.26523 0.10912-0.42083 0.18694l-3.74 1.805zm1.8566 4.5331c-0.0109 0.0178-0.0221 0.0359-0.0331 0.0538-2.9301 2.6991-6.6036 6.3731-9.7962 9.4162 3.1498-2.963 6.7336-6.5239 9.7594-9.316z" fill="#b3b3b3" style="paint-order:markers fill stroke"/><ellipse cx="228.25" cy="373" rx="7.7849" ry="6.2958" fill="#ccc" style="paint-order:markers fill stroke"/><path d="m948.77 506.44c-0.87394 2.1761-2.5541 2.9712-4.1868 3.8474 0.611 0.26605 1.6147 0.36127 2.9749 0.30155h1e-4l1.5217-1.7985c0.19143-0.16178 0.33505-0.16547 0.49802-0.0615 0.34449 0.2822 0.91172 0.49364 1.6354 0.65545 0.16421-0.10854 0.35927-0.17515 0.57799-0.20967 0.58595-0.11723 1.1519-0.38234 1.6601-1.076 0.14798 2e-3 0.29597 4e-3 0.44398 5e-3l-0.5807-0.36267c-1.5925 1.3451-4.0251 0.42704-4.5448-1.3007z" fill="#4d4d4d" style="paint-order:markers fill stroke"/><path d="m945.63 468.03c-0.24654-0.10488-0.48389 0.0807-0.50236 0.37078-0.65561 5.4747 0.17299 17.478 0.46626 26.309-0.0933 1.9283 0.39657 3.3445 1.205 4.4811 0.66696 1.4456 1.4151 2.9271 1.7342 4.2184l3e-3 2e-3 0.37319 4.1853c-0.11101-0.19636-0.23827-0.28666-0.65732-0.0526l-1.7989 0.96964c-1.5e-4 9e-5 -3.7e-4 3.6e-4 -7.9e-4 4.4e-4 -6.3477 3.7736-18.191 12.714-26.813 19.303-1.1359 0.81244-0.84203 1.9658 0.0235 1.4953 2.8783-1.3994 15.392-8.7512 23.005-13.313l-0.0316 0.0643c1.183-0.67166 4.2276-4.211 6.4851-6.5378l0.0519-0.12722c0.38587-0.61434 0.85656-0.74866 1.3739-0.61812 0.53202 0.10947 1.1072 0.0785 1.807-0.35953 10.603 4.8584 21.767 8.7197 32.857 12.713 0.47062 0.17792 0.67304-0.65684 0.25695-0.88095l-24.867-12.852c-2.6235-0.36338-5.4433-0.71847-6.9572-1.1283-0.1192-0.90494-0.22944-1.8123-1.7884-2.3187-1.8208-11.741-3.7523-23.532-5.8173-35.382-0.10934-0.31219-0.26058-0.47956-0.4085-0.54249z" fill="#e6e6e6" style="paint-order:markers fill stroke"/><path d="m946.8 499.19c7.8e-4 2e-3 2e-3 2e-3 2e-3 4e-3 0.66697 1.4456 1.4151 2.9271 1.7342 4.2184l2e-4 -1.1e-4 0.37539 4.1858c4e-5 7e-5 4e-5 2e-4 8e-5 2.7e-4 0.17746 0.37179 0.55562 0.76059 1.0758 1.1615 0.17958-0.0375 0.36777-0.026 0.56264 0.0232 0.53202 0.10947 1.1072 0.0785 1.807-0.35953 6.2382 2.8583 12.67 5.3716 19.167 7.7696l-8.671-3.9439c-3.3455-1.5216-8.2403-3.4903-9.2277-4.8219 0.13487-0.31765 0.20523-0.68091 0.18503-1.1085-0.0562-0.0142-0.11075-0.0285-0.16379-0.0429-0.1192-0.90494-0.22944-1.8124-1.7884-2.3187-0.0101-0.0652-0.0201-0.13038-0.0302-0.19557-0.65168-0.12543-1.2987-0.23429-1.9162-0.23656-0.84475-1.6189-1.732-3.1992-3.1127-4.3344zm1.9463 8.2349c-0.0318-0.0132-0.0681-0.0196-0.11073-0.0179 0.0547-8.8e-4 0.10092 0.0102 0.14127 0.0332-0.01-6e-3 -0.0199-0.0108-0.0306-0.0152zm0.0306 0.0152c8e-3 4e-3 0.0149 0.01 0.0223 0.0152-7e-3 -6e-3 -0.0146-0.0107-0.0223-0.0152zm-0.14128-0.0332c-0.0162 4.5e-4 -0.0336 3e-3 -0.0518 6e-3 0.0176-3e-3 0.0357-6e-3 0.0518-6e-3zm-0.21465 0.0568c-0.0497 0.021-0.10455 0.0481-0.16588 0.0823l-1.4743 0.79475zm0.73184 1.996c-4e-3 8e-3 -9e-3 0.0158-0.0131 0.0237-1.155 1.1884-2.6031 2.8061-3.8616 4.146 1.2416-1.3046 2.6543-2.8725 3.8471-4.1019z" fill="#b3b3b3" style="paint-order:markers fill stroke"/><ellipse cx="950.93" cy="506.58" rx="3.0687" ry="2.7721" fill="#ccc" style="paint-order:markers fill stroke"/><ellipse cx="770.06" cy="124.98" rx="74.087" ry="68.1" fill="#ffd42a" filter="url(#c)" opacity=".84" style="paint-order:markers fill stroke"/><path transform="matrix(1.7552 0 0 1.1816 -278.53 -11.897)" d="m375.15 113.13c-7.5 0.0567-5.3399-11.7 1.0583-18.653 10.186-10.299 20.008-5.5098 27.517-1.9844 0.75245-12.821 10.355-25.378 32.147-25.4 19.059 0.14043 35.288 9.7184 32.411 29.501 4.653-3.0557 13.513-6.5903 25.003-2.1167 7.3828 2.7689 15.978 18.904 6.4162 18.852z" fill="#e6e6e6" filter="url(#e)" opacity=".22081" style="mix-blend-mode:normal;paint-order:markers fill stroke"/><path transform="matrix(2.261 0 0 1.5038 -1262.6 -123.9)" d="m916.92 181.77c-5.5556-0.0342-2.5264-6.7486 1.2161-8.8867 6.5836-3.1801 14.314 0.25302 13.33-0.44434-2.4071-1.7054 1.1722-10.459 7.9045-12.558 5.6078-1.8101 10.756-1.9102 15.622 0.0935 1.573-6.6669 5.5746-12.214 19.083-13.377 7.5541-0.42332 13.514 1.2352 16.37 10.196 9.9287-2.1466 19.987-4.754 25.912 7.2965 6.2314 15.475-1.0439 17.762-10.477 17.867z" fill="#e6e6e6" filter="url(#f)" opacity=".22081" style="mix-blend-mode:normal;paint-order:markers fill stroke"/><path transform="matrix(1.6871 0 0 1.164 -52.283 -31.49)" d="m183.43 190.3c5.3875 0.12063-0.41141-9.2829-5.5562-10.583-3.4885-0.73081-7.3-0.85146-11.906 0.52917-0.29094-5.246-2.6474-9.2856-10.583-11.509-5.9681-1.6299-11.875-1.8157-17.595 2.3812-2.0241-8.2569-7.2015-14.894-27.252-13.891-10.599 0.93281-20.959 11.295-17.595 20.77-5.1201-1.3983-9.8146-1.6449-12.832 2.6458-3.0891 4.0728-3.4371 9.814 0.2646 9.7896z" fill="#e6e6e6" filter="url(#d)" opacity=".22081" style="mix-blend-mode:normal;paint-order:markers fill stroke"/><path d="m507.37 647.22c1.6427-3.8538 4.1885-6.1219 8.1474-5.9088-0.52773 2.9625-3.5479 4.794-8.1474 5.9088z" fill="#250" style="paint-order:markers fill stroke"/><path d="m502.92 646.27c-3.6926-2.7576-0.98575-6.9286 1.8899-11.137 0.27822 3.4385 3.651 5.9443-1.8899 11.137z" fill="#250" style="paint-order:markers fill stroke"/><path d="m496.56 646.92c-4.9173-2.2557-4.4126-6.2411-6.6173-9.7376 6.2809 2.68 7.8155 5.7747 6.6173 9.7376z" fill="#250" style="paint-order:markers fill stroke"/><path d="m490.4 647.59c-0.34582-2.9586-0.70741-5.9114-5.6883-7.1886 2.5884 4.6435 4.161 5.9896 5.6883 7.1886z" fill="#250" style="paint-order:markers fill stroke"/><path d="m332.02 588.26c2.1084-6.1872 5.376-9.8286 10.457-9.4864-0.67735 4.7563-4.5538 7.6967-10.457 9.4864z" fill="#250" style="paint-order:markers fill stroke"/><path d="m326.31 586.73c-4.7396-4.4274-1.2652-11.124 2.4258-17.88 0.3571 5.5205 4.6862 9.5435-2.4258 17.88z" fill="#250" style="paint-order:markers fill stroke"/><path d="m318.15 587.77c-6.3114-3.6214-5.6637-10.02-8.4934-15.633 8.0617 4.3026 10.031 9.2712 8.4934 15.633z" fill="#250" style="paint-order:markers fill stroke"/><path d="m310.25 588.85c-0.44387-4.7499-0.90798-9.4906-7.301-11.541 3.3222 7.455 5.3407 9.6162 7.301 11.541z" fill="#250" style="paint-order:markers fill stroke"/><path d="m231.42 656.75c5.3109-0.88773 9.1928-3.6543 10.383-6.1767-3.1688 0.57743-7.9219 2.3419-10.383 6.1767z" fill="#250" style="paint-order:markers fill stroke"/><path d="m221.22 657.12c-0.1776-5.703 2.4371-10.966 11.225-15.258-1.3343 6.3051-4.2711 11.799-11.225 15.258z" fill="#250" style="paint-order:markers fill stroke"/><path d="m212.43 658.42c4.9273-6.3152 7.2518-18.181 1.4967-21.061-4.0172 1.4168-5.0392 13.837-1.4967 21.061z" fill="#250" style="paint-order:markers fill stroke"/><path d="m204.66 657.65c1.1164-11.076-3.4851-14.649-10.57-14.963 1.7524 7.0702 5.8485 11.384 10.57 14.963z" fill="#250" style="paint-order:markers fill stroke"/><path d="m184.74 650.35c3.8446-1.3407 6.1034 1.8645 8.2319 5.4428-2.3812-0.51149-4.6458-0.60461-8.2319-5.4428z" fill="#250" style="paint-order:markers fill stroke"/><path d="m119.08 640.56c-1.2093-5.2842-3.9987-8.645-9.2604-8.9958-0.0375 3.9454 3.4839 6.8123 9.2604 8.9958z" fill="#250" style="paint-order:markers fill stroke"/><path d="m125.16 640.03c5.54-3.008 3.0087-8.8746 0.26458-14.817-1.2156 4.4378-6.2725 7.1684-0.26458 14.817z" fill="#250" style="paint-order:markers fill stroke"/><path d="m133.36 641.88c7.0274-2.1592 7.3479-7.4342 11.112-11.642-8.9264 2.4957-11.71 6.2859-11.112 11.642z" fill="#250" style="paint-order:markers fill stroke"/><path d="m141.3 643.73c1.1859-3.8015 2.3912-7.593 9.2604-8.4667-4.5529 5.6416-6.9547 7.1465-9.2604 8.4667z" fill="#250" style="paint-order:markers fill stroke"/><path d="m97.815 674.03c2.2009-5.046 5.6119-8.0157 10.916-7.7366-0.70708 3.879-4.7536 6.277-10.916 7.7366z" fill="#250" style="paint-order:markers fill stroke"/><path d="m91.856 672.79c-4.9476-3.6107-1.3208-9.0719 2.5322-14.582 0.37278 4.5022 4.8918 7.7831-2.5322 14.582z" fill="#250" style="paint-order:markers fill stroke"/><path d="m83.341 673.64c-6.5884-2.9534-5.9122-8.1717-8.8661-12.75 8.4155 3.509 10.472 7.5611 8.8661 12.75z" fill="#250" style="paint-order:markers fill stroke"/><path d="m75.09 674.52c-0.46336-3.8738-0.94782-7.74-7.6214-9.4123 3.468 6.0799 5.5751 7.8425 7.6214 9.4123z" fill="#250" style="paint-order:markers fill stroke"/><path d="m815.51 625c-5.3109-0.88773-9.1928-3.6543-10.383-6.1767 3.1688 0.57743 7.9219 2.3419 10.383 6.1767z" fill="#250" style="paint-order:markers fill stroke"/><path d="m825.71 625.37c0.1776-5.703-2.4371-10.966-11.225-15.258 1.3343 6.3051 4.2711 11.799 11.225 15.258z" fill="#250" style="paint-order:markers fill stroke"/><path d="m834.5 626.67c-4.9273-6.3152-7.2518-18.181-1.4967-21.061 4.0172 1.4168 5.0392 13.837 1.4967 21.061z" fill="#250" style="paint-order:markers fill stroke"/><path d="m842.26 625.9c-1.1164-11.076 3.4851-14.649 10.57-14.963-1.7524 7.0702-5.8485 11.384-10.57 14.963z" fill="#250" style="paint-order:markers fill stroke"/><path d="m862.19 618.6c-3.8446-1.3407-6.1034 1.8645-8.2319 5.4428 2.3812-0.51149 4.6458-0.60461 8.2319-5.4428z" fill="#250" style="paint-order:markers fill stroke"/><path d="m927.85 608.81c1.2093-5.2842 3.9987-8.645 9.2604-8.9958 0.0375 3.9454-3.4839 6.8123-9.2604 8.9958z" fill="#250" style="paint-order:markers fill stroke"/><path d="m921.77 608.28c-5.54-3.008-3.0087-8.8746-0.26458-14.817 1.2156 4.4378 6.2725 7.1684 0.26458 14.817z" fill="#250" style="paint-order:markers fill stroke"/><path d="m913.57 610.13c-7.0274-2.1592-7.3479-7.4342-11.112-11.642 8.9264 2.4957 11.71 6.2859 11.112 11.642z" fill="#250" style="paint-order:markers fill stroke"/><path d="m905.63 611.98c-1.1859-3.8015-2.3912-7.593-9.2604-8.4667 4.5529 5.6416 6.9547 7.1465 9.2604 8.4667z" fill="#250" style="paint-order:markers fill stroke"/><path d="m949.11 642.28c-2.2009-5.046-5.6119-8.0157-10.916-7.7366 0.70708 3.879 4.7536 6.277 10.916 7.7366z" fill="#250" style="paint-order:markers fill stroke"/><path d="m955.07 641.04c4.9476-3.6107 1.3208-9.0719-2.5322-14.582-0.37278 4.5022-4.8918 7.7831 2.5322 14.582z" fill="#250" style="paint-order:markers fill stroke"/><path d="m963.59 641.89c6.5884-2.9534 5.9122-8.1717 8.8661-12.75-8.4155 3.509-10.472 7.5611-8.8661 12.75z" fill="#250" style="paint-order:markers fill stroke"/><path d="m971.84 642.77c0.46336-3.8738 0.94782-7.74 7.6214-9.4123-3.468 6.0799-5.5751 7.8425-7.6214 9.4123z" fill="#250" style="paint-order:markers fill stroke"/><path d="m299.96 653.92c-4.6983-0.65908-8.1324-2.713-9.1857-4.5858 2.8033 0.42871 7.0082 1.7387 9.1857 4.5858z" fill="#250" style="paint-order:markers fill stroke"/><path d="m308.98 654.19c0.15711-4.2341-2.156-8.1419-9.9306-11.328 1.1804 4.6811 3.7785 8.7598 9.9306 11.328z" fill="#250" style="paint-order:markers fill stroke"/><path d="m316.76 655.16c-4.3589-4.6886-6.4153-13.498-1.324-15.637 3.5538 1.0518 4.4579 10.273 1.324 15.637z" fill="#250" style="paint-order:markers fill stroke"/><path d="m323.63 654.59c-0.98762-8.2235 3.0831-10.876 9.3512-11.109-1.5503 5.2492-5.1739 8.4522-9.3512 11.109z" fill="#250" style="paint-order:markers fill stroke"/><path d="m341.26 649.17c-3.4012-0.99535-5.3994 1.3842-7.2824 4.0409 2.1065-0.37974 4.1099-0.44888 7.2824-4.0409z" fill="#250" style="paint-order:markers fill stroke"/><path d="m399.35 641.9c1.0698-3.9232 3.5375-6.4183 8.1923-6.6788 0.0332 2.9292-3.0821 5.0577-8.1923 6.6788z" fill="#250" style="paint-order:markers fill stroke"/><path d="m393.96 641.5c-4.901-2.2333-2.6617-6.5888-0.23406-11 1.0754 3.2948 5.549 5.322 0.23406 11z" fill="#250" style="paint-order:markers fill stroke"/><path d="m386.71 642.88c-6.2168-1.6031-6.5003-5.5194-9.8307-8.6432 7.8968 1.8529 10.359 4.6668 9.8307 8.6432z" fill="#250" style="paint-order:markers fill stroke"/><path d="m379.69 644.25c-1.0491-2.8223-2.1154-5.6373-8.1923-6.2859 4.0277 4.1885 6.1525 5.3058 8.1923 6.2859z" fill="#250" style="paint-order:markers fill stroke"/><path d="m418.16 666.75c-1.9471-3.7463-4.9646-5.9511-9.6571-5.7439 0.62553 2.8799 4.2053 4.6602 9.6571 5.7439z" fill="#250" style="paint-order:markers fill stroke"/><path d="m423.43 665.83c4.3769-2.6807 1.1684-6.7353-2.2402-10.826-0.32978 3.3426-4.3276 5.7785 2.2402 10.826z" fill="#250" style="paint-order:markers fill stroke"/><path d="m430.96 666.46c5.8285-2.1927 5.2303-6.0669 7.8434-9.4659-7.4448 2.6052-9.2637 5.6136-7.8434 9.4659z" fill="#250" style="paint-order:markers fill stroke"/><path d="m438.26 667.11c0.40991-2.876 0.83849-5.7464 6.7423-6.988-3.068 4.5139-4.932 5.8225-6.7423 6.988z" fill="#250" style="paint-order:markers fill stroke"/><path d="m632.18 653.54c1.0698-3.9232 3.5375-6.4183 8.1923-6.6788 0.0332 2.9292-3.0821 5.0577-8.1923 6.6788z" fill="#250" style="paint-order:markers fill stroke"/><path d="m626.8 653.14c-4.901-2.2333-2.6617-6.5888-0.23406-11 1.0754 3.2948 5.549 5.322 0.23406 11z" fill="#250" style="paint-order:markers fill stroke"/><path d="m619.54 654.52c-6.2168-1.6031-6.5003-5.5194-9.8307-8.6432 7.8968 1.8529 10.359 4.6668 9.8307 8.6432z" fill="#250" style="paint-order:markers fill stroke"/><path d="m612.52 655.89c-1.0491-2.8223-2.1154-5.6373-8.1923-6.2859 4.0277 4.1885 6.1525 5.3058 8.1923 6.2859z" fill="#250" style="paint-order:markers fill stroke"/><path d="m650.99 678.39c-1.9471-3.7463-4.9646-5.9511-9.6571-5.7439 0.62553 2.8799 4.2053 4.6602 9.6571 5.7439z" fill="#250" style="paint-order:markers fill stroke"/><path d="m656.26 677.47c4.3769-2.6807 1.1684-6.7353-2.2402-10.826-0.32978 3.3426-4.3276 5.7785 2.2402 10.826z" fill="#250" style="paint-order:markers fill stroke"/><path d="m663.79 678.1c5.8285-2.1927 5.2303-6.0669 7.8434-9.4659-7.4448 2.6052-9.2637 5.6136-7.8434 9.4659z" fill="#250" style="paint-order:markers fill stroke"/><path d="m671.09 678.75c0.40991-2.876 0.83849-5.7464 6.7423-6.988-3.068 4.5139-4.932 5.8225-6.7423 6.988z" fill="#250" style="paint-order:markers fill stroke"/><path d="m711.31 623.36c-1.9471-3.7463-4.9646-5.9511-9.6571-5.7439 0.62553 2.8799 4.2053 4.6602 9.6571 5.7439z" fill="#250" style="paint-order:markers fill stroke"/><path d="m716.59 622.44c4.3769-2.6807 1.1684-6.7353-2.2402-10.826-0.32978 3.3426-4.3276 5.7785 2.2402 10.826z" fill="#250" style="paint-order:markers fill stroke"/><path d="m724.12 623.07c5.8285-2.1927 5.2303-6.0669 7.8434-9.4659-7.4448 2.6052-9.2637 5.6136-7.8434 9.4659z" fill="#250" style="paint-order:markers fill stroke"/><path d="m731.42 623.72c0.40991-2.876 0.83849-5.7464 6.7423-6.988-3.068 4.5139-4.932 5.8225-6.7423 6.988z" fill="#250" style="paint-order:markers fill stroke"/><path d="m417.34 585.8c1.0698-3.9232 3.5375-6.4183 8.1923-6.6788 0.0332 2.9292-3.0821 5.0577-8.1923 6.6788z" fill="#250" style="paint-order:markers fill stroke"/><path d="m411.96 585.41c-4.901-2.2333-2.6617-6.5888-0.23406-11 1.0754 3.2948 5.549 5.322 0.23406 11z" fill="#250" style="paint-order:markers fill stroke"/><path d="m404.7 586.79c-6.2168-1.6031-6.5003-5.5194-9.8307-8.6432 7.8968 1.8529 10.359 4.6668 9.8307 8.6432z" fill="#250" style="paint-order:markers fill stroke"/><path d="m397.68 588.16c-1.0491-2.8223-2.1154-5.6373-8.1923-6.2859 4.0277 4.1885 6.1525 5.3058 8.1923 6.2859z" fill="#250" style="paint-order:markers fill stroke"/><path d="m436.15 610.66c-1.9471-3.7463-4.9646-5.9511-9.6571-5.7439 0.62553 2.8799 4.2053 4.6602 9.6571 5.7439z" fill="#250" style="paint-order:markers fill stroke"/><path d="m441.42 609.74c4.3769-2.6807 1.1684-6.7353-2.2402-10.826-0.32978 3.3426-4.3276 5.7785 2.2402 10.826z" fill="#250" style="paint-order:markers fill stroke"/><path d="m448.95 610.37c5.8285-2.1927 5.2303-6.0669 7.8434-9.4659-7.4448 2.6052-9.2637 5.6136-7.8434 9.4659z" fill="#250" style="paint-order:markers fill stroke"/><path d="m456.25 611.02c0.40991-2.876 0.83849-5.7464 6.7423-6.988-3.068 4.5139-4.932 5.8225-6.7423 6.988z" fill="#250" style="paint-order:markers fill stroke"/><path d="m281.77 576.09c3.4643-0.56437 5.9964-2.3232 6.773-3.9268-2.067 0.3671-5.1674 1.4889-6.773 3.9268z" fill="#250" style="paint-order:markers fill stroke"/><path d="m275.12 576.33c-0.11584-3.6256 1.5897-6.9719 7.3222-9.7004-0.87037 4.0084-2.786 7.501-7.3222 9.7004z" fill="#250" style="paint-order:markers fill stroke"/><path d="m269.39 577.16c3.214-4.0148 4.7303-11.559 0.97628-13.39-2.6204 0.9007-3.287 8.7969-0.97628 13.39z" fill="#250" style="paint-order:markers fill stroke"/><path d="m264.32 576.67c0.72821-7.0418-2.2733-9.3133-6.8951-9.5124 1.1431 4.4949 3.8149 7.2376 6.8951 9.5124z" fill="#250" style="paint-order:markers fill stroke"/><path d="m251.33 572.03c2.5078-0.85232 3.9812 1.1853 5.3696 3.4602-1.5532-0.32518-3.0304-0.38438-5.3696-3.4602z" fill="#250" style="paint-order:markers fill stroke"/><path d="m208.49 565.8c-0.78885-3.3594-2.6083-5.496-6.0405-5.7191-0.0245 2.5083 2.2725 4.3309 6.0405 5.7191z" fill="#250" style="paint-order:markers fill stroke"/><path d="m212.46 565.46c3.6137-1.9124 1.9626-5.642 0.17258-9.4196-0.79291 2.8213-4.0915 4.5573-0.17258 9.4196z" fill="#250" style="paint-order:markers fill stroke"/><path d="m217.81 566.64c4.5839-1.3727 4.793-4.7263 7.2486-7.4011-5.8226 1.5866-7.6384 3.9962-7.2486 7.4011z" fill="#250" style="paint-order:markers fill stroke"/><path d="m222.99 567.82c0.77357-2.4168 1.5598-4.8272 6.0405-5.3826-2.9698 3.5866-4.5365 4.5433-6.0405 5.3826z" fill="#250" style="paint-order:markers fill stroke"/><path d="m194.63 587.08c1.4357-3.2079 3.6606-5.0959 7.1206-4.9185-0.46122 2.466-3.1008 3.9906-7.1206 4.9185z" fill="#250" style="paint-order:markers fill stroke"/><path d="m190.74 586.3c-3.2273-2.2955-0.86152-5.7674 1.6518-9.2704 0.24316 2.8623 3.1909 4.9481-1.6518 9.2704z" fill="#250" style="paint-order:markers fill stroke"/><path d="m185.18 586.83c-4.2976-1.8776-3.8565-5.1951-5.7833-8.1056 5.4894 2.2308 6.8305 4.8069 5.7833 8.1056z" fill="#250" style="paint-order:markers fill stroke"/><path d="m179.8 587.39c-0.30225-2.4627-0.61826-4.9207-4.9714-5.9838 2.2622 3.8653 3.6366 4.9858 4.9714 5.9838z" fill="#250" style="paint-order:markers fill stroke"/><path d="m195.92 607.29c-2.9399-0.38922-5.0888-1.6022-5.7479-2.7081 1.7541 0.25317 4.3852 1.0268 5.7479 2.7081z" fill="#250" style="paint-order:markers fill stroke"/><path d="m201.56 607.45c0.0983-2.5004-1.3491-4.8081-6.2139-6.6898 0.73864 2.7644 2.3643 5.1731 6.2139 6.6898z" fill="#250" style="paint-order:markers fill stroke"/><path d="m206.43 608.02c-2.7276-2.7688-4.0143-7.9715-0.82851-9.2342 2.2238 0.62116 2.7895 6.0668 0.82851 9.2342z" fill="#250" style="paint-order:markers fill stroke"/><path d="m210.73 607.69c-0.61799-4.8564 1.9292-6.4229 5.8514-6.5602-0.97007 3.0999-3.2375 4.9914-5.8514 6.5602z" fill="#250" style="paint-order:markers fill stroke"/><path d="m221.76 604.49c-2.1282-0.5878-3.3786 0.81746-4.5569 2.3863 1.3181-0.22426 2.5717-0.26509 4.5569-2.3863z" fill="#250" style="paint-order:markers fill stroke"/><path d="m258.11 600.19c0.66945-2.3168 2.2135-3.7903 5.1262-3.9441 0.0208 1.7298-1.9286 2.9868-5.1262 3.9441z" fill="#250" style="paint-order:markers fill stroke"/><path d="m254.74 599.96c-3.0667-1.3188-1.6655-3.891-0.14646-6.4962 0.6729 1.9457 3.4722 3.1429 0.14646 6.4962z" fill="#250" style="paint-order:markers fill stroke"/><path d="m250.2 600.77c-3.8901-0.9467-4.0675-3.2595-6.1514-5.1042 4.9413 1.0942 6.4823 2.756 6.1514 5.1042z" fill="#250" style="paint-order:markers fill stroke"/><path d="m245.81 601.58c-0.65649-1.6667-1.3237-3.3291-5.1262-3.7121 2.5203 2.4735 3.8498 3.1333 5.1262 3.7121z" fill="#250" style="paint-order:markers fill stroke"/><path d="m269.88 614.87c-1.2184-2.2124-3.1065-3.5144-6.0428-3.392 0.39141 1.7007 2.6314 2.7521 6.0428 3.392z" fill="#250" style="paint-order:markers fill stroke"/><path d="m273.18 614.33c2.7388-1.5831 0.73112-3.9775-1.4018-6.3933-0.20636 1.974-2.7079 3.4124 1.4018 6.3933z" fill="#250" style="paint-order:markers fill stroke"/><path d="m277.89 614.7c3.6471-1.2949 3.2728-3.5828 4.9079-5.59-4.6585 1.5385-5.7967 3.3151-4.9079 5.59z" fill="#250" style="paint-order:markers fill stroke"/><path d="m282.46 615.08c0.2565-1.6984 0.52467-3.3936 4.2189-4.1267-1.9198 2.6657-3.0861 3.4385-4.2189 4.1267z" fill="#250" style="paint-order:markers fill stroke"/><path d="m932.82 674.4c-3.6021-0.64003-6.235-2.6346-7.0425-4.4532 2.1492 0.41631 5.373 1.6885 7.0425 4.4532z" fill="#250" style="paint-order:markers fill stroke"/><path d="m939.74 674.68c0.12045-4.1117-1.653-7.9065-7.6135-11.001 0.90499 4.5458 2.8968 8.5066 7.6135 11.001z" fill="#250" style="paint-order:markers fill stroke"/><path d="m945.7 675.61c-3.3419-4.553-4.9185-13.108-1.0151-15.185 2.7247 1.0214 3.4178 9.9761 1.0151 15.185z" fill="#250" style="paint-order:markers fill stroke"/><path d="m950.97 675.06c-0.75719-7.9858 2.3638-10.562 7.1694-10.788-1.1886 5.0974-3.9667 8.2078-7.1694 10.788z" fill="#250" style="paint-order:markers fill stroke"/><path d="m964.48 669.79c-2.6076-0.96657-4.1396 1.3442-5.5833 3.9241 1.615-0.36877 3.151-0.43591 5.5833-3.9241z" fill="#250" style="paint-order:markers fill stroke"/><path d="m1009 662.73c0.8202-3.8098 2.7121-6.2327 6.2808-6.4857 0.025 2.8445-2.3629 4.9114-6.2808 6.4857z" fill="#250" style="paint-order:markers fill stroke"/><path d="m1004.9 662.35c-3.7575-2.1687-2.0406-6.3984-0.1794-10.682 0.8244 3.1995 4.2543 5.1682 0.1794 10.682z" fill="#250" style="paint-order:markers fill stroke"/><path d="m999.33 663.69c-4.7663-1.5568-4.9837-5.3599-7.537-8.3933 6.0543 1.7993 7.9424 4.5319 7.537 8.3933z" fill="#250" style="paint-order:markers fill stroke"/><path d="m993.94 665.02c-0.80436-2.7407-1.6218-5.4743-6.2809-6.1042 3.088 4.0674 4.717 5.1524 6.2809 6.1042z" fill="#250" style="paint-order:markers fill stroke"/><path d="m1023.4 686.87c-1.4928-3.638-3.8063-5.7791-7.404-5.5778 0.4796 2.7966 3.2242 4.5255 7.404 5.5778z" fill="#250" style="paint-order:markers fill stroke"/><path d="m1027.5 685.97c3.3557-2.6032 0.8958-6.5406-1.7175-10.513-0.2528 3.246-3.3179 5.6114 1.7175 10.513z" fill="#250" style="paint-order:markers fill stroke"/><path d="m1033.3 686.59c4.4686-2.1293 4.01-5.8915 6.0134-9.1922-5.7077 2.5299-7.1023 5.4513-6.0134 9.1922z" fill="#250" style="paint-order:markers fill stroke"/><path d="m1038.8 687.22c0.3143-2.7929 0.6428-5.5803 5.1692-6.786-2.3522 4.3834-3.7813 5.6542-5.1692 6.786z" fill="#250" style="paint-order:markers fill stroke"/></g></svg>