<?xml version='1.0' encoding='utf-8'?>
<svg xmlns="http://www.w3.org/2000/svg" width="4e3" height="2667" version="1.1" viewBox="0 0 1058.3 705.64"><defs><filter id="h" x="-.014845" y="-.048089" width="1.0297" height="1.0962" color-interpolation-filters="sRGB"><feGaussianBlur stdDeviation="0.66735536"/></filter><filter id="g" x="-.015282" y="-.045219" width="1.0306" height="1.0904" color-interpolation-filters="sRGB"><feGaussianBlur stdDeviation="0.66735536"/></filter><filter id="f" x="-.011994" y="-.034641" width="1.024" height="1.0693" color-interpolation-filters="sRGB"><feGaussianBlur stdDeviation="0.66735536"/></filter><filter id="e" x="-.014845" y="-.048089" width="1.0297" height="1.0962" color-interpolation-filters="sRGB"><feGaussianBlur stdDeviation="0.66735536"/></filter><linearGradient id="b" x1="696.54" x2="735.42" y1="379.22" y2="354.88" gradientUnits="userSpaceOnUse"><stop stop-color="#d45500" offset="0"/><stop stop-color="#d45500" stop-opacity="0" offset="1"/></linearGradient><filter id="a" x="-.07865" y="-.12505" width="1.1573" height="1.2501" color-interpolation-filters="sRGB"><feGaussianBlur stdDeviation="1.5702715"/></filter><filter id="i" x="-.053562" y="-.23853" width="1.1071" height="1.4771" color-interpolation-filters="sRGB"><feGaussianBlur stdDeviation="6.7049779"/></filter><filter id="d" x="-.011879" y="-.011375" width="1.0238" height="1.0228" color-interpolation-filters="sRGB"><feGaussianBlur stdDeviation="0.8429716"/></filter><filter id="c" x="-.056611" y="-.19238" width="1.1132" height="1.3848" color-interpolation-filters="sRGB"><feGaussianBlur stdDeviation="5.6623886"/></filter><filter id="k" x="-.013055" y="-.011177" width="1.0285" height="1.0243" color-interpolation-filters="sRGB"><feGaussianBlur stdDeviation="1.210827"/></filter><filter id="j" x="-.057088" y="-.18707" width="1.1142" height="1.3741" color-interpolation-filters="sRGB"><feGaussianBlur stdDeviation="4.0201598"/></filter></defs><g><rect x=".00057052" y=".00094525" width="1058.3" height="705.64" fill="#164450" stroke-linecap="round" stroke-linejoin="round" stroke-width=".10574" style="paint-order:markers fill stroke"/><rect x=".00057052" y=".00094525" width="1058.3" height="705.64" fill="#59f" stroke-linecap="round" stroke-linejoin="round" stroke-width=".10574" style="paint-order:markers fill stroke"/><g transform="matrix(-.056597 .0037634 .0039271 .059058 540.56 360.38)" filter="url(#k)" opacity=".8"><rect transform="rotate(-.92307)" x="335.46" y="165.18" width="6.7684" height="218.21" rx="1.1307" ry="1.2673" stroke="#1a1a1a"/><path d="m310.36 391.65 17.14-14.29 80.714-3.2143 2.1428 6.4286v7.1428z" stroke="#000" stroke-width="1px"/><path d="m248.21 390.93 26.429 23.571 2.8571 3.9286 186.79-5 5-3.9286 0.35715-1.0714-3.2143-7.5-3.5714-10.357-3.2143-5.3572-60.714-1.0714-2.1429 3.9286-148.57 0.71428z" stroke="#000" stroke-width="1px"/><rect x="337.68" y="158.43" width="7.8571" height="1.9643" rx="1.1307" ry="1.2673"/><path d="m246.96 390.04 216.07 0.53572" stroke="#000" stroke-width="1px"/><path d="m338.4 160.65-85.86 228.04" stroke="#000" stroke-width="1px"/><path d="m338.53 363.82 3.4093 2.9042" stroke="#000" stroke-width="1px"/><path d="m254.31 383.64c30.372-3.0872 58.246-9.9154 84.6-19.698-25.271-60.225-32.548-120.49-8.7757-181.39z" stroke="#000" stroke-width="1px"/><path d="m348.5 359.14 62.629-3.283c-31.582-61.763-56.715-125.48-66.165-193.95z" stroke="#000" stroke-width="1px"/></g><path d="m8.953e-4 386.31c24.817-1.1713 97.565-2.5696 133.27-1.6839 123.21 4.4784 182.62 3.2865 304.53 3.0532 269.7-4.8372 304.4-8.2006 451.24-3.407 67.917 2.2436 115.92-0.24022 169.3 2.0377v319.33h-1058.3z" fill="#006680" stroke-linecap="round" stroke-linejoin="round" stroke-width=".10498" style="paint-order:markers fill stroke"/><path d="m301.16 136.79c-7.5 0.0567-5.3399-11.7 1.0583-18.653 10.186-10.299 20.008-5.5098 27.517-1.9844 0.75245-12.821 10.355-25.378 32.147-25.4 19.059 0.14043 35.288 9.7184 32.411 29.501 4.653-3.0557 13.513-6.5903 25.003-2.1167 7.3828 2.7689 15.978 18.904 6.4162 18.852z" fill="#e6e6e6" filter="url(#f)" opacity=".22081" style="paint-order:markers fill stroke"/><path d="m589.98 99.157c-5.5556-0.0342-2.5264-6.7486 1.2161-8.8867 6.5836-3.1801 14.314 0.25302 13.33-0.44434-2.4071-1.7054 1.1722-10.459 7.9045-12.558 5.6078-1.8101 10.756-1.9102 15.622 0.0935 1.573-6.6669 5.5746-12.214 19.083-13.377 7.5541-0.42332 13.514 1.2352 16.37 10.196 9.9287-2.1466 19.987-4.754 25.912 7.2965 6.2314 15.475-1.0438 17.762-10.477 17.867z" fill="#e6e6e6" filter="url(#g)" opacity=".22081" style="paint-order:markers fill stroke"/><path d="m932.32 188.51c-5.3875 0.12063 0.41141-9.2829 5.5562-10.583 3.4885-0.73081 7.3-0.85146 11.906 0.52917 0.29094-5.246 2.6474-9.2856 10.583-11.509 5.9681-1.6299 11.875-1.8157 17.595 2.3812 2.0241-8.2569 7.2015-14.894 27.252-13.891 10.599 0.93281 20.959 11.295 17.595 20.77 5.1201-1.3983 9.8146-1.6449 12.832 2.6458 3.0891 4.0728 3.4371 9.814-0.2646 9.7896z" fill="#e6e6e6" filter="url(#h)" opacity=".22081" style="paint-order:markers fill stroke"/><path d="m200.74 112.18c5.3875 0.12063-0.41141-9.2829-5.5562-10.583-3.4885-0.73081-7.3-0.85146-11.906 0.52917-0.29094-5.246-2.6474-9.2855-10.583-11.509-5.9681-1.6299-11.875-1.8157-17.595 2.3812-2.0241-8.2569-7.2015-14.894-27.252-13.891-10.599 0.93281-20.959 11.295-17.595 20.77-5.1201-1.3983-9.8146-1.6449-12.832 2.6458-3.0891 4.0728-3.4371 9.814 0.2646 9.7896z" fill="#e6e6e6" filter="url(#e)" opacity=".22081" style="paint-order:markers fill stroke"/><path d="m-0.0018056 437.84c24.817-0.98197 105.05-8.4726 133.27-1.4117 55.187 13.599 99.544 8.1192 143.61 2.7151 50.947-6.2476 97.207 1.8151 160.91-0.15548 43.738-0.65768 82.336-7.3367 116.17-5.3832 43.508 2.5121 82.552 7.7206 93.744 7.1144 34.782-1.8838 54.415 4.2049 76.75 4.1387 26.707-0.0792 51.463 14.823 76.148 11.186 16.287-2.3992 32.938-4.2148 51.373-2.3444 13.319 1.3514 28.197-4.8359 52.023 2.0892 25.139 0.69621 45.499-1.8436 63.88-5.2225 31.28-5.7499 56.831-13.929 90.451-12.727v267.72h-1058.3z" fill="#0cf" stroke-linecap="round" stroke-linejoin="round" stroke-width=".096126" style="paint-order:markers fill stroke"/><path d="m0.002253 452.98c24.817-0.73472 87.182-6.1019 122.89-5.5464 123.21 2.8092 166.06-5.4561 287.97-5.6024 269.7-3.0342 371.76 0.84281 485.66 59.228 72.407 34.335 120.34 7.8776 161.81 9.9369v194.64h-1058.3z" fill="#ffe680" stroke-linecap="round" stroke-linejoin="round" stroke-width=".083149" style="paint-order:markers fill stroke"/><path d="m962.48 408.79c-18.432 0.6348-27.947-0.86389-50.827 3.8327-5.6566 1.269-42.802 0.53067-51.471-2.2986 27.828 0.86652 47.447-0.21152 68.769-3.1251 20.056-2.5026 22.944 0.85854 33.529 1.591z" fill="#0cf" style="paint-order:markers fill stroke"/><path d="m469.71 419.65c-14.666 0.46243-22.236-0.62931-40.441 2.792-4.5008 0.92441-34.057 0.38658-40.954-1.6744 22.142 0.63122 37.752-0.1541 54.718-2.2765 15.958-1.823 18.256 0.62541 26.678 1.159z" fill="#0cf" style="paint-order:markers fill stroke"/><path d="m346.98 415.07c-14.666-0.46243-22.236 0.62931-40.441-2.792-4.5008-0.92441-34.057-0.38658-40.954 1.6744 22.142-0.63122 37.752 0.1541 54.718 2.2765 15.958 1.823 18.256-0.62541 26.678-1.159z" fill="#80e5ff" style="paint-order:markers fill stroke"/><path d="m155.32 404.86c6.6544 0.40845 9.8527 2.228 18.62-0.70779 2.1815-0.82082 15.33 1.7795 18.055 4.7267-9.81-2.2241-16.945-2.3044-24.926-0.85738-7.4758 1.1515-8.0697-1.9607-11.749-3.1615z" fill="#80e5ff" style="paint-order:markers fill stroke"/><path d="m16.502 404.86c11.067 0.40845 16.387 2.228 30.968-0.70779 3.6282-0.82082 25.497 1.7795 30.028 4.7267-16.316-2.2241-28.183-2.3044-41.456-0.85738-12.434 1.1515-13.421-1.9607-19.54-3.1615z" fill="#0cf" style="paint-order:markers fill stroke"/><path d="m94.29 423.34c11.074 0.14139 16.477-1.4119 30.895 2.244 3.583 0.9999 25.554-0.51173 30.225-3.2304-16.406 1.4115-28.262 0.90274-41.447-1.2013-12.361-1.7672-13.502 1.2921-19.673 2.1877z" fill="#0cf" style="paint-order:markers fill stroke"/><path d="m1042.1 461.23c-9.8985 0.51371-15.008-0.69909-27.296 3.1016-3.0378 1.0269-22.986 0.42944-27.642-1.8601 14.944 0.70122 25.481-0.17118 36.931-2.529 10.771-2.0252 12.322 0.69476 18.006 1.2875z" fill="#aef" style="paint-order:markers fill stroke"/><path d="m1023.4 487.53c-9.8735 0.87007-14.765 2.7828-27.462 0.73066-3.1512-0.59376-22.822 2.7765-27.113 5.6922 14.701-2.776 25.256-3.3797 36.924-2.6399 10.948 0.50517 12.105-2.4043 17.651-3.783z" fill="#aef" style="paint-order:markers fill stroke"/><path d="m392.64 472.81c-1.094-41.772-0.0392-85.188 14.877-139.73 10.45-38.21 21.045-82.524 60-137.55l5.5562 2.9104c-27.011 51.341-42.746 93.593-48.998 139.11-5.3901 39.244-11.74 83.745-4.7127 137.91z" fill="#28170b" style="paint-order:markers fill stroke"/><path d="m467.52 195.53c-11.338 16.016-20.274 31.125-27.503 45.44 3.4671 1.1754 7.0915 2.2843 11.004 3.2722 6.289-14.632 13.623-29.774 22.055-45.802zm-28.781 47.998c-2.0628 4.1741-3.9819 8.2804-5.7754 12.322 3.7895 1.0531 7.8802 1.9668 12.14 2.8029 1.8254-4.6712 3.76-9.383 5.8053-14.149-4.2718-0.68356-8.3888-1.11-12.17-0.97565zm-7.0523 15.236c-1.6878 3.904-3.2601 7.7473-4.7336 11.532 4.2655 0.87429 8.526 1.781 12.743 2.9957 1.6071-4.6258 3.3225-9.2793 5.148-13.973-4.3704-0.33805-8.7512-0.57338-13.157-0.55449zm-6.227 15.436c-2.0499 5.4564-3.9015 10.791-5.6048 16.012 4.5319 0.57392 9.092 1.1993 13.803 2.1012 1.7222-6.0045 3.6263-12.025 5.7164-18.091-5.2852-0.28499-9.8007-0.23982-13.914-0.0227zm-6.6073 19.124c-1.6696 5.2498-3.1971 10.385-4.6349 15.413 4.6187 0.96029 9.4962 1.7824 14.61 2.4784 1.2136-5.4178 2.5717-10.823 4.0773-16.238-4.5466-0.74394-9.1803-1.3662-14.053-1.6536zm-5.7557 19.372c-1.5444 5.5089-2.9956 10.89-4.4251 16.155 5.5142 0.10868 10.998 0.74469 16.473 1.5353 0.91486-5.7002 1.982-11.359 3.205-17.001-5.0925-0.65011-10.143-0.77721-15.253-0.68936zm11.823 19.12c-5.8802-0.15742-11.717-0.26182-17.102 0.17466-0.0994 0.36459-0.19877 0.72845-0.29817 1.0919-1.448 5.2948-2.7656 10.485-3.9631 15.578 6.1935 1.1362 12.442 2.0373 18.494 3.7838 0.67247-5.0517 1.3574-10.014 2.0278-14.894 0.26331-1.917 0.54369-3.8282 0.84078-5.7345zm-13.087 21.293c-3.2202 0.0408-6.3253 0.21231-9.3922 0.42684-1.4682 6.588-2.7367 13.016-3.8297 19.303 6.8306 1.6101 14.783 3.0331 18.235 5.2064-7.1376-0.15554-13.316 0.0584-19.169 0.39687-1.1479 7.1931-2.0696 14.205-2.8024 21.066 7.5126 0.61467 15.142 1.0705 22.132 2.3942 1.002-17.12 2.8892-33.189 4.9088-48.438-3.527-0.30689-6.8624-0.39634-10.083-0.35553zm-17.415 50.904c-0.75322 7.8559-1.2651 15.519-1.5937 23.037 7.7746 0.34398 15.583 0.89264 23.439 1.725-0.0409-8.3572 0.18397-16.469 0.60254-24.359-8.4874 0.60867-17.859 0.81156-22.448-0.40307zm21.866 27.282c-9.4126 1.2019-18.342 1.9307-23.655 0.82527-0.25038 7.5049-0.328 14.873-0.29197 22.152 4.5282-1.0681 9.064-2.0834 13.8-1.6991 4.6427 0.60181 7.4202 1.1527 11.066 1.2914-0.54611-7.721-0.83657-15.239-0.91932-22.569zm0.93379 22.771c-9.1 1.1649-17.23 2.5838-24.848 4.4044 0.0516 4.8116 0.14831 9.5878 0.27285 14.343l26.723 2.6458c-0.94754-7.303-1.6519-14.43-2.1482-21.393z" fill="#784421" style="paint-order:markers fill stroke"/><path d="m397.67 122.5c15.817-5.4123 39.21-5.5448 58.738 13.758 12.303 14.691 19.088 30.658 18.785 50.8 1.8893-20.443 11.607-36.971 30.427-48.948 11.681-6.581 24.219-9.9796 38.365-7.4083 12.85 2.8718 18.642 10.207 22.365 15.254-3.2955-0.58141-6.5395-1.2485-10.194-1.2308-4.9303-2.2628-9.5985-3.6087-14.288-5.0271 2.598 1.9072 5.3039 3.4911 7.6729 6.0854-5.8986 1.7076-11.485 3.5538-16.267 5.758-3.2927-3.5396-7.6525-4.9449-12.044-6.2872 3.7189 2.3959 6.9698 5.3251 8.8248 8.0939-4.4946 2.1642-8.9489 4.2951-13.074 6.5825-3.7323-1.7319-6.8058-3.4812-11.953-4.6236 2.607 2.3428 5.228 4.681 7.4712 7.1451-10.653 7.0395-21.194 14.108-26.723 22.49-2.8978 4.3467-2.3513 9.2363 0.0943 9.0672 24.191 0.77658 38.356 11.301 49.953 24.322 11.293 13.093 14.159 36.136-2.3226 56.403-1.621-5.7078-3.2815-11.421-6.2835-17.301 1.5265-5.3958 3.3923-10.452 3.9288-16.838 0.32095 0.25676-6.1009 13.926-5.9868 12.535 0.14404-1.7562-8.7038-16.642-9.1673-15.715 1.8511-4.0857 2.1191-10.744 2.6192-17.025-1.7107 4.4986-3.5758 8.6886-5.9868 11.787-3.2502-4.973-6.5486-9.8397-10.664-12.909 1.1143-3.6594 0.40893-8.4106-0.18708-13.096-0.84809 3.1681-1.6487 6.4312-3.1805 8.2319-5.3725-6.2796-10.092-9.5098-14.967-13.47-8.9348 3.4012-10.95 2.1152-14.78 2.058l-6.1739-2.4322c-0.70858-0.44286-16.056 7.8826-17.399 9.1674-0.4652 0.44495 0.0753-12.251 0.56128-12.348-1.9439 4.3852-3.9605 8.4795-5.4256 14.78-6.7286 2.0798-12.768 6.8302-18.802 11.225-1.4391-5.3278-1.4915-9.2647-0.93545-13.096-3.0998 2.9819-4.0624 10.849-5.5191 17.586-3.6486 2.0726-6.5231 6.0804-9.7286 9.2609-2.3208-6.6356-1.8402-10.979-1.4967-15.435-2.5508 5.2039-3.8021 11.014-2.6192 17.961-4.7922 3.7219-8.6058 9.2052-12.161 15.154-7.2683-21.676-1.404-31.019 5.6126-39.289 12.917-12.92 22.451-27.882 60.804-25.444 8.5002 1.4406 10.421-0.01 8.7932-5.9868-5.6261-14.168-19.567-24.773-31.805-36.108 3.591-0.99159 8.276-0.67042 13.096-0.18709-7.4099-4.0934-10.927-3.2071-16.183-2.9934-5.3823-5.5919-10.652-8.5854-14.312-11.225 4.6206-0.75968 8.1214-2.017 14.78-1.8709-6.1739-1.914-12.348-1.5803-18.522-1.8709-3.6437-3.3819-8.9458-5.1054-13.739-7.3374z" fill="#217821" style="paint-order:markers fill stroke"/><path d="m367.82 179.61c5.0894-14.345 16.159-24.943 47.521-22.825 15.917 1.5038 33.806 7.9186 49.391 27.689 1.1739-2.7237 12.501-8.5744 21.328 1.1225 8.4684-10.03 26.911-15.384 53.507-10.851 30.281 7.3917 38.515 32.361 39.663 46.024-5.9503-5.2095-9.9253-5.4808-14.593-7.4836 0.19959-5.7374-4.7968-11.475-8.9803-17.212 1.4902 4.4059 4.2883 10.066 3.8741 14.155l-11.732-5.5031c-0.71168-4.6887-3.6233-9.5974-7.8577-14.638 0.67449 4.2037 2.0502 8.7581 0.74835 11.974-4.9196-1.7593-9.9964-4.6186-14.593-4.116-1.6726-3.5462-4.4427-6.9094-8.2319-10.103 1.5595 3.3676 2.8556 6.206 2.5284 9.5736-17.008-4.7793-22.122-3.0173-32.837-4.3351 3.0151 6.3354-0.0241 7.7807-3.3676 8.9803 11.72 15.714 16.218 29.436 13.47 41.16-4.2041 30.519-9.6191 32.355-18.943 40.505-0.12476-2.8999-0.63067-5.7997-1.637-8.6996 3.9175-5.05 5.9963-12.398 8.6061-19.083-3.7577 4.6954-8.516 11.477-10.764 12.482-0.45525-4.909-1.369-9.8181-2.7061-14.727 3.529-2.8459 7.1458-6.8348 10.851-11.974-4.345 2.7264-8.9469 5.3908-11.887 5.8338 0.52631-5.5381 0.35177-11.72-0.88064-18.841 3.5074-0.46924 7.0149-4.0135 10.522-8.6949-3.8302 2.7704-7.5716 4.3869-11.225 4.8643 2.3404-6.3989 0.81461-15.128 1.1226-22.076-5.3454-0.0627-11.017 1.5603-13.47-13.47-7.9754-1.7248-15.943-3.4263-23.573-4.116 2.0865-0.89562 2.4326-2.9516 2.9934-4.8643-1.3675 2.0536-3.9838 2.7077-6.9109 3.8948-5.606-1.6256-10.196-1.7273-15.166-2.3981 1.5575-4.7283 5.5763-7.6516 9.7286-10.477-5.1138 1.7595-9.6322 4.787-14.746 9.1579l-17.125-2.6192c2.5542-4.973 6.2164-7.73 9.7948-10.655-6.5965 1.5527-12.416 6.2139-18.335 10.477-5.2251-1.5866-10.706 0.91551-16.09 1.8709z" fill="#008000" style="paint-order:markers fill stroke"/><path d="m587.19 400.02c11.483 0.36456 17.368-1.2731 31.715 3.087 3.5495 1.1858 26.645-0.0966 31.972-3.0521-17.294 1.274-29.527 0.48372-42.862-2.1167-12.538-2.208-14.256 1.1945-20.825 2.0818z" fill="#0cf" style="paint-order:markers fill stroke"/><path d="m741.55 406.15c-11.472 0.6348-17.394-0.86389-31.634 3.8327-3.5206 1.269-26.639 0.53067-32.035-2.2986 17.32 0.86652 29.53-0.21152 42.801-3.1251 12.483-2.5026 14.28 0.85854 20.868 1.591z" fill="#0cf" style="paint-order:markers fill stroke"/><path d="m834.16 427.9c-14.666 0.51371-22.236-0.69909-40.441 3.1016-4.5008 1.0269-34.057 0.42944-40.954-1.8601 22.142 0.70122 37.752-0.17118 54.718-2.529 15.958-2.0252 18.256 0.69476 26.678 1.2875z" fill="#0cf" style="paint-order:markers fill stroke"/><path d="m919.35 463.88c-14.666 0.51371-22.236-0.69909-40.441 3.1016-4.5008 1.0269-34.057 0.42944-40.954-1.8601 22.142 0.70122 37.752-0.17118 54.718-2.529 15.958-2.0252 18.256 0.69476 26.678 1.2875z" fill="#aef" style="paint-order:markers fill stroke"/><path d="m604.35 592.03c3.906 0.0504 2.9752-1.6489 2.075-2.5754-2.9361-2.1491-6.84-3.2382-11.666-3.3174-2.3347 0.36728-4.5997-0.051-5.5348 3.8583-0.60575 2.8481 0.76029 2.8691 2.1512 2.8545 3.5399-0.77802 8.0778-0.91437 12.974-0.82008z" fill="#784421" style="paint-order:markers fill stroke"/><path d="m506.73 664.39c-3.9042 0.13025-3.0083-1.5877-2.1273-2.5324 2.8915-2.2087 6.7723-3.3774 11.596-3.5553 2.3417 0.31946 4.5977-0.14502 5.6125 3.7443 0.66388 2.8352-0.70145 2.884-2.0923 2.8979-3.5551-0.70547-8.0948-0.74899-12.988-0.55459z" fill="#784421" style="paint-order:markers fill stroke"/><path d="m813.73 674.29c-1.4114 1.9887 6.5607 1.1019 10.054 1.5875 0.93489 0.19403-0.73069-2.1529-2.7781-3.4396-5.342-0.4764-6.1942 0.60688-7.276 1.8521z" fill="#784421" style="paint-order:markers fill stroke"/><path d="m842.34 659.79c-1.7319 2.579 8.0504 1.4289 12.337 2.0587 1.1472 0.25162-0.89661-2.7919-3.409-4.4605-6.5551-0.61781-7.6008 0.78701-8.9283 2.4018z" fill="#784421" style="paint-order:markers fill stroke"/><path d="m860.09 584.12c1.7319 2.579-8.0504 1.4289-12.337 2.0587-1.1472 0.25162 0.89661-2.7919 3.409-4.4605 6.5551-0.61781 7.6008 0.78701 8.9283 2.4018z" fill="#784421" style="paint-order:markers fill stroke"/><path d="m876.2 620.93c3.898 0.25436 3.0573-1.4912 2.2067-2.4634-2.8198-2.2996-6.6615-3.5911-11.477-3.9223-2.3507 0.24483-4.5908-0.2912-5.7288 3.5639-0.7537 2.8126 0.60938 2.9049 1.9991 2.963 3.5757-0.59205 8.1146-0.49118 13-0.14124z" fill="#784421" style="paint-order:markers fill stroke"/><path d="m497.92 565.41c-1.4114 1.9887 6.5607 1.1019 10.054 1.5875 0.93489 0.19403-0.73069-2.1529-2.7781-3.4396-5.342-0.4764-6.1942 0.60688-7.276 1.8521z" fill="#784421" style="paint-order:markers fill stroke"/><path d="m473.22 513.77c-1.4114 1.9887 6.5607 1.1019 10.054 1.5875 0.93489 0.19403-0.73069-2.1529-2.7781-3.4396-5.342-0.4764-6.1942 0.60688-7.276 1.8521z" fill="#784421" style="paint-order:markers fill stroke"/><path d="m537.01 534.82c-1.7319 2.579 8.0504 1.4289 12.337 2.0587 1.1472 0.25162-0.89661-2.7919-3.409-4.4605-6.5551-0.61781-7.6008 0.78701-8.9283 2.4018z" fill="#784421" style="paint-order:markers fill stroke"/><path d="m467.19 602.45c1.4114 1.9887-6.5607 1.1019-10.054 1.5875-0.93489 0.19403 0.73069-2.1529 2.7781-3.4396 5.342-0.4764 6.1942 0.60688 7.276 1.8521z" fill="#784421" style="paint-order:markers fill stroke"/><path d="m424.36 542.3c1.7319 2.579-8.0504 1.4289-12.337 2.0587-1.1472 0.25162 0.89661-2.7919 3.409-4.4605 6.5551-0.61781 7.6008 0.78701 8.9283 2.4018z" fill="#784421" style="paint-order:markers fill stroke"/><path d="m988.62 667.38c-1.4114 1.9887 6.5607 1.1019 10.054 1.5875 0.93489 0.19403-0.73069-2.1529-2.7781-3.4396-5.342-0.4764-6.1942 0.60688-7.276 1.8521z" fill="#784421" style="paint-order:markers fill stroke"/><path d="m1014.8 611.26c-1.4115 1.9887 6.5606 1.1019 10.054 1.5875 0.9348 0.19403-0.7307-2.1529-2.7782-3.4396-5.342-0.4764-6.1942 0.60688-7.276 1.8521z" fill="#784421" style="paint-order:markers fill stroke"/><path d="m1021.7 562.33c-1.7319 2.579 8.0504 1.4289 12.337 2.0587 1.1472 0.25162-0.8966-2.7919-3.4089-4.4605-6.5551-0.61781-7.6008 0.78701-8.9283 2.4018z" fill="#784421" style="paint-order:markers fill stroke"/><path d="m972.11 586.56c1.4114 1.9887-6.5607 1.1019-10.054 1.5875-0.93489 0.19403 0.73069-2.1529 2.7781-3.4396 5.342-0.4764 6.1942 0.60688 7.276 1.8521z" fill="#784421" style="paint-order:markers fill stroke"/><path d="m909.08 569.82c1.7319 2.579-8.0504 1.4289-12.337 2.0587-1.1472 0.25162 0.89661-2.7919 3.409-4.4605 6.5551-0.61781 7.6008 0.78701 8.9283 2.4018z" fill="#784421" style="paint-order:markers fill stroke"/><path d="m961.6 622.95c1.7319 2.579-8.0504 1.4289-12.337 2.0587-1.1472 0.25162 0.8966-2.7919 3.4089-4.4605 6.5551-0.61781 7.6008 0.78701 8.9283 2.4018z" fill="#784421" style="paint-order:markers fill stroke"/><path d="m535.88 568.83c3.906 0.0504 2.9752-1.6489 2.075-2.5754-2.9361-2.1491-6.84-3.2382-11.666-3.3174-2.3347 0.36728-4.5997-0.051-5.5348 3.8583-0.60575 2.8481 0.76029 2.8691 2.1512 2.8545 3.5399-0.77802 8.0778-0.91437 12.974-0.82008z" fill="#784421" style="paint-order:markers fill stroke"/><path d="m55.113 550.76c-3.906 0.0504-2.9752-1.6489-2.075-2.5754 2.9361-2.1491 6.84-3.2382 11.666-3.3174 2.3347 0.36728 4.5997-0.051 5.5348 3.8583 0.60575 2.8481-0.76029 2.8691-2.1512 2.8545-3.5399-0.77802-8.0778-0.91437-12.974-0.82008z" fill="#784421" style="paint-order:markers fill stroke"/><path d="m80.891 666.52c3.9042 0.13025 3.0083-1.5877 2.1273-2.5324-2.8915-2.2087-6.7723-3.3774-11.596-3.5553-2.3417 0.31946-4.5977-0.14502-5.6125 3.7443-0.66388 2.8352 0.70145 2.884 2.0923 2.8979 3.5551-0.70547 8.0948-0.74899 12.988-0.55459z" fill="#784421" style="paint-order:markers fill stroke"/><ellipse transform="scale(-1,1)" cx="-20.929" cy="607.92" rx="5.0514" ry="1.8709" fill="#784421" style="paint-order:markers fill stroke"/><path d="m110.21 602.45c1.4114 1.9887-6.5607 1.1019-10.054 1.5875-0.93489 0.19403 0.73069-2.1529 2.7781-3.4396 5.342-0.4764 6.1942 0.60688 7.276 1.8521z" fill="#784421" style="paint-order:markers fill stroke"/><path d="m124.5 550.7c1.4114 1.9887-6.5607 1.1019-10.054 1.5875-0.93489 0.19403 0.73069-2.1529 2.7781-3.4396 5.342-0.4764 6.1942 0.60688 7.276 1.8521z" fill="#784421" style="paint-order:markers fill stroke"/><path d="m122.45 493.54c1.7319 2.579-8.0504 1.4289-12.337 2.0587-1.1472 0.25162 0.89661-2.7919 3.409-4.4605 6.5551-0.61781 7.6008 0.78701 8.9283 2.4018z" fill="#784421" style="paint-order:markers fill stroke"/><path d="m151.11 582.5c-1.4114 1.9887 6.5607 1.1019 10.054 1.5875 0.93489 0.19403-0.73069-2.1529-2.7781-3.4396-5.342-0.4764-6.1942 0.60688-7.276 1.8521z" fill="#784421" style="paint-order:markers fill stroke"/><path d="m51.383 490.18c-1.7319 2.579 8.0504 1.4289 12.337 2.0587 1.1472 0.25162-0.89661-2.7919-3.409-4.4605-6.5551-0.61781-7.6008 0.78701-8.9283 2.4018z" fill="#784421" style="paint-order:markers fill stroke"/><path d="m123.59 527.56c-3.906 0.0504-2.9752-1.6489-2.075-2.5754 2.9361-2.1491 6.84-3.2382 11.666-3.3174 2.3347 0.36728 4.5997-0.051 5.5348 3.8583 0.60575 2.8481-0.76029 2.8691-2.1512 2.8545-3.5399-0.77802-8.0778-0.91437-12.974-0.82008z" fill="#784421" style="paint-order:markers fill stroke"/><path d="m474.91 500.93c-1.4114 1.9887 6.5607 1.1019 10.054 1.5875 0.93489 0.19403-0.73069-2.1529-2.7781-3.4396-5.342-0.4764-6.1942 0.60688-7.276 1.8521z" fill="#784421" style="paint-order:markers fill stroke"/><path d="m514 470.34c-1.7319 2.579 8.0504 1.4289 12.337 2.0587 1.1472 0.25162-0.89661-2.7919-3.409-4.4605-6.5551-0.61781-7.6008 0.78701-8.9283 2.4018z" fill="#784421" style="paint-order:markers fill stroke"/><path d="m585.07 466.98c1.7319 2.579-8.0504 1.4289-12.337 2.0587-1.1472 0.25162 0.89661-2.7919 3.409-4.4605 6.5551-0.61781 7.6008 0.78701 8.9283 2.4018z" fill="#784421" style="paint-order:markers fill stroke"/><path d="m512.87 504.36c3.906 0.0504 2.9752-1.6489 2.075-2.5754-2.9361-2.1491-6.84-3.2382-11.666-3.3174-2.3347 0.36728-4.5997-0.051-5.5348 3.8583-0.60575 2.8481 0.76029 2.8691 2.1512 2.8545 3.5399-0.77802 8.0778-0.91437 12.974-0.82008z" fill="#784421" style="paint-order:markers fill stroke"/><path d="m386.68 677.09c-3.9042 0.13025-3.0083-1.5877-2.1273-2.5324 2.8915-2.2087 6.7723-3.3774 11.596-3.5553 2.3417 0.31946 4.5977-0.14502 5.6125 3.7443 0.66388 2.8352-0.70145 2.884-2.0923 2.8979-3.5551-0.70547-8.0948-0.74899-12.988-0.55459z" fill="#784421" style="paint-order:markers fill stroke"/><path d="m377.87 578.11c-1.4114 1.9887 6.5607 1.1019 10.054 1.5875 0.93489 0.19403-0.73069-2.1529-2.7781-3.4396-5.342-0.4764-6.1942 0.60688-7.276 1.8521z" fill="#784421" style="paint-order:markers fill stroke"/><path d="m414.91 604.67c-1.4114 1.9887 6.5607 1.1019 10.054 1.5875 0.93489 0.19403-0.73069-2.1529-2.7781-3.4396-5.342-0.4764-6.1942 0.60688-7.276 1.8521z" fill="#784421" style="paint-order:markers fill stroke"/><path d="m388.3 636.48c1.4114 1.9887-6.5607 1.1019-10.054 1.5875-0.93489 0.19403 0.73069-2.1529 2.7781-3.4396 5.342-0.4764 6.1942 0.60688 7.276 1.8521z" fill="#784421" style="paint-order:markers fill stroke"/><path d="m415.82 581.53c3.906 0.0504 2.9752-1.6489 2.075-2.5754-2.9361-2.1491-6.84-3.2382-11.666-3.3174-2.3347 0.36728-4.5997-0.051-5.5348 3.8583-0.60575 2.8481 0.76029 2.8691 2.1512 2.8545 3.5399-0.77802 8.0778-0.91437 12.974-0.82008z" fill="#784421" style="paint-order:markers fill stroke"/><path d="m785.16 594.32c-1.4115 1.9887 6.5606 1.1019 10.054 1.5875 0.9348 0.19403-0.7307-2.1529-2.7782-3.4396-5.342-0.4764-6.1942 0.60688-7.276 1.8521z" fill="#784421" style="paint-order:markers fill stroke"/><path d="m731.94 606.02c1.7319 2.579-8.0504 1.4289-12.337 2.0587-1.1472 0.25162 0.8966-2.7919 3.4089-4.4605 6.5551-0.61781 7.6008 0.78701 8.9283 2.4018z" fill="#784421" style="paint-order:markers fill stroke"/><path d="m605.31 654.46c-1.4114 1.9887 6.5607 1.1019 10.054 1.5875 0.93489 0.19403-0.73069-2.1529-2.7781-3.4396-5.342-0.4764-6.1942 0.60688-7.276 1.8521z" fill="#784421" style="paint-order:markers fill stroke"/><path d="m475.94 487.63c-9.7987 30.912-19.351 13.779-38.603 7.4332-27.091-9.8922-32.781-2.3216-89.347 1.653-15.644 2.0766-22.718-10.412-34.302-23.006-9.3604-9.3265-6.2313-18.612-1.2278-19.746 45.592 0.0946 91.866 5.2608 138.42 12.484 20.354 4.764 28.404 9.8208 25.064 21.182z" fill="#a05a2c" filter="url(#j)" opacity=".46" style="paint-order:markers fill stroke"/><path d="m349.48 480.46c35.808 7.5962 70.634 3.9041 105.47 0.30998 6.7473-1.1943-13.592-9.0341-20.883-8.2114-13.916 1.5701-13.355-15.71-29.325-8.4761-17.406-5.4434-17.74 8.2058-24.896 5.2806-15.191-6.2097-44.079 6.8443-30.364 11.097z" fill="#520" stroke-linecap="round" stroke-linejoin="round" stroke-width=".092024" style="paint-order:markers fill stroke"/><path d="m728.52 566.88c-39.295-15.776-91.767-28.258-142.56-41.16-11.284-3.4094-7.7634-12.852 17.96-17.586 46.897-7.4108 78.465-8.5962 126.85-8.6061 37.01 0.74955 79.998-1.9164 110.38 2.6192 12.682 1.8102 24.47 5.0504 36.295 8.2319 6.6928 1.9518 3e-3 10.64-3.3676 14.219-4.5014 4.9468-9.7895 6.9433-14.967 9.3544 6.8635 2.0012 10.973 7.9081 7.8577 8.2319-53.92 3.2034-97.095 13.36-138.45 24.696z" fill="#784421" filter="url(#i)" opacity=".46" style="paint-order:markers fill stroke"/><path d="m849.01 336.01c-2.5165-17.315-5.3735-27.375-10.944-39.194 18.998 11.905 36.248 10.475 57.074 36.323-19.692-5.6695-33.327-2.0383-46.13 2.8711z" fill="#d45500" style="paint-order:markers fill stroke"/><path d="m780.39 324.11c3.1309-12.521 2.6313-26.216-0.22878-40.675l53.32 9.9157c11.168 7.9825 13.891 26.79 15.528 42.656-20.278-11.669-42.877-16.447-68.62-11.897z" fill="#782121" style="paint-order:markers fill stroke"/><path d="m701.15 306.78c8.4464-20.314 19.683-37.053 39.351-42.989l42.282 13.096c0.60725 16.584 2.0703 33.681-2.3905 47.223-30.203-17.143-54.619-16.924-79.243-17.33z" fill="#162d50" style="paint-order:markers fill stroke"/><path d="m760.33 240.22-64.359 271.65" fill="none" stroke="#520" stroke-linecap="round" stroke-linejoin="round" stroke-width="10.5" style="paint-order:markers fill stroke"/><path d="m760.33 240.22-64.359 271.65" fill="none" stroke="url(#b)" stroke-linecap="round" stroke-linejoin="round" stroke-width="10.5" style="paint-order:markers fill stroke"/><path d="m632.73 286.62c-0.11395-7.1717 9.1927-17.129 22.375-21.639l71.305 7.5406c-7.544 3.1096-20.433 23.304-25.268 34.264-19.307-14.216-42.121-20.916-68.412-20.165z" fill="#782121" style="paint-order:markers fill stroke"/><path d="m589.68 262.71c15.169 4.0518 30.325 8.1609 43.058 23.905-0.1342-5.7782 10.983-16.054 21.328-22.264-21.951-9.4543-43.93-9.6303-64.386-1.6416z" fill="#162d50" style="paint-order:markers fill stroke"/><path d="m734.17 210.56c-74.842-3.1732-119.46 30.345-144.49 52.149 25.232-4.3286 46.109-4.7271 59.611 6.103 20.992-0.68146 37.837-5.0458 78.879 13.791 18.242-0.3099 45.047-1.8647 82.782 18.488 19.604-1.7541 39.895 1.9969 62.309 16.404 6.9046 3.6548 14.005 8.4227 21.853 15.565-11.161-37.493-30.822-97.079-126.99-118.75-11.956-2.092-23.264-3.2943-33.956-3.7476z" fill="#ff0" style="paint-order:markers fill stroke"/><path d="m649.29 268.82c30.894-27.668 59.207-58.873 118.7-54.537 61.458 12.734 106.85 43.272 127.15 118.86-7.131-6.1295-11.366-9.7387-21.88-15.637-16.809-60.471-46.952-82.465-105.97-103.19-22 24.744-31.854 46.358-39.125 68.297-21.083-9.1835-54.967-13.853-78.881-13.791z" fill="#f00" style="paint-order:markers fill stroke"/><path d="m810.94 301.1c-1.5805-33.722-14.716-62.623-43.719-86.872 77.344 21.953 94.878 64.256 106.09 103.31-20.209-11.754-37.237-17.371-62.373-16.437z" fill="#00f" style="paint-order:markers fill stroke"/><path d="m768.54 211.88c-0.70255 9e-3 -1.471 0.50141-1.8707 1.5446-1.505-0.18021-3.1272-0.22173-5.0519-0.17105l1.1431 0.45217c4.0598 1.4472 7.5834 2.2913 10.149 2.0578l0.80357-0.231c-1.3229-0.61352-2.5249-1.0806-3.7104-1.4283 0.23513-1.4467-0.55968-2.2354-1.463-2.2242z" fill="#280b0b" style="paint-order:markers fill stroke"/><ellipse cx="873.4" cy="317.55" rx=".70809" ry=".70324" fill="#2b0000" style="paint-order:markers fill stroke"/><ellipse cx="895.01" cy="332.93" rx=".70809" ry=".70324" fill="#2b0000" style="paint-order:markers fill stroke"/><ellipse cx="848.99" cy="335.88" rx=".70809" ry=".70324" fill="#2b0000" style="paint-order:markers fill stroke"/><ellipse cx="811.02" cy="301.12" rx=".70809" ry=".70324" fill="#2b0000" style="paint-order:markers fill stroke"/><ellipse cx="780.49" cy="324.09" rx=".70809" ry=".70324" fill="#2b0000" style="paint-order:markers fill stroke"/><ellipse cx="728.15" cy="282.58" rx=".70809" ry=".70324" fill="#2b0000" style="paint-order:markers fill stroke"/><ellipse cx="701.19" cy="306.73" rx=".70809" ry=".70324" fill="#2b0000" style="paint-order:markers fill stroke"/><ellipse cx="649.31" cy="268.88" rx=".70809" ry=".70324" fill="#2b0000" style="paint-order:markers fill stroke"/><ellipse cx="632.74" cy="286.42" rx=".70809" ry=".70324" fill="#2b0000" style="paint-order:markers fill stroke"/><ellipse cx="589.97" cy="262.77" rx=".70809" ry=".70324" fill="#2b0000" style="paint-order:markers fill stroke"/><path d="m772.68 484.56 21.515-7.6706c12.928-9.8244 25.858-26.788 28.812-41.908l-18.522 0.74835z" fill="#fc0" style="paint-order:markers fill stroke"/><path d="m764.7 350.88c-1.1816-0.0205-2.3757 0.43654-3.36 1.6743-28.193 40.518-57.066 80.185-85.948 119.84-0.63574-0.10789-1.2727-0.21451-1.9105-0.32039l-27.314-6.0213h-5.2e-4c-0.28421-0.10621-0.56629-0.21427-0.84646-0.32453-5.6846-2.042-7.3431 7.2929-4.1672 8.2682 9.0286 2.5641 17.978 5.4043 26.657 9.1943l-38.91 54.123 6.7019 1.9813 4.7982 0.0274 5.5252-7.3406c27.907 7.2653 64.28 15.12 83.722 21.796l-6.1268 10.439c0.71998 0.33149 1.6424 0.59733 2.9928 1.147 1.632 0.61149 2.6785 1.0518 3.8822 1.4172 0.77794-0.23809 4.6994-1.8248 4.9578-1.9642 10.69-15.766 20.385-32.527 32.072-47.296l67.834 14.555 28.531 10.851c8.7308-0.0947 9.4921-5.4947 5.8772-7.3303l-7.9184-3.1042-31.822-107.24 40.024-62.443c2.3076-4.0081-6.7238-10.315-9.5912-6.2177-1.5363 2.4118-3.0704 4.8257-4.6028 7.2414l-88.136-5.2979c0.72696-1.0675 1.4553-2.1341 2.1849-3.2003 0.85172-1.2293-2.0869-4.4002-5.1067-4.4524zm-2.7621 16.04 88.617 5.1263c-26.701 42.225-53.114 84.737-82.6 124.18l-16.622-5.5842-23.501-73.891c11.754-16.417 22.854-33.16 34.106-49.828zm-40.046 58.013-0.10749 0.24908 19.02 61.734-55.176-12.163 27.826-37.764 7.6693-11.014c0.25668-0.34739 0.513-0.69509 0.76895-1.0428zm100.17 12.817 26.988 89.826-70.115-26.988zm-119.4 48.924 40.913 9.2811 0.44442 1.3989 1.2976 4.2116zm-24.533 0.15606 77.523 27.781-20.241 30.956-84.336-21.101zm95.672 20.738 17.807 7.0978-20.614-3.4494z" fill="#520" style="paint-order:markers fill stroke"/><path d="m760.38 362.3c0.19682 2.1047 4.1611-4.5728 7.2372-3.7618l2.2045-3.2288c0.46916-0.74261-1.2945-2.7393-3.0355-3.7011z" fill="#803300" style="paint-order:markers fill stroke"/><path d="m675.51 472.01 6.2518-0.65011 84.363-116.64c0.55502-0.73863 1.4245-2.5892 0.6496-3.1148-2.5566-1.3542-4.3226-0.51598-5.5052 1.0539z" fill="#d45500" style="paint-order:markers fill stroke"/><path d="m761.5 361.11c-1.5195 2.1283-0.87851 5.0751 0.43924 5.8157-18.714 28.193-37.467 55.887-57.023 82.733l-10.848 21.034-6.0193 0.46302 12.237-16.735-13.692 17.396-5.6224 0.13229z" fill="#803300" style="paint-order:markers fill stroke"/><path d="m646.91 475.68-5.7358-1.674c-2.9333-0.95159-1.4141-5.8637-0.3661-7.0862 1.1296-1.2352 2.4994-2.0608 4.9609-1.0253l5.4488 1.2733z" fill="#d45500" style="paint-order:markers fill stroke"/><path d="m762.07 366.93 10.136 0.60048 0.78135-8.6816-5.3661-0.31626c-4.9617-1.1141-10.202 6.6796-5.5511 8.3974z" fill="#d45500" style="paint-order:markers fill stroke"/><path d="m647.7 475.87 83.322 15.998c0.13593-5.0414-1.4695-5.3148 3.6507-7.2185 8.2184 12.985 24.489 5.3656 40.291-0.37888l82.476-120.8-84.729-4.7528c-1.9332 5.8571-3.8996 11.142-5.8328 17.322-11.011 26.897-22.504 52.962-38.914 70.532-23.516 29.245-49.474 26.175-57.687 24.595l-18.46-4.1267c-5.4705-1.1816-7.8954 8.3153-4.1169 8.825z" fill="#fc0" style="paint-order:markers fill stroke"/><path d="m765.04 503.77-32.544-11.311c-2.8244-1.0384-2.1361-9.4848 3.5057-7.3422l33.668 11.642z" fill="#803300" style="paint-order:markers fill stroke"/><path d="m730.41 566.76 137.23-208.15c0.24304-0.605 0.1481-0.98469-7.5e-4 -1.3284-2.2725-1.8012-5.3486-2.9614-7.2091-0.85438-44.891 68.031-91.74 132.98-134.67 204.09-0.5365 0.98626-1.5387 2.6435-2.1058 3.6287 0.87743 0.41262 5.3882 2.0896 6.7623 2.607z" fill="#d45500" style="paint-order:markers fill stroke"/><path d="m867.44 357.15c-0.686 2.3693-1.3016 3.3532-2.0578 4.3966l-134.97 205.22c1.5429-0.60956 2.9444-1.1121 4.9001-1.927 10.657-16.594 21.471-31.923 32.084-47.328 18.973-27.539 37.79-54.575 57.428-83.793l28.341 95.865-65.128-25.028c-3.5493-1.2483-4.983 3.4359-2.698 7.0735l78.437 31.033c1.7582 0.13032 6.9194-1.0974 7.4616-3.037 0.68977-3.0507-1.4086-3.6957-4.2612-4.7336l-5.3821-2.0681-31.827-107.57c13.667-21.813 26.017-40.681 40.104-62.922 0.45299-1.6205-0.41597-3.8577-2.4324-5.1723z" fill="#803300" style="paint-order:markers fill stroke"/><path d="m639.22 522.96 5.0922 3.9605 30.108-41.273-6.6134-2.4483z" fill="#a40" style="paint-order:markers fill stroke"/><path d="m628.9 537.32 6.7061 1.9795 8.8671-12.602c2.7105-4.143-0.37988-7.3811-2.2156-7.9573z" fill="#d45500" style="paint-order:markers fill stroke"/><path d="m734.17 493.04-6.3589-1.7826c-3.9469-0.88518-1.5364-8.6832 2.8396-7.5789 1.7101 0.452 3.3282 0.81194 5.1304 1.356-5.6462-0.12204-6.5068 6.4196-1.6111 8.0056z" fill="#d45500" style="paint-order:markers fill stroke"/><path d="m663.2 640.54c-0.28937 1.2888-0.45489 3.5668-0.2666 4.3012 0.73873 3.539 3.3384 7.5693 6.1152 11.646 1.9828 6.384 3.3788 12.87 10.272 18.402 8.0086 5.3299 13.058 7.4314 23.362 8.2063 8.3896 0.30905 21.017-0.57385 22.12-6.8386 0.21935-2.012-4e-3 -3.9814-0.9295-5.883z" fill="#a05a2c" style="paint-order:markers fill stroke"/><path d="m677.89 668.38c-2.5237-3.4157-11.769-21.794-14.165-25.812-2.7114-4.4651 5.5395-9.9979 18.863-8.8753 6.2436 0.73239 13.806 9.8279 14.603 11.643 2.8524 5.5801 7.2892 9.0346 12.039 11.605 11.448 6.0496 14.969 11.648 15.479 17.076 0.14985 5.5173-35.099 10.613-46.82-5.6367z" fill="#c87137" style="paint-order:markers fill stroke"/><path d="m699.23 632.07c-0.19787 1.7354-0.25991 5.3963 0.14507 5.6873 5.6243 4.0699 12.112 6.7746 14.797 7.8249 5.8502 2.4368 9.0706 4.592 11.182 7.0629 8.4342 9.2368 16.993 13.906 25.134 15.181 5.0267 0.63025 10.453 1.7794 18.513-0.82059 4.0901-1.5327 7.0208-2.9641 8.5132-7.4146 0.25144-1.6182 0.27404-3.3243-0.28193-5.0982z" fill="#a05a2c" style="paint-order:markers fill stroke"/><path d="m704.07 636.79c-8.0401-4.1549-5.2671-7.6608 2.4999-9.554 7.2968-1.5855 18.336 0.20036 23.58 3.0479 8.8706 4.3811 17.838 8.8058 23.377 10.14 10.855 3.1651 23.849 9.3196 23.715 14.419-0.30611 5.5998-4.2986 6.4026-7.7024 7.9714-15.497 5.5824-28.653-0.89668-36.89-8.0887-8.9216-7.8157-18.581-13.392-28.58-17.936z" fill="#c87137" style="paint-order:markers fill stroke"/><path transform="matrix(.72227 0 0 .62659 171.66 263.54)" d="m695.85 638.17c7.3466 3.4354 24.173 9.4778 45.11 9.1986l-1.9644-9.1206-5.7998-5.0514c0.30203-3.7013-0.34084-7.6389-0.51451-11.459 1.7859 0.75945 3.812 2.0954 6.2207 4.3498l3.8353 7.9045 1.029 17.54c-6.0601 0.71737-12.247 0.16687-18.428-0.32742-14.075-1.6936-19.583-4.6724-26.52-7.4368z" fill="#a05a2c" filter="url(#a)" style="paint-order:markers fill stroke"/><path transform="matrix(.67022 -.01804 .35279 .65045 -7.9379 262.35)" d="m768.4 615.67c7.3466 3.4354 24.173 9.4778 45.11 9.1986l-1.9644-9.1206-5.7998-5.0514c0.30203-3.7013-0.34084-7.6389-0.51451-11.459 1.7859 0.75945 3.812 2.0954 6.2207 4.3498l3.8353 7.9045 1.029 17.54c-6.0601 0.71737-12.247 0.16687-18.428-0.32742-14.075-1.6936-19.583-4.6724-26.52-7.4368z" fill="#a05a2c" filter="url(#a)" style="paint-order:markers fill stroke"/><path d="m690.56 643.35c-2.8352 1.4849-1.2429 2.9699 1.0813 4.4548 4.6279 0.0757 9.5425 0.36182 15.81 1.641 2.4148 0.56847 3.6241 12.885-6.1679 10.523l-26.398-8.0616c-2.3945-1.6857-0.32683-2.1723-2.771-3.6919-2.1015-1.164-2.3036 0.22956-2.7937 1.0692-1.1476 2.0971 1.1618 3.9558 5.4296 6.3739l28.782 8.4404c0.25192 0.0393 0.50394 0.0795 0.75582 0.1185 2.2017 3.1302 2.6205 4.6246 2.1256 5.2805-0.58555 0.93082 1.6125 3.0034 2.6276 2.5696 2.5409-1.4242 1.1135-5.2431 1.0093-8.2636 0.0344-0.0184 0.0687-0.0373 0.10302-0.0566 1.8169-1.9953 3.2335-4.082 3.5134-8.6748 0.10194-3.9432-0.69902-6.2848-4.5943-9.2609-4.7308-2.3488-11.857-2.1952-18.513-2.4618z" fill="#a05a2c" style="paint-order:markers fill stroke"/><path d="m736.06 634.32c-2.648 1.2989-0.67561 2.5037 2.0605 3.6928 4.8452-0.0353 10.034 0.0987 16.842 1.0323 2.6388 0.42278 6.4778 10.67-4.2345 8.909l-29.234-6.1624c-1.7028-0.39523-2.4853-0.94069-3.9892-1.5234-0.96548-0.36481-1.815 0.73889-1.0123 1.3617 2.2887 1.8283 2.118 1.1731 5.6454 3.2935l31.801 6.4277c0.27113 0.0274 0.54253 0.0556 0.81354 0.0828 2.9525 2.5641 3.7022 3.8016 3.323 4.3593-0.41629 0.78888 2.3111 2.4709 3.2797 2.0875 2.3535-1.242 0.065-4.3971-0.67584-6.9143 0.0321-0.016 0.0638-0.0326 0.0957-0.0494 1.4785-1.703 2.5202-3.4736 1.8512-7.3106-0.71867-3.2912-2.0444-5.2274-6.732-7.6269-5.4282-1.8585-12.832-1.5787-19.834-1.6594z" fill="#a05a2c" style="paint-order:markers fill stroke"/><path d="m105.52 618.14c34.4 18.822 66.354 30.308 99.531 45.463 5.3998 2.2635 17.173 6.02 23.171-1.8906l81.973-12.515c7.7381-0.29117 16.304 1.3101 22.451-2.6192l6.361-30.308c-66.101-6.7387-123.34-22.34-198.31-20.206-35.453 2.7513-51.888 12.165-35.173 22.076z" fill="#803300" filter="url(#c)" opacity=".46" style="paint-order:markers fill stroke"/><path d="m213.8 412.15c-1.9166-7.3004-3.5433-14.611-4.7554-21.937-1.71-8.4045 4.0492-16.88 24.233-27.54 18.348-8.8817 34.916-12.172 43.489-3.6062 4.5038 6.0763 9.244 11.899 14.258 17.427 5.5693 6.794-11.65 23.494-23.435 29.497-23.094 12.768-51.536 14.349-53.789 6.1586z" fill="#786721" style="paint-order:markers fill stroke"/><ellipse cx="191.02" cy="638.97" rx="9.9586" ry="9.8417" fill="#520" opacity=".98" style="paint-order:markers fill stroke"/><ellipse cx="187.42" cy="639.06" rx="5.7584" ry="7.5593" fill="#2b1100" opacity=".98" style="paint-order:markers fill stroke"/><ellipse cx="223.48" cy="657.74" rx="9.9586" ry="9.8417" fill="#520" opacity=".98" style="paint-order:markers fill stroke"/><ellipse cx="219.88" cy="657.84" rx="5.7584" ry="7.5593" fill="#2b1100" opacity=".98" style="paint-order:markers fill stroke"/><ellipse cx="339.78" cy="639.94" rx="9.9586" ry="9.8417" fill="#520" opacity=".98" style="paint-order:markers fill stroke"/><ellipse cx="336.17" cy="640.03" rx="5.7584" ry="7.5593" fill="#2b1100" opacity=".98" style="paint-order:markers fill stroke"/><path d="m309.76 454.11c4.7176-0.32442 6.3145 0.1859 12.568 1.9182l22.622 5.6885c4.4669 1.2413 9.4215 5.905 9.6573 11.542l0.3638 144.4c-0.066 11.415-6.4651 16.596-12.932 17.363l-111.12 16.723c-6.1115 0.99065-14.265 0.45715-21.696-4.0229l-23.115-13.34c-6.0631-3.984-6.6462-10.196-6.9152-15.632l-0.13229-140.49c0.17842-6.6165 2.6425-14.131 22.754-16.007z" fill="#f60" style="paint-order:markers fill stroke"/><path d="m232.76 479.71 106.89-8.2021-2.1167-4.7625-109.54 8.2021z" fill="#f95" style="paint-order:markers fill stroke"/><path d="m197.84 490.43 0.1323-14.288 8.7312-6.35 21.431-2.1167c4.7842 0.29238 5.921 3.0558 7.6068 5.9531 3.9166 8.6808-2.1491 12.474-5.6224 16.272-3.6187 3.4287-8.2285 5.8032-12.832 6.7469-10.197-1.5011-13.287-3.2909-19.447-6.2177z" fill="#fc0" opacity=".98" style="paint-order:markers fill stroke"/><path d="m318.71 461.08 9.9157 3.5547c1.3972 0.50439 5.7506 6.6685 7.0158 8.8867 4.8957 6.1632 10.313 11.457 19.27 10.851l-0.18708-14.312c-0.9181-5.0142-5.0487-7.9851-9.2141-8.5827-3.2627-0.34467-6.4277-1.3727-9.6351-2.1048z" fill="#fc0" opacity=".98" style="paint-order:markers fill stroke"/><path d="m201.55 643.29c-2.7169-4.2278-3.0524-10.098-3.112-15.153l0.52916-144.93c0.0254-7.3976 7.0509-12.88 16.669-13.891l123.23-9.1385-7.4569-1.8758-120.08 8.6622c-12.011 1.1617-17.933 8.5232-18.007 15.248l0.0468 146.02c0.0586 3.8178 0.31932 8.2153 2.5592 11.802z" fill="#520" style="paint-order:markers fill stroke"/><path d="m334.68 636.16-0.0682-6.3303c-0.0257-4.397 5.0291-10.407 9.0738-11.974l11.362-4.5945 0.14946 7.2589c0.62426 4.3372-5.5876 13.382-9.8252 13.968-4.194 0.6716-6.365 0.98785-10.692 1.6715z" fill="#fc0" opacity=".98" style="paint-order:markers fill stroke"/><path d="m207.76 628.27 5.424 2.1167c1.5425 0.7228 2.6299 1.2855 4.101 1.1906 13.03-1.0748 17.454 5.8352 20.307 14.155 0.47844 1.8616 0.83927 3.7102-0.32866 5.0519-5.5794 0.99276-10.332 1.6736-14.83 1.3845-1.9362-0.16532-5.4835-0.91394-8.1904-1.9384-3.527-1.4011-6.2713-3.1937-9.2149-4.8865-2.8915-3.3791-3.1978-5.1321-3.3528-7.4166-0.15118-5.007 3.8469-10.478 6.0854-9.6573z" fill="#fc0" opacity=".98" style="paint-order:markers fill stroke"/><path d="m182.63 473.31 23.611 5.4079c4.5363 1.1848 7.2558 4.9753 7.276 14.354l0.79375 141.88c-0.0294 4.4903 5.0752 14.026 10.385 13.692l125.68-18.587c-1.4727 2.0025-5.6197 3.6954-9.37 4.2513l-111.32 16.575c-9.8324 1.3325-18.52-3.0148-23.133-5.7577l-18.147-10.358c-3.8997-2.176-7.9908-5.9993-7.9661-15.884l-0.35015-137.34c-0.19297-4.0046 0.67908-8.6906 2.5456-8.2354z" fill="#520" filter="url(#d)" opacity=".55" style="mix-blend-mode:normal;paint-order:markers fill stroke"/><path d="m249.21 617.7-0.0161-114.95" fill="none" opacity=".98" stroke="#a40" stroke-linecap="round" stroke-linejoin="round" stroke-width="1.7" style="paint-order:markers fill stroke"/><path d="m273.67 614.93-0.0161-114.95" fill="none" opacity=".98" stroke="#a40" stroke-linecap="round" stroke-linejoin="round" stroke-width="1.7" style="paint-order:markers fill stroke"/><path d="m298.74 611.36-0.0161-114.95" fill="none" opacity=".98" stroke="#a40" stroke-linecap="round" stroke-linejoin="round" stroke-width="1.7" style="paint-order:markers fill stroke"/><path d="m323.88 608.6-0.0161-114.95" fill="none" opacity=".98" stroke="#a40" stroke-linecap="round" stroke-linejoin="round" stroke-width="1.7" style="paint-order:markers fill stroke"/><path d="m252.66 465.48-6.7352 0.28065c-2.6239-1.5014-2.3778-4.2834-0.18709-6.0804 3.8742-3.2883 7.8721-6.5482 20.767-7.7642 9.8522-0.84275 16.07 1.0665 20.299 5.7062v4.8643l-8.1383 0.65482c-0.43967-0.77909-1.162-2.3223-0.0161-3.3265 0.74295-0.54452 2.0014-0.35203 3.103-0.6959 2.3923-0.88682-7.5617-2.464-14.92-1.9644-7.2697 0.59504-18.863 2.3289-16.791 3.9289 0.68377 0.5117 1.8004 0.92049 2.5725 0.93545 0.89499 0.0727 3.1648 3.0176 0.0468 3.4611z" fill="#520" opacity=".98" style="paint-order:markers fill stroke"/><rect x="289.91" y="404.09" width="8.8867" height="52.759" fill="#520" opacity=".98" style="paint-order:markers fill stroke"/><path d="m289.91 420.74c1.1249 0.37095 0.72572 0.63761 1.7757 3e-3 3.4267-2.0711 6.3044-3.8083 7.111-2.7812v38.886h-8.8867z" fill="#f60" opacity=".98" stroke-linecap="round" stroke-linejoin="round" stroke-width=".086346" style="paint-order:markers fill stroke"/><rect x="289.91" y="420.74" width="1.7773" height="36.108" fill="#a40" opacity=".98" style="paint-order:markers fill stroke"/><rect x="230.64" y="433.72" width="8.8867" height="27.888" fill="#520" opacity=".98" style="paint-order:markers fill stroke"/><path d="m230.64 453.3c1.1249 0.0853 0.72572 0.14666 1.7757 6.1e-4 3.4267-0.47636 6.3044-0.87593 7.111-0.63969v8.944h-8.8867z" fill="#d45500" opacity=".98" stroke-linecap="round" stroke-linejoin="round" stroke-width=".04141" style="paint-order:markers fill stroke"/><rect x="230.64" y="453.3" width="1.7773" height="8.305" fill="#a40" opacity=".98" style="paint-order:markers fill stroke"/><ellipse transform="matrix(.92829 -.37186 .33907 .94076 0 0)" cx="104.67" cy="471.44" rx="75.079" ry="24.903" fill="#786721" style="paint-order:markers fill stroke"/><path d="m306.26 368.17a24.353 74.351 68.323 0 0-58.155 12.678 24.353 74.351 68.323 0 0-20.419 9.2599c0.10551 0.72902 0.20311 1.5636 0.28732 2.544l1.6449 6.8776c3.8821 8.9762 6.1376 10.631 9.2062 15.947-3.7906 0.83323-5.976 2.4897-9.7286 5.2384-7.6819 3.1133-14.07 4.1453-17.791 4.517-13.119 0.89736-10.501 2.668-16.078 4.7506-2.182 1.0172-4.6682 1.8884-6.8776 2.9476a24.353 74.351 68.323 0 0 76.516-6.3329 24.353 74.351 68.323 0 0 60.79-50.135 24.353 74.351 68.323 0 0-19.395-8.2915z" fill="#fc0" style="paint-order:markers fill stroke"/><path d="m264.08 354.1c-8.5596-0.34666-19.332 3.0205-30.799 8.5716-14.71 7.7688-21.758 14.377-23.838 20.644 4.8372 0.39266 9.7748 0.65976 16.664-1.5121 0.34556 4.3122 1.3556 4.8478 1.8712 10.852l1.6449 6.8776c3.8821 8.9762 6.1376 10.631 9.2062 15.947-1.3144 0.28892-2.4358 0.67701-3.4964 1.1751 9.8299-1.2696 21.613-4.7782 32.26-10.664 11.785-6.0029 29.005-22.703 23.435-29.497-5.0137-5.5286-9.7537-11.351-14.258-17.427-3.2148-3.2123-7.5544-4.7576-12.69-4.9656zm2.7657 3.7119c-12.684 12.129-27.546 21.441-48.131 23.484 19.231-6.8248 35.273-14.995 48.131-23.484z" fill="#fc0" style="paint-order:markers fill stroke"/><path d="m211.51 402.77c0.7045 3.1298 1.4722 6.2575 2.2928 9.3832 2.2535 8.19 30.695 6.6096 53.789-6.1586 11.785-6.0029 29.004-22.703 23.435-29.497-1.483-1.6354-2.9419-3.2964-4.378-4.9822-3.3521 7.7834-14.923 17.944-23.568 22.348-20.019 11.068-44.057 13.729-51.571 8.907z" stroke="#000" stroke-linecap="round" stroke-linejoin="round" stroke-width=".1" style="paint-order:markers fill stroke"/><path d="m679.74 517.08 33.073 0.36926c0.53462-4.3178-10.057-6.543-17.727-5.1698-4.1349 0.78333-3.4163-2.3779-10.054-0.92317-5.1347 1.4178-6.1223 3.4386-5.2917 5.7237z" fill="#520" stroke-linecap="round" stroke-linejoin="round" stroke-width=".083536" style="paint-order:markers fill stroke"/></g></svg>