<?xml version='1.0' encoding='utf-8'?>
<svg xmlns="http://www.w3.org/2000/svg" width="4e3" height="2667" version="1.1" viewBox="0 0 1058.3 705.64"><defs><linearGradient id="b" x1="737.59" x2="716.89" y1="239.14" y2="223.89" gradientUnits="userSpaceOnUse"><stop offset="0"/><stop stop-opacity="0" offset="1"/></linearGradient><linearGradient id="a" x1="727.55" x2="753.27" y1="221.86" y2="253.58" gradientUnits="userSpaceOnUse"><stop stop-color="#ccc" offset="0"/><stop stop-color="#ccc" stop-opacity="0" offset="1"/></linearGradient></defs><g><rect x=".0004069" y=".00058594" width="1058.3" height="705.64" fill="#80b3ff" style="font-variation-settings:'wght' 700;paint-order:markers fill stroke"/><path d="m5.1676e-4 50.797v68.885c15.008 1.3752 37.418 8.961 73.063 30.242 61.005 36.42 71.755 78.728 209.7 93.939 76.681 8.4558 151.34 27.374 221.42 44.49-1e-3 -6.5e-4 -2e-3 -1e-3 -4e-3 -2e-3 46.296 2.0255 92.723 3.9873 137.94 0.36483 75.005-6.0093 175.81 17.322 219.05-20.651 64.66-56.779 146.81-85.785 197.16-96.402v-73.066c-49.012 3.1449-101.03 40.168-145.83 74.296-74.61 56.842-152.66 79.487-231.48 90.746-93.118 13.302-249.03-37.272-370.03-114.79-59.599-38.178-114.87-53.723-196.59-57.901-37.159-1.8996-74.139-15.562-114.4-40.153z" fill="#006780" opacity=".5982" style="font-variation-settings:'wght' 700;paint-order:markers fill stroke"/><path d="m5.1676e-4 5.1676e-4v59.448c76.04 40.179 146.52 50.57 212.55 15.988 39.257-20.559 119.21-21.254 195.94 6.1676 80.72 28.848 154.88 12.15 222.99-21.35 39.121-19.242 77.456-41.781 147.83-49.707 15.253-1.7177 30.739-3.9369 42.801-10.547z" fill="#08a" opacity=".67774" style="font-variation-settings:'wght' 700;paint-order:markers fill stroke"/><path d="m5.1676e-4 119.68v100.1c23.882 0.46537 58.781 18.176 101.31 49.948 45.148 33.725 81.656 66.829 224.77 106.01 96.518 26.425 157.34 59.689 226.78 97.29 125.46 67.929 233.83 82.661 323.4 55.69 24.697-7.4368 47.295-17.098 77.831-30.193 59.538-25.532 82.944-26.671 104.23-26.887v-139.39c-15.983-1.62-41.78 7.1064-66.751 20.741-35.524 19.397-67.174 44.957-105.33 55.035-195.67 51.688-269.04-60.702-382.07-119.67-70.078-17.116-144.74-36.034-221.42-44.49-137.95-15.212-148.7-57.519-209.7-93.939-35.646-21.281-58.055-28.866-73.063-30.242z" fill="#008fc0" opacity=".83123" style="font-variation-settings:'wght' 700;paint-order:markers fill stroke"/><path d="m5.1676e-4 219.78v112.42c26.173 2.507 57.993 2.4898 116.08 58.976 67.724 65.863 161.22 159.1 225.17 167.92 111.92 15.425 165.95 25.037 231.75 56.184 59.939 23.801 120.53 16.158 179.82-4.6969 50.337-17.708 104.67-17.851 170.42 4.0261 51.506 17.136 94.78 9.7125 135.09-2.2479v-140.71c-21.283 0.21561-44.689 1.3544-104.23 26.887-30.536 13.095-53.134 22.756-77.831 30.193-89.571 26.972-197.94 12.239-323.4-55.69-69.448-37.601-130.27-70.865-226.78-97.29-143.12-39.182-179.62-72.286-224.77-106.01-42.533-31.772-77.433-49.483-101.31-49.948z" fill="#08a" opacity=".85257" style="font-variation-settings:'wght' 700;paint-order:markers fill stroke"/><path d="m5.1676e-4 332.19v217.81c4.1481-0.50597 8.3316-0.83059 12.551-0.96687 29.534-0.95391 60.805 7.327 93.796 27.321 70.48 42.714 140.45 84.176 216.38 76.489 56.569-5.7262 111.75 8.8823 166.73 39.587 9.6051 5.3637 19.745 9.7283 30.247 13.212h166.48c28.796-7.2994 53.022-17.072 68.172-26.244 43.716-26.467 92.069-41.781 151.74-40.008 35.801 1.064 75.676 8.2792 121.07 22.928 10.472 3.3797 21.37 6.1459 31.168 7.0652v-57.032c-40.311 11.96-83.585 19.384-135.09 2.2479-65.757-21.877-120.09-21.734-170.42-4.0261-59.284 20.855-119.88 28.498-179.82 4.6969-65.801-31.146-119.83-40.759-231.75-56.184-63.957-8.8142-157.45-102.05-225.17-167.92-58.083-56.486-89.903-56.469-116.08-58.976z" fill="#005874" opacity=".60363" style="font-variation-settings:'wght' 700;paint-order:markers fill stroke"/><path d="m945.52 282.88c-2.549 0.14683-4.321 3.0847-5.3237 6.0467-3.5969 10.625-5.2597 21.648-10.98 31.221-12.214 20.439-18.403 41.141-0.52917 64.558 25.762 33.752 1.9303 42.801-5.5562 60.06-9.9754 22.998-10.886 47.535 10.716 84.534 9.6761 16.573 11.531 36.231 12.568 56.224 0.83095 16.029 1.4764 30.583 6.2177 49.477-6.6213-10.36-6.9678-16.191-9.1281-24.209-5.4154-20.101-7.7645-45.116-31.221-65.749-1.8589-1.6351-6.1226-0.0321-5.1594 12.832 0.80544 10.757 15.675 36.431 19.182 49.345 2.9535 10.876 7.1025 21.834 12.641 34.761 10.433 1.3096 21.2 3.103 32.329 5.4059 3.4329-29.001 23.421-43.617 40.226-61.069 7.2369-7.5155 13.484-15.073 18.388-28.443 7.7907-21.235 7.1267-35.203 0.7938-46.17-2.4586-4.2575-5.8535-3.3818-8.599 0.13229-4.3526 5.5707-4.5104 13.396-4.3656 22.49 0.3078 19.331-6.0302 33.161-17.859 41.407-13.519 9.4244-23.791 21.834-30.692 35.983 4.5116-15.989 15.588-33.819 25.268-53.181 9.2578-18.518 11.064-38.155-0.92604-59.267-14.121-24.863-6.0206-43.931 1.5875-62.574 4.91-12.031 11.782-19.564 11.509-49.477-0.058-6.4285-13.373-21.463-20.77-1.3229-4.4246 12.047 0.37151 38.128-14.288 56.356-14.092 17.523-15.09 36.66-1.4552 57.944 7.6379 11.923 15.918 19.576 7.4083 48.816-3.9832 13.686-11.512 24.135-17.992 35.19 5.8022-30.838-0.20291-55.281-11.245-76.994-9.1827-18.057-15.639-37.628 3.5719-72.76 11.531-21.087 10.1-40.737-0.92604-57.547-13.341-20.339-6.4194-33.155-0.66146-47.493 5.9763-14.881 9.3912-28.687 3.8365-38.497-3.4637-6.1172-6.3178-8.1606-8.5669-8.031zm-91.793 75.282c-2.7048-0.0678-5.7301 1.2069-7.7127 3.8561-15.292 20.433-6.7362 39.428 4.8643 55.191 25.508 34.659 12.68 45.209 5.0514 60.43-14.141 28.213-5.6246 50.181 10.477 76.894 17.184 28.509 6.2051 52.183 2.5606 75.19-7.1742-30.749-11.03-63.96-37.546-87.351-14.98-13.214-15.805-25.628-6.3174-43.252 9.2534-17.189 9.5382-26.159 2.9497-40.564-6.4178-14.032-17.868-17.496-17.586 4.6772 0.17789 13.986-3.3949 24.367-9.9053 33.788-14.316 20.715-4.5134 44.565 14.07 57.921 21.209 15.243 28.167 32.676 28.858 49.897 0.5299 13.208 8.015 25.084 15.318 36.91 6.9717-0.94041 14.102-1.6226 21.404-2.0335 2.6658-9.8544 5.149-19.111 8.8315-30.366 8.0192-24.51 5.4738-49.165-7.4838-72.029-19.998-35.289-4.8664-43.649 3.3678-59.12 14.909-28.012 6.4267-46.23-10.103-64.358-8.9047-9.7659-18.423-18.531-15.154-48.831 0.48075-4.456-2.4672-6.762-5.9449-6.8492z" fill="#668000" style="paint-order:markers fill stroke"/><path d="m12.551 549.03c-4.2191 0.13628-8.4026 0.4609-12.551 0.96687v155.64h519.71c-10.502-3.4832-20.642-7.8479-30.247-13.212-54.984-30.704-110.16-45.313-166.73-39.587-75.934 7.6864-145.9-33.776-216.38-76.489-32.991-19.994-64.263-28.275-93.796-27.321zm893.55 90.357c-59.668-1.7734-108.02 13.54-151.74 40.008-15.15 9.1722-39.375 18.944-68.172 26.244h372.14v-36.259c-9.7984-0.91928-20.696-3.6855-31.168-7.0652-45.391-14.649-85.265-21.864-121.07-22.928z" fill="#164450" style="font-variation-settings:'wght' 700;paint-order:markers fill stroke"/><path d="m1058.3 41.566c-51.986 5.5302-108.08 18.729-208.47 61.087-48.973 20.665-96.093 33.743-143.79 47.392-66.376 18.992-125.09 53.301-179.16 96.349 58.114 16.347 112.41 23.201 154.11 17.244 78.818-11.259 156.87-33.904 231.48-90.746 44.796-34.128 96.814-71.151 145.83-74.296z" fill="#08a" opacity=".70504" style="paint-order:markers fill stroke"/><path d="m72.777 533.95c-27.683-7.3051-28.899-39.68-20.58-47.146 8.2148-7.372 13.265-15.861 17.025-25.257 5.1801-12.945 12.387-15.878 19.644-21.889 21.376-17.707 36.757-23.075 50.701-28.625 13.534-5.3862 18.875-10.266 25.07-14.967-6.8688-4.799-16.12-8.2146-23.947-13.283-14.689-9.5124-13.861-16.944-12.956-24.228 0.64045-5.1554 18.612-18.221 24.104-19.32 2.1722-0.43477 5.8172-5.6611 10.742-15.011 21.329-40.496 56.024-77.039 92.796-104.02 41.991-30.812 87.072-55.198 138.82-62.301 51.686-7.0936 104.36-12.372 158.65 9.5415 31.949 12.895 60.605 31.25 81.384 59.307 3.1835 4.2987 6.4746 3.6396 8.9802 1.1225 26.585-26.706 57.598-46.71 96.912-41.908 27.676 3.3804 58.498 3.6875 69.597 47.521 3.1608 12.483 6.0932 25.065 3.9289 39.663-1.116 7.5268-5.9331 11.422-12.909 11.787-17.233 34.503-50.228 49.626-88.867 57.81 57.069 41.442 57.682 96.799 28.625 156.41-38.489 78.953-69.306 100.05-97.108 104.31-20.182 3.0891-29.619-9.5379-27.867-33.963 1.0205-14.222 19.718-48.647 26.005-76.145-9.4534-14.788-7.9908-29.083 1.4967-49.578 3.2758-7.0766 7.9762-19.395 0.18708-21.702-7.2908-2.1599-21.219-7.3506-30.495 0.74835-8.4964 7.4176-16.939 12.01-25.257 17.025-25.786 59.101-63.529 104.81-112.27 137.74-54.414 36.76-104.16 51.522-150.59 51-21.441-0.24065-30.985-10.971-25.884-29.04 4.4702-15.834 21.976-25.815 36.512-37.042 11.855-19.017 32.783-26.869 50.535-38.629 16.61-18.488 35.795-35.916 44.45-57.679-27.023 4.0568-53.64 4.0582-80.169 3.175-20.275 38.468-53.981 60.506-96.573 67.469-23.344 3.8161-31.598-10.543-28.575-30.692 1.8431-12.283 12.356-22.046 22.754-31.75 3.6527-7.288 8.129-14.119 10.345-22.205-6.9876-4.44-14.171-5.5443-21.328-7.1094-18.872 23.667-41.348 42.571-65.668 59.12-24.995 17.009-47.643 25.934-69.597 31.431-6.5958 1.6513-13.514 2.3037-28.625-1.6838z" fill="#162d50" style="paint-order:markers fill stroke"/><path d="m313 611.32c-7.1182-6.9467 4.2426-18.211 16.272-27.12 10.538-7.8042 19.729-16.37 28.972-25.003 6.1568-5.7506 12.052-9.0688 18.124-12.435 17.839-9.8906 34.504-30.456 51.858-51.197 14.305-17.096 26.085-36.137 37.306-55.827 5.3606-9.4063 10.511-10.531 15.015-13.229 4.9797-2.9829 9.3068-12.96 14.089-24.209 9.1359-21.49 15.241-23.4 22.093-30.692-10.758 5.5937-25.471 18.019-37.835 27.98-8.2111 6.615-13.58 15.601-19.182 24.143-2.8292 4.314-11.02 6.9516-12.303-0.13229-3.432-18.945 7.4973-25.179 15.875-33.338 6.7269-6.5512 13.69-12.084 19.05-16.801 9.9644-8.7696 22.561-12.654 34.793-16.669 23.908-7.8465 40.646-11.431 65.352-53.843 1.0515 6.8488 6.9029 20.167 13.626 34.66-3.4857-17.223-5.8616-34.241 0-49.742 6.8014-10.064 14.619-17.842 23.416-23.416-6.8152 15.518-7.8929 32.539-4.2333 50.8 1.9672-38.246 15.24-56.514 30.427-71.702 25.422-25.423 52.521-48.107 90.62-46.567 26.199 1.059 48.989 6.9722 58.208 25.532 7.6235 15.347 9.0502 30.682 8.0698 44.45-11.514-0.91216-19.974 1.4627-27.252 5.1594-11.759 5.9725-23.593 11.841-37.703 16.272-11.056 3.472-18.672 6.7906-18.785 8.9958 9.9356 1.8844 23.896 0.4908 43.656-6.2177 8.9642-3.0433 23.927-12.154 26.194-8.9958-5.3098 13.056-19.319 24.398-36.777 34.264-12.69 7.1708-26.439 10.731-40.349 13.229-11.345 2.0371-21.95 4.891-31.75 8.3344-12 4.2163-23.088 4.8646-34.528 6.7469 3.8943 3.1374 15.432 1.7452 23.548 2.3812-13.344 12.656-24.97 16.106-37.439 17.462-0.94912 1.7639 5.7162 3.5278 14.023 5.2917-17.607 18.741-35.847 36.322-55.562 51.197-1.2059-13.838-3.3301-46.599-25.929-58.341-22.157-11.512-43.216-0.95046-57.282 5.6885 36.592-12.876 58.102-3.3269 66.675 23.812 4.9298 15.607 4.1094 28.506 2.249 34.66-11.055 36.567-38.046 72.415-57.944 94.721-32.64 36.59-66.552 58.579-101.47 74.083-20.359 9.0408-85.725 32.652-103.19 15.61z" fill="#6f6f91" style="paint-order:markers fill stroke"/><path d="m641.68 405.41c-7.787-1.9362-1.9173-5.5063 0.20314-8.2736 9.4196-12.293 11.514-13.292 29.104-36.248 10.162-13.262 26.734-19.452 44.45-1.8521 30.558 30.359 38.623 74.532 15.478 130.7-20.136 48.869-48.315 83.5-86.254 101.34-12.232 5.7502-21.083-7.1738-16.669-19.182 9.6039-26.128 20.029-51.905 28.046-78.714 3.2453-5.3081 7.7156-9.4932 8.2021-17.33-9.6436 3.8884-17.158 2.9696-15.875-6.7469 1.5977-12.097 11.341-22.166 16.007-33.999 3.7417-9.4879-0.92779-22.841-10.716-26.458-5.4944-2.0306-11.513-3.1204-11.977-3.2358z" fill="#6f6f91" style="paint-order:markers fill stroke"/><path d="m173.81 404.49c8.6058 3.437 19.832 5.386 30.495 8.2319 11.859 3.1651 21.211 7.083 24.883 11.225 3.4207 3.8592 1.088 6.4338-0.93545 8.9802-25.794 32.461-55.389 57.422-82.506 71.655-40.528 21.271-70.451 25.835-82.693 6.1739-6.4958-10.432 2.2567-18.783 9.7286-26.941 3.8037-4.1528 6.7401-8.8746 8.7932-15.528 3.221-10.439 10.789-13.667 14.312-15.856 6.6734-4.1462 12.401-8.744 18.054-13.611 7.8789-6.7835 16.595-9.3255 25.257-12.722 12.347-4.8418 24.548-10.141 34.611-21.609z" fill="#6f6f91" style="paint-order:markers fill stroke"/><path d="m465.53 163.91c-15.944-0.69061-32.169 0.1633-48.191 2.2598-0.96055 0.90163-1.2524 2.096-0.69092 3.3626 1.856 4.187 4.0041 8.81 6.4823 13.692 1.0927 2.1526 3.8017 3.2337 8.2021 3.175 19.238-0.25648 37.085 0.34504 58.508 2.5606 3.0341 0.31379 7.5332 0.3887 12.16-3.2272 5.3671-4.194 9.9651-7.8424 16.089-13.798 0.71648-0.69667 0.0531-1.3638-1.1803-2.0479-16.253-3.3462-33.467-5.2015-51.38-5.9774zm-64.342 4.7987c-30.072 5.513-58.816 15.143-82.899 26.819-3.3103 1.6049-6.7868 3.4656-10.385 5.5299-1.1516 1.5405-2.0847 3.6281-0.99218 6.2441 1.4779 3.5389 4.0652 6.9762 7.3422 11.245 1.9011 2.4764 3.7473 2.4675 5.6224 2.5135 15.591 0.38212 31.47 0.4599 47.42-0.24804 3.0762-0.13653 5.6086 0.36003 10.243-3.6949 10.602-9.2756 22.095-18.264 34.279-27.476 0.85997-0.65024 1.0894-2.4572 0.13229-4.4318-2.5075-5.1729-4.836-9.9699-8.4005-15.147-0.53212-0.7729-1.3749-1.1533-2.3632-1.3529zm133.31 5.5123c-1.0532 0.0507-2.0388 0.23848-2.7947 0.89452-7.9045 6.8608-15.306 13.75-23.854 20.486-1.4444 1.1383-2.191 2.9203-0.74828 5.426 8.6704 15.059 17.733 29.938 24.775 45.962 0.97694 2.2231 2.0595 3.4618 4.4979 1.5875 19.325-14.854 38.721-29.141 61.185-36.579 1.5354-0.50841 1.6842-1.5703 1.2583-2.7564-0.76884-0.69451-1.5412-1.3854-2.3167-2.0722-17.669-15.651-38.635-26.164-62.002-32.948zm-99.448 22.868c-4.0243-0.0739-7.7794 0.28422-12.381 2.6722-11.469 5.9516-21.695 13.912-32.279 21.431-7.2729 5.1668-9.0421 9.7972-9.525 14.817-3.1533 32.779-5.7259 68.378-8.4005 103.45-0.35927 4.7114 5.0584 6.1698 9.5911 5.424 19.388-3.1902 77.678-24.101 112.38-58.539 7.8283-7.7683 16.104-16.973 24.805-25.665 1.9398-1.9377 2.9654-4.5982 0.92604-9.4589-6.628-14.613-14.952-29.521-23.68-44.185-1.7589-2.9553-2.5665-5.4784-10.98-5.9531-12.461-0.70312-31.837-3.2197-46.302-3.8365-1.4426-0.0615-2.8139-0.13401-4.1553-0.15864zm-140.87 13.137c-0.42744-0.0134-0.85778 0.038-1.3121 0.11679-13.475 8.8221-27.697 19.279-40.726 29.106-11.492 8.6683-22.074 19.722-33.205 31.485-16.47 17.405-32.976 35.217-44.729 57.785-0.47029 0.90302-0.99212 2.0265-1.5617 3.2727 0.90644 3.2146 4.7606 6.5154 9.7839 9.5214 10.964 6.5607 28.415 10.711 50.051 13.883 2.8879 0.42338 7.0626 1.4573 7.5711-0.76894l3.8876-17.018c5.0637-22.115 18.94-54.743 19.182-55.562 2.1188-7.1522 16.144-23.206 17.165-25.235 4.2593-8.4617 20.269-25.038 23.548-29.898 0.6346-0.94077 1.1521-2.165 0.29765-4.1341-1.5331-3.5331-4.3005-9.3752-7.7391-11.774-0.79654-0.55568-1.5014-0.75803-2.2138-0.78032zm313.67 11.082c-1.0088 6e-3 -2.0951 0.16784-3.2804 0.54673-19.735 6.3086-37.39 17.359-53.843 30.493-1.6948 1.353-2.0678 3.2836 0.85989 4.6302 9.33 4.2913 18.948 9.5424 28.575 14.552 2.0013 1.0415 3.5905 1.1836 4.8757 0.73122 8.4555-12.654 18.184-21.712 41.096-27.123 2.8653-0.67674 3.6339-2.2853 1.9844-4.4979-4.6056-6.1781-9.9584-12.34-15.768-18.351-1.3523-0.56942-2.8186-0.99151-4.5-0.98133zm-239.66 11.245c-12.678 1.7622-27.66 1.2569-42.095 1.4966-4.2435 0.0704-8.7499-0.88238-11.973 2.4324-11.744 12.077-28.065 31.261-38.914 46.679-3.9634 5.632-17.205 47.042-21.472 67.216-1.5599 7.3753 1.9769 8.5876 7.7391 8.7312 30.026 0.74862 60.087-1.8443 90.065-6.8177 5.2703-0.87433 7.3407-4.4523 7.6703-8.6062 2.9642-37.351 4.9811-75.093 8.9803-111.13zm170.15 29.689c-1.1274 0.0287-2.1822 0.39762-3.0236 1.219-15.218 14.857-29.25 28.202-42.995 42.135-0.53466 0.54199-0.50417 1.4975 0.59531 2.4474 7.3768 6.3734 17.412 14.23 27.583 22.49 2.1068 1.7108 5.2362 1.2245 8.4078 0.65784 18.989-12.19 35.987-25.719 45.501-41.47 0.7141-1.1822 1.4075-2.3439 2.0851-3.4851 0.1301-2.343 0.39863-4.8208-2.6143-6.5691-10.478-6.0798-21.387-11.506-32.081-16.603-1.1314-0.53928-2.3313-0.85085-3.4587-0.82217zm-55.756 52.829c-0.55839 0.0154-1.2521 0.23303-2.1689 0.77721-18.047 10.713-36.541 20.252-54.967 28.906-1.1556 0.54274-2.2568 0.31528-2.1828 3.8365 0.19773 9.4043 1.3271 19.833 3.2411 30.162 0.50831 2.7432 1.7882 4.9512 4.7439 5.1382 16.678-6.884 33.233-15.418 51.215-25.643 9.0708-5.1579 18.704-10.465 28.272-16.022 1.1748-2.1941 1.7131-4.8658-0.82114-6.9965-7.2086-6.0605-15.334-12.176-24.672-18.653-0.85727-0.59463-1.4313-1.5388-2.6598-1.5048zm-317.19 31.658c-0.83342 9e-3 -1.7148 0.18562-2.62 0.46044-6.9471 4.3236-16.425 9.0308-21.664 14.993-0.60174 0.68494-0.90379 1.6332-0.16381 2.4086 4.2356 4.4383 10.488 8.2087 17.468 11.87 1.6404 0.1212 3.2344-0.15218 4.5997-1.465 6.1453-5.9089 12.289-11.811 18.191-16.624 1.4532-1.2586 1.3052-2.8735-1.5715-4.4736l-11.908-6.6239c-0.71257-0.39637-1.4977-0.55482-2.3311-0.5457zm244.44 4.1191c-0.52653 2e-3 -1.1459 0.11792-1.8516 0.32246-24.165 7.0045-47.987 12.514-71.415 17.256-1.8627 0.37704-3.5412 1.5892-4.4902 3.9755-3.6718 9.2331-7.1918 20.486-9.2609 30.215-0.46975 2.2087 1.4762 2.7603 3.6478 3.0313 4.7259-0.29378 9.4469-0.62168 14.182-0.96583 28.119-2.0439 51.564-6.8391 73.897-14.481 1.7069-1.8358 2.5621-4.2543 1.7735-7.4796-1.7703-7.2412-3.0431-19.658-4.4318-29.964-0.18434-1.3681-0.89267-1.9146-2.051-1.91zm-214.64 10.765c-2.2477 4e-3 -3.7613 1.127-5.1795 2.5699-5.4649 5.5598-11.718 10.899-17.819 16.3-0.7532 0.66686-1.5617 1.403-1.08 2.3849 1.8824 0.94836 3.7635 1.9108 5.6214 2.8965 9.0178 4.7841 23.276 9.6037 37.909 13.221 2.6027 0.14861 5.2514 0.10541 7.2021-2.5058 6.072-8.1279 15.602-23.874 15.235-26.042-0.37266-2.197-28.155-5.1091-39.373-8.4264-0.936-0.27678-1.7669-0.39981-2.5161-0.39843zm123.83 8.2166c-21.332 0.62692-42.612 2.7514-64.041 1.1844-2.5475-0.18629-4.8434 0.13068-6.2839 2.249-5.6117 8.2526-10.537 17.667-15.412 26.988-0.60357 1.1538 0.2503 2.0775 1.6082 2.8923 2.0919 0.33431 4.1412 0.62828 6.1309 0.87798 23.296 2.9236 44.542 3.3243 65.215 2.6231 1.5222-0.81717 2.9704-1.9738 3.7558-4.0272 3.8847-10.156 6.6085-21.724 10.851-30.495 0.4575-0.94589-0.2845-2.3372-1.8242-2.2918z" fill="#6b5876" style="paint-order:markers fill stroke"/><path d="m251.63 429.09c-2.6273-1.3393-4.7939-6.8458 5.8933-6.5481 57.541 1.6031 122.36-0.34629 179.04-17.68-2.6598 18.41 1.216 26.792 7.2029 31.992 6.7714 5.8814 1.4487 11.947-2.2451 12.535-87.113 13.861-145.07 2.5529-189.89-20.299z" fill="#6f6f91" style="paint-order:markers fill stroke"/><path d="m736.34 196.98c-4.972-0.20096-9.7563 0.0107-14.374 0.58705-0.80677 1.5476-0.54139 3.4934 1.542 6.4244 4.7946 6.7453 6.4022 7.1246 12.832 6.8792 4.1512-0.15843 9.2206 0.63436 11.509-7.1438 0.82333-2.7981-1.3613-4.6959-4.2767-6.3174-2.3757-0.1895-4.7894-0.33068-7.2326-0.42943zm18.364 1.7462c0.2692 1.4941 0.74193 3.0356 3.5967 5.133-8.7151 0.32091-8.4139 13.231-4.6302 15.743 6.6332 4.404 23.333-5.3007 23.812-9.1281 0.29242-2.3329-1.5202-4.3957-3.5708-6.4301-5.7332-2.4769-12.22-4.1846-19.208-5.3175zm-48.842 3.2618c-0.86767-3e-3 -1.7503 0.0427-2.6391 0.11111-5.7806 2.0947-11.299 4.7551-16.611 7.8564-2.0629 3.2842-2.8448 6.703 1.5746 10.572 4.1441 3.6285 18.133 1.4202 19.579 4.4979 2.4243-5.4724 5.552-7.8919 8.599-10.848 5.0268-4.8768 0.0431-7.7344-3.3073-10.186-2.1208-1.5522-4.5919-1.9948-7.1949-2.0035zm83.831 16.135c-0.7114-0.0113-1.4711 0.16063-2.2882 0.55293-5.3661 2.5763-6.0977 7.3376-4.2333 11.642 1.7918 4.1365 5.3323 7.2717 12.435 8.2021-2.703 0.25544-3.8977 1.5667-5.424 2.6458-5.6864-3.6736-11.33-6.7443-16.404-1.7198-10.64 3.3885-14.139 9.2971-17.198 15.214-6.5936 12.754-24.276 16.244-27.252 15.478-4.6351-1.193-19.317 16.979-7.2125 24.263 3.2527-1.7955 8.7498-3.8719 15.547-6.0064 14.11-4.4312 25.944-10.299 37.703-16.272 7.2784-3.6967 15.739-6.0715 27.252-5.1594 0.98044-13.768-0.44631-29.103-8.0698-44.45-0.51233-1.0314-1.0665-2.0235-1.6609-2.9781-0.95763-0.86475-2.009-1.3925-3.1946-1.4113zm-12.409 1.9089c-4.3691 1.7126-9.4641 2.629-12.932 5.2917-2.5777 1.9795-5.3257 3.8923-2.6458 11.212 0.73823 2.0163 3.6672 2.0042 6.1516 0.79375 2.6527-1.2925 5.585-2.35 7.706-4.7294 4.5998-5.1605 2.8955-8.9892 1.7198-12.568zm-103.37 0.16175c-0.9994 0.0356-1.9902 0.23214-2.976 0.4992-4.2202 3.3012-8.3303 6.8298-12.364 10.507-0.1557 1.9785 0.47769 3.9204 3.684 5.7319 6.1773 3.4901 13.343 2.7112 15.487-1.757 2.4049-5.0111 3.8087-12.813-0.80305-14.515-1.0207-0.37676-2.0288-0.50219-3.0282-0.46664zm20.022 5.3242c-1.388-2e-3 -2.7778 0.18626-4.1615 0.69867-4.6132 1.7084-6.9973 4.91-4.6302 9.9219 5.1503 2.5726 10.306 4.623 14.618 2.5136 4.5306-2.2165 4.977-6.478 1.0583-12.171-2.2638-0.4307-4.5716-0.96025-6.8848-0.96325zm-8.7493 15.501c-0.82915-0.0303-1.6808-0.0266-2.5559 0.0145-3.217 0.15103-6.7257 2.6593-8.4005 6.4823-3.2172 7.3434-0.96777 11.203 3.638 14.552 4.5981 3.343 7.2783 2.7608 9.7896 1.2568 5.3059-3.1778 10.26-6.9752 13.361-10.914 1.6574-2.1048 1.8473-4.578-1.4552-6.7469-3.8743-2.5443-8.5734-4.4325-14.377-4.6447zm-27.492 0.0879c-1.3676 3e-3 -2.8221 0.34158-4.422 1.3116-4.4276 2.6844-7.2667 6.9307-3.929 14.639 1.6354 3.777 6.7429 3.9282 11.366 4.5367 2.7473-0.77979 5.5106-0.87111 8.138-6.688-0.80278-3.9884-1.3205-7.9248-4.7708-12.395-2.0651-0.48411-4.1026-1.4101-6.382-1.4051zm47.624 14.214c-3.8664 3.364-15.627 9.457-16.735 14.751-0.65004 3.1053 1.379 6.3466 4.7625 9.1943 3.312 2.7873 8.6245 2.2394 16.669 0.0661 3.6251-0.97935 8.2547-4.4558 13.758-13.428-6.1919-3.4151-13.827-9.9842-18.455-10.583zm-36.246 8.0248c-1.016 1e-3 -2.0332 0.19858-3.0313 0.63459-6.3496 2.7735-8.2492 2.5412-11.272 7.2027-1.9407 2.9925-3.2702 6.3147 0.70125 10.664 1.117 1.2232 1.2034 2.2415 6.5014 5.7531 2.9263 1.9396 5.7498 3.548 11.459 4.1625 5.1545-3.0876 9.8484-6.6852 9.8221-14.078-0.0169-4.733-7.0683-14.346-14.181-14.339zm33.832 21.96c-4.4274-0.21079-10.354 0.67852-16.938 2.6686-5.1208 1.5477-8.1015 6.7475-5.7996 14.967 0.64475 2.3023 2.8409 3.9994 7.9509 4.116 6.3683 0.14535 24.338-11.243 22.731-17.82-0.58875-2.4097-3.5173-3.7208-7.9447-3.9315z" fill="#8b869b" style="paint-order:markers fill stroke"/><path d="m538.18 372.04c-9.9509 3.5152-23.081 12.481-26.306 27.019-0.0958 0.43188-0.18676 0.86358-0.27285 1.2945 3.555 2.7837 13.398 4.1385 27.587 4.5052 3.2088-1.7467 6.4922-3.3939 11.506-4.8643 2.9701-0.871 5.9478-2.9023 7.6238-8.6997 0.98409-3.4041-0.95146-9.8472-8.7462-16.651-2.7846-2.4306-6.9142-2.7544-11.392-2.6035zm32.356 25.522c-0.21312 9e-3 -0.43474 0.0394-0.66508 0.093-11.799 2.7482-22.148 6.4568-27.128 13.283-2.7487 3.768-1.3082 16.447 3.1807 19.925 2.4712 1.9144 16.65 15.073 23.399 13.117 2.4242-5.6416 4.5461-11.35 6.2771-17.076 1.2503-4.1357 2.0311-11.317 0.91261-20.32-1.4533-4.4055-2.7796-9.1528-5.9764-9.0217zm-41.231 10.88c-2.0129 3e-3 -4.2395 0.46362-6.2069 0.90641-6.3447 1.428-10.051 4.8993-13.618 8.3711-0.30153 2.1495-0.70605 3.578-1.4428 3.93-1.7073 0.81574-3.6025 1.5689-5.7025 2.2283-1.1216 3.9657-2.124 8.4243 0.46405 10.821 3.8092 3.5278 10.212 4.1332 18.335 4.5837 5.3496-3.4878 11.937-4.4426 14.593-15.061 1.2784-5.1103 1.2984-10.449-1.4971-13.938-1.1128-1.389-2.9119-1.8445-4.9248-1.8418zm-51.113 19.354c-3.9092 2.0312-8.212 4.1348-12.66 11.939-3.0863 5.4156-6.2146 10.782-9.4263 16.072 0.72125 2.2782 2.696 4.1186 6.5624 5.0829 3.982 0.99309 8.6081 1.5806 18.054 2.2453 3.0578 0.21521 5.3344 1.3086 9.3545-3.5548 4.4542-5.3885 8.711-11.048 9.9157-18.522-0.5618-3.419-1.9644-7.079-6.0802-9.0739-5.3846-2.6098-10.571-3.3388-15.72-4.1894zm62.787 9.1917c-1.1914-0.0402-2.3056 0.30026-3.1952 1.0785-3.1636 2.7677-5.8232 6.1968-8.9803 10.383-4.2432 5.6267-7.4986 14.49-11.225 21.796-0.26368 4.6425 1.7483 9.8795 4.4902 15.248 2.0402 3.9945 5.2968 7.0931 9.5415 10.009 1.2707 0.87297 3.4811 1.3044 6.3097 1.3193 8.814-11.809 17.598-25.13 24.888-39.148-2.7771-4.9314-9.6903-12.732-17.166-18.765-1.4719-1.1878-3.131-1.8686-4.6628-1.9203zm-28.814 6.7164c-3.1208 0.0587-6.67 0.40623-8.9297 3.3073-2.8361 3.641-4.5557 8.0351-3.9026 11.708 4.8378 3.9445 10.135 5.0198 15.677 4.5641 2.5135-5.0712 5.5342-8.8747 7.5406-15.214-2.8804-1.8704-5.1629-4.4638-10.385-4.3656zm-61.46 20.788c-5.6555 8.8656-11.619 17.467-18.092 25.67 1.3784 4.2796 3.9118 8.4907 12.843 13.198 2.6971 1.4214 5.2452 1.7235 7.7644 0.84181 6.355-2.224 13.922-3.3743 18.241-8.3256 1.5279-6.6105 4.7868-12.825 4.5837-19.831-0.10997-3.7936-1.7803-5.1007-3.6478-6.0802-7.1687-3.7602-14.48-4.5009-21.692-5.472zm45.519 2.2965c-4.234 0.17723-8.316 1.6903-12.369 3.3734-2.7163 8.8151-5.6353 17.428-7.3422 27.252 5.4378 6.0098 10.676 11.484 12.965 9.6573 8.1183-6.4789 26.591-11.808 26.061-16.47-0.68822-6.0579 0.0172-11.315-5.9531-19.91-4.2522-2.1745-8.5894-4.1024-13.361-3.9026zm-69.89 31.036c-9.2431 11.063-18.309 21.967-27.482 31.113 4.0901 2.7932 5.6319 6.5812 18.633 6.1335 3.8757-0.13347 8.7238-2.2615 16.651-7.6708 1.2-4.3694 4.3607-8.195 6.8285-12.301 0.87319-1.4528 1.598-3.6251-0.84181-6.2208-5.2878-5.6257-9.3844-7.8123-13.79-11.054zm87.316 1.6056c-9.557 3.2348-17.816 8.0991-24.789 14.499-5.1464 4.7238-9.8746 10.092-9.0739 18.709 3.5071 5.1466 5.939 14.365 10.279 16.358 9.2915-8.107 18.49-17.173 27.59-27.374 3.3708-3.7786 6.9448-7.946 10.611-12.44 0.0536-2.1746-0.35487-4.4155-3.0164-6.5727-3.3362-2.7042-7.5985-3.3335-11.6-3.1807zm-41.997 4.4747c-5.0772-0.0886-11.42 2.7314-15.646 4.4891-7.8757 3.2758-11.059 10.055-14.023 16.603 3.5821 1.4559 6.3134 3.641 8.6651 6.1516 9.4578 2.9094 15.918-1.3754 22.225-5.4901 9.0336-5.894 8.2382-12.425 5.8208-17.595-1.4053-3.0051-3.9961-4.1053-7.0425-4.1584zm-0.84646 29.388c-2.7731 0.0951-13.403 0.0987-15.715 8.5127-2.3184 8.437-4.0031 17.095-3.3502 28.534 0.18053 3.1627 1.5158 4.1739 2.9719 4.9599 8.9654-5.6343 17.855-11.924 26.663-19.016-1.2733-7.0614-0.26493-14.558-6.3598-20.744-0.93136-0.94535-0.38115-2.3767-4.2096-2.2453zm-28.791 0.25218c-0.51814-0.0114-1.099 0.0245-1.7508 0.11627-5.0515 0.71129-9.537 0.67813-16.404 5.1594-2.4601 1.6054-9.8691 15.179-12.303 25.135-0.54571 2.2323-2.8287 9.7258 2.0934 29.486 0.30377 1.2195 1.3 1.799 2.3688 2.3384 0.0563-0.0249 0.11232-0.0497 0.16795-0.0744 9.6501-4.2853 19.223-9.0661 28.715-14.513 1.0693-14.046 2.9272-27.593 1.448-43.43-0.16257-1.7406-0.70759-4.1372-4.3346-4.2173zm-50.588 2.3544c-4.953 4.3289-9.9586 8.0303-15.06 10.859-6.072 3.3666-11.967 6.6848-18.124 12.435-2.8336 2.6467-5.6623 5.2872-8.5266 7.9013 0.70097 1.0847 1.829 2.1393 3.3171 3.2417 2.9695 2.1998 11.38 6.8036 16.37 3.1807 3.3701-2.4466 5.2841-5.2814 16.651-8.045 6.5796-1.5996 13.377-4.2729 20.58-8.9803 1.8715-4.5671 7.509-11.959 5.4255-13.564-5.7449-4.4258-13.244-5.6555-20.633-7.0285zm11.185 29.666c-16.513 2.3765-28.634 7.7285-37.418 15.341-0.23648 10.29-2.1707 19.63 0.89917 31.768 14.307-3.5008 28.563-8.3735 39.135-12.46-0.40306-11.399 0.9321-22.239-2.6159-34.649zm-59.515 7.4435c-4.4142 3.8453-8.9776 7.597-13.826 11.187-12.029 8.9089-23.39 20.173-16.272 27.12 7.9045 7.714 25.625 7.0979 44.543 3.2742 0.82605-6.4153 0.98376-13.165 3.1621-18.904-1.7817-8.2896-1.2311-10.747-1.6841-15.715-4.7586-1.7542-10.339-4.3745-15.924-6.9624z" fill="#9393ac" style="paint-order:markers fill stroke"/><path d="m149.48 421.8c-3.3886 1.5516-6.832 2.9425-10.287 4.2974-3.6609 1.4356-7.3315 2.7183-10.945 4.2333-1.5729 2.7882-2.3666 5.756 3.1161 9.0129 4.7399 2.8157 10.502 3.5169 16.801-0.66145 3.1235-2.072 6.453-3.9104 7.5406-11.112 0.5078-3.3626-2.425-4.8371-6.226-5.7697zm27.66 1.481c-2.9306 0.0519-6.2774 1.0189-10.19 3.2303-4.3342 0.26252-12.754 9.6374-9.1281 14.288 4.6706 5.9894 10.543 11.133 18.653 11.377 4.5307 0.13648 9.5404-1.9249 12.568-8.0698 2.2973-4.663-0.2236-9.9033-2.8624-15.041-2.5048-2.059-5.1237-4.0036-7.8099-5.7506-0.40211-0.029-0.81227-0.0405-1.2309-0.0331zm-52.893 18.376c-3.5143 0.0706-6.9885 2.2277-10.213 6.8146-3.0153 4.2894-4.1637 9.3493 2.7781 15.478 2.6508 2.3404 6.9112 4.7242 10.914 0.92605 4.1186-3.908 8.3116-7.7398 9.8557-14.221-1.1822-2.6616-4.0029-4.9528-7.0115-6.9453-2.0921-1.3856-4.2151-2.0944-6.3236-2.0521zm32.65 6.2193c-8.316 0.57497-12.966 4.1643-16.338 8.7974-5.6563 7.7718-7.8822 14.414-3.0427 19.315 3.0754 3.1145 6.4613 4.845 11.112 2.712 3.8591-1.7698 7.7973-3.668 12.435-4.7625 1.4917-4.1495 3.1145-8.1559 3.5719-12.965 0.5788-6.0857-3.4524-9.6141-7.7391-13.097zm-57.211 2.0774c-1.2361 0.84163-2.5019 1.6677-3.8034 2.4763-3.5232 2.189-11.091 5.417-14.312 15.856-1.1896 3.8554-2.6759 7.062-4.4555 9.8852 3.9349 2.3201 9.3701 3.7948 20.516 2.0505 3.1904-3.2285 6.3395-6.6309 8.2021-11.642 0.87804-2.3621 1.1434-5.2089 0.52917-8.4667-1.1467-6.082-3.687-8.6975-6.6761-10.16zm91.525 4.4648c-4.4612-0.20404-8.8058 1.3344-13.015 3.975-5.7596-1.2547-11.64 9.0478-12.039 17.198 4.0361 2.8106 6.3925 7.1372 9.4599 9.6599 8.6764-6.6479 17.374-14.209 25.908-22.588 0.27812-2.3378 0.21487-4.5505-2.1627-5.8575-2.7564-1.5153-5.4752-2.265-8.152-2.3874zm-71.567 16.534c-2.4803 0.093-5.2419 0.90139-8.0569 2.5218-5.661 3.2588-8.1295 9.1241-4.101 17.462 1.2624 2.613 4.5028 6.2959 6.9453 5.0932 5.1804-2.5508 10.391-5.0327 15.015-8.4667 3.0186-2.2416 1.8736-9.0323-2.1167-13.626-1.7732-2.0414-4.4969-3.1044-7.6858-2.9848zm37.105 10.089c-4.5211 0.0719-9.4572 1.2152-14.801 3.4127 1.7037 2.4205 2.6141 5.7233 3.9688 9.2604 2.1015 5.4875 3.9862 7.0514 5.7769 7.5918 5.7102-3.2824 11.508-7.0194 17.337-11.181-1.7266-2.0973-3.3336-4.5536-4.593-8.0522-2.4126-0.73201-4.9757-1.0746-7.6884-1.0315zm-81.699 4.408c-1.8788 0.0915-3.5141 0.56499-4.9816 1.3028-6.6397 7.2465-12.74 14.818-7.0208 24.002 6.7787 10.886 18.978 14.345 35.397 11.654 0.71826-4.047 3.4914-9.578 7.1226-15.729 1.6693-3.1348 2.9998-6.4728-2.249-13.758-2.5326-5.4812-8.7352-8.3934-21.828-6.4823-2.4396-0.7899-4.5617-1.0806-6.4404-0.98909zm59.313 6.027c-1.6464-0.0446-3.782 0.62902-6.7024 2.5027-7.7628 4.9805-18.555 6.8482-18.785 21.299-0.034 2.135 1.877 2.9741 4.3207 3.4525 8.9849-2.9015 18.868-7.1421 29.514-12.581 0.54938-3.1746 0.60777-6.5124-2.2174-9.9219-1.6276-1.9642-2.9868-4.6665-6.1299-4.7516z" fill="#9393ac" style="paint-order:markers fill stroke"/><path d="m693.28 348.2c-8.8352 9e-3 -16.579 5.2316-22.296 12.692-0.71944 0.9389-1.4129 1.8412-2.082 2.7089 7.4514 2.5786 15.115 6.4832 22.13 11.801 2.2805 0.82322 4.9139 1.0502 8.306-8e-3 1.548-5.9117 5.5916-8.3014 6.0802-11.88 0.94035-6.8878-1.7617-11.888-7.2114-14.782-1.6749-0.36176-3.3191-0.5329-4.9274-0.53124zm25.461 18.446c-0.56694 9.9e-4 -1.141 0.0751-1.7234 0.23513-6.0844 1.6712-10.328 6.4963-12.535 14.78-1.773 6.6573 5.4916 11.014 7.2962 15.715 1.5826 4.1229 19.078-2.3531 21.328-7.0156 0.90323-1.8716 1.1815-3.5298 1.3136-5.1428-2.9531-5.9979-6.5436-11.652-10.736-16.954-1.606-0.96642-3.243-1.621-4.9439-1.618zm15.3 34.752c-1.0715-0.0399-2.248 0.0732-3.5533 0.37517-5.4231 1.2547-10.405 4.0486-11.693 8.6997-0.67513 2.4382-0.76846 5.2554-0.40825 8.1039 0.7303 2.527 1.3947 5.0445 1.9958 7.552 1.3976 3.4065 3.3642 6.3324 5.6152 8.0109 5.6876 4.2411 12.025 1.9703 18.163 0.18139 0.43959-10.422-0.47989-20.233-2.6665-29.412-1.968-1.8955-4.2382-3.3912-7.4528-3.5109zm-2.9714 42.934c-2.3714 0.16461-4.7429 0.88093-7.1143 2.2893 2.8842 26.222-0.75759 51.14-8.0062 74.148 5.4146-9.5893 10.395-19.941 14.962-31.025 6.1631-14.958 10.113-29.065 12.015-42.287-3.9523-2.1415-7.9044-3.3997-11.857-3.1254z" fill="#9393ac" style="paint-order:markers fill stroke"/><path d="m719.12 249.78c-5.5308-6.1563-4.9516-13.593-1.1293-20.252 2.1715-3.7831 6.2732-7.6243 16.111-7.0016 8.1682 0.51698 12.875 6.0613 14.53 13.25 2.5934 11.267-1.4307 14.512-6.0229 17.843-8.1798 5.9334-17.55 2.7714-23.489-3.8396z" fill="url(#b)" stroke="#373748" stroke-linecap="round" stroke-linejoin="round" stroke-width="4.361" style="paint-order:markers fill stroke"/><path d="m733.03 234.75c-3.2296 1.2212-4.9448-4.1877-3.8211-6.7254 1.444-3.261 5.623-5.1974 8.1206-4.1225 9.7055 4.177 11.884 11.622 10.848 18.521-0.42079 2.8005-1.8595 4.7954-2.9104 4.6302-1.3292-0.20898-0.85064-16.609-12.237-12.303z" fill="url(#a)" style="paint-order:markers fill stroke"/><ellipse cx="793.04" cy="236.67" rx="3.7445" ry="3.4161" fill="#333" style="paint-order:markers fill stroke"/><ellipse cx="833.78" cy="226.58" rx="10.079" ry="9.3593" fill="#acf" opacity=".25869" style="paint-order:markers fill stroke"/><ellipse cx="834.81" cy="160.48" rx="12.231" ry="11.357" fill="#acf" opacity=".25869" style="paint-order:markers fill stroke"/><ellipse cx="769.97" cy="121.85" rx="14.749" ry="13.696" fill="#acf" opacity=".25869" style="paint-order:markers fill stroke"/><ellipse cx="813.19" cy="66.845" rx="14.749" ry="13.696" fill="#acf" opacity=".25869" style="paint-order:markers fill stroke"/><ellipse cx="872.94" cy="121.81" rx="10.079" ry="9.3593" fill="#acf" opacity=".25869" style="paint-order:markers fill stroke"/></g></svg>