<?xml version="1.0" encoding="UTF-8"?>
<svg version="1.1" viewBox="0 0 811.91 596.88" xmlns="http://www.w3.org/2000/svg" xmlns:xlink="http://www.w3.org/1999/xlink">
 <defs>
  <linearGradient id="an">
   <stop stop-color="#b9cb42" offset="0"/>
   <stop stop-color="#5d9d2c" offset="1"/>
  </linearGradient>
  <linearGradient id="ap">
   <stop stop-color="#d0d64e" offset="0"/>
   <stop stop-color="#6ea530" offset="1"/>
  </linearGradient>
  <linearGradient id="ao">
   <stop stop-color="#c5c5c5" offset="0"/>
   <stop stop-color="#f9f9f9" offset=".45144"/>
   <stop stop-color="#707070" offset="1"/>
  </linearGradient>
  <filter id="ba" color-interpolation-filters="sRGB">
   <feGaussianBlur stdDeviation="0.95351151"/>
  </filter>
  <linearGradient id="bb" x1="1253.2" x2="1253.2" y1="625.3" y2="650.5" gradientTransform="matrix(.36713 0 0 .54279 133.71 98.74)" gradientUnits="userSpaceOnUse" xlink:href="#an"/>
  <linearGradient id="bc" x1="1253.2" x2="1253.2" y1="625.3" y2="650.5" gradientTransform="matrix(-.65838 0 0 .53572 1398 95.02)" gradientUnits="userSpaceOnUse" xlink:href="#an"/>
  <linearGradient id="bd" x1="1253.2" x2="1253.2" y1="625.3" y2="650.5" gradientTransform="matrix(.91347 0 0 .82349 -546.66 -101.79)" gradientUnits="userSpaceOnUse" xlink:href="#an"/>
  <linearGradient id="be" x1="1253.2" x2="1253.2" y1="625.3" y2="650.5" gradientTransform="matrix(-.61827 0 0 .60706 1453.7 40.94)" gradientUnits="userSpaceOnUse" xlink:href="#an"/>
  <linearGradient id="bf" x1="1253.2" x2="1253.2" y1="625.3" y2="650.5" gradientTransform="matrix(.42511 0 0 .42511 168.55 148.42)" gradientUnits="userSpaceOnUse" xlink:href="#an"/>
  <linearGradient id="bg" x1="1253.2" x2="1253.2" y1="625.3" y2="650.5" gradientTransform="matrix(.62584 0 0 .47261 -283.14 165.21)" gradientUnits="userSpaceOnUse" xlink:href="#an"/>
  <linearGradient id="bh" x1="1118.8" x2="1123.2" y1="621" y2="527.76" gradientTransform="matrix(1.3679 0 0 1.3679 -964.89 -389.86)" gradientUnits="userSpaceOnUse">
   <stop stop-color="#92bf51" offset="0"/>
   <stop stop-color="#dce29a" offset="1"/>
  </linearGradient>
  <radialGradient id="at" cx="1072.8" cy="326.36" r="175.84" gradientTransform="matrix(-.041692 .85432 -1.3031 -.063592 990.74 -546.58)" gradientUnits="userSpaceOnUse">
   <stop stop-color="#cad44c" offset="0"/>
   <stop stop-color="#6da331" offset="1"/>
  </radialGradient>
  <radialGradient id="au" cx="1165.9" cy="529.59" r="125.71" gradientTransform="matrix(1.3679 0 0 .68575 -964.77 -68.44)" gradientUnits="userSpaceOnUse">
   <stop stop-color="#7bab58" offset="0"/>
   <stop stop-color="#4c9d3e" offset="1"/>
  </radialGradient>
  <radialGradient id="av" cx="1261.2" cy="439.19" r="104.2" gradientTransform="matrix(-.36475 -.95637 2.6042 -.99321 84.968 1867.7)" gradientUnits="userSpaceOnUse">
   <stop stop-color="#b4dbd8" offset="0"/>
   <stop stop-color="#fbf8cf" offset="1"/>
  </radialGradient>
  <linearGradient id="bi" x1="758.41" x2="1279.1" y1="321.25" y2="591.74" gradientTransform="matrix(1.3679 0 0 1.3679 -1005.6 -415.78)" gradientUnits="userSpaceOnUse">
   <stop stop-color="#0eb1d4" offset="0"/>
   <stop stop-color="#0eb1d4" offset=".29255"/>
   <stop stop-color="#ebe98c" offset="1"/>
  </linearGradient>
  <radialGradient id="aw" cx="1156.9" cy="537.85" r="125.65" gradientTransform="matrix(1.3679 0 0 .75365 -964.77 -91.145)" gradientUnits="userSpaceOnUse">
   <stop stop-color="#bed575" offset="0"/>
   <stop stop-color="#67b255" offset="1"/>
  </radialGradient>
  <linearGradient id="bj" x1="1144.7" x2="1188.8" y1="529.13" y2="523.63" gradientUnits="userSpaceOnUse">
   <stop stop-color="#4a3f44" offset="0"/>
   <stop stop-color="#3a3236" offset="1"/>
  </linearGradient>
  <linearGradient id="bk" x1="1129.1" x2="1125.9" y1="497.27" y2="524.88" gradientUnits="userSpaceOnUse">
   <stop stop-color="#615652" offset="0"/>
   <stop stop-color="#786964" offset="1"/>
  </linearGradient>
  <linearGradient id="bl" x1="1157.9" x2="1164.8" y1="514.02" y2="477.38" gradientUnits="userSpaceOnUse">
   <stop stop-color="#0f778d" offset="0"/>
   <stop stop-color="#16b4d6" offset="1"/>
  </linearGradient>
  <radialGradient id="ax" cx="1083.7" cy="491.56" r="144.24" gradientTransform="matrix(.47189 .54098 -.75892 .66199 602.61 -515.03)" gradientUnits="userSpaceOnUse">
   <stop stop-color="#77a237" offset="0"/>
   <stop stop-color="#46862d" offset="1"/>
  </radialGradient>
  <radialGradient id="ay" cx="489.63" cy="864.48" r="136.51" gradientTransform="matrix(1.2268 -.063507 .019057 .36812 -13.34 264.09)" gradientUnits="userSpaceOnUse">
   <stop stop-color="#0ff" offset="0"/>
   <stop stop-color="#91cfdf" offset="1"/>
  </radialGradient>
  <linearGradient id="bm" x1="1628.9" x2="1628.9" y1="858.52" y2="867.32" gradientTransform="matrix(1.3679 0 0 1.3679 -1584.8 -682.44)" gradientUnits="userSpaceOnUse">
   <stop stop-color="#faca7a" offset="0"/>
   <stop stop-color="#c2813c" offset="1"/>
  </linearGradient>
  <linearGradient id="bn" x1="1435.8" x2="1436" y1="865.09" y2="871.59" gradientTransform="matrix(1.3679 0 0 1.3679 -1364.7 -683.21)" gradientUnits="userSpaceOnUse">
   <stop stop-color="#eeb04f" offset="0"/>
   <stop stop-color="#e19b45" offset="1"/>
  </linearGradient>
  <radialGradient id="az" cx="137.93" cy="573.09" r="209.79" gradientTransform="matrix(-.85601 .89212 -2.1253 -2.0393 1591.7 1343.4)" gradientUnits="userSpaceOnUse" xlink:href="#ap"/>
  <radialGradient id="aj" cx="188.93" cy="809.99" r="1.961" gradientTransform="matrix(2.085 .82071 -2.0674 3.8151 1469.6 -2434.5)" gradientUnits="userSpaceOnUse" xlink:href="#ao"/>
  <radialGradient id="ak" cx="188" cy="811.32" r="2.8433" gradientTransform="matrix(.34852 -1.8621 2.427 .70949 -1846.4 585.56)" gradientUnits="userSpaceOnUse" xlink:href="#ao"/>
  <radialGradient id="al" cx="189.26" cy="811.66" r="2.8433" gradientTransform="matrix(2.8391 1.1642 -.53217 1.6019 83.835 -708.5)" gradientUnits="userSpaceOnUse" xlink:href="#ao"/>
  <radialGradient id="am" cx="188.44" cy="813.07" r="1.961" gradientTransform="matrix(-3.8989,-1.2326,1.5309,-3.2613,-321.51,3695.6)" gradientUnits="userSpaceOnUse" xlink:href="#ao"/>
  <linearGradient id="ai" x1="780.53" x2="866.23" y1="671.33" y2="670.51" gradientUnits="userSpaceOnUse" xlink:href="#ao"/>
  <linearGradient id="bo" x1="164.29" x2="222.52" y1="665.81" y2="839.39" gradientTransform="matrix(1.3679,0,0,1.3679,-65.966,-631.35)" gradientUnits="userSpaceOnUse">
   <stop stop-color="#c0ce49" offset="0"/>
   <stop stop-color="#dae748" offset="1"/>
  </linearGradient>
  <linearGradient id="bp" x1="160.27" x2="256.75" y1="669.4" y2="871.3" gradientTransform="matrix(1.3679,0,0,1.3679,-65.966,-631.35)" gradientUnits="userSpaceOnUse" xlink:href="#ap"/>
  <linearGradient id="aq" x1="1544.6" x2="1515" y1="801.87" y2="926.71" gradientTransform="matrix(1.3679 0 0 1.3679 -1584.4 -681.18)" gradientUnits="userSpaceOnUse">
   <stop stop-color="#d7d864" offset="0"/>
   <stop stop-color="#0d7a2d" offset="1"/>
  </linearGradient>
  <linearGradient id="ar" x1="1560.2" x2="1562.2" y1="863.49" y2="923.91" gradientTransform="matrix(1.3679 0 0 1.3679 -1584.4 -681.18)" gradientUnits="userSpaceOnUse">
   <stop stop-color="#95c051" offset="0"/>
   <stop stop-color="#1f962d" offset="1"/>
  </linearGradient>
  <linearGradient id="as" x1="1253.2" x2="1253.2" y1="625.3" y2="650.5" gradientTransform="matrix(1.3679,0,0,1.3679,-966.27,-395.63)" gradientUnits="userSpaceOnUse" xlink:href="#an"/>
 </defs>
 <path d="m0.16815-0.18197c0.16357 224.21 0.0075966 392.79 0.588 597.49 341.11-1.2649 503.12-17.738 653.09-15.048 37.583-1.2413 102.62 15.05 158.67 14.401 1.4324-284.1 1.1271-399.99-1.3286-595.59-352.77-2.6223-513.08-1.4283-811.01-1.2492z" fill="url(#bi)"/>
 <path d="m535.65 247.76c1.0381-3.5407 0.60723-7.8159 4.6528-9.8529-0.86933-3.0779-2.9301-6.4308 3.0106-7.9371-0.86728-6.0597-3.0367-12.735 5.7476-14.232-0.80326-26.487 39.63-47.433 55.012-10.948 6.2794-1.8787 12.781-4.6164 15.053 9.0319 1.5551-1.0931 2.0832-2.597 6.0212-2.7369 0.23173-2.2258-0.0424-5.0136 4.6528-6.2949 0.46921-2.2233 0.74293-4.504 5.4738-5.4738-8.6784-18.441-4.6131-28.163 11.221-29.833 0.32844-3.5106 1.055-6.8917 11.495-7.116-16.52-35.012 26.647-88.782 49.538-49.538 4.5274-5.8958 9.7056-5.4992 15.327-0.82107 1.6469-1.1627 3.4621-1.4827 5.4738-0.82108-0.39027-2.5184 1.1361-2.8463 3.2844-2.4632 0.17784-4.3567-2.6884-10.374 4.9264-10.674-1.1206-77.452 63.221-29.983 37.222 43.791 7.1144-0.32774 8.5357 4.021 8.4846 9.5792 13.396-3.394 9.4475 7.9675 6.0212 18.885 8.4428 2.0392 7.4212 9.0735 6.8423 15.874 1.048-0.17236 3.4781-0.14516 8.7581 4.1054l-4.1053 68.423-137.94 70.065-122.61-4.9265-20.253-49.265z" fill="url(#av)"/>
 <path d="m460 302.25c1.947-2.1347 4.1501-5.2142 7.5601-5.0318 2.8219 0.0925 5.7381 0.2509 7.5352-2.3224 1.1582-2.3732 1.5253-5.4417 3.0965-8.1283 2.7593-3.9816-2.1935-7.0313-0.77413-10.838 3.6706-3.8691 8.616-4e-3 11.999 2.3224 2.2537-0.4506 4.1349-1.522 3.8706-4.2577-2.5872-0.78444-7.3022-0.36654-5.4188-4.2577-2.2358-3.7966-2.7958-7.6384-1.5482-11.999 1.8659-0.39019 4.2598 0.59273 5.4624 0.0432 0.66674-2.3446-0.1108-5.665 2.666-7.0104 3.4918-0.48076 6.9601-5.8616 9.6764-0.38706 3.1742 0.90345 8.387 0.19753 9.6766-3.0965 2.6607-2.5163 5.5768-5.8313 6.9671-9.2895 1.3072-4.3987 7.0333-1.5752 5.8058 2.4681-0.66838 3.0796 2.5096 4.443 5.1172 4.1119 3.2913 0.37861 7.6731-4.427 9.9782-0.38706 2.2519 3.2139 1.0308 6.2934-0.77412 9.2894-1.6707 2.4938-0.66784 4.799 2.3224 5.0318 0.8551 0.0253-0.27975 3.5816 0 5.7706-1.6128 3.4513 0.2833 5.6016 4.2576 5.8412 3.5813-0.01 2.3385-3.4883 5.263 0.57948 0.8008 3.9401 2.7185 8.0915 1.3169 12.194-3.8431 3.7604 1.7645 7.5198 5.0319 8.1283 2.8256 1.5828 0.90271 5.769 1.9666 8.3488-0.6956 3.1145-0.46661 5.7952-0.0191 5.9684 1.7704 3.7179 6.5812 3.5272 10.439 4.6487 5.3996 1.4486 11.4 1.2998 17.031 2.3224 2.6597 1.0309 5.8953 0.72535 8.9023 0.77412 0.50149-0.16759 0.50258 0.16757 29.61-19.934 30.468-23.862 31.631-27.143 33.094-30.384 4.6979-2.406 4.8747-8.4196 9.6764-8.9024 2.2478-4.3775 9.2875-1.784 12.386-4.6447 2.3408 4.8419 3.361 5.2975 6.9671 0.38706 5.1672-1.8163-1.7534-4.602-3.8706-4.2577 3.536-1.2665 6.9005-2.8269 7.3541-5.0318 3.418 1.9344 3.2512 9.94 9.6766 5.8059 3.3368-5.2734-7.2247-1.9157-3.4836-5.0318 2.7085-3.2372 7.5682-4.8378 7.3542-10.064 1.4338-3.457 0.0493-7.3547 1.9352-10.064 3.6007-6.2804-6.1946-3.3246-7.7412-8.1283-1.518-6.6059 9.0235-5.9063 9.6766-11.612 3.4449-2.1818 8.011 1.3779 11.999-0.38706-0.45306-2.5941 5.4009-1.1618 8.1283-0.77413h3.4835c1.5295-5.7134-8.9529-6.9438-2.7094-13.547 3.4353-2.9256-5.4651-10.058 1.179-10.859 3.5315 2.4659 7.4247 3.257 11.335 1.2028 1.7783-2.5544 4.0358-4.3896 8.3869-1.9553 3.0381 3.0166 8.3192 1.3527 11.612 0 2.8712-2.3046 8.8097-2.4342 10.666-0.34553 3.6296 1.7596 9.1544 1.3626 9.0743 7.3126 1.9662 4.1398-0.72269 9.8654 2.3224 13.547 2.6373 4.2554-6.8593 10.32 0.387 10.838 3.1-6.4728 7.3355-0.8278 11.225 2.3224 3.4608 2.9237 9.8996 6.6773 15.636 6.2708 0.46664 0.6058 9e-3 15.197-0.47455 18.584-0.78761 19.828-26.187 78.918-60.149 103.38-31.744 22.859-81.803-17.089-158.99 3.564z" fill="url(#au)"/>
 <path d="m771.57 186.13-4.25 1.5625c-6.2216-3.6298-4.7962 7.4695-10.438 0-6.5188-5.6145-6.934 7.4844-13.156 6.9688-4.2938 3.2666 5.542 4.6496 8.125 5.7812 4.9893 1.9362 8.43 5.8502 10.844 9.3125-4.1436 3.4759-8.2545 1.9595-10.844-2-4.3016-2.2824-8.9378-1.3591-13.156-1.0938-4.2534-3.269-7.5403 2.1955-11.25 2.3125-6.3181-2.628-13.112 9e-3 -11.219 5.8125-4.9648 0.44422-0.53295 7.6488 3.6562 6.1875 5.1927-0.42307 9.8989 0.79318 14.156 3.0938 0.88999 3.0098 5.2082 8.5222 1.1562 10.438-3.6656 2.4718-9.2471-5.5487-11.219 1.1875-3.6461 0.52702-9.99-1.871-10.062 3.4688-0.1528 6.0064-9.6086 3.7284-6.5938 10.844 1.8181 3.9566 0.21594 5.8098 5.0312 8.9062-1.7692 3.7551-2.547 6.774 0 10.438-6.8468 1.2144-9.1352-7.4797-13.938-10.844-1.4844-4.1474-4.1018-3.8002-4.625-0.75-4.3018-4.0871-4.3694 2.8616-7.3438 4.25-5.321 0.22202-8.0403 7.9604-12 2.3125-4.8397-5.4924-5.1297 4.2436-8.5312 5-2.3529 2.2476-1.9485 36.235-54 55.781-53.403 15.602-55.68-17.407-56.688-18.969-2.7533-2.0426-2.6518-5.4165-2.7188-8.5312-1.3581-2.6924-5.3221-4.2911-5.8125-7.3438-1.2-1.0176-2.9758-2.9857-0.78125-5.8125 2.8159-2.1487-3.3809-5.6555-5.7812-5.4062-2.6906 0.1832-5.6865-0.41962-8.125 0.375-4.5417 0.86487-4.0491-1.9608-1.1875-3.0938 3.5729-1.0616 5.7106-3.5348 7.375-6.9688 5.3213-3.5342 1.3879-6.4981-0.0313-10.062 0.38754-2.4989-0.34212-4.5685-1.125-6.5938-1.8766-5.2686-4.0495 1.83-7.5938 0.375-6.1779 1.1182 0.68721 4.4562 2.1562 6.2188 4.7763 0.66892-0.52693 5.6257-3.0938 6.1875-3.2188 2.5419-7.5018 2.0142-11.312 1.1875-2.6414-3.2263 6.0248-3.7593 4.375-7.7188-1.8607-3.5684-6.2692-3.782-10.094-3.5312-1.569 2.6377-3.5367 3.5407-6.625 3.0938-3.748-0.65933-5.3729 1.5915-8.0938 3.0938-4.0467 4.0178 0.59094 7.9624 1.1875 11.625 1.672 1.2139 7.3078 1.732 6.2188 3.0938-3.4329-8e-3 -7.0821 0.0354-9.3438 2.3125 1.9879 0.59264-17.146 25.184-33.156 37.438-17.445 13.351 227.38 119.19 350.39 103.62 0.60868-74.328-0.55543-123.28 0.46921-192.93-17.121-17.787-23.164-8.7298-24.672-10.032 5.7859-3.8653-1.6768-8.5642-3.5-1.9375-4.0447-2.3408-8.735-4.0928-12.781-5.0312 6.5142-1.7212 1.0675-9.3306 6.25-11.219 4.501-8.0316-6.5749-4.1066-6.25-9.25v-3.1562z" fill="url(#aw)"/>
 <g transform="matrix(1.3679 0 0 1.3679 -966.34 -392.77)" stroke="#000" stroke-width=".1">
  <path d="m1092.5 524.9c1.9892-4.1043 4.9812-6.8373 10.169-5.6104-0.2737-4.4326-1.2794-9.1528 5.659-10.752-0.5026-6.279 0.074-11.077 7.7853-7.8226l81.91 7.2566c4.3308-0.0727 4.3004-5.5914 9.3373-2.8295 1.8879-3.485 3.7605-7.0159 8.7714-1.1318 3.4773-0.80406 7.4083-2.836 6.5079 8.2056 3.7961 1.1768 4.6351 3.48 2.8295 6.7908 3.7229 5.5473 1.7245 8.674-1.4148 11.318l3.1125 0.5659c9.0978 1.0404 7.0415 6.4748 7.9226 10.752 6.2033-2.9682 13.606-1.3594 9.5658 8.257 4.2761 0.0103 6.044 6.1909-0.5114 6.7393 1.8274 1.0286 2.2218 2.4155 0.8488 4.2442 3.5879 0.9066 2.8202 3.1743 2.2636 5.376l-20.938 9.0544-134.97-33.388z" fill="#31a941"/>
  <path d="m1099.3 524.94c-0.18-3.1892 1.1949-5.2589 7.6396-3.6783-0.569-4.4336-3.4352-9.4416 5.0931-11.601-3.8754-9.752 2.6204-6.2158 6.7908-5.659l78.094 9.6203 7.3567-1.4147c3.7193-4.0203 8.5432 0.57761 3.6783 4.8101 2.6061-0.52515 4.6686 0.47169 5.9419 3.6784-1.1431-6.9788 6.8042-6.1805 5.0931-0.84885 7.2203 2.1088 1.4922 10.208-2.8295 7.6396-3.8019 0.60309-5.6442 2.3259-7.6396 3.9613 2.1397 0.15352 4.5307-0.19561 5.659 1.9806 6.1433-1.7298 7.8237-0.28599 1.9806 6.5078-1.317 2.451-0.1458 3.9688 0.5659 5.659 0.7556-2.2889 2.0147-3.55 4.2443-2.8295 4.0598-13.649 15.645-3.0398 9.3373 5.0931 1.6034-1.3194 3.2068-0.77211 4.8102 0.5659 4.5745-11.318 14.566 7.1374 3.3954 5.659-3.3306-0.36023-4.0864 1.082-4.8102 2.5465 5.2351-0.0323 9.6957 0.46004 6.7908 5.942l-13.864 6.5078-126.2-33.671z" fill="#11862d"/>
  <path d="m1106.3 525.23c1.2037-1.7177 1.0662-3.379 7.3567-2.8295-2.5963-6.9722 0.8578-7.4616 5.659-6.5078l75.548 2.8295c6.7791-1.3017 8.6956 0.63828 3.4801 7.333 7.1146-0.29408 5.953 4.4278 4.4425 9.3611 7.5893 0.60815 7.5439 7.6295 8.7714 13.582l6.5079 0.5659c5.0097-3.1808 9.1075-3.8943 9.6203 5.0931l1.4147 6.2249-5.376 3.1124-118.84-32.822z" fill="#065728"/>
 </g>
 <g transform="matrix(1.3679 0 0 1.3679 -963.58 -387.83)">
  <path d="m1142 512.32 50.682 9.5854c-3.7291 8.1741-6.5295 13.795-9.5495 20.019l-43.504-14.077z" fill="url(#bj)"/>
  <path d="m1120.8 526.92-2.2636-17.543 11.035-28.295 12.804 30.983-2.2636 15.774z" fill="url(#bk)"/>
  <path d="m1128.2 476.98 2.4051 4.2442-12.096 29.568-3.3954-0.42443z" fill="#113136"/>
  <path d="m1142 512.92 54.468 10.186 1.9807-35.227c-23.823-16.923-46.992-11.597-70.313-11.459l-12.945 33.848 13.086-32.858z" fill="url(#bl)"/>
  <path d="m1125.2 511.52 0.2812 11.719 7.7813 0.15625 0.8437-11.594l-8.9062-0.28125zm1.2812 1.3438 2.1876 0.125-0.094 3.6562h-2.1562l0.062-3.7812zm3.5313 0.15625 2.2187 0.0937-0.125 3.625h-2.1562l0.063-3.7188zm-3.4687 5.2812 2.1874 0.125-0.094 3.625h-2.1563l0.063-3.75zm3.4062 0.0313 2.25 0.0937-0.1562 3.625h-2.1876l0.094-3.7188z" fill="#f2f2f2"/>
  <path d="m1146.7 518.31 0.4802 9.1038 13.288 1.5191 1.4408-8.8051-15.209-1.8179zm2.1878 1.2684 3.7357 0.48976-0.1606 2.8077-3.682-0.3875 0.1059-2.91zm6.0302 0.75535 3.7888 0.47114-0.2135 2.778-3.682-0.3875 0.1076-2.8616zm-5.9233 3.4566 3.7353 0.48972-0.1605 2.7836-3.6822-0.38752 0.1076-2.8857zm5.8166 0.63636 3.8422 0.47676-0.2668 2.7724-3.7356-0.39315 0.1605-2.856z" fill="#f2f2f2"/>
  <path d="m1170.7 522.64-0.3305 9.4082 12.655 3.1985 2.1534-8.8645-14.478-3.7421zm1.995 1.5723 3.5525 0.96357-0.3989 2.8635-3.5098-0.85194 0.3553-2.9754zm5.7376 1.5192 3.6053 0.95102-0.4473 2.8265-3.5098-0.85194 0.3527-2.9254zm-6.0013 2.8193 3.5521 0.96349-0.3969 2.8388-3.51-0.85199 0.3549-2.9502zm5.5423 1.3707 3.6562 0.96336-0.4982 2.8142-3.5608-0.86435 0.403-2.9131z" fill="#f2f2f2"/>
 </g>
 <path d="m448.83 320.53c48.257 5.7344 96.031 12.316 147.08 13.16 0 0 75.225 19.67 145.53 49.544 54.054 70.128 0.97343 104.03-327.45 96.765l-80.51 22.45-53.41-176.5 117.66-17.03z" fill="url(#at)"/>
 <path d="m735.38 380.41-23.22 52.66-315.84 15.46 1.5312 56.531 414.4 6.8029c0.65534-43.786-0.38023-72.768 0.44386-92.08l-77.313-39.37z" fill="url(#ax)"/>
 <path d="m592.97 333.19c-12.076 1.1513-24.414 2.46-37.77 4.3791-39.975 4.1327 25.476 8.6415 56.447 17.035 68.481 18.56 200.03 45.385 76.474 63.884-103.29 15.465-214.2 36.285-315.2 38.958l1.775-6.4908c218.93-13.975 213.71-29.691 320.15-43.482 79.899-10.352-22.101-35.102-68.169-44.98l-75.404-16.167c-36.168-7.7547-22.592-8.1532 39.412-14.779z" fill="url(#bh)"/>
 <path d="m516.22 465.38c1.4005 0.0428 2.3816-1.0132 0.7023-1.4699-0.66811-0.57514-3.0835-0.19236-1.238-1.0537 1.2251-1.6232-3.8877 0.0445-3.0883-1.7681 0.88315-2.1593-3.9565-2.3405-2.8795-0.2095 0.64759 1.3377-0.82733-1.8693-1.7715-0.64819-0.41134 1.0576-1.6831 2.6376-2.665 0.87456-1.372-1.015-4.151-0.51777-4.1152-2.5348-0.94744-1.9117-3.3751 0.63019-4.1587 1.5173-0.93171 0.69678-0.59642-2.2791-1.9466-0.97097-0.91474 0.43726-1.8425 2.4991-2.2505 2.1002-0.59561-1.8622-3.8142-0.8416-2.9566 0.87175 0.63746 1.2146-0.71215 1.6044-2.0748 1.5207-0.43652 0.73747 0.56783 1.7836-1.2484 1.9036-2.8146 9.0939 1.9294 7.6535 33.464 8.0022 1.6473-1.8487 1.5357-3.7841 0.17948-5.7808-1.309-2.2333-5.3691-0.73283-3.9515-2.3541z" fill="url(#bg)"/>
 <path d="m417.85 500.91-66.71 98.368c183.84-0.0235 300.56-1.5173 460.92-2.0532-0.15697-54.48 0.16264-43.991-0.0427-91.45-124.18-1.65-229.28 30.063-394.18-4.8665z" fill="url(#ay)"/>
 <g transform="matrix(1.3679 0 0 1.3679 -970.14 -384.4)" fill="#b5ecf9" filter="url(#ba)">
  <path d="m1188.3 666.82c4.7812-1.1245 6.0745 6.0456 11.186 3.1739 5.3489-0.7066 10.765 0.19766 16.119-0.59151 4.3427-1.1852 12.123 0.91444 13.851-3.5459-1.0181-4.7251 6.9033-1.1424 9.7316-1.9464 5.1064 0.43374 10.247 1.1887 15.186 2.4858 3.9424 0.98889 7.6904 2.6639 11.912 1.8728 4.548 0.17826 9.1291-0.16221 13.674 0.27726 1.8292-0.2313 6.1431 0.4891 2.1801 1.109-5.9532 0.68194-11.876 1.9036-17.895 1.8606-5.2245-0.62933 2.3697 1.1733 3.778 1.6852 4.5464 2.5334 9.8824 3.236 15.019 3.6808 1.9554 0.17527 8.1811 2.972 3.2455 3.4055-4.948 0.51424-9.1178-2.0851-13.785-3.0213-4.7779-1.6758-9.3601-3.9164-13.868-6.0785-4.4047-3.5808-10.675-2.4996-16.042-3.1977-3.9541 1.7092-10.207-4.0954-11.037 2.1114-3.7139 1.8376-9.2241 0.22897-12.534 2.446 5.3562 0.92784 10.427 3.748 15.583 5.7814 3.4875 0.85849 12.086 5.071 4.8836 7.3478-4.8076 1.6694-10.052 1.9525-15.123 2.5753-5.4559 0.56979-10.994 1.3104-15.903 3.7781-5.0042 1.9504-9.6581 4.6651-14.55 6.7403-6.8993 1.0556-13.913 1.4176-20.828 2.3487-2.3268-0.0746-7.5554 0.14661-8.2881-1.0061 4.7555-1.3245 9.8386-1.3923 14.743-2.0775 5.5679-0.85323 11.28-1.2485 16.698-2.7659 4.9709-2.125 9.7048-4.7047 13.882-8.062 3.9625-3.1332 9.6055-3.2809 13.852-5.9718 4.7746-5.0099-5.5112-7.7022-9.638-7.3301-6.477-0.68543-12.996-0.94157-19.493-0.9757-4.0355-1.193-6.3787-5.5739-11.293-4.3748-4.5843 0.38302-9.1802 0.55863-13.77 0.13157-3.7836-3.0031 4.4018-1.3223 6.0868-1.7417 4.1454-0.0414 8.2909-0.0828 12.437-0.12428z"/>
  <path d="m1253.6 664.22c2.1556 0.0992 4.252 0.48073 6.4021 0.59015 2.3862-0.0697 4.8133 0.20264 7.1402-0.26619 2.0054-0.17222 4.0219-0.0786 6.0142-0.34807 2.5024 0.17345 5.0229 0.25825 7.4969 0.40677 2.4518 0.28948 4.9455 0.19948 7.442 0.20988 2.2015-0.44133 4.4937-8e-3 6.7409-0.0112 2.1942-0.30863 3.7337 1.1239 3.2095 2.7023 0.2335 1.3207-0.6659 2.5929-0.7409 3.8891 0.098 1.1756-0.081 3.1963-2.312 2.5963-2.1877-0.32704-4.4239-0.11161-6.6361-0.17492-1.2514-0.5531-4.889-0.20047-2.6371-0.7685 2.1648-0.36831 3.5865-1.7786 5.6096-2.3772 1.57-0.53425 3.2973-2.8283 0.7694-3.1631-1.8613-0.81288-3.8716-1.5366-6.0719-1.5364-1.6414-0.23244-3.3511-0.25466-4.9889-0.0484-1.5038 0.22473-3.1383 0.0224-4.6934 0.0902-1.8027 0.0999-3.5284-0.10174-5.267-0.2109-1.8307 0.0379-3.6687-5e-3 -5.503 0.0112-2.4528 0.30338-5.0245 0.37561-7.539 0.40006-2.6658 0.2101-5.0588-0.73862-7.5725-1.2028-0.2859-0.0291-0.5771-0.0302-2.4334-0.69803 0.787-0.32353 3.2311-0.49529 5.5704-0.0902z"/>
  <path d="m1252.8 672.89c6.0459 0.75548 4.0507 9.9599 11.296 9.5544 7.3678 1.1273 14.72 2.3395 22.029 3.7785 7.3738-0.9436 3.2583 8.0067-1.2528 2.601-3.2497-1.3844-1.5626 5.3981-5.8234 4.5188-5.8426 1.0425-12.406 0.76689-17.254 4.5356 0.072 4.9431 9.0568 1.5802 12.814 1.34 3.1212-0.46957 7.6557-1.5497 9.72-2.2099-5.746 2.5498-12.043 3.4997-18.25 4.4203 4.8363 1.4875 11.369 0.33136 16.762 1.4915 2.8743-0.0151 7.971-0.19091 2.7137 1.6393-7.2387 1.2622-14.643 1.6574-21.981 2.0712-7.7485-0.97683-16.114-1.3932-23.178 2.4009-5.8528 0.44214-11.485 2.5797-17.353 2.2436-4.4063-1.1194 4.4568-1.9486 6.145-2.3172 3.9125-1.4932 10.564-0.67639 12.584-4.2566-3.422-1.9966-8.3781-0.17675-12.453-0.50613-6.2053 0.0172-12.405 0.11712-18.544 1.1818-5.4765 0.68921-10.968 1.2469-16.322 2.562-7.1039 1.5364-14.438-0.40929-21.503 1.4926-5.5102 0.89309-11.042 1.3632-16.614 1.656-3.0556 0.42532-12.658 0.77227-7.3331-4.0652 5.1875-1.355 11.458 0.04 17.056-0.27144 6.7151-0.78144 13.37-0.035 19.991 0.99034 5.7024 0.52747 10.903-2.1089 16.514-2.5681 5.0975-1.1333 10.135-2.8004 15.4-2.9325 5.1199-1.588 14.645 0.10646 17.08-3.5734-6.8465-1.3699-13.955 0.87505-20.877-5e-3 -1.3029-3.1984 7.1973-2.7031 9.837-3.2091 9.1768-1.48 18.454-2.7154 27.47-4.9402 2.037-1.4224 0.8802-7.0682 4.9103-3.9477 4.7109 1.0387 4.0435 6.8376-1.0663 5.7348-4.5025 0.90305-9.2539 1.0627-13.646 2.4142-0.026 6.0168 9.0816 4.1226 12.975 2.5197 6.1434-0.86861 11.799-3.7598 18.039-4.4366 4.9096 0.37421 5.769-4.9903 0.8169-5.7937-5.0268-3.9831-13.392-0.34638-17.368-6.0105-1.2641-5.9337-7.0474-7.5789-12.71-7.2677-2.3996-0.38077-4.9817-0.94034-7.9331-2.6085 5.1625 0.51355 11.195 1.4484 17.314 1.773z"/>
  <path d="m1155 669.93c3.7017 0.26391 7.3638 0.91533 11.088 0.69008 2.6872-0.23974 5.3629-0.20859 8.02 0.27537 2.6598 0.75461 5.4398 0.24947 8.0989 0.83089 2.9867 1.2356 6.2147 2.2619 8.4431 4.7647 2.1025 1.3813 4.6601 2.2259 7.1932 2.3296 2.2863 1.4048 7.0937-0.45966 7.4836 3.0026-1.0281 2.7379-3.6946 4.7198-6.6419 4.8437-3.0953 0.58261-6.2968 0.1633-9.3353 1.1513-3.2514 1.172-6.5975 2.4591-9.1965 4.8104-2.9105 2.4174-6.8078 2.3383-10.378 2.5783-4.5716 0.4916-9.2014 0.0123-13.773 0.30862-2.1904-0.0545-7.0326 1.6179-6.6253-1.8451 1.8732-2.5908 6.4894 0.17613 9.4521-0.6445 2.7304-0.39259 5.5161-0.0854 8.2493-0.40623 2.7341-0.29463 5.5102 1.0364 8.1122-0.2594 2.3547-1.4757 4.3981-3.6133 7.369-3.7039 4.5123-0.92476 9.2294-1.0002 13.478-2.98 2.2816-0.46254 5.6207-3.139 1.5192-3.9729-3.487-1.8047-7.8891-2.2878-10.317-5.6839-2.3947-1.5031-5.0256-2.659-7.6163-3.747-3.9138-1.1399-0.9642 2.485 0.802 3.1824 2.5701 1.5006 4.4647 6.0673 1.2103 7.8363-3.8136 2.3129-8.3759 1.235-12.568 1.6064-4.0225 0.67185-7.4533 3.7576-11.708 3.1214-3.6034-0.67171-7.0933 0.83062-10.65 1.0546-4.1565 0.0603-2.9016-6.2974 0.6532-6.0377 3.6423 0.88973 7.385-0.0209 11.079 0.13715 3.1808-0.60464 6.3168-1.625 9.5928-1.3744 3.1865 0.25565 2.9535-3.95 6.1028-3.8038 3.3572-2.5188-0.2429-5.1641-3.1044-5.3764-4.0542-0.95456-8.2376 0.0948-12.342 2e-3 -2.5847 0.74328-5.8073-0.52509-7.9321-0.38903 2.6829 1.6929 4.7985 6.4806 0.3203 7.3862-2.7597 0.55196-5.6914 0.62042-8.4971 1.0194-5.1658 0.0233-10.405 1.0762-15.574 0.14941-2.0354 0.70915-6.5866-1.6731-3.5933-2.966 2.7085 1.2197 5.8159 1.1365 8.7152 1.3923 3.4965 0.19675 6.962-0.17929 10.384-0.87083 2.6876-0.38857 6.0717-0.17538 7.9337-2.4933 0.7393-3.3497-4.8619-3.5482-7.2495-3.8464-3.0614 0.26067-6.1559 1.0539-9.207 0.17751-1.6559-0.49097-7.4266-0.22298-5.5397-2.8294 2.9787 0.50071 5.9655 0.85316 9.019 0.66863 2.0367 0.0259 6.2547 1.4662 6.7016-0.0998-1.0352-0.50297-4.1826-1.7126-0.049-1.7024 4.2645 0.30152 7.4819 1.5438 10.877 1.7134z"/>
 </g>
 <path d="m405.47 488.5 26.312 23.25c129.88 27.695 262.6 16.941 380.8-2.5938-3e-3 -4.8092-0.0116-8.1261 0-12.732l-407.11-7.9248z" fill="url(#bm)"/>
 <path d="m525.44 495.5c-30.997 7e-3 -61.531 0.30746-90.938 1.125l1.3438 8.1562c161.19 14.092 217.73 1.7041 377.06 0.14988 1e-3 -2.5482-0.9957-6.3102-0.9904-8.7998-82.4 1.052-196.46-0.65197-286.47-0.63137z" fill="url(#bn)"/>
 <path d="m138.44 268.44c-56.927 0.30632-114.19 17.562-138.54 41.875 0.3812 80.611 0.17537 167.94 0.5625 287.05 401.42-0.60474 425.24 7.9349 568.51 0.06633-58.355-29.233-154.18-106.35-251.92-247.47-41.36-59.718-112.97-81.885-178.62-81.531z" fill="url(#az)"/>
 <g transform="matrix(1.3679,0,0,1.3679,-65.966,-631.35)">
  <g transform="matrix(1.0821 -.57512 .59054 1.0538 -504.17 76.874)">
   <path d="m190.95 806.77c0.96312 0.26413 1.4244 1.237 1.0304 2.1729-0.39404 0.93594-2.0788 3.1024-3.0419 2.8383-0.96311-0.26413-0.83984-2.8589-0.4458-3.7948 0.39405-0.93595 1.4942-1.4806 2.4573-1.2164z" fill="url(#aj)"/>
   <path d="m184.47 809.98c0.29428-1.0249 1.2022-1.5866 2.0279-1.2546 0.82569 0.33204 2.6929 1.9052 2.3986 2.9301-0.29428 1.0249-2.6386 1.1136-3.4643 0.78152-0.82568-0.33205-1.2565-1.4321-0.9622-2.457z" fill="url(#ak)"/>
   <path d="m193.79 813.52c-0.33104 1.0249-1.3523 1.5866-2.2811 1.2546-0.92879-0.33204-3.0292-1.9052-2.6982-2.9301 0.33102-1.0249 2.9681-1.1136 3.8969-0.78152 0.92879 0.33204 1.4134 1.4321 1.0824 2.457z" fill="url(#al)"/>
   <path d="m186.88 816.1c-0.96312-0.25433-1.4244-1.191-1.0304-2.0922 0.39403-0.90118 2.0788-2.9872 3.0419-2.7329 0.96311 0.25432 0.83984 2.7527 0.44579 3.6539-0.39404 0.90117-1.4942 1.4256-2.4573 1.1712z" fill="url(#am)"/>
   <path transform="matrix(.23043 0 0 .23043 .31765 657.08)" d="m823.75 670.62c0 2.8354-2.2186 5.1339-4.9554 5.1339s-4.9554-2.2985-4.9554-5.1339 2.2186-5.1339 4.9554-5.1339 4.9554 2.2985 4.9554 5.1339z" fill="url(#ai)"/>
  </g>
  <g transform="matrix(.82595 -.56375 .56375 .82595 -439.52 237.19)">
   <path d="m190.95 806.77c0.96312 0.26413 1.4244 1.237 1.0304 2.1729-0.39404 0.93594-2.0788 3.1024-3.0419 2.8383-0.96311-0.26413-0.83984-2.8589-0.4458-3.7948 0.39405-0.93595 1.4942-1.4806 2.4573-1.2164z" fill="url(#aj)"/>
   <path d="m184.47 809.98c0.29428-1.0249 1.2022-1.5866 2.0279-1.2546 0.82569 0.33204 2.6929 1.9052 2.3986 2.9301-0.29428 1.0249-2.6386 1.1136-3.4643 0.78152-0.82568-0.33205-1.2565-1.4321-0.9622-2.457z" fill="url(#ak)"/>
   <path d="m193.79 813.52c-0.33104 1.0249-1.3523 1.5866-2.2811 1.2546-0.92879-0.33204-3.0292-1.9052-2.6982-2.9301 0.33102-1.0249 2.9681-1.1136 3.8969-0.78152 0.92879 0.33204 1.4134 1.4321 1.0824 2.457z" fill="url(#al)"/>
   <path d="m186.88 816.1c-0.96312-0.25433-1.4244-1.191-1.0304-2.0922 0.39403-0.90118 2.0788-2.9872 3.0419-2.7329 0.96311 0.25432 0.83984 2.7527 0.44579 3.6539-0.39404 0.90117-1.4942 1.4256-2.4573 1.1712z" fill="url(#am)"/>
   <path transform="matrix(.23043 0 0 .23043 .31765 657.08)" d="m823.75 670.62c0 2.8354-2.2186 5.1339-4.9554 5.1339s-4.9554-2.2985-4.9554-5.1339 2.2186-5.1339 4.9554-5.1339 4.9554 2.2985 4.9554 5.1339z" fill="url(#ai)"/>
  </g>
  <g transform="matrix(1.3058 -.34004 .34579 1.2841 -374.11 -157.09)">
   <path d="m190.95 806.77c0.96312 0.26413 1.4244 1.237 1.0304 2.1729-0.39404 0.93594-2.0788 3.1024-3.0419 2.8383-0.96311-0.26413-0.83984-2.8589-0.4458-3.7948 0.39405-0.93595 1.4942-1.4806 2.4573-1.2164z" fill="url(#aj)"/>
   <path d="m184.47 809.98c0.29428-1.0249 1.2022-1.5866 2.0279-1.2546 0.82569 0.33204 2.6929 1.9052 2.3986 2.9301-0.29428 1.0249-2.6386 1.1136-3.4643 0.78152-0.82568-0.33205-1.2565-1.4321-0.9622-2.457z" fill="url(#ak)"/>
   <path d="m193.79 813.52c-0.33104 1.0249-1.3523 1.5866-2.2811 1.2546-0.92879-0.33204-3.0292-1.9052-2.6982-2.9301 0.33102-1.0249 2.9681-1.1136 3.8969-0.78152 0.92879 0.33204 1.4134 1.4321 1.0824 2.457z" fill="url(#al)"/>
   <path d="m186.88 816.1c-0.96312-0.25433-1.4244-1.191-1.0304-2.0922 0.39403-0.90118 2.0788-2.9872 3.0419-2.7329 0.96311 0.25432 0.83984 2.7527 0.44579 3.6539-0.39404 0.90117-1.4942 1.4256-2.4573 1.1712z" fill="url(#am)"/>
   <path transform="matrix(.23043 0 0 .23043 .31765 657.08)" d="m823.75 670.62c0 2.8354-2.2186 5.1339-4.9554 5.1339s-4.9554-2.2985-4.9554-5.1339 2.2186-5.1339 4.9554-5.1339 4.9554 2.2985 4.9554 5.1339z" fill="url(#ai)"/>
  </g>
  <g transform="matrix(.71932 .69468 -.69468 .71932 555.78 95.191)">
   <path d="m190.95 806.77c0.96312 0.26413 1.4244 1.237 1.0304 2.1729-0.39404 0.93594-2.0788 3.1024-3.0419 2.8383-0.96311-0.26413-0.83984-2.8589-0.4458-3.7948 0.39405-0.93595 1.4942-1.4806 2.4573-1.2164z" fill="url(#aj)"/>
   <path d="m184.47 809.98c0.29428-1.0249 1.2022-1.5866 2.0279-1.2546 0.82569 0.33204 2.6929 1.9052 2.3986 2.9301-0.29428 1.0249-2.6386 1.1136-3.4643 0.78152-0.82568-0.33205-1.2565-1.4321-0.9622-2.457z" fill="url(#ak)"/>
   <path d="m193.79 813.52c-0.33104 1.0249-1.3523 1.5866-2.2811 1.2546-0.92879-0.33204-3.0292-1.9052-2.6982-2.9301 0.33102-1.0249 2.9681-1.1136 3.8969-0.78152 0.92879 0.33204 1.4134 1.4321 1.0824 2.457z" fill="url(#al)"/>
   <path d="m186.88 816.1c-0.96312-0.25433-1.4244-1.191-1.0304-2.0922 0.39403-0.90118 2.0788-2.9872 3.0419-2.7329 0.96311 0.25432 0.83984 2.7527 0.44579 3.6539-0.39404 0.90117-1.4942 1.4256-2.4573 1.1712z" fill="url(#am)"/>
   <path transform="matrix(.23043 0 0 .23043 .31765 657.08)" d="m823.75 670.62c0 2.8354-2.2186 5.1339-4.9554 5.1339s-4.9554-2.2985-4.9554-5.1339 2.2186-5.1339 4.9554-5.1339 4.9554 2.2985 4.9554 5.1339z" fill="url(#ai)"/>
  </g>
  <g transform="matrix(.78244 .62273 -.62273 .78244 498.05 46.984)">
   <path d="m190.95 806.77c0.96312 0.26413 1.4244 1.237 1.0304 2.1729-0.39404 0.93594-2.0788 3.1024-3.0419 2.8383-0.96311-0.26413-0.83984-2.8589-0.4458-3.7948 0.39405-0.93595 1.4942-1.4806 2.4573-1.2164z" fill="url(#aj)"/>
   <path d="m184.47 809.98c0.29428-1.0249 1.2022-1.5866 2.0279-1.2546 0.82569 0.33204 2.6929 1.9052 2.3986 2.9301-0.29428 1.0249-2.6386 1.1136-3.4643 0.78152-0.82568-0.33205-1.2565-1.4321-0.9622-2.457z" fill="url(#ak)"/>
   <path d="m193.79 813.52c-0.33104 1.0249-1.3523 1.5866-2.2811 1.2546-0.92879-0.33204-3.0292-1.9052-2.6982-2.9301 0.33102-1.0249 2.9681-1.1136 3.8969-0.78152 0.92879 0.33204 1.4134 1.4321 1.0824 2.457z" fill="url(#al)"/>
   <path d="m186.88 816.1c-0.96312-0.25433-1.4244-1.191-1.0304-2.0922 0.39403-0.90118 2.0788-2.9872 3.0419-2.7329 0.96311 0.25432 0.83984 2.7527 0.44579 3.6539-0.39404 0.90117-1.4942 1.4256-2.4573 1.1712z" fill="url(#am)"/>
   <path transform="matrix(.23043 0 0 .23043 .31765 657.08)" d="m823.75 670.62c0 2.8354-2.2186 5.1339-4.9554 5.1339s-4.9554-2.2985-4.9554-5.1339 2.2186-5.1339 4.9554-5.1339 4.9554 2.2985 4.9554 5.1339z" fill="url(#ai)"/>
  </g>
  <g transform="matrix(.58332 .2493 -.2493 .58332 247.68 260.26)">
   <path d="m190.95 806.77c0.96312 0.26413 1.4244 1.237 1.0304 2.1729-0.39404 0.93594-2.0788 3.1024-3.0419 2.8383-0.96311-0.26413-0.83984-2.8589-0.4458-3.7948 0.39405-0.93595 1.4942-1.4806 2.4573-1.2164z" fill="url(#aj)"/>
   <path d="m184.47 809.98c0.29428-1.0249 1.2022-1.5866 2.0279-1.2546 0.82569 0.33204 2.6929 1.9052 2.3986 2.9301-0.29428 1.0249-2.6386 1.1136-3.4643 0.78152-0.82568-0.33205-1.2565-1.4321-0.9622-2.457z" fill="url(#ak)"/>
   <path d="m193.79 813.52c-0.33104 1.0249-1.3523 1.5866-2.2811 1.2546-0.92879-0.33204-3.0292-1.9052-2.6982-2.9301 0.33102-1.0249 2.9681-1.1136 3.8969-0.78152 0.92879 0.33204 1.4134 1.4321 1.0824 2.457z" fill="url(#al)"/>
   <path d="m186.88 816.1c-0.96312-0.25433-1.4244-1.191-1.0304-2.0922 0.39403-0.90118 2.0788-2.9872 3.0419-2.7329 0.96311 0.25432 0.83984 2.7527 0.44579 3.6539-0.39404 0.90117-1.4942 1.4256-2.4573 1.1712z" fill="url(#am)"/>
   <path transform="matrix(.23043 0 0 .23043 .31765 657.08)" d="m823.75 670.62c0 2.8354-2.2186 5.1339-4.9554 5.1339s-4.9554-2.2985-4.9554-5.1339 2.2186-5.1339 4.9554-5.1339 4.9554 2.2985 4.9554 5.1339z" fill="url(#ai)"/>
  </g>
  <g transform="matrix(.60624 0 0 .60624 25.488 291.09)">
   <path d="m190.95 806.77c0.96312 0.26413 1.4244 1.237 1.0304 2.1729-0.39404 0.93594-2.0788 3.1024-3.0419 2.8383-0.96311-0.26413-0.83984-2.8589-0.4458-3.7948 0.39405-0.93595 1.4942-1.4806 2.4573-1.2164z" fill="url(#aj)"/>
   <path d="m184.47 809.98c0.29428-1.0249 1.2022-1.5866 2.0279-1.2546 0.82569 0.33204 2.6929 1.9052 2.3986 2.9301-0.29428 1.0249-2.6386 1.1136-3.4643 0.78152-0.82568-0.33205-1.2565-1.4321-0.9622-2.457z" fill="url(#ak)"/>
   <path d="m193.79 813.52c-0.33104 1.0249-1.3523 1.5866-2.2811 1.2546-0.92879-0.33204-3.0292-1.9052-2.6982-2.9301 0.33102-1.0249 2.9681-1.1136 3.8969-0.78152 0.92879 0.33204 1.4134 1.4321 1.0824 2.457z" fill="url(#al)"/>
   <path d="m186.88 816.1c-0.96312-0.25433-1.4244-1.191-1.0304-2.0922 0.39403-0.90118 2.0788-2.9872 3.0419-2.7329 0.96311 0.25432 0.83984 2.7527 0.44579 3.6539-0.39404 0.90117-1.4942 1.4256-2.4573 1.1712z" fill="url(#am)"/>
   <path transform="matrix(.23043 0 0 .23043 .31765 657.08)" d="m823.75 670.62c0 2.8354-2.2186 5.1339-4.9554 5.1339s-4.9554-2.2985-4.9554-5.1339 2.2186-5.1339 4.9554-5.1339 4.9554 2.2985 4.9554 5.1339z" fill="url(#ai)"/>
  </g>
  <g transform="matrix(.93015 -.36717 .36717 .93015 -356.4 112.12)">
   <path d="m190.95 806.77c0.96312 0.26413 1.4244 1.237 1.0304 2.1729-0.39404 0.93594-2.0788 3.1024-3.0419 2.8383-0.96311-0.26413-0.83984-2.8589-0.4458-3.7948 0.39405-0.93595 1.4942-1.4806 2.4573-1.2164z" fill="url(#aj)"/>
   <path d="m184.47 809.98c0.29428-1.0249 1.2022-1.5866 2.0279-1.2546 0.82569 0.33204 2.6929 1.9052 2.3986 2.9301-0.29428 1.0249-2.6386 1.1136-3.4643 0.78152-0.82568-0.33205-1.2565-1.4321-0.9622-2.457z" fill="url(#ak)"/>
   <path d="m193.79 813.52c-0.33104 1.0249-1.3523 1.5866-2.2811 1.2546-0.92879-0.33204-3.0292-1.9052-2.6982-2.9301 0.33102-1.0249 2.9681-1.1136 3.8969-0.78152 0.92879 0.33204 1.4134 1.4321 1.0824 2.457z" fill="url(#al)"/>
   <path d="m186.88 816.1c-0.96312-0.25433-1.4244-1.191-1.0304-2.0922 0.39403-0.90118 2.0788-2.9872 3.0419-2.7329 0.96311 0.25432 0.83984 2.7527 0.44579 3.6539-0.39404 0.90117-1.4942 1.4256-2.4573 1.1712z" fill="url(#am)"/>
   <path transform="matrix(.23043 0 0 .23043 .31765 657.08)" d="m823.75 670.62c0 2.8354-2.2186 5.1339-4.9554 5.1339s-4.9554-2.2985-4.9554-5.1339 2.2186-5.1339 4.9554-5.1339 4.9554 2.2985 4.9554 5.1339z" fill="url(#ai)"/>
  </g>
  <g transform="matrix(.65079 0 0 .65079 -18.472 247.9)">
   <path d="m190.95 806.77c0.96312 0.26413 1.4244 1.237 1.0304 2.1729-0.39404 0.93594-2.0788 3.1024-3.0419 2.8383-0.96311-0.26413-0.83984-2.8589-0.4458-3.7948 0.39405-0.93595 1.4942-1.4806 2.4573-1.2164z" fill="url(#aj)"/>
   <path d="m184.47 809.98c0.29428-1.0249 1.2022-1.5866 2.0279-1.2546 0.82569 0.33204 2.6929 1.9052 2.3986 2.9301-0.29428 1.0249-2.6386 1.1136-3.4643 0.78152-0.82568-0.33205-1.2565-1.4321-0.9622-2.457z" fill="url(#ak)"/>
   <path d="m193.79 813.52c-0.33104 1.0249-1.3523 1.5866-2.2811 1.2546-0.92879-0.33204-3.0292-1.9052-2.6982-2.9301 0.33102-1.0249 2.9681-1.1136 3.8969-0.78152 0.92879 0.33204 1.4134 1.4321 1.0824 2.457z" fill="url(#al)"/>
   <path d="m186.88 816.1c-0.96312-0.25433-1.4244-1.191-1.0304-2.0922 0.39403-0.90118 2.0788-2.9872 3.0419-2.7329 0.96311 0.25432 0.83984 2.7527 0.44579 3.6539-0.39404 0.90117-1.4942 1.4256-2.4573 1.1712z" fill="url(#am)"/>
   <path transform="matrix(.23043 0 0 .23043 .31765 657.08)" d="m823.75 670.62c0 2.8354-2.2186 5.1339-4.9554 5.1339s-4.9554-2.2985-4.9554-5.1339 2.2186-5.1339 4.9554-5.1339 4.9554 2.2985 4.9554 5.1339z" fill="url(#ai)"/>
  </g>
  <g transform="matrix(.61072 .64606 -.64606 .61072 536.48 154.6)">
   <path d="m190.95 806.77c0.96312 0.26413 1.4244 1.237 1.0304 2.1729-0.39404 0.93594-2.0788 3.1024-3.0419 2.8383-0.96311-0.26413-0.83984-2.8589-0.4458-3.7948 0.39405-0.93595 1.4942-1.4806 2.4573-1.2164z" fill="url(#aj)"/>
   <path d="m184.47 809.98c0.29428-1.0249 1.2022-1.5866 2.0279-1.2546 0.82569 0.33204 2.6929 1.9052 2.3986 2.9301-0.29428 1.0249-2.6386 1.1136-3.4643 0.78152-0.82568-0.33205-1.2565-1.4321-0.9622-2.457z" fill="url(#ak)"/>
   <path d="m193.79 813.52c-0.33104 1.0249-1.3523 1.5866-2.2811 1.2546-0.92879-0.33204-3.0292-1.9052-2.6982-2.9301 0.33102-1.0249 2.9681-1.1136 3.8969-0.78152 0.92879 0.33204 1.4134 1.4321 1.0824 2.457z" fill="url(#al)"/>
   <path d="m186.88 816.1c-0.96312-0.25433-1.4244-1.191-1.0304-2.0922 0.39403-0.90118 2.0788-2.9872 3.0419-2.7329 0.96311 0.25432 0.83984 2.7527 0.44579 3.6539-0.39404 0.90117-1.4942 1.4256-2.4573 1.1712z" fill="url(#am)"/>
   <path transform="matrix(.23043 0 0 .23043 .31765 657.08)" d="m823.75 670.62c0 2.8354-2.2186 5.1339-4.9554 5.1339s-4.9554-2.2985-4.9554-5.1339 2.2186-5.1339 4.9554-5.1339 4.9554 2.2985 4.9554 5.1339z" fill="url(#ai)"/>
  </g>
  <g transform="matrix(.56584 0 0 .56584 39.693 308.44)">
   <path d="m190.95 806.77c0.96312 0.26413 1.4244 1.237 1.0304 2.1729-0.39404 0.93594-2.0788 3.1024-3.0419 2.8383-0.96311-0.26413-0.83984-2.8589-0.4458-3.7948 0.39405-0.93595 1.4942-1.4806 2.4573-1.2164z" fill="url(#aj)"/>
   <path d="m184.47 809.98c0.29428-1.0249 1.2022-1.5866 2.0279-1.2546 0.82569 0.33204 2.6929 1.9052 2.3986 2.9301-0.29428 1.0249-2.6386 1.1136-3.4643 0.78152-0.82568-0.33205-1.2565-1.4321-0.9622-2.457z" fill="url(#ak)"/>
   <path d="m193.79 813.52c-0.33104 1.0249-1.3523 1.5866-2.2811 1.2546-0.92879-0.33204-3.0292-1.9052-2.6982-2.9301 0.33102-1.0249 2.9681-1.1136 3.8969-0.78152 0.92879 0.33204 1.4134 1.4321 1.0824 2.457z" fill="url(#al)"/>
   <path d="m186.88 816.1c-0.96312-0.25433-1.4244-1.191-1.0304-2.0922 0.39403-0.90118 2.0788-2.9872 3.0419-2.7329 0.96311 0.25432 0.83984 2.7527 0.44579 3.6539-0.39404 0.90117-1.4942 1.4256-2.4573 1.1712z" fill="url(#am)"/>
   <path transform="matrix(.23043 0 0 .23043 .31765 657.08)" d="m823.75 670.62c0 2.8354-2.2186 5.1339-4.9554 5.1339s-4.9554-2.2985-4.9554-5.1339 2.2186-5.1339 4.9554-5.1339 4.9554 2.2985 4.9554 5.1339z" fill="url(#ai)"/>
  </g>
  <g transform="matrix(.72684 .24623 -.24623 .72684 190.69 125.51)">
   <path d="m190.95 806.77c0.96312 0.26413 1.4244 1.237 1.0304 2.1729-0.39404 0.93594-2.0788 3.1024-3.0419 2.8383-0.96311-0.26413-0.83984-2.8589-0.4458-3.7948 0.39405-0.93595 1.4942-1.4806 2.4573-1.2164z" fill="url(#aj)"/>
   <path d="m184.47 809.98c0.29428-1.0249 1.2022-1.5866 2.0279-1.2546 0.82569 0.33204 2.6929 1.9052 2.3986 2.9301-0.29428 1.0249-2.6386 1.1136-3.4643 0.78152-0.82568-0.33205-1.2565-1.4321-0.9622-2.457z" fill="url(#ak)"/>
   <path d="m193.79 813.52c-0.33104 1.0249-1.3523 1.5866-2.2811 1.2546-0.92879-0.33204-3.0292-1.9052-2.6982-2.9301 0.33102-1.0249 2.9681-1.1136 3.8969-0.78152 0.92879 0.33204 1.4134 1.4321 1.0824 2.457z" fill="url(#al)"/>
   <path d="m186.88 816.1c-0.96312-0.25433-1.4244-1.191-1.0304-2.0922 0.39403-0.90118 2.0788-2.9872 3.0419-2.7329 0.96311 0.25432 0.83984 2.7527 0.44579 3.6539-0.39404 0.90117-1.4942 1.4256-2.4573 1.1712z" fill="url(#am)"/>
   <path transform="matrix(.23043 0 0 .23043 .31765 657.08)" d="m823.75 670.62c0 2.8354-2.2186 5.1339-4.9554 5.1339s-4.9554-2.2985-4.9554-5.1339 2.2186-5.1339 4.9554-5.1339 4.9554 2.2985 4.9554 5.1339z" fill="url(#ai)"/>
  </g>
  <g transform="matrix(.6791 0 0 .6791 .50786 199.55)">
   <path d="m190.95 806.77c0.96312 0.26413 1.4244 1.237 1.0304 2.1729-0.39404 0.93594-2.0788 3.1024-3.0419 2.8383-0.96311-0.26413-0.83984-2.8589-0.4458-3.7948 0.39405-0.93595 1.4942-1.4806 2.4573-1.2164z" fill="url(#aj)"/>
   <path d="m184.47 809.98c0.29428-1.0249 1.2022-1.5866 2.0279-1.2546 0.82569 0.33204 2.6929 1.9052 2.3986 2.9301-0.29428 1.0249-2.6386 1.1136-3.4643 0.78152-0.82568-0.33205-1.2565-1.4321-0.9622-2.457z" fill="url(#ak)"/>
   <path d="m193.79 813.52c-0.33104 1.0249-1.3523 1.5866-2.2811 1.2546-0.92879-0.33204-3.0292-1.9052-2.6982-2.9301 0.33102-1.0249 2.9681-1.1136 3.8969-0.78152 0.92879 0.33204 1.4134 1.4321 1.0824 2.457z" fill="url(#al)"/>
   <path d="m186.88 816.1c-0.96312-0.25433-1.4244-1.191-1.0304-2.0922 0.39403-0.90118 2.0788-2.9872 3.0419-2.7329 0.96311 0.25432 0.83984 2.7527 0.44579 3.6539-0.39404 0.90117-1.4942 1.4256-2.4573 1.1712z" fill="url(#am)"/>
   <path transform="matrix(.23043 0 0 .23043 .31765 657.08)" d="m823.75 670.62c0 2.8354-2.2186 5.1339-4.9554 5.1339s-4.9554-2.2985-4.9554-5.1339 2.2186-5.1339 4.9554-5.1339 4.9554 2.2985 4.9554 5.1339z" fill="url(#ai)"/>
  </g>
  <g transform="matrix(.56459 0 0 .56459 17.433 279.94)">
   <path d="m190.95 806.77c0.96312 0.26413 1.4244 1.237 1.0304 2.1729-0.39404 0.93594-2.0788 3.1024-3.0419 2.8383-0.96311-0.26413-0.83984-2.8589-0.4458-3.7948 0.39405-0.93595 1.4942-1.4806 2.4573-1.2164z" fill="url(#aj)"/>
   <path d="m184.47 809.98c0.29428-1.0249 1.2022-1.5866 2.0279-1.2546 0.82569 0.33204 2.6929 1.9052 2.3986 2.9301-0.29428 1.0249-2.6386 1.1136-3.4643 0.78152-0.82568-0.33205-1.2565-1.4321-0.9622-2.457z" fill="url(#ak)"/>
   <path d="m193.79 813.52c-0.33104 1.0249-1.3523 1.5866-2.2811 1.2546-0.92879-0.33204-3.0292-1.9052-2.6982-2.9301 0.33102-1.0249 2.9681-1.1136 3.8969-0.78152 0.92879 0.33204 1.4134 1.4321 1.0824 2.457z" fill="url(#al)"/>
   <path d="m186.88 816.1c-0.96312-0.25433-1.4244-1.191-1.0304-2.0922 0.39403-0.90118 2.0788-2.9872 3.0419-2.7329 0.96311 0.25432 0.83984 2.7527 0.44579 3.6539-0.39404 0.90117-1.4942 1.4256-2.4573 1.1712z" fill="url(#am)"/>
   <path transform="matrix(.23043 0 0 .23043 .31765 657.08)" d="m823.75 670.62c0 2.8354-2.2186 5.1339-4.9554 5.1339s-4.9554-2.2985-4.9554-5.1339 2.2186-5.1339 4.9554-5.1339 4.9554 2.2985 4.9554 5.1339z" fill="url(#ai)"/>
  </g>
  <g transform="matrix(.78192 -.31356 .31356 .78192 -297.38 168.1)">
   <path d="m190.95 806.77c0.96312 0.26413 1.4244 1.237 1.0304 2.1729-0.39404 0.93594-2.0788 3.1024-3.0419 2.8383-0.96311-0.26413-0.83984-2.8589-0.4458-3.7948 0.39405-0.93595 1.4942-1.4806 2.4573-1.2164z" fill="url(#aj)"/>
   <path d="m184.47 809.98c0.29428-1.0249 1.2022-1.5866 2.0279-1.2546 0.82569 0.33204 2.6929 1.9052 2.3986 2.9301-0.29428 1.0249-2.6386 1.1136-3.4643 0.78152-0.82568-0.33205-1.2565-1.4321-0.9622-2.457z" fill="url(#ak)"/>
   <path d="m193.79 813.52c-0.33104 1.0249-1.3523 1.5866-2.2811 1.2546-0.92879-0.33204-3.0292-1.9052-2.6982-2.9301 0.33102-1.0249 2.9681-1.1136 3.8969-0.78152 0.92879 0.33204 1.4134 1.4321 1.0824 2.457z" fill="url(#al)"/>
   <path d="m186.88 816.1c-0.96312-0.25433-1.4244-1.191-1.0304-2.0922 0.39403-0.90118 2.0788-2.9872 3.0419-2.7329 0.96311 0.25432 0.83984 2.7527 0.44579 3.6539-0.39404 0.90117-1.4942 1.4256-2.4573 1.1712z" fill="url(#am)"/>
   <path transform="matrix(.23043 0 0 .23043 .31765 657.08)" d="m823.75 670.62c0 2.8354-2.2186 5.1339-4.9554 5.1339s-4.9554-2.2985-4.9554-5.1339 2.2186-5.1339 4.9554-5.1339 4.9554 2.2985 4.9554 5.1339z" fill="url(#ai)"/>
  </g>
  <g transform="matrix(.56109 .6112 -.6112 .56109 502.83 188.3)">
   <path d="m190.95 806.77c0.96312 0.26413 1.4244 1.237 1.0304 2.1729-0.39404 0.93594-2.0788 3.1024-3.0419 2.8383-0.96311-0.26413-0.83984-2.8589-0.4458-3.7948 0.39405-0.93595 1.4942-1.4806 2.4573-1.2164z" fill="url(#aj)"/>
   <path d="m184.47 809.98c0.29428-1.0249 1.2022-1.5866 2.0279-1.2546 0.82569 0.33204 2.6929 1.9052 2.3986 2.9301-0.29428 1.0249-2.6386 1.1136-3.4643 0.78152-0.82568-0.33205-1.2565-1.4321-0.9622-2.457z" fill="url(#ak)"/>
   <path d="m193.79 813.52c-0.33104 1.0249-1.3523 1.5866-2.2811 1.2546-0.92879-0.33204-3.0292-1.9052-2.6982-2.9301 0.33102-1.0249 2.9681-1.1136 3.8969-0.78152 0.92879 0.33204 1.4134 1.4321 1.0824 2.457z" fill="url(#al)"/>
   <path d="m186.88 816.1c-0.96312-0.25433-1.4244-1.191-1.0304-2.0922 0.39403-0.90118 2.0788-2.9872 3.0419-2.7329 0.96311 0.25432 0.83984 2.7527 0.44579 3.6539-0.39404 0.90117-1.4942 1.4256-2.4573 1.1712z" fill="url(#am)"/>
   <path transform="matrix(.23043 0 0 .23043 .31765 657.08)" d="m823.75 670.62c0 2.8354-2.2186 5.1339-4.9554 5.1339s-4.9554-2.2985-4.9554-5.1339 2.2186-5.1339 4.9554-5.1339 4.9554 2.2985 4.9554 5.1339z" fill="url(#ai)"/>
  </g>
  <g transform="matrix(.52809 0 0 .52809 15.112 318.71)">
   <path d="m190.95 806.77c0.96312 0.26413 1.4244 1.237 1.0304 2.1729-0.39404 0.93594-2.0788 3.1024-3.0419 2.8383-0.96311-0.26413-0.83984-2.8589-0.4458-3.7948 0.39405-0.93595 1.4942-1.4806 2.4573-1.2164z" fill="url(#aj)"/>
   <path d="m184.47 809.98c0.29428-1.0249 1.2022-1.5866 2.0279-1.2546 0.82569 0.33204 2.6929 1.9052 2.3986 2.9301-0.29428 1.0249-2.6386 1.1136-3.4643 0.78152-0.82568-0.33205-1.2565-1.4321-0.9622-2.457z" fill="url(#ak)"/>
   <path d="m193.79 813.52c-0.33104 1.0249-1.3523 1.5866-2.2811 1.2546-0.92879-0.33204-3.0292-1.9052-2.6982-2.9301 0.33102-1.0249 2.9681-1.1136 3.8969-0.78152 0.92879 0.33204 1.4134 1.4321 1.0824 2.457z" fill="url(#al)"/>
   <path d="m186.88 816.1c-0.96312-0.25433-1.4244-1.191-1.0304-2.0922 0.39403-0.90118 2.0788-2.9872 3.0419-2.7329 0.96311 0.25432 0.83984 2.7527 0.44579 3.6539-0.39404 0.90117-1.4942 1.4256-2.4573 1.1712z" fill="url(#am)"/>
   <path transform="matrix(.23043 0 0 .23043 .31765 657.08)" d="m823.75 670.62c0 2.8354-2.2186 5.1339-4.9554 5.1339s-4.9554-2.2985-4.9554-5.1339 2.2186-5.1339 4.9554-5.1339 4.9554 2.2985 4.9554 5.1339z" fill="url(#ai)"/>
  </g>
 </g>
 <g transform="matrix(1.3679,0,0,1.3679,-65.966,-631.35)">
  <g transform="matrix(.27293 .62425 -.62425 .27293 619.71 374.11)">
   <path d="m190.95 806.77c0.96312 0.26413 1.4244 1.237 1.0304 2.1729-0.39404 0.93594-2.0788 3.1024-3.0419 2.8383-0.96311-0.26413-0.83984-2.8589-0.4458-3.7948 0.39405-0.93595 1.4942-1.4806 2.4573-1.2164z" fill="url(#aj)"/>
   <path d="m184.47 809.98c0.29428-1.0249 1.2022-1.5866 2.0279-1.2546 0.82569 0.33204 2.6929 1.9052 2.3986 2.9301-0.29428 1.0249-2.6386 1.1136-3.4643 0.78152-0.82568-0.33205-1.2565-1.4321-0.9622-2.457z" fill="url(#ak)"/>
   <path d="m193.79 813.52c-0.33104 1.0249-1.3523 1.5866-2.2811 1.2546-0.92879-0.33204-3.0292-1.9052-2.6982-2.9301 0.33102-1.0249 2.9681-1.1136 3.8969-0.78152 0.92879 0.33204 1.4134 1.4321 1.0824 2.457z" fill="url(#al)"/>
   <path d="m186.88 816.1c-0.96312-0.25433-1.4244-1.191-1.0304-2.0922 0.39403-0.90118 2.0788-2.9872 3.0419-2.7329 0.96311 0.25432 0.83984 2.7527 0.44579 3.6539-0.39404 0.90117-1.4942 1.4256-2.4573 1.1712z" fill="url(#am)"/>
   <path transform="matrix(.23043 0 0 .23043 .31765 657.08)" d="m823.75 670.62c0 2.8354-2.2186 5.1339-4.9554 5.1339s-4.9554-2.2985-4.9554-5.1339 2.2186-5.1339 4.9554-5.1339 4.9554 2.2985 4.9554 5.1339z" fill="url(#ai)"/>
  </g>
  <g transform="matrix(.062458 .91721 -.9034 .069058 875.38 467.78)">
   <path d="m190.95 806.77c0.96312 0.26413 1.4244 1.237 1.0304 2.1729-0.39404 0.93594-2.0788 3.1024-3.0419 2.8383-0.96311-0.26413-0.83984-2.8589-0.4458-3.7948 0.39405-0.93595 1.4942-1.4806 2.4573-1.2164z" fill="url(#aj)"/>
   <path d="m184.47 809.98c0.29428-1.0249 1.2022-1.5866 2.0279-1.2546 0.82569 0.33204 2.6929 1.9052 2.3986 2.9301-0.29428 1.0249-2.6386 1.1136-3.4643 0.78152-0.82568-0.33205-1.2565-1.4321-0.9622-2.457z" fill="url(#ak)"/>
   <path d="m193.79 813.52c-0.33104 1.0249-1.3523 1.5866-2.2811 1.2546-0.92879-0.33204-3.0292-1.9052-2.6982-2.9301 0.33102-1.0249 2.9681-1.1136 3.8969-0.78152 0.92879 0.33204 1.4134 1.4321 1.0824 2.457z" fill="url(#al)"/>
   <path d="m186.88 816.1c-0.96312-0.25433-1.4244-1.191-1.0304-2.0922 0.39403-0.90118 2.0788-2.9872 3.0419-2.7329 0.96311 0.25432 0.83984 2.7527 0.44579 3.6539-0.39404 0.90117-1.4942 1.4256-2.4573 1.1712z" fill="url(#am)"/>
   <path transform="matrix(.23043 0 0 .23043 .31765 657.08)" d="m823.75 670.62c0 2.8354-2.2186 5.1339-4.9554 5.1339s-4.9554-2.2985-4.9554-5.1339 2.2186-5.1339 4.9554-5.1339 4.9554 2.2985 4.9554 5.1339z" fill="url(#ai)"/>
  </g>
  <g transform="matrix(-.55606 .39368 -.39368 -.55606 588.87 1058.4)">
   <path d="m190.95 806.77c0.96312 0.26413 1.4244 1.237 1.0304 2.1729-0.39404 0.93594-2.0788 3.1024-3.0419 2.8383-0.96311-0.26413-0.83984-2.8589-0.4458-3.7948 0.39405-0.93595 1.4942-1.4806 2.4573-1.2164z" fill="url(#aj)"/>
   <path d="m184.47 809.98c0.29428-1.0249 1.2022-1.5866 2.0279-1.2546 0.82569 0.33204 2.6929 1.9052 2.3986 2.9301-0.29428 1.0249-2.6386 1.1136-3.4643 0.78152-0.82568-0.33205-1.2565-1.4321-0.9622-2.457z" fill="url(#ak)"/>
   <path d="m193.79 813.52c-0.33104 1.0249-1.3523 1.5866-2.2811 1.2546-0.92879-0.33204-3.0292-1.9052-2.6982-2.9301 0.33102-1.0249 2.9681-1.1136 3.8969-0.78152 0.92879 0.33204 1.4134 1.4321 1.0824 2.457z" fill="url(#al)"/>
   <path d="m186.88 816.1c-0.96312-0.25433-1.4244-1.191-1.0304-2.0922 0.39403-0.90118 2.0788-2.9872 3.0419-2.7329 0.96311 0.25432 0.83984 2.7527 0.44579 3.6539-0.39404 0.90117-1.4942 1.4256-2.4573 1.1712z" fill="url(#am)"/>
   <path transform="matrix(.23043 0 0 .23043 .31765 657.08)" d="m823.75 670.62c0 2.8354-2.2186 5.1339-4.9554 5.1339s-4.9554-2.2985-4.9554-5.1339 2.2186-5.1339 4.9554-5.1339 4.9554 2.2985 4.9554 5.1339z" fill="url(#ai)"/>
  </g>
  <g transform="matrix(-.51587 .44504 -.44504 -.51587 628.44 1025.8)">
   <path d="m190.95 806.77c0.96312 0.26413 1.4244 1.237 1.0304 2.1729-0.39404 0.93594-2.0788 3.1024-3.0419 2.8383-0.96311-0.26413-0.83984-2.8589-0.4458-3.7948 0.39405-0.93595 1.4942-1.4806 2.4573-1.2164z" fill="url(#aj)"/>
   <path d="m184.47 809.98c0.29428-1.0249 1.2022-1.5866 2.0279-1.2546 0.82569 0.33204 2.6929 1.9052 2.3986 2.9301-0.29428 1.0249-2.6386 1.1136-3.4643 0.78152-0.82568-0.33205-1.2565-1.4321-0.9622-2.457z" fill="url(#ak)"/>
   <path d="m193.79 813.52c-0.33104 1.0249-1.3523 1.5866-2.2811 1.2546-0.92879-0.33204-3.0292-1.9052-2.6982-2.9301 0.33102-1.0249 2.9681-1.1136 3.8969-0.78152 0.92879 0.33204 1.4134 1.4321 1.0824 2.457z" fill="url(#al)"/>
   <path d="m186.88 816.1c-0.96312-0.25433-1.4244-1.191-1.0304-2.0922 0.39403-0.90118 2.0788-2.9872 3.0419-2.7329 0.96311 0.25432 0.83984 2.7527 0.44579 3.6539-0.39404 0.90117-1.4942 1.4256-2.4573 1.1712z" fill="url(#am)"/>
   <path transform="matrix(.23043 0 0 .23043 .31765 657.08)" d="m823.75 670.62c0 2.8354-2.2186 5.1339-4.9554 5.1339s-4.9554-2.2985-4.9554-5.1339 2.2186-5.1339 4.9554-5.1339 4.9554 2.2985 4.9554 5.1339z" fill="url(#ai)"/>
  </g>
  <g transform="matrix(-.24069 .35898 -.35898 -.24069 517.33 831.25)">
   <path d="m190.95 806.77c0.96312 0.26413 1.4244 1.237 1.0304 2.1729-0.39404 0.93594-2.0788 3.1024-3.0419 2.8383-0.96311-0.26413-0.83984-2.8589-0.4458-3.7948 0.39405-0.93595 1.4942-1.4806 2.4573-1.2164z" fill="url(#aj)"/>
   <path d="m184.47 809.98c0.29428-1.0249 1.2022-1.5866 2.0279-1.2546 0.82569 0.33204 2.6929 1.9052 2.3986 2.9301-0.29428 1.0249-2.6386 1.1136-3.4643 0.78152-0.82568-0.33205-1.2565-1.4321-0.9622-2.457z" fill="url(#ak)"/>
   <path d="m193.79 813.52c-0.33104 1.0249-1.3523 1.5866-2.2811 1.2546-0.92879-0.33204-3.0292-1.9052-2.6982-2.9301 0.33102-1.0249 2.9681-1.1136 3.8969-0.78152 0.92879 0.33204 1.4134 1.4321 1.0824 2.457z" fill="url(#al)"/>
   <path d="m186.88 816.1c-0.96312-0.25433-1.4244-1.191-1.0304-2.0922 0.39403-0.90118 2.0788-2.9872 3.0419-2.7329 0.96311 0.25432 0.83984 2.7527 0.44579 3.6539-0.39404 0.90117-1.4942 1.4256-2.4573 1.1712z" fill="url(#am)"/>
   <path transform="matrix(.23043 0 0 .23043 .31765 657.08)" d="m823.75 670.62c0 2.8354-2.2186 5.1339-4.9554 5.1339s-4.9554-2.2985-4.9554-5.1339 2.2186-5.1339 4.9554-5.1339 4.9554 2.2985 4.9554 5.1339z" fill="url(#ai)"/>
  </g>
  <g transform="matrix(-.076688 .40585 -.40585 -.076688 524.8 678.6)">
   <path d="m190.95 806.77c0.96312 0.26413 1.4244 1.237 1.0304 2.1729-0.39404 0.93594-2.0788 3.1024-3.0419 2.8383-0.96311-0.26413-0.83984-2.8589-0.4458-3.7948 0.39405-0.93595 1.4942-1.4806 2.4573-1.2164z" fill="url(#aj)"/>
   <path d="m184.47 809.98c0.29428-1.0249 1.2022-1.5866 2.0279-1.2546 0.82569 0.33204 2.6929 1.9052 2.3986 2.9301-0.29428 1.0249-2.6386 1.1136-3.4643 0.78152-0.82568-0.33205-1.2565-1.4321-0.9622-2.457z" fill="url(#ak)"/>
   <path d="m193.79 813.52c-0.33104 1.0249-1.3523 1.5866-2.2811 1.2546-0.92879-0.33204-3.0292-1.9052-2.6982-2.9301 0.33102-1.0249 2.9681-1.1136 3.8969-0.78152 0.92879 0.33204 1.4134 1.4321 1.0824 2.457z" fill="url(#al)"/>
   <path d="m186.88 816.1c-0.96312-0.25433-1.4244-1.191-1.0304-2.0922 0.39403-0.90118 2.0788-2.9872 3.0419-2.7329 0.96311 0.25432 0.83984 2.7527 0.44579 3.6539-0.39404 0.90117-1.4942 1.4256-2.4573 1.1712z" fill="url(#am)"/>
   <path transform="matrix(.23043 0 0 .23043 .31765 657.08)" d="m823.75 670.62c0 2.8354-2.2186 5.1339-4.9554 5.1339s-4.9554-2.2985-4.9554-5.1339 2.2186-5.1339 4.9554-5.1339 4.9554 2.2985 4.9554 5.1339z" fill="url(#ai)"/>
  </g>
  <g transform="matrix(.12814 .66915 -.66915 .12814 692.92 445.58)">
   <path d="m190.95 806.77c0.96312 0.26413 1.4244 1.237 1.0304 2.1729-0.39404 0.93594-2.0788 3.1024-3.0419 2.8383-0.96311-0.26413-0.83984-2.8589-0.4458-3.7948 0.39405-0.93595 1.4942-1.4806 2.4573-1.2164z" fill="url(#aj)"/>
   <path d="m184.47 809.98c0.29428-1.0249 1.2022-1.5866 2.0279-1.2546 0.82569 0.33204 2.6929 1.9052 2.3986 2.9301-0.29428 1.0249-2.6386 1.1136-3.4643 0.78152-0.82568-0.33205-1.2565-1.4321-0.9622-2.457z" fill="url(#ak)"/>
   <path d="m193.79 813.52c-0.33104 1.0249-1.3523 1.5866-2.2811 1.2546-0.92879-0.33204-3.0292-1.9052-2.6982-2.9301 0.33102-1.0249 2.9681-1.1136 3.8969-0.78152 0.92879 0.33204 1.4134 1.4321 1.0824 2.457z" fill="url(#al)"/>
   <path d="m186.88 816.1c-0.96312-0.25433-1.4244-1.191-1.0304-2.0922 0.39403-0.90118 2.0788-2.9872 3.0419-2.7329 0.96311 0.25432 0.83984 2.7527 0.44579 3.6539-0.39404 0.90117-1.4942 1.4256-2.4573 1.1712z" fill="url(#am)"/>
   <path transform="matrix(.23043 0 0 .23043 .31765 657.08)" d="m823.75 670.62c0 2.8354-2.2186 5.1339-4.9554 5.1339s-4.9554-2.2985-4.9554-5.1339 2.2186-5.1339 4.9554-5.1339 4.9554 2.2985 4.9554 5.1339z" fill="url(#ai)"/>
  </g>
  <g transform="matrix(-.082324 .43568 -.43568 -.082324 559.28 654.63)">
   <path d="m190.95 806.77c0.96312 0.26413 1.4244 1.237 1.0304 2.1729-0.39404 0.93594-2.0788 3.1024-3.0419 2.8383-0.96311-0.26413-0.83984-2.8589-0.4458-3.7948 0.39405-0.93595 1.4942-1.4806 2.4573-1.2164z" fill="url(#aj)"/>
   <path d="m184.47 809.98c0.29428-1.0249 1.2022-1.5866 2.0279-1.2546 0.82569 0.33204 2.6929 1.9052 2.3986 2.9301-0.29428 1.0249-2.6386 1.1136-3.4643 0.78152-0.82568-0.33205-1.2565-1.4321-0.9622-2.457z" fill="url(#ak)"/>
   <path d="m193.79 813.52c-0.33104 1.0249-1.3523 1.5866-2.2811 1.2546-0.92879-0.33204-3.0292-1.9052-2.6982-2.9301 0.33102-1.0249 2.9681-1.1136 3.8969-0.78152 0.92879 0.33204 1.4134 1.4321 1.0824 2.457z" fill="url(#al)"/>
   <path d="m186.88 816.1c-0.96312-0.25433-1.4244-1.191-1.0304-2.0922 0.39403-0.90118 2.0788-2.9872 3.0419-2.7329 0.96311 0.25432 0.83984 2.7527 0.44579 3.6539-0.39404 0.90117-1.4942 1.4256-2.4573 1.1712z" fill="url(#am)"/>
   <path transform="matrix(.23043 0 0 .23043 .31765 657.08)" d="m823.75 670.62c0 2.8354-2.2186 5.1339-4.9554 5.1339s-4.9554-2.2985-4.9554-5.1339 2.2186-5.1339 4.9554-5.1339 4.9554 2.2985 4.9554 5.1339z" fill="url(#ai)"/>
  </g>
  <g transform="matrix(-.50977 .32713 -.32713 -.50977 551.54 1038)">
   <path d="m190.95 806.77c0.96312 0.26413 1.4244 1.237 1.0304 2.1729-0.39404 0.93594-2.0788 3.1024-3.0419 2.8383-0.96311-0.26413-0.83984-2.8589-0.4458-3.7948 0.39405-0.93595 1.4942-1.4806 2.4573-1.2164z" fill="url(#aj)"/>
   <path d="m184.47 809.98c0.29428-1.0249 1.2022-1.5866 2.0279-1.2546 0.82569 0.33204 2.6929 1.9052 2.3986 2.9301-0.29428 1.0249-2.6386 1.1136-3.4643 0.78152-0.82568-0.33205-1.2565-1.4321-0.9622-2.457z" fill="url(#ak)"/>
   <path d="m193.79 813.52c-0.33104 1.0249-1.3523 1.5866-2.2811 1.2546-0.92879-0.33204-3.0292-1.9052-2.6982-2.9301 0.33102-1.0249 2.9681-1.1136 3.8969-0.78152 0.92879 0.33204 1.4134 1.4321 1.0824 2.457z" fill="url(#al)"/>
   <path d="m186.88 816.1c-0.96312-0.25433-1.4244-1.191-1.0304-2.0922 0.39403-0.90118 2.0788-2.9872 3.0419-2.7329 0.96311 0.25432 0.83984 2.7527 0.44579 3.6539-0.39404 0.90117-1.4942 1.4256-2.4573 1.1712z" fill="url(#am)"/>
   <path transform="matrix(.23043 0 0 .23043 .31765 657.08)" d="m823.75 670.62c0 2.8354-2.2186 5.1339-4.9554 5.1339s-4.9554-2.2985-4.9554-5.1339 2.2186-5.1339 4.9554-5.1339 4.9554 2.2985 4.9554 5.1339z" fill="url(#ai)"/>
  </g>
  <g transform="matrix(-.071578 .37881 -.37881 -.071578 511.39 685.91)">
   <path d="m190.95 806.77c0.96312 0.26413 1.4244 1.237 1.0304 2.1729-0.39404 0.93594-2.0788 3.1024-3.0419 2.8383-0.96311-0.26413-0.83984-2.8589-0.4458-3.7948 0.39405-0.93595 1.4942-1.4806 2.4573-1.2164z" fill="url(#aj)"/>
   <path d="m184.47 809.98c0.29428-1.0249 1.2022-1.5866 2.0279-1.2546 0.82569 0.33204 2.6929 1.9052 2.3986 2.9301-0.29428 1.0249-2.6386 1.1136-3.4643 0.78152-0.82568-0.33205-1.2565-1.4321-0.9622-2.457z" fill="url(#ak)"/>
   <path d="m193.79 813.52c-0.33104 1.0249-1.3523 1.5866-2.2811 1.2546-0.92879-0.33204-3.0292-1.9052-2.6982-2.9301 0.33102-1.0249 2.9681-1.1136 3.8969-0.78152 0.92879 0.33204 1.4134 1.4321 1.0824 2.457z" fill="url(#al)"/>
   <path d="m186.88 816.1c-0.96312-0.25433-1.4244-1.191-1.0304-2.0922 0.39403-0.90118 2.0788-2.9872 3.0419-2.7329 0.96311 0.25432 0.83984 2.7527 0.44579 3.6539-0.39404 0.90117-1.4942 1.4256-2.4573 1.1712z" fill="url(#am)"/>
   <path transform="matrix(.23043 0 0 .23043 .31765 657.08)" d="m823.75 670.62c0 2.8354-2.2186 5.1339-4.9554 5.1339s-4.9554-2.2985-4.9554-5.1339 2.2186-5.1339 4.9554-5.1339 4.9554 2.2985 4.9554 5.1339z" fill="url(#ai)"/>
  </g>
  <g transform="matrix(-.25679 .45544 -.45544 -.25679 614.75 810.14)">
   <path d="m190.95 806.77c0.96312 0.26413 1.4244 1.237 1.0304 2.1729-0.39404 0.93594-2.0788 3.1024-3.0419 2.8383-0.96311-0.26413-0.83984-2.8589-0.4458-3.7948 0.39405-0.93595 1.4942-1.4806 2.4573-1.2164z" fill="url(#aj)"/>
   <path d="m184.47 809.98c0.29428-1.0249 1.2022-1.5866 2.0279-1.2546 0.82569 0.33204 2.6929 1.9052 2.3986 2.9301-0.29428 1.0249-2.6386 1.1136-3.4643 0.78152-0.82568-0.33205-1.2565-1.4321-0.9622-2.457z" fill="url(#ak)"/>
   <path d="m193.79 813.52c-0.33104 1.0249-1.3523 1.5866-2.2811 1.2546-0.92879-0.33204-3.0292-1.9052-2.6982-2.9301 0.33102-1.0249 2.9681-1.1136 3.8969-0.78152 0.92879 0.33204 1.4134 1.4321 1.0824 2.457z" fill="url(#al)"/>
   <path d="m186.88 816.1c-0.96312-0.25433-1.4244-1.191-1.0304-2.0922 0.39403-0.90118 2.0788-2.9872 3.0419-2.7329 0.96311 0.25432 0.83984 2.7527 0.44579 3.6539-0.39404 0.90117-1.4942 1.4256-2.4573 1.1712z" fill="url(#am)"/>
   <path transform="matrix(.23043 0 0 .23043 .31765 657.08)" d="m823.75 670.62c0 2.8354-2.2186 5.1339-4.9554 5.1339s-4.9554-2.2985-4.9554-5.1339 2.2186-5.1339 4.9554-5.1339 4.9554 2.2985 4.9554 5.1339z" fill="url(#ai)"/>
  </g>
  <g transform="matrix(-.085905 .45463 -.45463 -.085905 589.24 673.45)">
   <path d="m190.95 806.77c0.96312 0.26413 1.4244 1.237 1.0304 2.1729-0.39404 0.93594-2.0788 3.1024-3.0419 2.8383-0.96311-0.26413-0.83984-2.8589-0.4458-3.7948 0.39405-0.93595 1.4942-1.4806 2.4573-1.2164z" fill="url(#aj)"/>
   <path d="m184.47 809.98c0.29428-1.0249 1.2022-1.5866 2.0279-1.2546 0.82569 0.33204 2.6929 1.9052 2.3986 2.9301-0.29428 1.0249-2.6386 1.1136-3.4643 0.78152-0.82568-0.33205-1.2565-1.4321-0.9622-2.457z" fill="url(#ak)"/>
   <path d="m193.79 813.52c-0.33104 1.0249-1.3523 1.5866-2.2811 1.2546-0.92879-0.33204-3.0292-1.9052-2.6982-2.9301 0.33102-1.0249 2.9681-1.1136 3.8969-0.78152 0.92879 0.33204 1.4134 1.4321 1.0824 2.457z" fill="url(#al)"/>
   <path d="m186.88 816.1c-0.96312-0.25433-1.4244-1.191-1.0304-2.0922 0.39403-0.90118 2.0788-2.9872 3.0419-2.7329 0.96311 0.25432 0.83984 2.7527 0.44579 3.6539-0.39404 0.90117-1.4942 1.4256-2.4573 1.1712z" fill="url(#am)"/>
   <path transform="matrix(.23043 0 0 .23043 .31765 657.08)" d="m823.75 670.62c0 2.8354-2.2186 5.1339-4.9554 5.1339s-4.9554-2.2985-4.9554-5.1339 2.2186-5.1339 4.9554-5.1339 4.9554 2.2985 4.9554 5.1339z" fill="url(#ai)"/>
  </g>
  <g transform="matrix(-.071419 .37797 -.37797 -.071419 533.29 674.62)">
   <path d="m190.95 806.77c0.96312 0.26413 1.4244 1.237 1.0304 2.1729-0.39404 0.93594-2.0788 3.1024-3.0419 2.8383-0.96311-0.26413-0.83984-2.8589-0.4458-3.7948 0.39405-0.93595 1.4942-1.4806 2.4573-1.2164z" fill="url(#aj)"/>
   <path d="m184.47 809.98c0.29428-1.0249 1.2022-1.5866 2.0279-1.2546 0.82569 0.33204 2.6929 1.9052 2.3986 2.9301-0.29428 1.0249-2.6386 1.1136-3.4643 0.78152-0.82568-0.33205-1.2565-1.4321-0.9622-2.457z" fill="url(#ak)"/>
   <path d="m193.79 813.52c-0.33104 1.0249-1.3523 1.5866-2.2811 1.2546-0.92879-0.33204-3.0292-1.9052-2.6982-2.9301 0.33102-1.0249 2.9681-1.1136 3.8969-0.78152 0.92879 0.33204 1.4134 1.4321 1.0824 2.457z" fill="url(#al)"/>
   <path d="m186.88 816.1c-0.96312-0.25433-1.4244-1.191-1.0304-2.0922 0.39403-0.90118 2.0788-2.9872 3.0419-2.7329 0.96311 0.25432 0.83984 2.7527 0.44579 3.6539-0.39404 0.90117-1.4942 1.4256-2.4573 1.1712z" fill="url(#am)"/>
   <path transform="matrix(.23043 0 0 .23043 .31765 657.08)" d="m823.75 670.62c0 2.8354-2.2186 5.1339-4.9554 5.1339s-4.9554-2.2985-4.9554-5.1339 2.2186-5.1339 4.9554-5.1339 4.9554 2.2985 4.9554 5.1339z" fill="url(#ai)"/>
  </g>
  <g transform="matrix(-.48015 .29832 -.29832 -.48015 533.23 1011.2)">
   <path d="m190.95 806.77c0.96312 0.26413 1.4244 1.237 1.0304 2.1729-0.39404 0.93594-2.0788 3.1024-3.0419 2.8383-0.96311-0.26413-0.83984-2.8589-0.4458-3.7948 0.39405-0.93595 1.4942-1.4806 2.4573-1.2164z" fill="url(#aj)"/>
   <path d="m184.47 809.98c0.29428-1.0249 1.2022-1.5866 2.0279-1.2546 0.82569 0.33204 2.6929 1.9052 2.3986 2.9301-0.29428 1.0249-2.6386 1.1136-3.4643 0.78152-0.82568-0.33205-1.2565-1.4321-0.9622-2.457z" fill="url(#ak)"/>
   <path d="m193.79 813.52c-0.33104 1.0249-1.3523 1.5866-2.2811 1.2546-0.92879-0.33204-3.0292-1.9052-2.6982-2.9301 0.33102-1.0249 2.9681-1.1136 3.8969-0.78152 0.92879 0.33204 1.4134 1.4321 1.0824 2.457z" fill="url(#al)"/>
   <path d="m186.88 816.1c-0.96312-0.25433-1.4244-1.191-1.0304-2.0922 0.39403-0.90118 2.0788-2.9872 3.0419-2.7329 0.96311 0.25432 0.83984 2.7527 0.44579 3.6539-0.39404 0.90117-1.4942 1.4256-2.4573 1.1712z" fill="url(#am)"/>
   <path transform="matrix(.23043 0 0 .23043 .31765 657.08)" d="m823.75 670.62c0 2.8354-2.2186 5.1339-4.9554 5.1339s-4.9554-2.2985-4.9554-5.1339 2.2186-5.1339 4.9554-5.1339 4.9554 2.2985 4.9554 5.1339z" fill="url(#ai)"/>
  </g>
  <g transform="matrix(-.066803 .35354 -.35354 -.066803 507.62 668.16)">
   <path d="m190.95 806.77c0.96312 0.26413 1.4244 1.237 1.0304 2.1729-0.39404 0.93594-2.0788 3.1024-3.0419 2.8383-0.96311-0.26413-0.83984-2.8589-0.4458-3.7948 0.39405-0.93595 1.4942-1.4806 2.4573-1.2164z" fill="url(#aj)"/>
   <path d="m184.47 809.98c0.29428-1.0249 1.2022-1.5866 2.0279-1.2546 0.82569 0.33204 2.6929 1.9052 2.3986 2.9301-0.29428 1.0249-2.6386 1.1136-3.4643 0.78152-0.82568-0.33205-1.2565-1.4321-0.9622-2.457z" fill="url(#ak)"/>
   <path d="m193.79 813.52c-0.33104 1.0249-1.3523 1.5866-2.2811 1.2546-0.92879-0.33204-3.0292-1.9052-2.6982-2.9301 0.33102-1.0249 2.9681-1.1136 3.8969-0.78152 0.92879 0.33204 1.4134 1.4321 1.0824 2.457z" fill="url(#al)"/>
   <path d="m186.88 816.1c-0.96312-0.25433-1.4244-1.191-1.0304-2.0922 0.39403-0.90118 2.0788-2.9872 3.0419-2.7329 0.96311 0.25432 0.83984 2.7527 0.44579 3.6539-0.39404 0.90117-1.4942 1.4256-2.4573 1.1712z" fill="url(#am)"/>
   <path transform="matrix(.23043 0 0 .23043 .31765 657.08)" d="m823.75 670.62c0 2.8354-2.2186 5.1339-4.9554 5.1339s-4.9554-2.2985-4.9554-5.1339 2.2186-5.1339 4.9554-5.1339 4.9554 2.2985 4.9554 5.1339z" fill="url(#ai)"/>
  </g>
 </g>
 <path d="m149.47 273.22c-0.95729 0.23202-0.45686 1.5661-3.2812 0.40625 1.3028 3.257 1.4061-4.2518 3.9062 9.7812 0 0-36.426 2.1297-79.156 16.125-25.301 8.2868-47.624 32.105 28.344 67.156 111.37 51.385 239.69 71.248 219.72 108.84-14.559 27.404-166.65 85.779-252.53 116.97 90.978 2.634 159.72 3.9352 213.84 4.2812 12.341-11.314 105.67-98.172 97.312-129.09-8.49-31.46-294.17-132.73-300.8-144.22-9.9708-17.27 61.396-21.975 93.812-38.125-16.27-10.913-19.925-12.423-21.156-12.125z" fill="url(#bo)"/>
 <path d="m149.47 273.22c-0.95729 0.23202-0.45686 1.5661-3.2812 0.40625 1.3028 3.257 1.4061-4.2518 3.9062 9.7812 0 0-33.301 3.161-76.031 17.156-25.299 8.29-43.204 22.71 11.534 56.6 55.952 34.64 222.06 83.6 222.06 104.22 0 31.47-160.17 97.06-248.62 130.91 93.623 2.7495 163.96 4.0929 219.28 4.4688 11.99-11.36 100.81-96.72 92.46-127.6-8.49-31.46-287.33-134.2-293.96-145.69-9.9708-17.27 61.396-21.975 93.812-38.125-16.27-10.913-19.925-12.423-21.156-12.125z" fill="url(#bp)"/>
 <g transform="matrix(1.3679 0 0 1.3679 -1006.8 -678.81)" fill="#f2f2f2">
  <path d="m1087.7 542.74c1.3238-0.21567 9.3439 6.7136 14.016 14.142l0.095 0.34725c0.752 0.11744 1.245-0.049 1.1702 1.218-1.2192 0.64203-1.5653-0.37022-1.3597-1.218l1.1788 0.14515c1.6129-8.285 7.4913-26.919 6.492-25.367-6.3243 7.1016-6.2192 16.212-7.5761 25.506-4.724-4.948-14.928-14.379-14.016-14.773z"/>
  <path d="m1040.6 545.11c1.2415-0.50748 3.6135-4.1768 7.2-5.541l-0.1003-0.34575c0.5799-0.4929 1.0873-0.60845 0.3617-1.6499-1.375 0.0893-1.1415 1.1332-0.5233 1.7489 3.2535-2.9994 11.334 7.121 10.161 6.565-3.5666-2.6637-7.9671-6.157-10.229-6.8567-4.0805 1.0023-3.2417 1.58-7.1382 5.4098z"/>
  <path d="m984.63 570.14c0.84431-0.0975 5.9594 3.0354 8.9392 6.394l0.0607 0.157c0.47961 0.0531 0.79405-0.0222 0.74634 0.55071-0.7776 0.29027-0.99833-0.16739-0.8672-0.55071l0.75182 0.0656c1.0287-3.7458 4.7779-12.171 4.1405-11.469-4.0336 3.2108-3.9665 7.3297-4.832 11.532-3.0129-2.2371-9.5207-6.5012-8.9392-6.6794z"/>
  <path d="m1108.1 579.03c0.8489-0.85925 2.1173-6.6578 4.583-8.9833l-0.119-0.5261c0.3631-0.79532 0.722-1.0051 0.051-2.5631-1.0021 0.22374-0.6932 1.8165-0.1567 2.7256 2.0059-4.8224 9.2891 10.254 8.3517 9.4711-2.9787-3.8777-6.6809-8.9805-8.44-9.9161-2.8773 1.7992-2.1831 2.636-4.5546 8.7773z"/>
  <path d="m1075.7 594.94c-1.2415 0.5075-3.6135 4.1768-7.2 5.541l0.1003 0.3457c-0.5799 0.4929-1.0873 0.6085-0.3617 1.6499 1.375-0.089 1.1415-1.1332 0.5233-1.7489-3.2535 2.9995-11.334-7.1209-10.161-6.5649 3.5666 2.6636 7.9671 6.157 10.229 6.8567 4.0805-1.0023 3.2417-1.58 7.1382-5.4098z"/>
  <path d="m1070.5 574.52c0.8629-0.16148 6.0911 5.0265 9.1366 10.588l0.062 0.25998c0.4902 0.088 0.8116-0.0366 0.7629 0.91194-0.7948 0.48068-1.0204-0.27718-0.8865-0.91195l0.7686 0.10874c1.0514-6.2029 4.8833-20.155 4.2319-18.992-4.1227 5.3169-4.0542 12.138-4.9387 19.097-3.0795-3.7046-9.731-10.766-9.1366-11.061z"/>
  <path d="m1112.5 606.83c1.1829 0.63221 3.1658 4.5256 6.5933 6.2506l-0.1355 0.33357c0.5263 0.54982 1.0192 0.71684 0.1906 1.6783-1.3586-0.22995-1.0192-1.2444-0.3411-1.7934 2.9285 3.3175 12.005-5.9202 10.781-5.4875-3.8211 2.2836-8.5569 5.3068-10.878 5.7708-3.956-1.4157-3.0624-1.9043-6.5453-6.1138z"/>
 </g>
 <g transform="matrix(.99915 .041269 -.041269 .99915 34.134 -10.215)">
  <path d="m557.69 477.85c-1.6451 2.4902-6.3895 1.2528-8.7188 4.125-1.6419 1.3688-3.1144 2.0112-5.2188 2.9688-1.8537 2.2001 3.7722 1.8097 1.375 3.0312-4.1577 0.85579-2.9025 4.9363-4.625 7.9375-1.0556 1.7578-1.2804 4.5984-4.125 5.5-4.0453 0.73564-3.1491 5.6695-3.5625 8.4688 1.1261 3.0812-2.3957 7.0927-2.9688 2.4688-1.3819-2.6363-3.04-5.9639-0.59375-8.2188 1.9568-2.1636-0.5471-3.9701-2.5625-3.2812-0.7402-1.6011-7.5434-2.1117-7.8125 2.1875 0.116 3.753-3.5163 6.0447-6.5938 6.3125-3.0423 0.18987-6.6772 0.98727-8.1875 3.5312-1.5772 2.2824-2.5308 4.078-3.5625 6.5938-0.87604 2.4083 1.3897 6.5426-0.28125 8.75-1.253 3.2954-4.3825 5.7307-6.8438 7.9375-1.0815 2.5544-4.3615 2.5123-5.1875 4.9375 5.0823-1.8786 4.206 2.9512 0 2.7188-2.3546 2.6071-3.4505 0.2302-4.125-1.375-2.9724 1.4324-3.2648 5.1736-6.2812 7.125-2.02 2.2524-4.4393 6.031-0.28125 7.6562 1.1602 3.3134-4.01 4.4959-5.75 6.5625-2.254 4.0343-0.17472 0.4239-3.8125 0.5625-1.8759 0.4014-5.964-1.0212-5.4688 1.25-0.40751 2.986-1.6848 5.435-5.6875 10.406-3.3305 4.0207-4.819 7.1189-6.875 7.625-2.3165-0.474-1.0538-3.0651-0.15625-4.8125 0.68589-2.0046 2.1653-0.57665 2.6562-2.9062 0.70176-1.7196-2.5136-3.9986-0.375-5.4375 1.7736-0.0141 3.176-1.0102 2.9062-3-0.24171-2.0026 2.3168-3.7468 0.1875-5.5-0.96878-1.6803-1.1614-2.7021-2.3438-4.3125-0.41339-2.5965 2.8444-3.1936 1.5625-5.9688-0.82556-1.9862 1.7936-5.7138-0.1875-6.5625-2.4162-0.8015-4.5443-1.4528-6.5938-3.0938-1.27-2.1156 2.5566-3.562 3.0938-5.4375 0.77644-2.5641-0.83089-3.9217-3.0938-4.25-2.2403-0.39773-1.9019-3.6864-3.875-4.8438-1.4519-2.577-4.4538-3.6868-5.7812-6.1875-2.0324-1.8502-3.4073-4.6634-6.2188-5.2188-2.7914-0.56243-6.8928-0.74444-5.0312-4.6562 0.82611-0.94877 1.991-4.2008-0.375-4.0625-2.5868-0.97946-5.6942-0.34837-8.125-1.3438-0.23556-1.6993-2.8921-1.2156-4.5625-0.96875-1.4638-0.0124-1.6423 3.3781-3.9688 4.4375 0.88684 2.1727 3.4721 3.7802 1.75 6.9688 0.0711 1.7785-3.7766 4.9336-3.0938 1.375-0.19342-2.0754-2.6279-3.5813-4.25-3.0938-0.8588 2.17-2.1843 2.4134-4.2812 3.5312-2.0024 0.50198-3.019 2.8784-2.125 4.75-0.38138 2.1117-0.64607 4.831-2.875 5.4375-2.752-0.0388-3.5743-2.8303-3.875-5.0312-1.4156-1.7059-1.6783-2.7474-4.2812-3.875-2.7507-0.27986-5.7208-0.99521-8.5312-0.3125-1.4808 0.12903-2.0763 2.4997-3.6562 2.8438-1.36 1.6084-6.226 2.3523-4.625 5.4062 1.6801 2.9675-1.7364 6.0126 0.375 8.5312 1.8173 1.253 3.7414 2.266 5.8125 2.9062 1.3778 1.2786 5.1608 2.9385 2.7188 4.4375-1.0157 0.2156-2.861 2.3379-3.5 1.5625-2.1693 0.1538-2.9291-1.025-3.8125-1.4062-1.8355 1.7777-5.4081 1.8972-6.4375 0.0313-1.237-0.7963-4.2506 1.7127-5.1875 0.25-2.086-1.765-1.9721-5.0885-4.875-2.5625-2.1637 0.516-3.3837 2.6256-4.4688 4.4375-1.1989 1.8881-1.6656 2.7292-2.3125 5.0312-0.13789 2.6611-6.3154 0.33255-3.8125 3.5938 2.1314 1.7917 1.9697 3.17 4.2188 4.7188 1.8615 1.7169 4.5551 3.4414 2.875 6.4062-1.951 0.8417-4.4244-2.7409-5.5938 0.1875-1.6298 1.0875 0.91365 4.7222-2.5312 4.6562 0.44923 2.9221-2.9595 2.2266-4.625 3.0938-1.9112 1.1095-1.9218 3.915-3.0938 5.4062-2.0191 0.2934-3.1391-4.0494-5.4375-3.4688-1.5954 1.7109-1.0578 4.3773-1.1562 6.875 1.9393 4.1391-4.2673 0.3551-3.2812 4.75 4.9295 2.5665-1.5196 2.7446 0 5.0312 1.8386 3.2486-2.9311 3.3792-1.4688 4.875 102.4-3.4549 192.66-8.9228 287.25-13.031-0.72121-1.5504 3.1895-3.5584 1.5312-4.9688-1.4957-1.4974-6.4877-1.7648-6-4.0938 3.0738-2.4703 1.6024-6.3336 1.375-9.5938-1.4467-2.6624-0.11444-6.2213-1.9375-8.75-0.46702-3.2691 2.0469-5.0417 2.75-7.125-1.1119-2.0641-6.3125 0.77625-6.3125-2.3438 2.3314-3.601-2.3166-4.1498-2.9375-7.5312-0.80285-1.8148-3.6332-5.2266-6.0938-3.1562-3.782-0.16579-0.31404 5.2249-2.7188 1-2.031-4.654-7.14 0.59216-6.8438 2.875-1.3782 2.6956-4.1761 5.2295-2.75 8.625 0.65826 2.3179-0.47648 6.9923-1.3438 2.625 0.37427-3.4784-2.2926-6.037-2.2188-9.4688 1.1023-3.3831-2.1848-2.3778-4.375-2.4688 0.68192-3.2311-1.7969-3.5258-2.7188-5.75-0.4926-4.9383 5.5026-2.4529 7.375-5.1875 1.8095-2.435 0.31011-4.9554 0-8.2188 1.1974-1.6208 2.5454-3.6576 4.375-5.1875 2.0251-1.7874 3.763-3.6551 5.5-5.2188 3.1383-1.2565-0.5084-6.2524-1.375-4.6562-6.1571 1.1138-1.9812-7.2648-4.125-10.125-1.5965-2.139-2.7202-4.528-4.6562-7.125-0.61024-3.1946-5.511 4.7347-4.4062-0.0313 2.6553-3.4589-1.8511 0.54219-2.6875-2.1562 0.75456-2.5779 0.65181-6.0711-2.75-5.75-3.3757-0.58749-6.581-2.4588-10.438-2.1875z" fill="url(#aq)"/>
  <path d="m551.54 489.44c-2.6882 0.0451-3.2779 3.0361-4.1875 5.375-0.9577 2.5456-2.1223 4.9794-3.625 6.5625-3.139 1.6152-0.83237 6.6439-3.5 7.9688-1.7292 2.0334-2.6061 5.1847-4.9375 7.0938 0.0171 3.558-3.581 4.7531-5.75 6.3125-2.4332 4.0902-5.2983-0.21343-7.6562 0.53125-1.9101 2.7822-6.0904 1.7843-7.9375-0.28125-2.843-2.1272-3.2505 2.4534-2.4688 4.125 1.6295 2.3754 4.9492 5.3574 2.1875 7.9375-3.9426 0.87069-2.4921-3.8757-7.7812-3.2812-6.3495 2.1768-3.6596 5.1541-5 7.9375-0.6744 2.8628-3.3979 5.9886-6.0938 8.1875-2.8943 1.5567-7.3532 2.5302-8.2188 6.3125 1.2101 2.7364 1.1422 5.9131-2.1875 6.6875-6.8098 1.8867 1.1625 8.1602-2.7188 10.281-3.8296 0.7143-8.2087-2.1462-12.344-1.0938-3.5371 0.1718-4.5038 3.81-6.8125 5.75-0.22133 3.5779 4.2724 3.5417 5.1875 5.75 0.28809 3.2021-3.9682 3.9609-6.0312 5.1875-2.492 1.2809-5.8895 1.361-8.4688 2.4688-2.6292 1.7298-6.1024 1.0976-9.0625 0.5625-0.39944-2.7772 0.47112-5.7275 0.84375-8.5 2.4036-4.4041-1.5962-6.822-3.5625-9.5938 1.6094-3.8687 5.8462-2.4415 8.5-4.625 2.066-2.8543-1.7538-4.0464-4.125-3.3125-3.6605 2.1591-6.127-2.8693-3.5625-3.8125 2.8508-2.3786 3.7227-4.4064 5.75-7.4062 3.292-2.9943-0.71937-5.1299-3.7812-4.375-3.5683 1.1074-3.7846-2.125-3.0625-4.6562 3.1586-4.8955-2.9775-6.392-6.2812-7.9375-2.4298-3.3249-4.7395-6.2294-7.9375-9.0312-1.4102-4.0666-4.3013 0.1362-6.5625 0.84375-3.7279-0.45318-1.2273-6.6454-1.375-9.0625 0.9142-1.9358 2.4924-7.37-1.9062-7.375-0.10506 3.0525 0.42769 6.4848-1.0938 9.0312-2.8323 1.8347-3.8307 4.5581-7.4062 4.9375-2.3062-0.77398-4.7567-6.2764-6.2812-0.5625-0.22735 3.3727 0.74316 6.4681 3.2812 8.7812 2.7596 2.8368-1.4915 7.9388-5.5 5.1875-4.0588 0.2355-5.2465-3.6496-7.6562-5.75-4.5524 1.8933-6.4886-1.8459-6.5625-5.4688-0.80791-2.8344-3.6822-4.7398-6.5625-3.2812-2.5964 1.3142-5.8918 4.6386-3.2812 7.6562 3.9495 2.6778 7.7681 4.9915 10.938 8.75 0.74977 2.35-0.15569 6.3221-1.9062 7.9375-0.34458 3.7327-7.4051 4.814-8.5 0.8125-3.1248-2.7529-6.578-0.6246-9.2812 1.375-2.0757-2.0806-9.2622-5.1374-7.6875 1.0938 1.9872 3.1844 6.39 2.3594 9.7812 2.4688 4.2052-0.4788 2.8605 7.1755-1.2812 3.5625-4.184 0.6926-1.7917 8.4569 2.4688 7.9375-1.5087 2.2847-3.6118 6.3848-6.8438 5.75-4.3408 1.4219-4.7828-4.313-8.5312-4.0938-3.1978-0.0307-6.003 3.5468-4.875 6.8125 0.50983 2.4003-0.22138 5.7186 3 7.9375 2.1157 5.1983-4.9432 2.2098-7.6562 3.0312-1.6361-2.6229-5.3474-3.2474-6.5625 0.8125 0.19808 5.0477-4.1535-1.5732-5.2188 2.4688-3.8327-0.2056-2.2858 4.24-0.375 7.4688l11.531-0.34375 15.688-2.3438c2.544-1.4904 4.1031-4.2385 6.5-5.6875 2.1351-1.7937 4.0105 1.6958 6.25 1.7188 2.1235-0.6382 1.2307-3.8779 0.90625-5.75-0.0917-2.8244 3.7181-2.5173 4.7812-4.25 1.5203-2.1685 3.2629 0.2862 4.25 2.0625 1.29 1.036 1.3162 3.126 2.4688 4.375 1.8744 2.0732 1.3066-1.6437 1.375-3-0.54239-2.1267-0.0378-4.4913-0.8125-6.5625 0.10122-1.8051-0.11368-3.616-0.5625-5.2188 0.38918-2.1814-1.061-3.5537-1.0938-5.625-0.3714-2.1459-1.5931-5.9886 1.9062-5.0312 3.3282-0.44 1.7671 4.1318 2.75 6-0.0698 2.9857 2.0198 5.1416 1.9062 8.2188 0.85155 1.5939-0.12873 7.0154 2.8125 5.625 1.9132-2.6354 2.9703-5.4202 2.9375-8.625 0.14952-2.2736-0.38953-4.4456-0.25-6.7188-0.0575-2.59 0.37044-4.9294 1.6875-7.125 1.1612-2.0449 2.2594-3.1276 3.2188-4.9375-0.10806-0.0913 2.9963-3.3054 4.5312-4.0625 1.4489-1.4428 2.8104-2.4644 4.2188-3.7188 0.7045-0.5099 3.2965-3.845 2.75-1.0625-0.13885 2.3727 1.1088 4.4262 1.0938 6.75 0.28208 2.0803 0.87234 4.2134 1.125 6.0312 0.50027 1.7761 0.57505 3.597 0.53125 5.5312 0.19097 3.1472-1.4101 5.4578-2.4688 8.2188-0.50067 2.5263-2.3486 4.1104-2.4375 6.8438 0.19165 1.6564-2.6963 5.2324-0.65625 5.75 1.4458-1.6035 3.1341-2.5268 5-3.8438 1.5043-1.5991 3.1236-2.416 4.375-4.25 0.85866-1.7711 2.4679-2.682 4.125-3.9688 2.3441-1.3382 4.9097-2.6133 6.5625-3.8125 1.8448-1.0296 3.6993-1.5394 5.375-2.7812 0.0137 0.895-1.6255 3.5681-2.375 4.6875-1.1306 1.4915-2.0794 2.862-2.7188 4.6562-1.0364 2.4745-1.8154 5.0499-2.4688 7.375-0.13679 2.9632-2.5349 5.64-3.6875 7.9688-0.52748 1.0862-3.8429 3.6082-0.96875 3.5312 14.255-2.286 30.787-0.0806 49-3 1.231-2.0469 3.6334-3.5483 6.2812-4.375 2.5675-0.9979 5.4414-2.0962 8.4688-2.4688 1.9704-2.5348 6.1201-3.8266 6.8438-0.28125 2.4605 5.5229 1.4286-1.2831 1.0938-3.5625-0.39999-3.4332-5.7051-5.755-0.8125-8.4688 2.4162-1.1721 0.90069-7.3583 4.6562-6.3125 3.0642 2.1013 4.3378 6.301 7.125 9.0312 1.5106 2.5115 2.1052 5.5162 3.8125 7.9375 1.3775-0.2831 0.48549-4.7658 0.28125-6.8438-0.0843-3.9841-1.035-7.7368-2.1875-11.469-0.60026-2.9397-0.70443-6.1786-0.8125-9.3125 1.0685-2.8191-3.677-6.2866-0.28125-7.6562 4.0896-0.3443 4.3036 3.878 6.5625 6.2812 1.6045 2.6628 3.5546 5.3511 4.125 8.75 0.82501 2.4198 1.8719 8.781 3.5625 8.7812 2.037-3.8741-0.23615-8.061-0.28125-12.062-0.38357-3.8908-2.1555-5.7965-3.0312-9.625 0.7748-3.6995 2.7509 2.7154 3.5625 3.875 1.5526 1.6755 2.206 5.3612 2.75 8.2188-0.78507 6.494 3.2348-2.2531 2.1875-4.375-1.5123-2.934-1.8267-6.2304-1.6562-9.5938 2.2135-2.2218 5.0396-3.5112 7.9062-4.875 4.4311-3.708 1.3751 0.20785 1.125 2.9688-1.2652 2.1323 0.16264 5.265-1.625 7.125-1.6359 3.3661 0.18972 6.1568 3.1562 3.1562 2.4404-1.4944 3.8818-2.7463 5.3438-5.3125 0.96084-4.1878 0.88214-8.6455 2.1562-12.906 0.49-3.4568 4.0788-3.5768 6.3125-5.75 2.6877-1.8166 9.3802-7.5845 6.8438-0.8125 0.36428 3.0771-0.78063 5.7828-1.0938 8.75-0.67946 3.1977-2.6302 6.0712-3.0312 9.5938-1.2814 2.285-2.2981 5.1662-3.2812 7.6562-1.5406 2.491-3.945 5.5058-4.375 7.6562 1.5908 3.9331 6.8357-2.1249 8.75-3.8125 3.5236-0.8333 3.0361-5.9669 6.5938-6.3125 1.0747 1.997 3.5834 3.5515 3.8125 6.3125-0.67714 3.9703-6.0136 4.7882-7.6562 8.1875-2.1195 2.2826-4.5506 4.7876-3.2812 8.2188 1.4704 1.2995 4.2149-1.25 5.75-1.6562 3.8357-0.8757 6.3544-3.8343 9.5625-6 3.6691-2.4206 6.8936 2.246 7.9375 5.1875 1.1927 2.3839 2.6097 3.8158 4.125 6.0312 1.8165 1.818 1.282 4.5432 3.2812 5.75 0.13758 0.11171 0.25975 0.19452 0.40625 0.28125 2.522-0.12866 5.0536-0.27918 7.6562-0.40625 0.52153-0.0911 1.0219-0.15466 1.5-0.15625 0.16798 0.0245 0.33995 0.0471 0.5 0.0625 0.70727-0.0341 1.3491-0.091 2.0625-0.125 2.4075-0.54225 3.1463-2.7267 1.8438-5.9688-1.8199-1.5281-2.9693-3.8134-1.6562-6.2812 1.5456-2.6794 3.8531-4.3763 6.5625-5.1875 3.4531-1.4288 0.74696-6.2323-0.53125-8.5-0.71105-2.6233-0.58741-5.9806-2.4688-8.4688-1.7358-2.4173-8.5588-1.5892-8.5 1.3438 2.1203 4.2069-1.3789 8.6972-5.9062 8.2188-3.211 0.7979-4.5372-1.5256-5.0312-4.0938-0.83513-3.0247-2.0664-6.4284-5.4688-7.4062-2.1451-0.9962-4.7654-2.6065-7.6562-3-1.3696-1.8008-0.064-5.6048-0.28125-7.9375 0.52857-3.429 1.035-8.1165 4.375-9.3125 3.4266-1.1947 3.0464-5.2844 4.0938-7.9375 2.9003-3.5483-1.2355-5.4536-3-7.375 1.6564-2.5536 0.49299-5.854-2.1875-6.5938-3.1609-1.202-2.0425-5.2411-4.0938-7.0938-1.9252-2.2206-5.8048-1.224-6.3125-4.375 0.28618-4.1155-2.6178-5.1147-6.2812-4.9375-0.47572-0.12413-0.89722-0.19394-1.2812-0.1875z" fill="url(#ar)"/>
 </g>
 <path d="m746 451.47c-2.4463-0.14477-5.7468 4.4805-7.0312 6.4062-2.0369 2.0168-1.2986-6.5987-4.25-2.8125-1.9997 1.2657-4.0456 7.2172-4.9375 6.0625-1.3016-5.3902-8.3126-2.428-6.4375 2.5312 1.3932 3.5155-1.5528 4.6488-4.5312 4.4062-0.95374 2.1345 1.2202 5.1526-2.75 5.5 0.10944 3.1458-1.9881 9.7518-6.0625 5.1875-2.2739-3.3738-7.438-0.30058-8.625-4.9688-3.775-1.5276-8.9846-2.1964-12.5 0.28125-3.2538 1.7577-4.8102 7.0798-9.2812 5.75-2.0962 1.7601-3.4879 4.7821-6.6875 3.2812-1.6745 0.70108-5.0441 6.8642-2.625 11.406l121.53 2.5c9e-3 -4.1214 0.0118-8.1898 0.0313-12.156-0.53556-1.5731-1.2706-3.2006-2.3125-4.875-2.8617-6.4642-11.661-2.0885-8.5625-6.7812 3.0606 0.12435 5.2012-2.9281 1.5312-4.25-1.4602-1.6647-6.7218-0.56925-2.6875-3.0625 2.6775-4.6982-8.5289 0.12191-6.7812-5.125 1.9303-6.2499-8.6351-6.762-6.2812-0.59375 0.16942 0.4632 0.23471 0.71259 0.28125 0.84375-0.40597-0.81156-2.6084-5.3697-4.1562-2.7188-0.89942 3.0611-3.6663 7.6344-5.8125 2.5312-2.9991-2.9379-9.0781-1.5056-9-7.3438-0.5176-1.3834-1.2471-1.9517-2.0625-2z" fill="url(#as)"/>
 <path d="m711.54 418.42c0.95113 0.0386 1.6175-0.91138 0.477-1.3222-0.45375-0.51733-2.0946-0.17303-0.84088-0.94785 0.83212-1.46-2.641 0.0401-2.0979-1.5904 0.59984-1.9423-2.6876-2.1053-1.956-0.18845 0.44007 1.2033-0.56182-1.6815-1.2032-0.58305-0.27947 0.9513-1.1433 2.3726-1.8103 0.78666-0.93198-0.91301-2.8196-0.46574-2.7953-2.2801-0.64348-1.7196-2.2927 0.56685-2.8248 1.3648-0.63309 0.62675-0.40519-2.05-1.3223-0.8734-0.62146 0.39333-1.2517 2.248-1.5288 1.8891-0.4045-1.6751-2.5909-0.75702-2.0083 0.78415 0.43309 1.0925-0.48371 1.4432-1.4093 1.3678-0.29644 0.66335 0.38576 1.6043-0.84799 1.7123 0.0342 0.97762-0.62461 3.0296-1.8908 1.6111-0.70668-1.0485-2.3084-0.0971-2.6773-1.5478-1.1732-0.47472-2.7927-0.683-3.8851 0.087-1.0112 0.54623-1.4887 2.2052-2.8783 1.792-0.65142 0.54699-1.0844 1.4879-2.0787 1.0215-0.52037 0.21787-1.5731 2.1308-0.82145 3.5423l36.962 0.69192c1.7716-1.7333 0.84785-3.4666 0.12175-5.1998-0.88931-2.0089-3.6471-0.65919-2.6842-2.1176z" fill="url(#bf)"/>
 <path d="m664.08 426.51c-1.3834 0.0551-2.3525-1.3014-0.69382-1.8881 0.6599-0.73876 3.0463-0.2471 1.2229-1.3536-1.2102-2.085 3.8409 0.0572 3.0511-2.2712-0.87234-2.7736 3.9088-3.0064 2.8448-0.26911-0.63993 1.7183 0.81721-2.4011 1.75-0.83259 0.40642 1.3584 1.6629 3.388 2.6329 1.1234 1.3555-1.3038 4.1008-0.66507 4.0654-3.2559 0.93582-2.4556 3.3344 0.80945 4.1082 1.949 0.92077 0.89501 0.58931-2.9274 1.9231-1.2472 0.90394 0.56168 1.8205 3.2101 2.2235 2.6976 0.58836-2.392 3.7682-1.081 2.9208 1.1198-0.62981 1.5601 0.70353 2.0609 2.0496 1.9533 0.43118 0.94726-0.56099 2.291 1.2333 2.4452-0.0492 1.396 0.90832 4.3262 2.7498 2.3007 1.0277-1.4972 3.3572-0.13868 3.8939-2.2103 1.7061-0.6779 4.0616-0.97532 5.6503 0.12421 1.4707 0.78003 2.1652 3.1491 4.1862 2.5589 0.9473 0.78109 1.5771 2.1248 3.0232 1.4587 0.75689 0.31113 2.288 3.0428 1.1948 5.0584l-53.757 0.98807c-3.8992-2.4751-2.3819-4.9502-0.17702-7.4254 1.2934-2.8687 5.3042-0.94131 3.9038-3.0239z" fill="url(#be)"/>
 <path d="m620.09 421.23c2.0441 0.0747 3.4761-1.7654 1.0251-2.5612-0.97521-1.0021-4.5005-0.33518-1.8069-1.8361 1.7882-2.8283-5.6745 0.0776-4.5078-3.0809 1.289-3.7624-5.7748-4.0783-4.2027-0.36505 0.94525 2.3309-1.2076-3.2572-2.5857-1.1294-0.6004 1.8428-2.4567 4.5959-3.8899 1.5238-2.0027-1.7686-6.0588-0.90217-6.0064-4.4167-1.3829-3.3311-4.9264 1.098-6.07 2.6438-1.36 1.2141-0.87057-3.9711-2.8412-1.6919-1.3352 0.76191-2.6892 4.3545-3.2848 3.6594-0.8692-3.2448-5.5673-1.4664-4.3153 1.519 0.93048 2.1163-1.0395 2.7957-3.0282 2.6497-0.63719 1.285 0.8287 3.1077-1.8222 3.3169-4.1079 15.846 2.8162 13.336 48.843 13.943 2.4044-3.2213 2.2414-6.5935 0.2621-10.073-1.9108-3.8914-7.8367-1.2769-5.7677-4.1019z" fill="url(#bd)"/>
 <path d="m557.16 435.27c-1.473 0.0486-2.505-1.1485-0.73869-1.6662 0.70272-0.65192 3.244-0.21805 1.3023-1.1945-1.2888-1.8399 4.09 0.0505 3.249-2.0042-0.92897-2.4476 4.1622-2.6531 3.0293-0.23749-0.68151 1.5164 0.87001-2.119 1.8634-0.73474 0.43282 1.1988 1.7708 2.9899 2.8037 0.99133 1.4435-1.1506 4.3668-0.58691 4.3291-2.8733 0.99655-2.167 3.5506 0.71433 4.3748 1.7199 0.9804 0.78982 0.62747-2.5834 2.0477-1.1006 0.96248 0.49566 1.9385 2.8328 2.3678 2.3806 0.62638-2.1109 4.0126-0.95399 3.1103 0.98818-0.67084 1.3768 0.74909 1.8187 2.1826 1.7237 0.45908 0.83594-0.59752 2.0217 1.3132 2.1578-0.0534 1.232 0.96727 3.8178 2.9282 2.0303 1.0945-1.3213 3.5751-0.12243 4.1465-1.9506 1.8169-0.59823 4.325-0.86069 6.0169 0.10971 1.566 0.68837 2.3057 2.779 4.4576 2.2582 1.0089 0.6893 1.6794 1.8751 3.2195 1.2873 0.80586 0.27456 2.4363 2.6852 1.2722 4.4639l-57.244 0.87196c-3.2115-2.5341-1.4584-4.5166-0.1885-6.5528 1.3772-2.5316 5.6482-0.8307 4.157-2.6685z" fill="url(#bc)"/>
 <path d="m602.64 443.48c0.82159 0.0492 1.3971-1.1636 0.41203-1.6882-0.39192-0.66054-1.8088-0.22094-0.72625-1.2102 0.71872-1.8642-2.2806 0.0512-1.8117-2.0307 0.51804-2.4799-2.321-2.6881-1.6891-0.24061 0.37988 1.5364-0.48535-2.1469-1.0392-0.74444-0.2413 1.2146-0.98738 3.0293-1.5634 1.0044-0.8049-1.1657-2.4351-0.59464-2.414-2.9112-0.5558-2.1956-1.98 0.72376-2.4396 1.7426-0.54663 0.80024-0.34992-2.6175-1.142-1.1152-0.53665 0.5022-1.0808 2.8702-1.3202 2.412-0.34937-2.1388-2.2376-0.96656-1.7344 1.0012 0.374 1.3949-0.41777 1.8427-1.2171 1.7465-0.25608 0.84695 0.3331 2.0484-0.7324 2.1863 0.0301 1.2482-0.53938 3.8681-1.6328 2.0571-0.61024-1.3387-1.9936-0.12407-2.3122-1.9763-1.0131-0.60612-2.4118-0.87204-3.3552 0.11108-0.87329 0.69745-1.2857 2.8156-2.4858 2.288-0.5625 0.69839-0.9365 1.8998-1.7952 1.3043-0.44937 0.27819-1.3586 2.7206-0.70941 4.5228l31.921 0.88344c1.463-1.9275 2.46-3.9481 0.10533-6.6391-0.76796-2.5649-3.1497-0.84165-2.3181-2.7037z" fill="url(#bb)"/>
 <g transform="matrix(1.3679 0 0 1.3679 -963.95 -388.04)" fill="#25c6e9">
  <path d="m1131.6 478.26h2.2964l1.1318 4.5272-2.2807 0.0586z"/>
  <path d="m1133.7 485.33h2.2964l1.1318 4.5272-2.2807 0.0586z"/>
  <path d="m1135.2 479.25h2.2925l1.1299 5.0771-2.2768 0.0657z"/>
  <path d="m1139.3 477.55h2.2925l1.1299 5.0771-2.2768 0.0657z"/>
  <path d="m1143.4 479.66h2.2925l0.6175 5.0771-2.2834 0.0657z"/>
  <path d="m1147 477.36h2.2925l0.6175 5.0771-2.2834 0.0657z"/>
  <path d="m1151.2 478.76h2.2925l0.6175 5.0771-2.2834 0.0657z"/>
  <path d="m1154.9 477.81h2.2925l0.6175 5.0771-2.2834 0.0657z"/>
  <path d="m1159 479.76h2.2925l0.6175 5.0771-2.2834 0.0657z"/>
  <path d="m1162.2 477.96h2.2925l0.6175 5.0771-2.2834 0.0657z"/>
  <path d="m1166.7 479.46h2.2925l-0.057 5.0771-2.2921 0.0657z"/>
  <path d="m1170.7 479.06h2.2925l-0.057 5.0771-2.2921 0.0657z"/>
  <path d="m1174.2 481.71h2.2925l-0.057 5.0771-2.2921 0.0657z"/>
  <path d="m1182 483.86h2.2925l-0.057 5.0771-2.2921 0.0657z"/>
  <path d="m1178.5 486.71h2.2925l-0.057 5.0771-2.2921 0.0657z"/>
  <path d="m1178.2 509.89h2.2925l-0.057 5.0771-2.2921 0.0657z"/>
  <path d="m1171.6 486.76h2.2925l-0.057 5.0771-2.2921 0.0657z"/>
  <path d="m1167.7 488.36h2.2925l-0.057 5.0771-2.2921 0.0657z"/>
  <path d="m1163.9 485.26h1.7249l-0.043 5.0908-1.7246 0.0659z"/>
  <path d="m1160.8 486.66h1.7178l-0.043 5.9667-1.7176 0.0772z"/>
  <path d="m1156.7 485.56h2.2925l-0.057 5.0771-2.2921 0.0657z"/>
  <path d="m1153.1 487.21h2.2925l-0.057 5.0771-2.2921 0.0657z"/>
  <path d="m1153.1 487.21h2.2925l-0.057 5.0771-2.2921 0.0657z"/>
  <path d="m1148.5 485.16h2.2925l0.6175 5.0771-2.2834 0.0657z"/>
  <path d="m1144.5 485.96h2.2925l0.6175 5.0771-2.2834 0.0657z"/>
  <path d="m1140.8 484.16h2.2925l0.6175 5.0771-2.2834 0.0657z"/>
  <path d="m1137.6 485.91h2.2925l0.6175 5.0771-2.2834 0.0657z"/>
  <path d="m1139.4 495.22h2.2925l0.6175 5.0771-2.2834 0.0657z"/>
  <path d="m1143.5 496.67h2.2925l0.6175 5.0771-2.2834 0.0657z"/>
  <path d="m1147.5 494.77h2.2925l0.6175 5.0771-2.2834 0.0657z"/>
  <path d="m1151.4 496.72h2.2925l0.6175 5.0771-2.2834 0.0657z"/>
  <path d="m1154.7 494.87h2.2925l0.6175 5.0771-2.2834 0.0657z"/>
  <path d="m1159.1 497.52h2.2925l0.6175 5.0771-2.2834 0.0657z"/>
  <path d="m1156.1 501.47h2.2925l0.6175 5.0771-2.2834 0.0657z"/>
  <path d="m1153 503.82h2.2925l0.6175 5.0771-2.2834 0.0657z"/>
  <path d="m1148.9 501.77h2.2925l0.6175 5.0771-2.2834 0.0657z"/>
  <path d="m1146 503.67h2.2925l0.6175 5.0771-2.2834 0.0657z"/>
  <path d="m1141.7 502.02h2.2925l0.6175 5.0771-2.2834 0.0657z"/>
  <path d="m1160.1 504.62h2.2925l0.6175 5.0771-2.2834 0.0657z"/>
  <path d="m1163.7 500.22h2.2925l-0.057 5.0771-2.2921 0.0657z"/>
  <path d="m1167.3 499.17h2.2925l-0.057 5.0771-2.2921 0.0657z"/>
  <path d="m1171.6 493.87h2.2843l-0.057 5.9542-2.2839 0.0771z"/>
  <path d="m1167.3 506.1h2.2925l-0.057 5.0771-2.2921 0.0657z"/>
  <path d="m1163.8 507.72h2.2925l-0.057 5.0771-2.2921 0.0657z"/>
  <path d="m1171.5 502.08h2.2843l-0.057 5.9542-2.2839 0.0771z"/>
  <path d="m1171.6 510.14h2.2843l-0.057 5.9542-2.2839 0.0771z"/>
  <path d="m1175.2 489.2h2.2843l-0.057 5.9542-2.2839 0.0771z"/>
  <path d="m1185.8 486.13h2.2925l-0.057 5.0771-2.2921 0.0657z"/>
  <path d="m1188.9 486.97h2.2925l-0.057 5.0771-2.2921 0.0657z"/>
  <path d="m1192.4 490.65h2.2925l-0.057 5.0771-2.2921 0.0657z"/>
  <path d="m1194.7 499.85h2.2925l-0.057 5.0771-2.2921 0.0657z"/>
  <path d="m1191.3 497.16h2.2925l-0.057 5.0771-2.2921 0.0657z"/>
  <path d="m1190 503.95h2.2925l-0.057 5.0771-2.2921 0.0657z"/>
  <path d="m1193.6 506.79h2.2834l-0.057 6.0419-2.283 0.0782z"/>
  <path d="m1192.9 514h2.2834l-0.057 6.0419-2.283 0.0782z"/>
  <path d="m1189.7 510.99h2.2843l-0.057 5.9542-2.2839 0.0771z"/>
  <path d="m1182.5 502.67h2.2925l-0.057 5.0771-2.2921 0.0657z"/>
  <path d="m1186 505.22h2.2847l-0.057 5.9041-2.2843 0.0764z"/>
  <path d="m1184.9 512.3h2.2847l-0.057 5.9041-2.2843 0.0764z"/>
  <path d="m1181.5 508.48h2.2847l-0.057 5.9041-2.2843 0.0764z"/>
  <path d="m1178.6 493.16h2.2843l-0.057 5.9542-2.2839 0.0771z"/>
  <path d="m1182 490.72h2.2925l-0.057 5.0771-2.2921 0.0657z"/>
 </g>
</svg>
