<?xml version="1.0" encoding="UTF-8"?>
<svg id="Ebene_1" xmlns="http://www.w3.org/2000/svg" xmlns:xlink="http://www.w3.org/1999/xlink" version="1.1" viewBox="0 0 287.2 811.4">
  <!-- Generator: Adobe Illustrator 29.8.4, SVG Export Plug-In . SVG Version: 2.1.1 Build 6)  -->
  <defs>
    <style>
      .st0 {
        fill: none;
      }

      .st1 {
        fill: url(#Unbenannter_Verlauf_12);
      }
    </style>
    <linearGradient id="Unbenannter_Verlauf_12" data-name="Unbenannter Verlauf 12" x1="146.2" y1="1018.2" x2="146.2" y2="1132.3" gradientTransform="translate(0 1202) scale(1 -1)" gradientUnits="userSpaceOnUse">
      <stop offset="0" stop-color="#696778"/>
      <stop offset="1" stop-color="#110519"/>
    </linearGradient>
  </defs>
  <path class="st1" d="M173.2,85.2c-1-1-2-1.9-3-2.7,0,0,0,0,0,0-.3-.2-.6-.5-.8-.7-4.1-3.4-7.7-5.7-11-7-11.7-9.4-42.2-6-49.3,13.7-7.3,20.2-1.6,31.9-1.6,31.9,3.2-1.1,4.7.4,4.7.4,0,0,1-17.9,6.3-25s12.9-2.6,12.9-2.6c0,0,13.5-.1,19.3,6.9,5.8,7.1,9.2,9.7,10.9,29.1.5,5.7,2,18.3,1.7,31.3-.3,13-2.8,23.5-2.8,23.5,0,0,9.7-2.6,16.8-8.6,7.1-6,8.1-16.9,8.9-20.7.8-3.8,4.7-52.3-13-69.4Z"/>
  <rect class="st0" x="-90.9" y="-45" width="450" height="891"/>
</svg>